<?xml version="1.0" encoding="UTF-8"?>
<svg width="20px" height="20px" viewBox="0 0 20 20" version="1.1" xmlns="http://www.w3.org/2000/svg" xmlns:xlink="http://www.w3.org/1999/xlink">
    <!-- Generator: Sketch 50.2 (55047) - http://www.bohemiancoding.com/sketch -->
    <title>document</title>
    <desc>Created with Sketch.</desc>
    <defs></defs>
    <g id="Page-1" stroke="none" stroke-width="1" fill="none" fill-rule="evenodd">
        <g id="main-v6-slide-1" transform="translate(-391.000000, -4467.000000)" fill="#D1F0FF" fill-rule="nonzero">
            <g id="Footer" transform="translate(276.000000, 4427.000000)">
                <g id="document" transform="translate(115.000000, 40.000000)">
                    <rect id="Rectangle-path" x="5.9047619" y="12" width="6.28571429" height="1"></rect>
                    <rect id="Rectangle-path" x="5.9047619" y="10.4761905" width="6.28571429" height="1"></rect>
                    <rect id="Rectangle-path" x="5.9047619" y="8.95238095" width="6.28571429" height="1"></rect>
                    <rect id="Rectangle-path" x="5.9047619" y="13.7142857" width="6.28571429" height="1"></rect>
                    <path d="M10,0 C4.47715621,0 0,4.47715621 0,10 C0,15.5228438 4.47715621,20 10,20 C15.5228438,20 20,15.5228438 20,10 C20,4.47715621 15.5229105,0 10,0 Z M13.4430022,14.1304826 L13.4430022,15.3455069 C13.4430022,16.016587 12.899058,16.5605312 12.2283112,16.5605312 L5.69698061,16.5605312 C5.02590052,16.5605312 4.48195631,16.016587 4.48195631,15.3455069 L4.48195631,6.38432769 C4.48195631,5.7132476 5.02576718,5.16930339 5.69698061,5.16930339 L12.2282446,5.16930339 C12.8993247,5.16930339 13.4431355,5.7132476 13.4429355,6.38452769 C13.4430022,6.38452769 13.4430022,7.59935199 13.4430022,7.59935199 L13.4430022,14.1304826 Z M14.9993667,12.5742515 L14.9993667,13.7887424 C14.9993667,14.3378868 14.6348927,14.8016294 14.134616,14.952099 L14.134616,14.1304159 L14.134616,7.59915198 L14.134616,6.38432769 C14.134616,5.33303999 13.2793989,4.47768955 12.2283112,4.47768955 L6.09005513,4.47768955 C6.24065815,3.97747955 6.70406741,3.61293893 7.25341173,3.61293893 L13.7846757,3.61293893 C14.4554224,3.61293893 14.9993667,4.15708314 14.9991666,4.82816323 L14.9991666,6.04305419 L14.9993667,6.04305419 L14.9993667,12.5742515 Z" id="Shape"></path>
                    <rect id="Rectangle-path" x="5.9047619" y="7.42857143" width="6.28571429" height="1"></rect>
                </g>
            </g>
        </g>
    </g>
</svg>