<?xml version="1.0" encoding="UTF-8"?>
<svg width="20px" height="20px" viewBox="0 0 20 20" version="1.1" xmlns="http://www.w3.org/2000/svg" xmlns:xlink="http://www.w3.org/1999/xlink">
    <!-- Generator: Sketch 50.2 (55047) - http://www.bohemiancoding.com/sketch -->
    <title>Combined Shape Copy</title>
    <desc>Created with Sketch.</desc>
    <defs></defs>
    <g id="Page-1" stroke="none" stroke-width="1" fill="none" fill-rule="evenodd">
        <g id="main-v6-slide-1" transform="translate(-393.000000, -4686.000000)" fill="#D1F0FF">
            <g id="Footer" transform="translate(276.000000, 4427.000000)">
                <g id="Group-7" transform="translate(115.000000, 255.000000)">
                    <path d="M12,24 C6.4771525,24 2,19.5228475 2,14 C2,8.4771525 6.4771525,4 12,4 C17.5228475,4 22,8.4771525 22,14 C22,19.5228475 17.5228475,24 12,24 Z M7.31377963,11.1996736 C7.58581736,11.3422198 11.3542089,13.3182807 11.4946874,13.3917301 C11.6351659,13.4651795 11.816896,13.5 11.9997411,13.5 C12.1825861,13.5 12.3643162,13.4651795 12.5047947,13.3917301 C12.6452732,13.3182807 16.4136648,11.3422198 16.6857025,11.1996736 C16.9582977,11.0565832 17.2158416,10.5 16.715805,10.5 L7.28423455,10.5 C6.78419798,10.5 7.0417419,11.0565832 7.31377963,11.1996736 Z M16.7849996,12.5460765 C16.4766663,12.7142922 12.6811112,14.7864303 12.4922224,14.8900372 C12.3033335,14.9936442 12.1711113,15.0058674 11.9888891,15.0058674 C11.8066669,15.0058674 11.6744447,14.9936442 11.4855558,14.8900372 C11.296667,14.7864303 7.5227786,12.7137101 7.21444531,12.5454944 C6.99777868,12.4267539 7.0000009,12.5658666 7.0000009,12.6729658 L7.0000009,16.9179387 C7.0000009,17.1624045 7.3144453,17.5 7.55555638,17.5 L16.4444441,17.5 C16.6855551,17.5 16.9999995,17.1624045 16.9999995,16.9179387 L16.9999995,12.6735479 C16.9999995,12.5664486 17.0022218,12.427336 16.7849996,12.5460765 Z" id="Combined-Shape-Copy"></path>
                </g>
            </g>
        </g>
    </g>
</svg>