<?xml version="1.0" encoding="UTF-8"?>
<svg width="20px" height="20px" viewBox="0 0 20 20" version="1.1" xmlns="http://www.w3.org/2000/svg" xmlns:xlink="http://www.w3.org/1999/xlink">
    <!-- Generator: Sketch 50.2 (55047) - http://www.bohemiancoding.com/sketch -->
    <title>pdf</title>
    <desc>Created with Sketch.</desc>
    <defs></defs>
    <g id="Page-1" stroke="none" stroke-width="1" fill="none" fill-rule="evenodd">
        <g id="main-v6-slide-1" transform="translate(-392.000000, -4577.000000)" fill="#D1F0FF">
            <g id="Footer" transform="translate(276.000000, 4427.000000)">
                <g id="pdf" transform="translate(116.000000, 150.000000)">
                    <path d="M10,20 C4.4771525,20 0,15.5228475 0,10 C0,4.4771525 4.4771525,0 10,0 C15.5228475,0 20,4.4771525 20,10 C20,15.5228475 15.5228475,20 10,20 Z M14.4267578,6.57325 L11.92675,4.07324219 C11.879875,4.02636719 11.8164063,4 11.7499844,4 L6.49998438,4 C5.94847656,4 5.5,4.44847656 5.5,5.00000781 L5.5,15.0000156 C5.5,15.5515234 5.94847656,16 6.50000781,16 L13.5000156,16 C14.0515234,16 14.5,15.5515234 14.5,14.9999922 L14.5,6.74999219 C14.5,6.68359375 14.4736328,6.620125 14.4267578,6.57325 Z" id="Combined-Shape"></path>
                    <path d="M11.4870898,11.8956367 C11.2170703,11.6831484 10.9604492,11.4646992 10.7895508,11.2938008 C10.5673828,11.0716328 10.3694141,10.8563008 10.1973945,10.6512227 C10.4657188,9.82207813 10.5833516,9.39455859 10.5833516,9.16667578 C10.5833516,8.19854297 10.2335703,8 9.70835156,8 C9.30929688,8 8.83335156,8.20734766 8.83335156,9.19459375 C8.83335156,9.62982422 9.07176172,10.1581875 9.54428906,10.7722734 C9.42865234,11.1251719 9.29278125,11.5322109 9.14012109,11.9910664 C9.06662109,12.2112383 8.98688672,12.415168 8.90255859,12.6037305 C8.83392578,12.6342187 8.76726172,12.6652539 8.70289453,12.6974375 C8.47104688,12.813375 8.250875,12.9176094 8.04664453,13.0144609 C7.11523438,13.4553789 6.5,13.7470547 6.5,14.3229688 C6.5,14.7411094 6.95431641,15 7.375,15 C7.91730859,15 8.73619922,14.2756641 9.33434375,13.0554492 C9.95526563,12.8105039 10.7271797,12.6290508 11.3364258,12.5154102 C11.8246211,12.8908125 12.3638125,13.25 12.625,13.25 C13.3481875,13.25 13.5,12.8318594 13.5,12.4812305 C13.5,11.7916484 12.7121445,11.7916484 12.3333242,11.7916484 C12.2156914,11.7916758 11.9001172,11.8264297 11.4870898,11.8956367 Z M7.375,14.4166758 C7.20836719,14.4166758 7.09557422,14.3380625 7.08332422,14.3229688 C7.08332422,14.116168 7.69998047,13.8239453 8.29642969,13.5414023 C8.33430078,13.5234648 8.37277344,13.5055 8.41179297,13.4869883 C7.97371875,14.1221836 7.54048438,14.4166758 7.375,14.4166758 Z M9.41667578,9.19459375 C9.41667578,8.58335156 9.60638672,8.58335156 9.70835156,8.58335156 C9.91457813,8.58335156 10.0000273,8.58335156 10.0000273,9.16667578 C10.0000273,9.28972266 9.91799609,9.59733984 9.76787891,10.0775781 C9.53884766,9.72495313 9.41667578,9.42275 9.41667578,9.19459375 Z M9.64026563,12.3294453 C9.65850391,12.27875 9.67616797,12.2274805 9.69325781,12.1756367 C9.80148438,11.8509297 9.89891016,11.5592539 9.98578125,11.2966445 C10.106832,11.4299453 10.2372891,11.5663906 10.3771523,11.7062266 C10.4318398,11.7609141 10.5674102,11.8839609 10.7480156,12.038043 C10.3885,12.1163828 10.0059883,12.2135078 9.64026563,12.3294453 Z M12.9166758,12.4812578 C12.9166758,12.6122891 12.9166758,12.6666758 12.646082,12.6683984 C12.5666211,12.6513086 12.3828984,12.543082 12.1561641,12.3886992 C12.2384688,12.3795938 12.2991445,12.3750273 12.3333242,12.3750273 C12.7642891,12.3750273 12.8864883,12.4171641 12.9166758,12.4812578 Z" id="Shape" fill-rule="nonzero"></path>
                </g>
            </g>
        </g>
    </g>
</svg>