<?xml version="1.0" encoding="UTF-8"?>
<svg width="60px" height="54px" viewBox="0 0 60 54" version="1.1" xmlns="http://www.w3.org/2000/svg" xmlns:xlink="http://www.w3.org/1999/xlink">
    <!-- Generator: Sketch 50.2 (55047) - http://www.bohemiancoding.com/sketch -->
    <title>coding (1)</title>
    <desc>Created with Sketch.</desc>
    <defs></defs>
    <g id="Page-1" stroke="none" stroke-width="1" fill="none" fill-rule="evenodd">
        <g id="main-v6-slide-1" transform="translate(-346.000000, -923.000000)" fill="#00A2FF" fill-rule="nonzero">
            <g id="2-section" transform="translate(0.000000, 788.000000)">
                <g id="coding-(1)" transform="translate(346.000000, 135.000000)">
                    <path d="M21.3591064,23.7198169 C21.0884681,23.2686761 20.5008511,23.1207465 20.0466383,23.3896056 L8.89314894,29.9860986 C8.60323404,30.1574789 8.42553191,30.4677887 8.42553191,30.8028169 C8.42553191,31.1378451 8.60323404,31.4481549 8.89302128,31.6195352 L20.0465106,38.2160282 C20.2000851,38.3069155 20.3688511,38.3501408 20.5355745,38.3501408 C20.8618723,38.3501408 21.18,38.184338 21.3589787,37.8858169 C21.629617,37.4346761 21.4806383,36.8511972 21.0264255,36.5825915 L11.2539574,30.8028169 L21.0264255,25.0230423 C21.480766,24.7544366 21.6297447,24.1709577 21.3591064,23.7198169 Z" id="Shape"></path>
                    <path d="M38.6410213,37.8858169 C38.8201277,38.1844648 39.1381277,38.3501408 39.4644255,38.3501408 C39.6311489,38.3501408 39.7999149,38.3069155 39.9534894,38.2160282 L51.1069787,31.6195352 C51.3968936,31.4480282 51.5744681,31.1378451 51.5744681,30.8028169 C51.5744681,30.4677887 51.396766,30.1574789 51.1069787,29.9860986 L39.9534894,23.3896056 C39.4992766,23.1208732 38.9114043,23.2686761 38.6410213,23.7198169 C38.370383,24.1709577 38.5193617,24.7544366 38.9735745,25.0230423 L48.7460426,30.8028169 L38.9735745,36.5825915 C38.519234,36.8511972 38.3702553,37.4346761 38.6410213,37.8858169 Z" id="Shape"></path>
                    <path d="M33.666383,23.676338 L24.7438723,36.8693239 C24.4491064,37.3051268 24.5659149,37.895831 25.0049362,38.1886479 C25.1688511,38.2979155 25.3543404,38.3501408 25.5379149,38.3501408 C25.8462128,38.3501408 26.1488936,38.2024648 26.333617,37.9292958 L35.2561277,24.7363099 C35.5508936,24.300507 35.4340851,23.7098028 34.9950638,23.4169859 C34.5557872,23.1242958 33.9610213,23.2405352 33.666383,23.676338 Z" id="Shape"></path>
                    <path d="M59.0425532,0.0633802817 L0.957446809,0.0633802817 C0.428553191,0.0633802817 0,0.489042254 0,1.01408451 L0,52.9859155 C0,53.5109577 0.428553191,53.9366197 0.957446809,53.9366197 L59.0425532,53.9366197 C59.5714468,53.9366197 60,53.5109577 60,52.9859155 L60,42.8450704 C60,42.3200282 59.5714468,41.8943662 59.0425532,41.8943662 C58.5136596,41.8943662 58.0851064,42.3200282 58.0851064,42.8450704 L58.0851064,52.0352113 L1.91489362,52.0352113 L1.91489362,9.57042254 L58.0851064,9.57042254 L58.0851064,39.0422535 C58.0851064,39.5672958 58.5136596,39.9929577 59.0425532,39.9929577 C59.5714468,39.9929577 60,39.5672958 60,39.0422535 L60,1.01408451 C60,0.489042254 59.5714468,0.0633802817 59.0425532,0.0633802817 Z M1.91489362,1.96478873 L37.3404255,1.96478873 L37.3404255,7.66901408 L1.91489362,7.66901408 L1.91489362,1.96478873 Z M39.2553191,7.66901408 L39.2553191,1.96478873 L58.0851064,1.96478873 L58.0851064,7.66901408 L39.2553191,7.66901408 Z" id="Shape"></path>
                    <path d="M48.7021277,3.8028169 C48.1390213,3.8028169 47.6808511,4.25776056 47.6808511,4.81690141 C47.6808511,5.37604225 48.1390213,5.83098592 48.7021277,5.83098592 C49.265234,5.83098592 49.7234043,5.37604225 49.7234043,4.81690141 C49.7234043,4.25776056 49.265234,3.8028169 48.7021277,3.8028169 Z" id="Shape"></path>
                    <path d="M43.4680851,3.8028169 C42.9049787,3.8028169 42.4468085,4.25776056 42.4468085,4.81690141 C42.4468085,5.37604225 42.9049787,5.83098592 43.4680851,5.83098592 C44.0311915,5.83098592 44.4893617,5.37604225 44.4893617,4.81690141 C44.4893617,4.25776056 44.0311915,3.8028169 43.4680851,3.8028169 Z" id="Shape"></path>
                    <path d="M53.9361702,3.8028169 C53.3730638,3.8028169 52.9148936,4.25776056 52.9148936,4.81690141 C52.9148936,5.37604225 53.3730638,5.83098592 53.9361702,5.83098592 C54.4992766,5.83098592 54.9574468,5.37604225 54.9574468,4.81690141 C54.9574468,4.25776056 54.4992766,3.8028169 53.9361702,3.8028169 Z" id="Shape"></path>
                </g>
            </g>
        </g>
    </g>
</svg>