<?xml version="1.0" encoding="UTF-8"?>
<svg width="60px" height="60px" viewBox="0 0 60 60" version="1.1" xmlns="http://www.w3.org/2000/svg" xmlns:xlink="http://www.w3.org/1999/xlink">
    <!-- Generator: Sketch 50.2 (55047) - http://www.bohemiancoding.com/sketch -->
    <title>cryptocurrency</title>
    <desc>Created with Sketch.</desc>
    <defs></defs>
    <g id="Page-1" stroke="none" stroke-width="1" fill="none" fill-rule="evenodd">
        <g id="main-v6-slide-1" transform="translate(-348.000000, -1207.000000)" fill="#00A2FF" fill-rule="nonzero">
            <g id="2-section" transform="translate(0.000000, 788.000000)">
                <g id="cryptocurrency" transform="translate(348.000000, 419.000000)">
                    <path d="M34.833,12.01175 C34.702375,11.638125 34.49875,11.29425 34.234,11 C35.337125,9.774125 35.237625,7.886125 34.01175,6.783 C33.7175,6.51825 33.373625,6.314625 33,6.184 L33,4 L31,4 L31,6 L29,6 L29,4 L27,4 L27,6 L26,6 C25.44775,6 25,6.44775 25,7 L25,15 C25,15.55225 25.44775,16 26,16 L27,16 L27,18 L29,18 L29,16 L31,16 L31,18 L33,18 L33,15.816 C34.55675,15.271625 35.377375,13.568375 34.833,12.01175 Z M32,14 L27,14 L27,12 L32,12 C32.55225,12 33,12.44775 33,13 C33,13.55225 32.55225,14 32,14 Z M32,10 L27,10 L27,8 L32,8 C32.55225,8 33,8.44775 33,9 C33,9.55225 32.55225,10 32,10 Z" id="Shape"></path>
                    <path d="M30,0 C23.927875,0.007125 19.007125,4.927875 19,11 C19,17.075125 23.924875,22 30,22 C36.075125,22 41,17.075125 41,11 C41,4.924875 36.075125,0 30,0 Z M30,20 C25.0295,20 21,15.9705 21,11 C21,6.029375 25.0295,2 30,2 C34.96825,2.0055 38.9945,6.03175 39,11 C39,15.9705 34.970625,20 30,20 Z" id="Shape"></path>
                    <path d="M49,15 C42.924875,15 38,19.924875 38,26 C38,32.075125 42.924875,37 49,37 C55.075125,37 60,32.075125 60,26 C59.992875,19.927875 55.072125,15.007125 49,15 Z M49,35 C44.0295,35 40,30.9705 40,26 C40,21.029375 44.0295,17 49,17 C53.970625,17 58,21.029375 58,26 C57.9945,30.96825 53.96825,34.9945 49,35 Z" id="Shape"></path>
                    <path d="M54.496625,26.779 C54.0135,25.694875 52.936875,24.9975 51.75,25 C51.555625,25.001 51.36175,25.020375 51.171,25.058 C52.313625,23.858125 52.26725,21.95925 51.067375,20.816625 C49.8675,19.674 47.968625,19.720375 46.826,20.92025 C45.722625,22.078875 45.722625,23.899375 46.826,25.058 C46.6465,25.021875 46.464125,25.0025 46.281,25 C44.624125,24.997125 43.278625,26.337875 43.27575,27.99475 C43.272875,29.651625 44.613625,30.997125 46.2705,31 C47.457,31.002125 48.533125,30.30475 49.016,29.221 C49.690375,30.734375 51.463875,31.414625 52.97725,30.74025 C54.49075,30.065875 55.170875,28.292375 54.496625,26.779 Z M46.281,29 C45.72875,29 45.281,28.55225 45.281,28 C45.281,27.44775 45.72875,27 46.281,27 C46.83325,27 47.281,27.44775 47.281,28 C47.281,28.55225 46.83325,29 46.281,29 Z M49.016,26.779 C48.87725,26.471625 48.688,26.18975 48.456,25.945 C48.63525,25.980125 48.817375,25.9985 49,26 C49.194375,25.999 49.38825,25.979625 49.579,25.942 C49.345125,26.187 49.15475,26.47 49.016,26.779 Z M49,24 C48.44775,24 48,23.55225 48,23 C48,22.44775 48.44775,22 49,22 C49.55225,22 50,22.44775 50,23 C50,23.55225 49.55225,24 49,24 Z M51.75,29 C51.19775,29 50.75,28.55225 50.75,28 C50.75,27.44775 51.19775,27 51.75,27 C52.30225,27 52.75,27.44775 52.75,28 C52.75,28.55225 52.30225,29 51.75,29 Z" id="Shape"></path>
                    <path d="M16,38 C9.924875,38 5,42.924875 5,49 C5,55.075125 9.924875,60 16,60 C22.075125,60 27,55.075125 27,49 C26.992875,42.927875 22.072125,38.007125 16,38 Z M16,58 C11.029375,58 7,53.9705 7,49 C7,44.029375 11.029375,40 16,40 C20.970625,40 25,44.029375 25,49 C24.9945,53.96825 20.96825,57.9945 16,58 Z" id="Shape"></path>
                    <path d="M13.539,51 L14.428,49 L18,49 L18,47 L15.317,47 L16.917,43.406 L15.089,42.594 L13.128,47 L11,47 L11,49 L12.239,49 L11.086,51.594 C10.86175,52.09875 11.089125,52.689625 11.593875,52.913875 C11.72175,52.970625 11.860125,53 12,53 L20,53 L20,51 L13.539,51 Z" id="Shape"></path>
                    <path d="M44,38 C37.924875,38 33,42.924875 33,49 C33,55.075125 37.924875,60 44,60 C50.075125,60 55,55.075125 55,49 C54.992875,42.927875 50.072125,38.007125 44,38 Z M44,58 C39.0295,58 35,53.9705 35,49 C35,44.029375 39.0295,40 44,40 C48.970625,40 53,44.029375 53,49 C52.9945,53.96825 48.96825,57.9945 44,58 Z" id="Shape"></path>
                    <path d="M11,15 C4.924875,15 0,19.924875 0,26 C0.007125,32.072125 4.927875,36.992875 11,37 C17.075125,37 22,32.075125 22,26 C22,19.924875 17.075125,15 11,15 Z M11,35 C6.029375,35 2,30.9705 2,26 C2.0055,21.03175 6.03175,17.0055 11,17 C15.970625,17 20,21.029375 20,26 C20,30.9705 15.970625,35 11,35 Z" id="Shape"></path>
                    <path d="M14.763875,21.072875 C14.571,21.0245 14.372875,21 14.174,21 L7,21 L7,23 L14.174,23 C14.305375,22.999375 14.429625,23.06 14.51,23.164 C14.59175,23.26675 14.62025,23.402 14.587,23.529 L13.3,28.677 C13.252375,28.866875 13.08175,28.999875 12.886,29 L6,29 L6,31.0000012 L12.887,31 C14.000625,31.001125 14.9715,30.24275 15.24,29.162 L16.526,24.015 C16.851875,22.716 16.062875,21.39875 14.763875,21.072875 Z" id="Shape"></path>
                    <rect id="Rectangle-path" x="5" y="25" width="5" height="2"></rect>
                    <path d="M49,50 L49,45 C49,44.44775 48.55225,44 48,44 C47.783625,44 47.573125,44.070125 47.4,44.2 L44,46.75 L40.6,44.2 C40.158125,43.868625 39.531375,43.958125 39.2,44.4 C39.070125,44.573125 39,44.783625 39,45 L39,50 L37,50 L37,52 L40,52 C40.55225,52 41,51.55225 41,51 L41,47 L43.4,48.8 C43.7555,49.066625 44.2445,49.066625 44.6,48.8 L47,47 L47,51 C47,51.55225 47.44775,52 48,52 L51,52 L51,50 L49,50 Z" id="Shape"></path>
                    <rect id="Rectangle-path" x="9" y="6" width="2" height="2"></rect>
                    <rect id="Rectangle-path" x="15" y="5" width="2" height="2"></rect>
                    <rect id="Rectangle-path" x="7" y="11" width="2" height="2"></rect>
                    <rect id="Rectangle-path" x="0" y="41" width="2" height="2"></rect>
                    <rect id="Rectangle-path" x="2" y="36" width="2" height="2"></rect>
                    <rect id="Rectangle-path" x="1" y="46" width="2" height="2"></rect>
                    <rect id="Rectangle-path" x="29" y="58" width="2" height="2"></rect>
                    <rect id="Rectangle-path" x="26" y="56" width="2" height="2"></rect>
                    <rect id="Rectangle-path" x="32" y="56" width="2" height="2"></rect>
                    <rect id="Rectangle-path" x="50" y="5" width="2" height="2"></rect>
                    <rect id="Rectangle-path" x="52" y="11" width="2" height="2"></rect>
                    <rect id="Rectangle-path" x="43" y="4" width="2" height="2"></rect>
                    <rect id="Rectangle-path" x="56" y="36" width="2" height="2"></rect>
                    <rect id="Rectangle-path" x="56" y="45" width="2" height="2"></rect>
                    <rect id="Rectangle-path" x="58" y="40" width="2" height="2"></rect>
                </g>
            </g>
        </g>
    </g>
</svg>