<?xml version="1.0" encoding="UTF-8"?>
<svg width="60px" height="50px" viewBox="0 0 60 50" version="1.1" xmlns="http://www.w3.org/2000/svg" xmlns:xlink="http://www.w3.org/1999/xlink">
    <!-- Generator: Sketch 50.2 (55047) - http://www.bohemiancoding.com/sketch -->
    <title>bars (1)</title>
    <desc>Created with Sketch.</desc>
    <defs></defs>
    <g id="Page-1" stroke="none" stroke-width="1" fill="none" fill-rule="evenodd">
        <g id="main-v6-slide-1" transform="translate(-799.000000, -927.000000)" fill="#00A2FF" fill-rule="nonzero">
            <g id="2-section" transform="translate(0.000000, 788.000000)">
                <g id="bars-(1)" transform="translate(799.000000, 139.000000)">
                    <path d="M49.7505882,0.00266106443 C45.1764706,0.00266106443 41.5623529,3.64411765 41.5623529,8.18193277 C41.5623529,12.7197479 45.2329412,16.3051821 49.7505882,16.3051821 C54.2682353,16.3051821 57.9952941,12.6637255 57.9952941,8.12591036 C57.9952941,3.58809524 54.3247059,0.00266106443 49.7505882,0.00266106443 Z M49.7505882,14.512465 C46.1929412,14.512465 43.3129412,11.6553221 43.3129412,8.12591036 C43.3129412,4.5964986 46.2494118,1.79537815 49.7505882,1.79537815 C53.3082353,1.79537815 56.1882353,4.65252101 56.1882353,8.18193277 C56.1882353,11.7113445 53.3082353,14.512465 49.7505882,14.512465 Z" id="Shape"></path>
                    <path d="M52.3482353,9.41442577 C52.2917647,9.24635854 52.2917647,9.13431373 52.1788235,8.9662465 C52.1223529,8.85420168 52.0658824,8.68613445 51.9529412,8.57408964 C51.84,8.46204482 51.7835294,8.35 51.6705882,8.23795518 C51.5576471,8.12591036 51.4447059,8.01386555 51.2752941,7.95784314 C51.1623529,7.84579832 50.9929412,7.78977591 50.88,7.7337535 C50.7105882,7.67773109 50.5976471,7.56568627 50.4282353,7.50966387 C50.2588235,7.45364146 50.0894118,7.39761905 49.9764706,7.34159664 C49.92,7.34159664 49.8070588,7.28557423 49.7505882,7.22955182 C49.6941176,7.17352941 49.5811765,7.17352941 49.5247059,7.117507 C49.4682353,7.06148459 49.3552941,7.06148459 49.2988235,7.00546218 C49.2423529,6.94943978 49.1858824,6.89341737 49.1294118,6.83739496 C49.0729412,6.78137255 49.0164706,6.72535014 49.0164706,6.61330532 C48.96,6.55728291 48.96,6.4452381 48.96,6.38921569 C48.96,6.27717087 48.96,6.22114846 48.96,6.10910364 C48.96,6.05308123 49.0164706,5.94103641 49.0164706,5.88501401 C49.0729412,5.8289916 49.0729412,5.71694678 49.1294118,5.66092437 C49.1858824,5.60490196 49.2423529,5.54887955 49.2988235,5.49285714 C49.3552941,5.43683473 49.4682353,5.38081232 49.5811765,5.38081232 C49.6941176,5.32478992 49.7505882,5.32478992 49.8635294,5.32478992 C49.92,5.32478992 49.9764706,5.32478992 50.0329412,5.32478992 C50.0894118,5.32478992 50.1458824,5.32478992 50.2023529,5.32478992 C50.3152941,5.32478992 50.3717647,5.32478992 50.4847059,5.38081232 C50.5976471,5.38081232 50.7105882,5.43683473 50.7670588,5.43683473 C50.8235294,5.43683473 50.9364706,5.49285714 50.9929412,5.49285714 C51.1058824,5.49285714 51.1623529,5.54887955 51.2188235,5.54887955 L51.5011765,5.66092437 L51.5576471,5.32478992 L51.6705882,4.42843137 L51.6705882,4.20434174 L51.4447059,4.14831933 C51.3882353,4.14831933 51.2752941,4.09229692 51.2188235,4.09229692 C51.1623529,4.09229692 51.1058824,4.03627451 50.9929412,4.03627451 C50.9364706,4.03627451 50.8235294,3.9802521 50.7105882,3.9802521 C50.5976471,3.9802521 50.5411765,3.92422969 50.4282353,3.92422969 L50.3717647,3.92422969 L50.3717647,3.13991597 L50.3717647,2.85980392 L50.0894118,2.85980392 L49.2988235,2.85980392 L49.0164706,2.85980392 L49.0164706,3.13991597 L49.0164706,3.9802521 L48.96,3.9802521 C48.7905882,4.03627451 48.6211765,4.09229692 48.4517647,4.20434174 C48.2823529,4.26036415 48.1694118,4.37240896 48.0564706,4.48445378 C47.9435294,4.5964986 47.8305882,4.70854342 47.7176471,4.87661064 C47.6047059,4.98865546 47.5482353,5.15672269 47.4917647,5.32478992 C47.4352941,5.49285714 47.3788235,5.66092437 47.3223529,5.8289916 C47.2658824,5.99705882 47.2658824,6.22114846 47.2658824,6.38921569 C47.2658824,6.55728291 47.2658824,6.66932773 47.3223529,6.83739496 C47.3788235,7.00546218 47.3788235,7.117507 47.4917647,7.28557423 C47.5482353,7.39761905 47.6611765,7.56568627 47.7176471,7.67773109 C47.8305882,7.78977591 47.8870588,7.90182073 48,8.01386555 C48.1129412,8.12591036 48.2258824,8.23795518 48.3952941,8.29397759 C48.5082353,8.40602241 48.6776471,8.46204482 48.7905882,8.51806723 C48.96,8.57408964 49.1294118,8.68613445 49.2423529,8.74215686 C49.4117647,8.79817927 49.5811765,8.85420168 49.6941176,8.91022409 C49.7505882,8.91022409 49.8635294,8.9662465 49.92,9.02226891 C49.9764706,9.07829132 50.0894118,9.07829132 50.1458824,9.13431373 C50.2023529,9.19033613 50.2588235,9.24635854 50.3152941,9.24635854 C50.3717647,9.30238095 50.4282353,9.35840336 50.4847059,9.41442577 C50.5411765,9.47044818 50.5411765,9.52647059 50.5976471,9.63851541 C50.5976471,9.69453782 50.6541176,9.80658263 50.6541176,9.91862745 C50.6541176,10.0306723 50.6541176,10.0866947 50.6541176,10.1987395 C50.6541176,10.2547619 50.5976471,10.3668067 50.5411765,10.4228291 C50.4847059,10.4788515 50.4282353,10.5348739 50.3717647,10.5908964 C50.3152941,10.6469188 50.2588235,10.7029412 50.1458824,10.7589636 C50.0894118,10.814986 49.9764706,10.814986 49.92,10.8710084 C49.8635294,10.8710084 49.7505882,10.9270308 49.6376471,10.9270308 C49.5811765,10.9270308 49.5247059,10.9270308 49.4117647,10.9270308 C49.3552941,10.9270308 49.2423529,10.9270308 49.1858824,10.9270308 C49.0729412,10.9270308 48.96,10.9270308 48.9035294,10.9270308 C48.7905882,10.9270308 48.6776471,10.8710084 48.6211765,10.8710084 C48.5082353,10.8710084 48.3952941,10.814986 48.2823529,10.7589636 C48.1694118,10.7029412 48.0564706,10.7029412 47.9435294,10.6469188 C47.8870588,10.6469188 47.8305882,10.5908964 47.7741176,10.5908964 C47.7176471,10.5908964 47.6611765,10.5348739 47.6047059,10.5348739 L47.2658824,10.3668067 L47.2094118,10.7589636 L47.0964706,11.7673669 L47.0964706,11.9354342 L47.2658824,11.9914566 C47.4917647,11.9354342 47.6047059,11.9914566 47.7741176,12.047479 C47.8870588,12.1035014 48.0564706,12.1595238 48.1694118,12.1595238 C48.2823529,12.2155462 48.4517647,12.2155462 48.6211765,12.2715686 C48.7905882,12.327591 48.9035294,12.327591 49.0729412,12.327591 L49.1858824,12.327591 L49.1858824,13.1679272 L49.1858824,13.4480392 L49.4682353,13.4480392 L50.2588235,13.4480392 L50.5411765,13.4480392 L50.5411765,13.1679272 L50.5411765,12.2715686 L50.5976471,12.2715686 C50.7670588,12.2155462 50.9364706,12.1595238 51.1058824,12.047479 C51.2752941,11.9914566 51.3882353,11.8794118 51.5576471,11.7673669 C51.6705882,11.6553221 51.7835294,11.5432773 51.8964706,11.3752101 C52.0094118,11.2631653 52.0658824,11.095098 52.1788235,10.9270308 C52.2352941,10.7589636 52.2917647,10.5908964 52.3482353,10.4228291 C52.4047059,10.2547619 52.4047059,10.0866947 52.4047059,9.86260504 C52.4047059,9.69453782 52.4047059,9.582493 52.3482353,9.41442577 Z" id="Shape"></path>
                    <path d="M45.7976471,17.3696078 C45.5152941,16.977451 44.8941176,16.9214286 44.4988235,17.2015406 L35.3505882,24.4284314 L23.5482353,19.5544818 C23.2658824,19.442437 22.9270588,19.4984594 22.7011765,19.6665266 L10.0517647,28.630112 C9.65647059,28.9102241 9.54352941,29.4704482 9.82588235,29.862605 C9.99529412,30.1427171 10.2776471,30.2547619 10.56,30.2547619 C10.7294118,30.2547619 10.8988235,30.1987395 11.0682353,30.0866947 L23.3223529,21.4032213 L35.1811765,26.2771709 C35.4635294,26.3892157 35.8588235,26.3331933 36.0847059,26.1651261 L45.6282353,18.6581232 C46.0235294,18.3780112 46.08,17.7617647 45.7976471,17.3696078 Z" id="Shape"></path>
                    <path d="M59.0117647,48.069888 L54.8329412,48.069888 L54.8329412,22.1315126 C54.8329412,21.6273109 54.4376471,21.2351541 53.9294118,21.2351541 L45.6282353,21.2351541 C45.12,21.2351541 44.7247059,21.6273109 44.7247059,22.1315126 L44.7247059,48.069888 L41.6752941,48.069888 L41.6752941,31.095098 C41.6752941,30.5908964 41.28,30.1987395 40.7717647,30.1987395 L32.4141176,30.1987395 C31.9058824,30.1987395 31.5105882,30.5908964 31.5105882,31.095098 L31.5105882,48.069888 L28.4611765,48.069888 L28.4611765,29.7505602 C28.4611765,29.2463585 28.0658824,28.8542017 27.5576471,28.8542017 L19.2564706,28.8542017 C18.7482353,28.8542017 18.3529412,29.2463585 18.3529412,29.7505602 L18.3529412,48.069888 L15.3035294,48.069888 L15.3035294,35.0166667 C15.3035294,34.512465 14.9082353,34.1203081 14.4,34.1203081 L6.04235294,34.1203081 C5.53411765,34.1203081 5.13882353,34.512465 5.13882353,35.0166667 L5.13882353,48.069888 L0.903529412,48.069888 C0.395294118,48.069888 0,48.4620448 0,48.9662465 C0,49.4704482 0.395294118,49.862605 0.903529412,49.862605 L5.98588235,49.862605 L14.2870588,49.862605 L19.2564706,49.862605 L27.5576471,49.862605 L32.4141176,49.862605 L40.7152941,49.862605 L45.5717647,49.862605 L53.8729412,49.862605 L58.9552941,49.862605 C59.4635294,49.862605 59.8588235,49.4704482 59.8588235,48.9662465 C59.9152941,48.4620448 59.52,48.069888 59.0117647,48.069888 Z M13.44,48.069888 L6.94588235,48.069888 L6.94588235,35.9130252 L13.44,35.9130252 L13.44,48.069888 Z M26.6541176,48.069888 L20.16,48.069888 L20.16,30.6469188 L26.6541176,30.6469188 L26.6541176,48.069888 Z M39.8117647,48.069888 L33.3176471,48.069888 L33.3176471,31.9914566 L39.8117647,31.9914566 L39.8117647,48.069888 Z M53.0258824,48.069888 L46.5317647,48.069888 L46.5317647,23.0278711 L53.0258824,23.0278711 L53.0258824,48.069888 Z" id="Shape"></path>
                </g>
            </g>
        </g>
    </g>
</svg>