<?xml version="1.0" encoding="UTF-8"?>
<svg width="60px" height="49px" viewBox="0 0 60 49" version="1.1" xmlns="http://www.w3.org/2000/svg" xmlns:xlink="http://www.w3.org/1999/xlink">
    <!-- Generator: Sketch 50.2 (55047) - http://www.bohemiancoding.com/sketch -->
    <title>hand (2)</title>
    <desc>Created with Sketch.</desc>
    <defs></defs>
    <g id="Page-1" stroke="none" stroke-width="1" fill="none" fill-rule="evenodd">
        <g id="main-v6-slide-1" transform="translate(-1293.000000, -928.000000)" fill="#00A2FF" fill-rule="nonzero">
            <g id="2-section" transform="translate(0.000000, 788.000000)">
                <g id="hand-(2)" transform="translate(1293.000000, 140.000000)">
                    <path d="M27.5704687,10.6565577 C24.8234766,10.6565577 22.5887109,12.9029014 22.5887109,15.6640986 L22.5887109,19.1986947 C22.5887109,21.9596563 24.8235938,24.206 27.5704687,24.206 C30.3174609,24.206 32.5523437,21.959774 32.5523437,19.1986947 L32.5523437,15.6640986 C32.5523437,12.9029014 30.3174609,10.6565577 27.5704687,10.6565577 Z M27.5704687,22.4387019 C25.8904687,22.4387019 24.5073047,21.1399663 24.3605859,19.4893966 C25.2282422,20.2261635 26.3483203,20.6715216 27.5704687,20.6715216 C28.7926172,20.6715216 29.9126953,20.2261635 30.7804688,19.4892788 C30.63375,21.1399663 29.2505859,22.4387019 27.5704687,22.4387019 Z M27.5704687,18.9041058 C25.7929688,18.9041058 24.3469922,17.4505962 24.3469922,15.6640986 C24.3469922,13.8773654 25.7930859,12.4238558 27.5704687,12.4238558 C29.3479687,12.4238558 30.7940625,13.8773654 30.7940625,15.6640986 C30.7940625,17.4505962 29.3479687,18.9041058 27.5704687,18.9041058 Z" id="Shape"></path>
                    <path d="M27.5704687,13.6023293 C27.0849609,13.6023293 26.6913281,13.997863 26.6913281,14.4859784 L26.6913281,16.8423365 C26.6913281,17.3303341 27.0849609,17.7259856 27.5704687,17.7259856 C28.0559766,17.7259856 28.4496094,17.3304519 28.4496094,16.8423365 L28.4496094,14.4859784 C28.4496094,13.9977452 28.0559766,13.6023293 27.5704687,13.6023293 Z" id="Shape"></path>
                    <path d="M43.395,0.0528870192 C39.0319922,0.0528870192 35.4826172,3.62046394 35.4826172,8.00561058 L35.4826172,11.537851 C35.4826172,11.5386755 35.4825,11.5393822 35.4825,11.5402067 C35.4825,15.9253534 39.0319922,19.4929303 43.3947656,19.4929303 C47.7527344,19.4929303 51.2987109,15.9330096 51.3064453,11.5544591 C51.3064453,11.5497476 51.3071484,11.5451538 51.3071484,11.5404423 L51.3071484,8.00561058 C51.3071484,3.62046394 47.7577734,0.0528870192 43.395,0.0528870192 Z M43.3947656,17.72575 C40.6088672,17.72575 38.2508203,15.8547981 37.4953125,13.2978462 C38.9453906,14.9293341 41.0524219,15.9586875 43.395,15.9586875 C45.7371094,15.9586875 47.8439063,14.9296875 49.29375,13.2986707 C48.538125,15.8551514 46.1803125,17.72575 43.3947656,17.72575 Z M43.395,14.1913894 C40.0016016,14.1913894 37.2408984,11.4164111 37.2408984,8.00572837 C37.2408984,4.59504567 40.0017188,1.82030288 43.395,1.82030288 C46.7882812,1.82030288 49.5488672,4.59516346 49.5488672,8.00572837 C49.5488672,11.4164111 46.7882813,14.1913894 43.395,14.1913894 Z" id="Shape"></path>
                    <path d="M43.3954687,4.76560337 C42.9098437,4.76560337 42.5163281,5.16101923 42.5162109,5.64901683 L42.5152734,10.3623221 C42.5152734,10.8502019 42.9087891,11.2459712 43.3942969,11.2460889 L43.3944141,11.2460889 C43.8799219,11.2460889 44.2734375,10.8505553 44.2735547,10.3626755 L44.2744922,5.64937019 C44.2746094,5.1613726 43.8809766,4.76572115 43.3954687,4.76560337 Z" id="Shape"></path>
                    <path d="M59.49375,29.9547837 C58.2874219,27.8554399 55.6115625,27.1269183 53.5163672,28.3221178 C53.1355078,28.5108149 48.2719922,30.9132284 44.2637109,32.6085577 C43.8161719,32.7978438 43.6061719,33.3159952 43.794375,33.7658293 C43.9825781,34.2156635 44.4979687,34.4266226 44.9457422,34.2375721 C49.1479687,32.4601442 54.2677734,29.9203894 54.3189844,29.8949471 C54.3357422,29.8865841 54.3522656,29.87775 54.3684375,29.8684447 C55.6280859,29.1385096 57.2443359,29.5735024 57.9713672,30.8390216 C58.8132422,32.3025433 57.4986328,33.9094135 56.8551562,34.5657308 C52.4905078,38.1046851 40.4124609,47.1798149 36.3528516,47.1798149 C31.8530859,47.1798149 19.2260156,44.4910577 16.1380078,43.8184856 L16.1380078,29.3848053 C22.2608203,28.4805433 25.5045703,29.6147284 32.3020312,31.9957043 C34.3699219,32.7199856 36.7126172,33.5403822 39.5600391,34.4554808 C39.9844922,34.641351 41.1621094,35.3075625 40.7132812,36.813488 C40.4404687,37.7289399 39.5609766,38.6030481 38.2729687,38.3607572 C36.5422266,38.0342476 26.3567578,36.6456394 25.9239844,36.5867452 C25.4430469,36.5207837 24.9999609,36.8601322 24.9348047,37.3437716 C24.8696484,37.8274111 25.2067969,38.2725337 25.6879687,38.338024 C25.7934375,38.3523942 36.2615625,39.7794014 37.9488281,40.0977837 C38.2107422,40.147137 38.4649219,40.1704591 38.7106641,40.1704591 C40.5771094,40.1704591 41.9497266,38.8240192 42.3978516,37.3206851 C42.8692969,35.7386683 42.3793359,33.7360288 40.2257812,32.8196346 C40.2227344,32.8182212 40.2195703,32.8168077 40.2164062,32.815512 C40.2137109,32.8143341 40.2111328,32.8130385 40.2083203,32.8118606 C40.1964844,32.8069135 40.1844141,32.8033798 40.1724609,32.7989038 C40.1602734,32.7944279 40.1486719,32.7892452 40.1361328,32.7852404 C37.291875,31.8720264 34.9484766,31.0511587 32.8808203,30.3269952 C26.1019922,27.9527332 22.5295312,26.7035865 16.138125,27.6003101 L16.138125,26.8615409 C16.138125,26.3734255 15.7444922,25.9778918 15.2589844,25.9778918 L12.6222656,25.9778918 L12.6222656,25.0947139 C12.6222656,24.6065986 12.2286328,24.2110649 11.743125,24.2110649 L0.879140625,24.2110649 C0.393632812,24.2110649 0,24.6065986 0,25.0947139 L0,44.52875 C0,45.0168654 0.393632812,45.412399 0.879140625,45.412399 C1.36464844,45.412399 1.75828125,45.0168654 1.75828125,44.52875 L1.75828125,25.9782452 L10.8639844,25.9782452 L10.8639844,47.1798149 L9.10675781,47.1798149 L9.10675781,46.296637 C9.10675781,45.8085216 8.713125,45.412988 8.22761719,45.412988 C7.74210937,45.412988 7.34847656,45.8085216 7.34847656,46.296637 L7.34847656,47.1798149 L0.879140625,47.1798149 C0.393632812,47.1798149 0,47.5753486 0,48.0634639 C0,48.5515793 0.393632812,48.947113 0.879140625,48.947113 L11.743125,48.947113 C12.2286328,48.947113 12.6222656,48.5515793 12.6222656,48.0634639 L12.6222656,47.1354087 L15.2588672,47.1354087 C15.744375,47.1354087 16.1380078,46.739875 16.1380078,46.2517596 L16.1380078,45.627363 C19.8162891,46.4262043 31.7876953,48.947113 36.3528516,48.947113 C38.7554297,48.947113 43.0156641,46.7954712 49.3767187,42.3696875 C53.9642578,39.177738 57.9575391,35.9424423 57.9972656,35.9101683 C58.0216406,35.8903798 58.0448437,35.8692957 58.066875,35.8471514 C59.9769141,33.9249615 60.5102344,31.7220817 59.49375,29.9547837 Z M14.3796094,44.5152043 C14.3796094,44.5160288 14.3796094,44.5168534 14.3796094,44.5175601 L14.3796094,45.3683462 L12.6222656,45.3683462 L12.6222656,27.7450721 L14.3797266,27.7450721 L14.3797266,44.5152043 L14.3796094,44.5152043 Z" id="Shape"></path>
                </g>
            </g>
        </g>
    </g>
</svg>