<?xml version="1.0" encoding="UTF-8"?>
<svg width="101px" height="47px" viewBox="0 0 101 47" version="1.1" xmlns="http://www.w3.org/2000/svg" xmlns:xlink="http://www.w3.org/1999/xlink">
    <!-- Generator: Sketch 50.2 (55047) - http://www.bohemiancoding.com/sketch -->
    <title>bankwire</title>
    <desc>Created with Sketch.</desc>
    <defs></defs>
    <g id="Page-1" stroke="none" stroke-width="1" fill="none" fill-rule="evenodd">
        <g id="main-v6-slide-1" transform="translate(-1024.000000, -3382.000000)">
            <g id="5-section---payment-system" transform="translate(276.000000, 3324.000000)">
                <g id="bankwire" transform="translate(748.000000, 58.000000)">
                    <path d="M0.571220437,11.4384965 L23.1861415,0 L45.8010626,11.4384965 C46.7798405,11.9537441 46.4192381,13.3964373 45.337431,13.3964373 L43.2768459,13.3964373 L43.2768459,15.4574277 C43.2768459,16.0242 42.8132143,16.4879229 42.2465534,16.4879229 L4.12572967,16.4879229 C3.55906878,16.4879229 3.09543714,16.0242 3.09543714,15.4574277 L3.09543714,13.3964373 L1.03485208,13.3964373 C-0.0469550822,13.3964373 -0.407557469,11.9537441 0.571220437,11.4384965 Z M45.337431,40.189312 L1.03485208,40.189312 C0.468191184,40.189312 0.00455954447,40.6530348 0.00455954447,41.2198072 L0.00455954447,46.3722831 L46.3677235,46.3722831 L46.3677235,41.2198072 C46.3677235,40.6530348 45.9040919,40.189312 45.337431,40.189312 Z M10.8226311,18.5489132 L6.18631474,18.5489132 C5.87722698,18.5489132 5.67116847,18.7550123 5.67116847,19.0641608 L5.67116847,32.9758457 L4.12572967,32.9758457 C3.55906878,32.9758457 3.09543714,33.4395686 3.09543714,34.0063409 L3.09543714,38.1283216 L43.2768459,38.1283216 L43.2768459,34.0063409 C43.2768459,33.4395686 42.8132143,32.9758457 42.2465534,32.9758457 L40.7011146,32.9758457 L40.7011146,19.0641608 C40.7011146,18.7550123 40.4950561,18.5489132 40.1859683,18.5489132 L35.5496519,18.5489132 C35.2405642,18.5489132 35.0345056,18.7550123 35.0345056,19.0641608 L35.0345056,32.9758457 L30.9133355,32.9758457 L30.9133355,19.0641608 C30.9133355,18.7550123 30.707277,18.5489132 30.3981893,18.5489132 L25.7618729,18.5489132 C25.4527851,18.5489132 25.2467266,18.7550123 25.2467266,19.0641608 L25.2467266,32.9758457 L21.1255565,32.9758457 L21.1255565,19.0641608 C21.1255565,18.7550123 20.919498,18.5489132 20.6104102,18.5489132 L15.9740938,18.5489132 C15.665006,18.5489132 15.4589475,18.7550123 15.4589475,19.0641608 L15.4589475,32.9758457 L11.3377774,32.9758457 L11.3377774,19.0641608 C11.3377774,18.7550123 11.1317189,18.5489132 10.8226311,18.5489132 Z" id="BW" fill="#FF9900" fill-rule="nonzero"></path>
                    <text id="Bank" font-family="Roboto-Regular, Roboto" font-size="18.6335404" font-weight="normal" letter-spacing="0.931676891" fill="#FFFFFF">
                        <tspan x="56.9358178" y="20.1055901">Bank</tspan>
                    </text>
                    <text id="Wire" font-family="Roboto-Regular, Roboto" font-size="18.6335404" font-weight="normal" letter-spacing="0.931676891" fill="#FFFFFF">
                        <tspan x="56.9358178" y="42.8799172">Wire</tspan>
                    </text>
                </g>
            </g>
        </g>
    </g>
</svg>