<?xml version="1.0" encoding="UTF-8"?>
<svg width="141px" height="30px" viewBox="0 0 141 30" version="1.1" xmlns="http://www.w3.org/2000/svg" xmlns:xlink="http://www.w3.org/1999/xlink">
    <!-- Generator: Sketch 50.2 (55047) - http://www.bohemiancoding.com/sketch -->
    <title>bitcoin</title>
    <desc>Created with Sketch.</desc>
    <defs></defs>
    <g id="Page-1" stroke="none" stroke-width="1" fill="none" fill-rule="evenodd">
        <g id="main-v6-slide-1" transform="translate(-1433.000000, -3391.000000)">
            <g id="5-section---payment-system" transform="translate(276.000000, 3324.000000)">
                <g id="bitcoin" transform="translate(1157.000000, 67.000000)">
                    <path d="M28.925117,18.5352602 C26.9639086,26.5311663 18.9965567,31.3966173 11.1292384,29.4027712 C3.26513213,27.4093914 -1.52225383,19.3108781 0.439872345,11.3159048 C2.40016304,3.31953231 10.3675149,-1.5468515 18.2325389,0.446528259 C26.0993984,2.43990802 30.8863255,10.5393542 28.925117,18.5352602" id="Fill-1" fill="#F5A623"></path>
                    <path d="M17.9736447,12.7692904 C17.5193639,14.6190199 14.715671,13.6792304 13.8061915,13.4488304 L14.6082955,10.1793891 C15.5177749,10.4097891 18.4467392,10.839807 17.9736447,12.7692904 M17.4753124,18.0451705 C16.9774389,20.0786604 13.6088776,18.9793632 12.5167681,18.7037228 L13.4014686,15.0989422 C14.4935781,15.3759819 17.9956705,15.9244645 17.4753124,18.0451705 M21.1563639,12.7986734 C21.4486638,10.812756 19.9610087,9.74517377 17.92684,9.03298591 L18.5866944,6.34280939 L16.9756035,5.93471223 L16.3331861,8.55399644 C15.9096495,8.44672518 15.4746412,8.34551709 15.0423861,8.24524178 L15.6893921,5.60870089 L14.0792189,5.20060372 L13.4189056,7.88984745 C13.0683293,7.80869441 12.7241771,7.72847417 12.3901201,7.64405636 L12.3919556,7.63566121 L10.1701093,7.07178753 L9.7415251,8.82077538 C9.7415251,8.82077538 10.9368803,9.09921425 10.9116424,9.11647093 C11.5641549,9.28204178 11.6820844,9.72092113 11.662353,10.0688531 L10.9107247,13.1335462 C10.9556939,13.1452062 11.0139703,13.1619964 11.0782121,13.1881147 C11.0245243,13.1745891 10.9671657,13.1596645 10.9079715,13.1452062 L9.85440701,17.4383883 C9.77456371,17.6398717 9.57220224,17.9420968 9.11608591,17.8273632 C9.13214635,17.8511495 7.94505084,17.5302685 7.94505084,17.5302685 L7.14524122,19.4047171 L9.24181617,19.935943 C9.63185528,20.0352855 10.0140936,20.139292 10.3903666,20.2372353 L9.72362919,22.958194 L11.3328847,23.3662912 L11.993198,20.6742491 C12.432795,20.7955122 12.8595437,20.9074474 13.2771149,21.0128531 L12.619096,23.6923025 L14.230187,24.1003997 L14.8969244,21.3845713 C17.6441764,21.9129989 19.7100071,21.6998555 20.5795649,19.1743171 C21.2802587,17.1408272 20.5446908,15.9678394 19.0992517,15.2029487 C20.1518985,14.9562248 20.944825,14.2524321 21.1563639,12.7986734" id="Fill-3" fill="#FFFFFF"></path>
                    <path d="M38.2002013,25.2005364 C39.0674647,25.2005364 39.8847114,24.9836619 40.6524001,24.5578416 C41.4223832,24.131555 42.0868263,23.5564878 42.6434351,22.839636 C43.2000438,22.1195194 43.6405586,21.307989 43.9617673,20.4017801 C44.2829759,19.4960376 44.4454158,18.5501849 44.4454158,17.5665542 C44.4454158,16.3581202 44.2467252,15.4159987 43.8507208,14.7341266 C43.4547164,14.0555194 42.7219017,13.7141169 41.6577833,13.7141169 C41.3090424,13.7141169 40.8598091,13.7817445 40.3027415,13.9025412 C39.7438384,14.0308003 39.2436706,14.2971129 38.7953551,14.6977477 L36.3440739,25.046159 C36.4918299,25.07321 36.6226078,25.0979291 36.7341131,25.1217153 C36.843324,25.1473671 36.9640067,25.1655566 37.0842305,25.1781493 C37.2113374,25.1926076 37.356799,25.20007 37.5325461,25.20007 C37.7082931,25.20007 37.9280916,25.2005364 38.2002013,25.2005364 M43.0307209,9.03009425 C44.2214874,9.03009425 45.2502729,9.24696874 46.1147832,9.67278899 C46.9834232,10.1028068 47.7001774,10.6820716 48.275141,11.4105833 C48.8423037,12.1428262 49.2644637,12.9986643 49.5370322,13.9794967 C49.8077652,14.9631274 49.9435906,16.0204489 49.9435906,17.1523938 C49.9435906,18.891121 49.6301827,20.5337704 48.9974016,22.0822076 C48.3646205,23.6334432 47.5060756,24.9780651 46.4139661,26.1254011 C45.3227743,27.271338 44.0342686,28.1747485 42.5484491,28.8426287 C41.0649238,29.5100424 39.4519974,29.8439825 37.7202237,29.8439825 C37.4962954,29.8439825 37.1025853,29.837453 36.5464354,29.825793 C35.9902855,29.8145995 35.3510803,29.7562999 34.6352438,29.6578902 C33.9148186,29.5552829 33.1530951,29.4046368 32.3486968,29.2017542 C31.5447574,29.0030691 30.7811985,28.7250967 30.0621499,28.3711015 L36.4918299,0.91152583 L42.2506427,0.00438412956 L39.9484942,9.74881166 C40.4413201,9.52307563 40.937817,9.34817684 41.4333961,9.22085053 C41.929434,9.0953898 42.4617227,9.03009425 43.0307209,9.03009425" id="Fill-5" fill="#F5A623"></path>
                    <path d="M58.5923638,7.03065134 C57.8246751,7.03065134 57.12857,6.79838575 56.5109315,6.33292178 C55.8882456,5.87025619 55.5798852,5.15806834 55.5798852,4.19822381 C55.5798852,3.67026267 55.6854252,3.17494931 55.8946697,2.70761976 C56.1071263,2.241223 56.3847424,1.83965538 56.7325655,1.49825296 C57.0799298,1.15964891 57.4823584,0.889138785 57.9393924,0.685323401 C58.3991797,0.484772794 58.8883347,0.38449749 59.4096105,0.38449749 C60.1768403,0.38449749 60.8692745,0.616763077 61.4892072,1.08222704 C62.1068456,1.550023 62.4175003,2.26221085 62.4175003,3.21692502 C62.4175003,3.74675174 62.3124192,4.24393069 62.1013392,4.71032745 C61.8916358,5.17672421 61.6140197,5.57829182 61.2661966,5.91969425 C60.9215856,6.2587647 60.5154861,6.52834202 60.0593697,6.73029182 C59.5991236,6.93410721 59.1118041,7.03065134 58.5923638,7.03065134 Z M55.9157777,29.3183534 L50.4153085,29.3183534 L55.0604449,9.45125053 L60.5985414,9.45125053 L55.9157777,29.3183534 Z" id="Fill-7" fill="#F5A623"></path>
                    <path d="M65.4189201,4.50142834 L71.1800273,3.59428664 L69.7653324,9.45036437 L75.9352923,9.45036437 L74.8211571,14.0574316 L68.6883656,14.0574316 L67.05479,21.0067433 C66.9042808,21.5860081 66.8189311,22.1270283 66.7950699,22.629804 C66.7679966,23.1349117 66.8308617,23.5686607 66.9795354,23.9338494 C67.1272914,24.2999709 67.3929769,24.5821409 67.7784273,24.7817587 C68.1620423,24.9846413 68.7113091,25.0867822 69.4317343,25.0867822 C70.0250526,25.0867822 70.6032282,25.0294154 71.1621313,24.9156146 C71.7178224,24.8036794 72.2808553,24.6479028 72.8507713,24.4440874 L73.2610006,28.7517279 C72.517632,29.0287676 71.7127748,29.2670964 70.8455114,29.467647 C69.9768713,29.670996 68.9485447,29.7689393 67.7600725,29.7689393 C66.0512424,29.7689393 64.726486,29.5110219 63.7825913,28.997519 C62.8400733,28.480285 62.1737947,27.7736939 61.7750371,26.8791449 C61.3817859,25.9878607 61.2060388,24.9603887 61.2551379,23.8027919 C61.3060724,22.6423968 61.4781485,21.4227692 61.7750371,20.1383126 L65.4189201,4.50142834 Z" id="Fill-9" fill="#F5A623"></path>
                    <path d="M75.6928716,21.3850844 C75.6928716,19.6738747 75.9658989,18.0601419 76.5101182,16.5494828 C77.0543375,15.0374245 77.8376278,13.7151896 78.8540238,12.5804463 C79.8667489,11.4512998 81.1001903,10.5567508 82.5525124,9.90006413 C83.9984103,9.24710866 85.6163843,8.91783255 87.4004691,8.91783255 C88.5164398,8.91783255 89.5135634,9.02510381 90.3909219,9.24011271 C91.2719515,9.45698721 92.0690079,9.73729166 92.7903508,10.0889548 L90.8929252,14.4730844 C90.397805,14.2688026 89.8834122,14.0887734 89.3515824,13.9255346 C88.8188349,13.7590309 88.1690756,13.6788107 87.400928,13.6788107 C85.5649909,13.6788107 84.1135866,14.3219718 83.0329488,15.6036301 C81.9568997,16.8866876 81.4154336,18.6142212 81.4154336,20.7806342 C81.4154336,22.0646245 81.6875433,23.1028236 82.2349746,23.8970973 C82.7787351,24.691371 83.7845771,25.0864091 85.2437823,25.0864091 C85.9646663,25.0864091 86.6593948,25.0094536 87.3256734,24.860673 C87.9960818,24.7095605 88.5889412,24.5192706 89.110217,24.2944674 L89.5213641,28.7886666 C88.825259,29.0629079 88.0580292,29.3105645 87.2164624,29.527439 C86.3730602,29.7368512 85.3695125,29.8455216 84.2053605,29.8455216 C82.6681475,29.8455216 81.3672523,29.6165208 80.3035927,29.1669143 C79.2390154,28.7098455 78.3593625,28.1030633 77.6664695,27.3344415 C76.9694466,26.563954 76.4692788,25.6642747 76.1604596,24.6316722 C75.8511815,23.6000026 75.6928716,22.5160965 75.6928716,21.3850844" id="Fill-11" fill="#F5A623"></path>
                    <path d="M102.876854,13.6792771 C102.061902,13.6792771 101.340559,13.9199378 100.723838,14.3951961 C100.103905,14.8760512 99.5835473,15.4805014 99.1641405,16.2094795 C98.7401451,16.9417224 98.4258194,17.7401937 98.2133628,18.6081581 C98.0027417,19.477988 97.8994961,20.3002455 97.8994961,21.0814601 C97.8994961,22.3421305 98.0995632,23.3238957 98.4928144,24.0304868 C98.891572,24.7333467 99.6078674,25.0864091 100.649501,25.0864091 C101.467207,25.0864091 102.18442,24.8480803 102.80527,24.3676917 C103.421532,23.8905678 103.94189,23.2856512 104.364509,22.5552738 C104.785751,21.8267621 105.103289,21.0254925 105.315287,20.1565953 C105.523614,19.2895637 105.629154,18.4626423 105.629154,17.6823605 C105.629154,16.4254212 105.430004,15.441324 105.033082,14.7356657 C104.636619,14.0328058 103.91757,13.6792771 102.876854,13.6792771 M100.127767,29.8455216 C98.8149408,29.8455216 97.67465,29.6421726 96.707353,29.2396722 C95.7428092,28.8371718 94.9439173,28.2723653 94.312054,27.5401224 C93.6792729,26.8116107 93.2057195,25.9483103 92.8812987,24.9530196 C92.556878,23.9591281 92.4008623,22.8579653 92.4008623,21.6513969 C92.4008623,20.1379394 92.6399333,18.6249483 93.123123,17.1161548 C93.6040183,15.6036301 94.3180193,14.2454828 95.2619139,13.0379815 C96.1989255,11.8286147 97.3548179,10.8398536 98.7162838,10.0688998 C100.075914,9.30307628 101.639283,8.91783255 103.395835,8.91783255 C104.6848,8.91783255 105.819126,9.12164794 106.79973,9.52414834 C107.775745,9.92571595 108.580144,10.4951864 109.215219,11.2236981 C109.844329,11.9559411 110.322012,12.8155103 110.642762,13.8117338 C110.966265,14.8042261 111.126411,15.9081872 111.126411,17.1156884 C111.126411,18.6244819 110.890093,20.137473 110.422046,21.6509305 C109.95354,23.1569257 109.258353,24.5188042 108.340614,25.7286374 C107.42471,26.936605 106.279372,27.9244334 104.903681,28.6925888 C103.529825,29.4598115 101.93663,29.8455216 100.127767,29.8455216" id="Fill-13" fill="#F5A623"></path>
                    <path d="M119.7923,7.03065134 C119.02507,7.03065134 118.329424,6.79838575 117.712703,6.33292178 C117.093229,5.87025619 116.781657,5.15806834 116.781657,4.19822381 C116.781657,3.67026267 116.889032,3.17494931 117.098735,2.70761976 C117.308439,2.241223 117.58789,1.83965538 117.935713,1.49825296 C118.281242,1.15964891 118.687342,0.889138785 119.143458,0.685323401 C119.600492,0.484772794 120.089188,0.38449749 120.609087,0.38449749 C121.378153,0.38449749 122.072881,0.616763077 122.691437,1.08222704 C123.310452,1.550023 123.622943,2.26221085 123.622943,3.21692502 C123.622943,3.74675174 123.511437,4.24393069 123.304028,4.71032745 C123.09616,5.17672421 122.816709,5.57829182 122.470262,5.91969425 C122.121521,6.2587647 121.720469,6.52834202 121.263435,6.73029182 C120.80273,6.93410721 120.314493,7.03065134 119.7923,7.03065134 Z M117.119843,29.3183534 L111.614786,29.3183534 L116.259922,9.45125053 L121.800772,9.45125053 L117.119843,29.3183534 Z" id="Fill-15" fill="#F5A623"></path>
                    <path d="M125.764762,10.3546144 C126.182333,10.2305529 126.649004,10.0813059 127.155596,9.91899984 C127.664941,9.75669377 128.233021,9.60558121 128.868556,9.46939336 C129.496289,9.32900794 130.205702,9.21520713 130.984862,9.12705814 C131.764481,9.03704356 132.653312,8.99320227 133.639881,8.99320227 C136.540854,8.99320227 138.540608,9.8518387 139.644648,11.5639812 C140.74777,13.2761237 140.93866,15.6193011 140.222824,18.5893156 L137.692617,29.3164411 L132.156356,29.3164411 L134.608096,18.8155181 C134.758146,18.1592978 134.875158,17.5254646 134.961884,16.9060897 C135.049528,16.2923116 135.04494,15.7512913 134.942153,15.283029 C134.844414,14.8203634 134.614061,14.4416492 134.256602,14.1482857 C133.893636,13.8595861 133.345746,13.7145367 132.601459,13.7145367 C131.884246,13.7145367 131.154644,13.7928913 130.409899,13.9440039 L126.805019,29.3159747 L121.265546,29.3159747 L125.764762,10.3546144 Z" id="Fill-17" fill="#F5A623"></path>
                </g>
            </g>
        </g>
    </g>
</svg>