<?xml version="1.0" encoding="UTF-8"?>
<svg width="62px" height="48px" viewBox="0 0 62 48" version="1.1" xmlns="http://www.w3.org/2000/svg" xmlns:xlink="http://www.w3.org/1999/xlink">
    <!-- Generator: Sketch 50.2 (55047) - http://www.bohemiancoding.com/sketch -->
    <title>mastercard</title>
    <desc>Created with Sketch.</desc>
    <defs></defs>
    <g id="Page-1" stroke="none" stroke-width="1" fill="none" fill-rule="evenodd">
        <g id="main-v6-slide-1" transform="translate(-661.000000, -3382.000000)" fill-rule="nonzero">
            <g id="5-section---payment-system" transform="translate(276.000000, 3324.000000)">
                <g id="mastercard" transform="translate(385.000000, 58.000000)">
                    <path d="M11.0501744,47.0543538 L11.0501744,43.8956879 C11.0877384,43.358291 10.8902393,42.8308539 10.5080627,42.4479356 C10.1258861,42.0650172 9.5959902,41.8636475 9.05356125,41.8951995 C8.33872814,41.8487397 7.65504497,42.1916739 7.26935373,42.7901549 C6.91771399,42.209518 6.27385,41.8661164 5.59134903,41.8951995 C4.99710032,41.865417 4.43138131,42.1498483 4.10450942,42.6427505 L4.10450942,42.0215462 L3,42.0215462 L3,47.0543538 L4.1151297,47.0543538 L4.1151297,44.2852567 C4.06710392,43.9367981 4.17846783,43.5852738 4.41883116,43.3266119 C4.6591945,43.0679501 5.00346816,42.9291497 5.3577028,42.9480882 C6.09050232,42.9480882 6.46221223,43.4218881 6.46221223,44.2747278 L6.46221223,47.0754116 L7.57734193,47.0754116 L7.57734193,44.2852567 C7.53128685,43.9371943 7.6433317,43.5868091 7.88324939,43.3286268 C8.12316708,43.0704445 8.46624001,42.9310644 8.81991503,42.9480882 C9.57395512,42.9480882 9.93504473,43.4218881 9.93504473,44.2747278 L9.93504473,47.0754116 L11.0501744,47.0543538 Z M27.5487839,42.0215462 L25.7327155,42.0215462 L25.7327155,40.4948577 L24.6175858,40.4948577 L24.6175858,42.0215462 L23.608659,42.0215462 L23.608659,43.0217904 L24.6388264,43.0217904 L24.6388264,45.3381454 C24.6388264,46.5068517 25.0954986,47.2017582 26.4017934,47.2017582 C26.8898265,47.2033835 27.3684025,47.0683456 27.7824301,46.8121894 L27.4638217,45.8751186 C27.1676237,46.0502717 26.8314533,46.1480814 26.4867556,46.1593985 C25.9557415,46.1593985 25.7539561,45.8224741 25.7539561,45.3170876 L25.7539561,43.0217904 L27.5594042,43.0217904 L27.5487839,42.0215462 Z M36.9689749,41.8951995 C36.4203934,41.8792048 35.9069375,42.1620032 35.6308192,42.6322216 L35.6308192,42.0215462 L34.5369301,42.0215462 L34.5369301,47.0543538 L35.6414395,47.0543538 L35.6414395,44.2326123 C35.6414395,43.4008303 36.0025291,42.9375593 36.7034678,42.9375593 C36.9397076,42.9343557 37.1742729,42.9772874 37.3937862,43.0639059 L37.7336352,42.0110173 C37.4813886,41.9215554 37.2156336,41.8752705 36.9477343,41.8741418 L36.9689749,41.8951995 Z M22.7271755,42.4216439 C22.1019727,42.0531207 21.3831521,41.8703939 20.6562203,41.8951995 C19.3711661,41.8951995 18.5321637,42.5058749 18.5321637,43.5061191 C18.5321637,44.3273723 19.1481402,44.8327588 20.2845104,44.9906921 L20.8155246,45.0643943 C21.4208807,45.1486254 21.7076283,45.3065587 21.7076283,45.5908386 C21.7076283,45.9804074 21.3040576,46.201514 20.5500175,46.201514 C19.9434945,46.2189194 19.3487059,46.0334886 18.8613925,45.6750697 L18.3303784,46.5279095 C18.9737625,46.9732765 19.7443744,47.2021014 20.5287769,47.1807005 C21.994376,47.1807005 22.8439986,46.4963229 22.8439986,45.5381942 C22.8439986,44.5800655 22.1749208,44.1904968 21.0704114,44.0325635 L20.5393972,43.9588613 C20.0614845,43.8956879 19.6791543,43.800928 19.6791543,43.4640036 C19.6791543,43.1270792 20.0402439,42.874386 20.6456,42.874386 C21.2051167,42.8808297 21.753612,43.0294615 22.2386425,43.3060703 L22.7271755,42.4216439 Z M52.3099735,41.8951995 C51.761392,41.8792048 51.2479362,42.1620032 50.9718179,42.6322216 L50.9718179,42.0215462 L49.8779287,42.0215462 L49.8779287,47.0543538 L50.9824381,47.0543538 L50.9824381,44.2326123 C50.9824381,43.4008303 51.3435278,42.9375593 52.0444664,42.9375593 C52.2807062,42.9343557 52.5152715,42.9772874 52.7347848,43.0639059 L53.0746339,42.0110173 C52.8223873,41.9215554 52.5566322,41.8752705 52.2887329,41.8741418 L52.3099735,41.8951995 Z M38.0787944,44.5274211 C38.0522319,45.2425614 38.3308694,45.9356926 38.8463136,46.4366812 C39.3617579,46.9376698 40.0662858,47.2001313 40.7869666,47.1596427 C41.4501388,47.1930929 42.1018818,46.978967 42.6136552,46.5594962 L42.0826411,45.6750697 C41.7008265,45.963725 41.2352395,46.1225086 40.7551057,46.1278118 C39.9085103,46.0599022 39.2563652,45.3589449 39.2563652,44.5168922 C39.2563652,43.6748396 39.9085103,42.9738822 40.7551057,42.9059726 C41.2352395,42.9112759 41.7008265,43.0700595 42.0826411,43.3587147 L42.6136552,42.4742883 C42.1018818,42.0548175 41.4501388,41.8406916 40.7869666,41.8741418 C40.0662858,41.8336532 39.3617579,42.0961146 38.8463136,42.5971032 C38.3308694,43.0980918 38.0522319,43.791223 38.0787944,44.5063633 L38.0787944,44.5274211 Z M48.42295,44.5274211 L48.42295,42.0215462 L47.3184405,42.0215462 L47.3184405,42.6322216 C46.9379176,42.1468136 46.345079,41.8725365 45.7253981,41.8951995 C44.259043,41.8951995 43.0703274,43.0736853 43.0703274,44.5274211 C43.0703274,45.981157 44.259043,47.1596427 45.7253981,47.1596427 C46.345079,47.1823057 46.9379176,46.9080286 47.3184405,46.4226207 L47.3184405,47.0332961 L48.42295,47.0332961 L48.42295,44.5274211 Z M44.3129005,44.5274211 C44.3620166,43.7012555 45.0682373,43.0655423 45.9024332,43.0965837 C46.7366291,43.127625 47.3927943,43.814034 47.3793032,44.6415252 C47.3658121,45.4690165 46.6876136,46.1340433 45.8528415,46.1383407 C45.4277854,46.1436727 45.0197994,45.9727624 44.7273901,45.6668753 C44.4349807,45.3609883 44.2847246,44.9479262 44.3129005,44.5274211 Z M30.9844454,41.8951995 C29.5180904,41.9155518 28.3460167,43.1105364 28.3665457,44.5642722 C28.3870747,46.0180081 29.5924324,47.179995 31.0587874,47.1596427 C31.8227784,47.19852 32.5740923,46.9546151 33.1669136,46.4752651 L32.6358994,45.6645408 C32.2165905,45.9979268 31.6971205,46.1831784 31.1596801,46.1909852 C30.4005244,46.2557115 29.7273121,45.7096416 29.6409797,44.9591055 L33.4111801,44.9591055 C33.4111801,44.8222299 33.4111801,44.6853544 33.4111801,44.53795 C33.4111801,42.9586171 32.4234938,41.9057284 31.0003759,41.9057284 L30.9844454,41.8951995 Z M30.9844454,42.874386 C31.3182425,42.8673308 31.6411878,42.9920619 31.8821986,43.2211253 C32.1232095,43.4501886 32.2625318,43.7648092 32.2694997,44.0957368 L29.6144289,44.0957368 C29.6544294,43.3928406 30.2534929,42.8503734 30.9632049,42.874386 L30.9844454,42.874386 Z M58.6555925,44.53795 L58.6555925,40 L57.5935643,40 L57.5935643,42.6322216 C57.2130413,42.1468136 56.6202027,41.8725365 56.0005218,41.8951995 C54.5341667,41.8951995 53.3454511,43.0736853 53.3454511,44.5274211 C53.3454511,45.981157 54.5341667,47.1596427 56.0005218,47.1596427 C56.6202027,47.1823057 57.2130413,46.9080286 57.5935643,46.4226207 L57.5935643,47.0332961 L58.6555925,47.0332961 L58.6555925,44.53795 Z M60.4982116,46.3225962 C60.5672503,46.3217577 60.6357914,46.334275 60.699997,46.3594473 C60.7609801,46.3841186 60.8168013,46.4198224 60.8646114,46.4647362 C60.9112712,46.510127 60.9490759,46.5636689 60.9761244,46.6226695 C61.0304796,46.7469352 61.0304796,46.8879725 60.9761244,47.0122383 C60.9490759,47.0712388 60.9112712,47.1247808 60.8646114,47.1701716 C60.8168013,47.2150854 60.7609801,47.2507891 60.699997,47.2754604 C60.6364252,47.30327 60.5676971,47.3176146 60.4982116,47.317576 C60.2927355,47.3160406 60.1065955,47.1971159 60.0202989,47.0122383 C59.966573,46.8878438 59.966573,46.747064 60.0202989,46.6226695 C60.0473473,46.5636689 60.0851521,46.510127 60.1318119,46.4647362 C60.1796219,46.4198224 60.2354431,46.3841186 60.2964263,46.3594473 C60.3655908,46.3321714 60.439767,46.3196161 60.5141421,46.3225962 L60.4982116,46.3225962 Z M60.4982116,47.2122871 C60.5512119,47.2126063 60.6036845,47.2018434 60.6522057,47.1807005 C60.6978923,47.1604784 60.7393262,47.1319029 60.774339,47.0964694 C60.9120293,46.9475345 60.9120293,46.7189599 60.774339,46.5700251 C60.7394096,46.5344938 60.6979557,46.5059044 60.6522057,46.485794 C60.6036366,46.4648001 60.5511962,46.4540437 60.4982116,46.4542073 C60.4452729,46.4544847 60.3929211,46.4652228 60.3442175,46.485794 C60.2965083,46.5051882 60.2531816,46.5338241 60.2167741,46.5700251 C60.0790838,46.7189599 60.0790838,46.9475345 60.2167741,47.0964694 C60.253271,47.1325622 60.2965746,47.1611828 60.3442175,47.1807005 C60.3977914,47.203605 60.4558376,47.214395 60.5141421,47.2122871 L60.4982116,47.2122871 Z M60.5300725,46.5858184 C60.5796434,46.5834351 60.6284911,46.5983359 60.6681362,46.6279339 C60.7011134,46.6549911 60.7189072,46.6961526 60.7159274,46.7384872 C60.7174689,46.7738407 60.7039852,46.8082148 60.6787564,46.8332472 C60.6479779,46.8609624 60.6087139,46.877645 60.5672435,46.8806272 L60.7212376,47.0543538 L60.5991043,47.0543538 L60.4557305,46.8806272 L60.4079392,46.8806272 L60.4079392,47.0543538 L60.3070465,47.0543538 L60.3070465,46.5910828 L60.5300725,46.5858184 Z M60.4132494,46.6753139 L60.4132494,46.8016606 L60.5300725,46.8016606 C60.5508609,46.8078051 60.5730057,46.8078051 60.5937942,46.8016606 C60.601368,46.7867597 60.601368,46.7691815 60.5937942,46.7542806 C60.601368,46.7393797 60.601368,46.7218015 60.5937942,46.7069006 C60.5730057,46.700756 60.5508609,46.700756 60.5300725,46.7069006 L60.4132494,46.6753139 Z M54.5720938,44.53795 C54.6212099,43.7117844 55.3274305,43.0760712 56.1616265,43.1071125 C56.9958224,43.1381539 57.6519876,43.8245629 57.6384965,44.6520541 C57.6250054,45.4795453 56.9468069,46.1445722 56.1120348,46.1488696 C55.6869787,46.1542016 55.2789927,45.9832913 54.9865834,45.6774042 C54.694174,45.3715172 54.5439179,44.9584551 54.5720938,44.53795 Z M17.2789704,44.53795 L17.2789704,42.0215462 L16.1744609,42.0215462 L16.1744609,42.6322216 C15.793938,42.1468136 15.2010994,41.8725365 14.5814185,41.8951995 C13.1150634,41.8951995 11.9263478,43.0736853 11.9263478,44.5274211 C11.9263478,45.981157 13.1150634,47.1596427 14.5814185,47.1596427 C15.2010994,47.1823057 15.793938,46.9080286 16.1744609,46.4226207 L16.1744609,47.0332961 L17.2789704,47.0332961 L17.2789704,44.53795 Z M13.1689209,44.53795 C13.218037,43.7117844 13.9242576,43.0760712 14.7584536,43.1071125 C15.5926495,43.1381539 16.2488147,43.8245629 16.2353236,44.6520541 C16.2218325,45.4795453 15.543634,46.1445722 14.7088619,46.1488696 C14.2819741,46.1571781 13.8711477,45.9875707 13.5763833,45.6813321 C13.2816188,45.3750934 13.129952,44.9603116 13.1583006,44.53795 L13.1689209,44.53795 Z" id="Shape" fill="#FFFFFF"></path>
                    <g id="_Group_">
                        <rect id="Rectangle-path" fill="#FF5F00" x="23" y="4" width="16.7269456" height="29.8020127"></rect>
                        <path d="M23.6273186,18.9549244 C23.6210647,13.1385003 26.3136362,7.642449 30.9287631,4.0512858 C23.090883,-2.055441 11.8353728,-1.16594343 5.07230264,6.09466352 C-1.69076755,13.3552705 -1.69076755,24.5493139 5.07230264,31.8099208 C11.8353728,39.0705278 23.090883,39.9600253 30.9287631,33.8532985 C26.3151045,30.2632754 23.6226974,24.7695011 23.6273186,18.9549244 Z" id="_Path_" fill="#EB001B"></path>
                        <path d="M61.9315739,18.9569757 C61.9314033,26.2131579 57.7521851,32.8322844 51.1688493,36.0031868 C44.5855135,39.1740891 36.7538514,38.3400736 31,33.8553498 C35.6116456,30.2622788 38.3042553,24.769235 38.3042553,18.9543435 C38.3042553,13.139452 35.6116456,7.6464081 31,4.05333711 C36.7538514,-0.431386653 44.5855135,-1.26540216 51.1688493,1.90550016 C57.7521851,5.07640249 61.9314033,11.695529 61.9315739,18.9517112 L61.9315739,18.9569757 Z" id="Shape" fill="#F79E1B"></path>
                        <path d="M60.3823302,30.737022 L60.3823302,30.1263466 L60.6319068,30.1263466 L60.6319068,30 L60,30 L60,30.1263466 L60.2708172,30.1263466 L60.2708172,30.737022 L60.3823302,30.737022 Z M61.6089729,30.737022 L61.6089729,30 L61.4178078,30 L61.1947818,30.5264443 L60.9717559,30 L60.8018314,30 L60.8018314,30.737022 L60.939895,30.737022 L60.939895,30.1842555 L61.1469906,30.6633198 L61.2903644,30.6633198 L61.4974599,30.1842555 L61.4974599,30.7422865 L61.6089729,30.737022 Z" id="Shape" fill="#F79E1B"></path>
                    </g>
                </g>
            </g>
        </g>
    </g>
</svg>