<?xml version="1.0" encoding="UTF-8"?>
<svg width="157px" height="48px" viewBox="0 0 157 48" version="1.1" xmlns="http://www.w3.org/2000/svg" xmlns:xlink="http://www.w3.org/1999/xlink">
    <!-- Generator: Sketch 50.2 (55047) - http://www.bohemiancoding.com/sketch -->
    <title>mc_sc</title>
    <desc>Created with Sketch.</desc>
    <defs></defs>
    <g id="Page-1" stroke="none" stroke-width="1" fill="none" fill-rule="evenodd">
        <g id="main-v6-slide-1" transform="translate(-795.000000, -3381.000000)" fill-rule="nonzero">
            <g id="5-section---payment-system" transform="translate(276.000000, 3324.000000)">
                <g id="mc_sc" transform="translate(519.000000, 57.000000)">
                    <path d="M13.9304348,32.786087 C13.1325426,32.2793909 12.2734855,31.87616 11.373913,31.586087 C10.4731954,31.2991246 9.53314484,31.1547723 8.58782609,31.1582609 C8.0010422,31.1529849 7.41581935,31.2195671 6.84521739,31.3565217 C6.36352378,31.4687614 5.90468189,31.6628868 5.48869565,31.9304348 C5.13279488,32.1598929 4.83319557,32.4666256 4.61217391,32.8278261 C4.40141613,33.1846191 4.2931002,33.5926091 4.29913043,34.0069565 C4.28377016,34.3740245 4.37823052,34.7373336 4.57043478,35.0504348 C4.77017405,35.346687 5.03869952,35.5901501 5.35304348,35.76 C5.74396301,35.9740913 6.16150266,36.1354932 6.59478261,36.24 C7.14165712,36.3773571 7.69549317,36.4853377 8.25391304,36.5634783 L9.56869565,36.7408696 C10.3321397,36.847536 11.0858418,37.0150253 11.8226087,37.2417391 C12.5228426,37.4519625 13.1850714,37.7725094 13.7843478,38.1913043 C14.355227,38.5930892 14.8293385,39.1171072 15.1721739,39.7252174 C15.5378854,40.4150746 15.7176955,41.1882584 15.693913,41.9686957 C15.7121268,42.8629751 15.5001238,43.7469196 15.0782609,44.5356522 C14.6723446,45.2777296 14.105436,45.9195128 13.4191304,46.413913 C12.6834676,46.9405705 11.8603104,47.3327183 10.9878261,47.5721739 C10.033747,47.8406249 9.04676453,47.9740959 8.05565217,47.9686957 C7.38449364,47.965385 6.71462307,47.9095624 6.05217391,47.8017391 C5.3453126,47.6951218 4.64763007,47.5346548 3.96521739,47.3217391 C3.31812449,47.1059568 2.68991208,46.8372215 2.08695652,46.5182609 C1.49117044,46.2139154 0.9341308,45.8390522 0.427826087,45.4017391 L2.08695652,42.9495652 C2.44569305,43.2733665 2.84148891,43.553576 3.26608696,43.7843478 C4.24318028,44.3192429 5.30028026,44.6927515 6.39652174,44.8904348 C6.95058022,44.9937072 7.51292148,45.0460992 8.07652174,45.0469565 C8.65880368,45.0544135 9.24001207,44.9948922 9.80869565,44.8695652 C10.3047056,44.761377 10.7802579,44.5746787 11.2173913,44.3165217 C11.5952153,44.0942004 11.9194205,43.7913713 12.1669565,43.4295652 C12.4051773,43.075271 12.529006,42.6564384 12.5217391,42.2295652 C12.5364662,41.5073314 12.12878,40.8428029 11.4782609,40.5286957 C10.4517694,40.0508007 9.35028308,39.7542467 8.2226087,39.6521739 L6.74086957,39.4434783 C6.03152971,39.3449868 5.33287491,39.180803 4.65391304,38.9530435 C4.0018434,38.7383021 3.39130295,38.4136216 2.84869565,37.9930435 C2.3119269,37.5752802 1.87372705,37.0444528 1.56521739,36.4382609 C1.21289661,35.7397311 1.03394058,34.9666411 1.04347826,34.1843478 C1.02778253,33.3028192 1.23221369,32.4312969 1.63826087,31.6486957 C2.02963478,30.9120819 2.58256256,30.2735395 3.25565217,29.7808696 C3.97668763,29.2577095 4.78616511,28.8688776 5.64521739,28.6330435 C6.59545314,28.3632445 7.57918456,28.2297381 8.56695652,28.2365217 C9.84399152,28.2199421 11.1155336,28.4066228 12.333913,28.7895652 C13.4399291,29.1480967 14.49281,29.6534795 15.4643478,30.2921739 L13.9304348,32.786087 Z M24.3130435,34.2469565 C25.1700929,34.2390955 26.0194005,34.4096678 26.8069565,34.7478261 C27.5473434,35.0682028 28.2094988,35.5452395 28.7478261,36.146087 C29.3035135,36.7783152 29.7321949,37.5116793 30.0104348,38.306087 C30.324842,39.2008862 30.4802293,40.1438049 30.4695652,41.0921739 C30.4695652,41.2695652 30.4695652,41.4573913 30.4695652,41.6347826 C30.4695652,41.8121739 30.4695652,41.9895652 30.4695652,42.1565217 L20.786087,42.1565217 C20.8558171,42.6880152 21.0257807,43.2014469 21.2869565,43.6695652 C21.5122525,44.071542 21.8134829,44.4259307 22.173913,44.7130435 C22.5192088,44.9823039 22.9121518,45.1840854 23.3321739,45.3078261 C23.7658454,45.4352535 24.2158301,45.4985326 24.6678261,45.4956522 C25.3381533,45.490484 26.0022878,45.366842 26.6295652,45.1304348 C27.2846528,44.8843745 27.8946007,44.5318035 28.4347826,44.0869565 L29.8434783,46.1217391 C29.106312,46.7686199 28.2428754,47.2554133 27.3078261,47.5513043 C26.3906903,47.8267838 25.4375984,47.9639447 24.48,47.9582609 C23.5595301,47.96813 22.6456845,47.8016543 21.7878261,47.4678261 C21.0038134,47.154273 20.2932378,46.6817402 19.7008696,46.08 C19.0977689,45.4626327 18.6288232,44.7272406 18.3234783,43.92 C17.9864781,43.019469 17.8201635,42.0640448 17.8330435,41.1026087 C17.8230471,40.1525117 17.9856862,39.2084979 18.3130435,38.3165217 C18.6076557,37.5105281 19.0619471,36.7723044 19.6486957,36.146087 C20.2366578,35.5364871 20.9482343,35.0597309 21.7356522,34.7478261 C22.5532397,34.4110139 23.4287974,34.2373203 24.3130435,34.2365217 L24.3130435,34.2469565 Z M24.2608696,36.7826087 C23.7983278,36.7737528 23.3382198,36.8516172 22.9043478,37.0121739 C22.5139906,37.1551364 22.1583548,37.3791869 21.8608696,37.6695652 C21.5665554,37.9721812 21.3296658,38.3257479 21.1617391,38.7130435 C20.9732379,39.1241969 20.8432788,39.5597357 20.7756522,40.0069565 L27.5373913,40.0069565 C27.4566178,39.1248711 27.0902536,38.2932243 26.493913,37.6382609 C25.8978338,37.0520512 25.0857926,36.7385655 24.2504348,36.7721739 L24.2608696,36.7826087 Z M39.3808696,34.2469565 C40.3177307,34.23813 41.2470146,34.4154742 42.1147826,34.7686957 C42.9246104,35.1128674 43.6402247,35.646 44.2017391,36.3234783 L42.3756522,38.2643478 C41.9558097,37.8402729 41.4693777,37.4877859 40.9356522,37.2208696 C40.4042745,36.983416 39.8271388,36.8658513 39.2452174,36.8765217 C38.7219401,36.8710706 38.2032097,36.974106 37.7217391,37.1791304 C37.2627425,37.3946368 36.853968,37.7038836 36.5217391,38.0869565 C36.1665631,38.467391 35.8899726,38.9141911 35.7078261,39.4017391 C35.3169449,40.4983842 35.3169449,41.6963984 35.7078261,42.7930435 C35.8887441,43.284299 36.1653967,43.7347463 36.5217391,44.1182609 C36.8653352,44.484618 37.2810006,44.775939 37.7426087,44.973913 C38.2240792,45.1789374 38.7428096,45.2819729 39.266087,45.2765217 C39.8806545,45.2776196 40.4873657,45.1384329 41.04,44.8695652 C41.5675101,44.6228781 42.0533423,44.2954695 42.48,43.8991304 L44.2434783,45.9130435 C43.6576919,46.5914988 42.9216495,47.123879 42.093913,47.4678261 C41.2301913,47.8223837 40.3040414,47.999807 39.3704348,47.9895652 C38.4060692,48.0033616 37.4485188,47.8260374 36.5530435,47.4678261 C34.9085912,46.8103392 33.6195263,45.4871519 33.0052174,43.826087 C32.3511257,42.0693442 32.3511257,40.1358732 33.0052174,38.3791304 C33.619847,36.7361648 34.8955393,35.4264035 36.5217391,34.7686957 C37.4262311,34.4028256 38.3948569,34.2218735 39.3704348,34.2365217 L39.3808696,34.2469565 Z M58.8417391,42.093913 C58.8658208,43.011834 58.6876993,43.9238162 58.32,44.7652174 C58.0076423,45.4662787 57.5444605,46.0897927 56.9634783,46.5913043 C56.3972888,47.0662479 55.7405359,47.4212494 55.0330435,47.6347826 C53.5776887,48.0803583 52.0223113,48.0803583 50.5669565,47.6347826 C49.8564434,47.4209372 49.1963361,47.0660408 48.626087,46.5913043 C48.0414661,46.0931853 47.5776241,45.4687825 47.2695652,44.7652174 C46.9086619,43.92202 46.7342461,43.0107861 46.7582609,42.093913 L46.7582609,34.5808696 L49.6173913,34.5808696 L49.6173913,41.8852174 C49.6029027,42.4273628 49.6841472,42.967815 49.8573913,43.4817391 C50.0019055,43.8762581 50.2337768,44.2329832 50.5356522,44.5252174 C50.8315478,44.8032081 51.1891625,45.0070485 51.5791304,45.12 C52.3959657,45.3648028 53.266643,45.3648028 54.0834783,45.12 C54.4734462,45.0070485 54.8310609,44.8032081 55.1269565,44.5252174 C55.4288319,44.2329832 55.6607032,43.8762581 55.8052174,43.4817391 C55.9822184,42.9685045 56.0670038,42.4279976 56.0556522,41.8852174 L56.0556522,34.5808696 L58.9147826,34.5808696 L58.8417391,42.093913 Z M69.2243478,34.2469565 C69.6193237,34.245291 70.0137454,34.2767051 70.4034783,34.3408696 C70.7602163,34.3979566 71.1099644,34.4923887 71.4469565,34.6226087 L70.7686957,37.44 C70.4386675,37.2747278 70.0875892,37.1553612 69.7252174,37.0852174 C69.3582242,37.0058977 68.9841421,36.9639445 68.6086957,36.96 C68.1803776,36.9547241 67.755112,37.0326895 67.3565217,37.1895652 C66.9822871,37.3382064 66.6468405,37.5701641 66.3756522,37.8678261 C66.0912111,38.1899338 65.8747139,38.566142 65.7391304,38.973913 C65.5788626,39.4511677 65.5012262,39.9522754 65.5095652,40.4556522 L65.5095652,47.6243478 L62.6086957,47.6243478 L62.6086957,34.5808696 L65.426087,34.5808696 L65.426087,36.0521739 C65.8278846,35.4526791 66.387646,34.9759792 67.0434783,34.6747826 C67.7272672,34.3750894 68.4674113,34.2256372 69.213913,34.2365217 L69.2243478,34.2469565 Z M78.7721739,34.2469565 C79.6292234,34.2390955 80.4785309,34.4096678 81.266087,34.7478261 C82.0064739,35.0682028 82.6686292,35.5452395 83.2069565,36.146087 C83.7810814,36.7740591 84.2276281,37.5076716 84.5217391,38.306087 C84.8359378,39.2009395 84.991319,40.1438213 84.9808696,41.0921739 C84.9808696,41.2695652 84.9808696,41.4573913 84.9808696,41.6347826 C84.9808696,41.8121739 84.9808696,41.9895652 84.9808696,42.1565217 L75.2347826,42.1565217 C75.3045127,42.6880152 75.4744763,43.2014469 75.7356522,43.6695652 C75.9609481,44.071542 76.2621785,44.4259307 76.6226087,44.7130435 C76.9679045,44.9823039 77.3608474,45.1840854 77.7808696,45.3078261 C78.214541,45.4352535 78.6645258,45.4985326 79.1165217,45.4956522 C79.786849,45.490484 80.4509835,45.366842 81.0782609,45.1304348 C81.7333484,44.8843745 82.3432963,44.5318035 82.8834783,44.0869565 L84.3026087,46.1113043 C83.5656191,46.7584341 82.7021275,47.2452586 81.7669565,47.5408696 C80.8498208,47.8163491 79.8967288,47.9535099 78.9391304,47.9478261 C78.0186605,47.9576953 77.1048149,47.7912195 76.2469565,47.4573913 C75.4629438,47.1438382 74.7523683,46.6713054 74.16,46.0695652 C73.5568993,45.4521979 73.0879536,44.7168058 72.7826087,43.9095652 C72.4456086,43.0090342 72.279294,42.05361 72.2921739,41.0921739 C72.2821776,40.1420769 72.4448166,39.1980631 72.7721739,38.306087 C73.0605754,37.501819 73.5076909,36.7637235 74.0869565,36.1356522 C74.6749187,35.5260523 75.3864952,35.0492961 76.173913,34.7373913 C76.9954687,34.4028153 77.8746767,34.232646 78.7617391,34.2365217 L78.7721739,34.2469565 Z M78.72,36.7826087 C78.2574582,36.7737528 77.7973502,36.8516172 77.3634783,37.0121739 C76.9731211,37.1551364 76.6174852,37.3791869 76.32,37.6695652 C76.0256859,37.9721812 75.7887962,38.3257479 75.6208696,38.7130435 C75.4324969,39.1242452 75.3025432,39.5597657 75.2347826,40.0069565 L82.0173913,40.0069565 C81.9366178,39.1248711 81.5702536,38.2932243 80.973913,37.6382609 C80.3728086,37.0466242 79.5520628,36.7326984 78.7095652,36.7721739 L78.72,36.7826087 Z M97.2,28.173913 C98.0250324,28.1711103 98.8477081,28.2621297 99.6521739,28.4452174 C100.415711,28.6186871 101.155129,28.8850176 101.853913,29.2382609 C102.52211,29.5765859 103.143056,30.0010743 103.70087,30.5008696 C104.244861,30.9843798 104.712741,31.5472437 105.088696,32.1704348 L102.521739,33.8817391 C101.949116,33.0377174 101.178963,32.3463707 100.278261,31.8678261 C99.3138093,31.3622817 98.2364214,31.1108912 97.1478261,31.1373913 C96.2264024,31.1276927 95.3119348,31.2978262 94.4556522,31.6382609 C93.6708818,31.9647382 92.9608057,32.44759 92.3686957,33.0573913 C91.7567666,33.6858361 91.2776759,34.4310882 90.96,35.2486957 C90.2788502,37.0652019 90.2788502,39.066972 90.96,40.8834783 C91.2776759,41.7010857 91.7567666,42.4463379 92.3686957,43.0747826 C92.9608057,43.6845839 93.6708818,44.1674357 94.4556522,44.493913 C95.3119348,44.8343477 96.2264024,45.0044812 97.1478261,44.9947826 C99.2668973,45.0412853 101.26561,44.0124785 102.45913,42.2608696 L104.963478,44.0973913 C104.556149,44.6939716 104.071982,45.2342747 103.523478,45.7043478 C102.985165,46.192162 102.389481,46.6126448 101.749565,46.9565217 C101.066602,47.2991841 100.344895,47.5584381 99.6,47.7286957 C97.4567059,48.2028474 95.2212746,48.0359159 93.1721739,47.2486957 C90.7815076,46.3133239 88.8901544,44.4219707 87.9547826,42.0313043 C86.976302,39.4927641 86.976302,36.681149 87.9547826,34.1426087 C88.8901544,31.7519424 90.7815076,29.8605891 93.1721739,28.9252174 C94.4535269,28.4165386 95.8214273,28.1613862 97.2,28.173913 Z M114,34.2052174 C114.957359,34.1941717 115.90755,34.3714462 116.796522,34.7269565 C117.624314,35.0572181 118.379399,35.5464281 119.01913,36.1669565 C119.649465,36.7850227 120.149724,37.5229937 120.490435,38.3373913 C121.198185,40.0840723 121.198185,42.0376669 120.490435,43.7843478 C120.149724,44.5987454 119.649465,45.3367165 119.01913,45.9547826 C118.379399,46.575311 117.624314,47.0645211 116.796522,47.3947826 C114.997678,48.0937019 113.002322,48.0937019 111.203478,47.3947826 C110.37468,47.0664709 109.619233,46.5770268 108.98087,45.9547826 C108.344677,45.3511173 107.834029,44.6276989 107.478261,43.826087 C106.77051,42.079406 106.77051,40.1258114 107.478261,38.3791304 C107.816865,37.5661476 108.313408,36.8284262 108.93913,36.2086957 C109.577494,35.5864515 110.33294,35.0970073 111.161739,34.7686957 C112.066231,34.4028256 113.034857,34.2218735 114.010435,34.2365217 L114,34.2052174 Z M114,36.8869565 C113.446274,36.8811519 112.896781,36.9839603 112.382609,37.1895652 C111.897312,37.3832642 111.456924,37.674488 111.088696,38.0452174 C110.719638,38.4228222 110.428849,38.8696442 110.233043,39.36 C109.81555,40.4518875 109.81555,41.6594169 110.233043,42.7513043 C110.428849,43.2416601 110.719638,43.6884821 111.088696,44.066087 C111.457299,44.4363584 111.897586,44.7275157 112.382609,44.9217391 C113.422411,45.3290132 114.577589,45.3290132 115.617391,44.9217391 C116.602893,44.5354097 117.387221,43.7623938 117.787826,42.7826087 C118.20532,41.6907212 118.20532,40.4831918 117.787826,39.3913043 C117.59042,38.8992941 117.295857,38.4521267 116.921739,38.0765217 C116.548972,37.7064294 116.105328,37.4153989 115.617391,37.2208696 C115.106473,37.0166015 114.560656,36.9138177 114.010435,36.9182609 L114,36.8869565 Z M129.57913,34.2052174 C131.17634,34.143431 132.70458,34.8589431 133.68,36.1252174 L133.68,27.986087 L136.528696,27.986087 L136.528696,47.613913 L133.68,47.613913 L133.68,46.0486957 C133.225146,46.6297037 132.648024,47.1035138 131.989565,47.4365217 C131.239327,47.8005661 130.412758,47.9794772 129.57913,47.9582609 C127.838935,47.9748848 126.168062,47.2771165 124.956522,46.0278261 C124.351582,45.3939102 123.879697,44.6452816 123.568696,43.826087 C122.898003,42.050799 122.898003,40.0918097 123.568696,38.3165217 C123.88363,37.5085927 124.355294,36.770953 124.956522,36.146087 C126.168062,34.8967966 127.838935,34.1990282 129.57913,34.2156522 L129.57913,34.2052174 Z M129.923478,36.8869565 C129.356266,36.8780855 128.793844,36.9919937 128.274783,37.2208696 C127.806446,37.4311845 127.387092,37.7368153 127.043478,38.1182609 C126.70251,38.5056923 126.440239,38.9558063 126.271304,39.4434783 C125.908742,40.4912615 125.908742,41.6304776 126.271304,42.6782609 C126.440239,43.1659329 126.70251,43.6160468 127.043478,44.0034783 C127.387092,44.3849238 127.806446,44.6905546 128.274783,44.9008696 C129.316684,45.3344933 130.488533,45.3344933 131.530435,44.9008696 C132.000484,44.6976659 132.423296,44.3992104 132.772174,44.0243478 C133.111971,43.6637659 133.380987,43.2425443 133.565217,42.7826087 C133.946462,41.7093735 133.946462,40.537583 133.565217,39.4643478 C133.385939,38.9777649 133.11296,38.5310717 132.761739,38.1495652 C132.412267,37.7753838 131.989606,37.4770354 131.52,37.2730435 C131.018458,37.0445406 130.474594,36.9236821 129.923478,36.9182609 L129.923478,36.8869565 Z M145.993043,34.2052174 C146.850122,34.197051 147.699492,34.3676357 148.486957,34.706087 C149.227508,35.0261738 149.889722,35.5032525 150.427826,36.1043478 C150.983514,36.736576 151.412195,37.4699401 151.690435,38.2643478 C152.005051,39.1590935 152.160445,40.1020494 152.149565,41.0504348 C152.149565,41.2278261 152.149565,41.4156522 152.149565,41.5930435 C152.149565,41.7704348 152.149565,41.9478261 152.149565,42.1147826 L142.518261,42.1147826 C142.586482,42.6466204 142.756538,43.1603318 143.01913,43.6278261 C143.244207,44.0299553 143.545471,44.3843835 143.906087,44.6713043 C144.251248,44.9407764 144.644232,45.1425795 145.064348,45.266087 C145.498051,45.3933679 145.948014,45.4566439 146.4,45.453913 C147.070327,45.4487449 147.734462,45.3251028 148.361739,45.0886957 C149.016745,44.8424623 149.626665,44.4899071 150.166957,44.0452174 L151.586087,46.0695652 C150.848745,46.7161977 149.985363,47.2029603 149.050435,47.4991304 C148.133333,47.7747625 147.180218,47.9119266 146.222609,47.906087 C145.302139,47.9159561 144.388293,47.7494804 143.530435,47.4156522 C142.746422,47.1020991 142.035847,46.6295663 141.443478,46.0278261 C140.840378,45.4104588 140.371432,44.6750667 140.066087,43.8678261 C139.729087,42.9672951 139.562772,42.0118708 139.575652,41.0504348 C139.565656,40.1003378 139.728295,39.156324 140.055652,38.2643478 C140.350523,37.4584795 140.804784,36.720305 141.391304,36.093913 C141.979267,35.4843132 142.690843,35.007557 143.478261,34.6956522 C144.279912,34.3848397 145.13328,34.229038 145.993043,34.2365217 L145.993043,34.2052174 Z M153.516522,47.5826087 L153.516522,46.9565217 L153.777391,46.9565217 L153.777391,46.8208696 L153.09913,46.8208696 L153.09913,46.9565217 L153.391304,46.9565217 L153.391304,47.613913 L153.516522,47.5826087 Z M154.82087,47.5826087 L154.82087,46.7895652 L154.612174,46.7895652 L154.372174,47.3321739 L154.132174,46.7895652 L153.923478,46.7895652 L153.923478,47.5826087 L154.069565,47.5826087 L154.069565,46.9878261 L154.288696,47.4991304 L154.434783,47.4991304 L154.653913,46.9878261 L154.653913,47.5826087 L154.82087,47.5826087 Z M145.94087,36.7408696 C145.478328,36.7320137 145.01822,36.8098781 144.584348,36.9704348 C144.193991,37.1133972 143.838355,37.3374478 143.54087,37.6278261 C143.246555,37.9304421 143.009666,38.2840087 142.841739,38.6713043 C142.653494,39.0825542 142.523546,39.5180564 142.455652,39.9652174 L149.217391,39.9652174 C149.143298,39.0721486 148.776498,38.2285075 148.173913,37.5652174 C147.568322,37.0082991 146.762075,36.7219681 145.94087,36.7721739 L145.94087,36.7408696 Z" id="Shape" fill="#F79E1B"></path>
                    <path d="M23.2904348,20.733913 L20.0973913,20.733913 L20.0973913,4.47652174 L14.3269565,18.7826087 L10.9669565,18.7826087 L5.2173913,4.63304348 L5.2173913,20.733913 L2.00347826,20.733913 L2.00347826,0.980869565 L6.8973913,0.980869565 L12.6469565,15.0991304 L18.386087,0.980869565 L23.28,0.980869565 L23.2904348,20.733913 Z M40.0904348,20.733913 L37.1373913,20.733913 L37.1373913,19.1165217 C36.6657379,19.7192935 36.0672432,20.2109142 35.3843478,20.5565217 C34.6073845,20.9302762 33.7522851,21.1127451 32.8904348,21.0886957 C31.0832842,21.1079154 29.3476764,20.3834878 28.0904348,19.0852174 C27.4664642,18.436251 26.9770665,17.6702372 26.6504348,16.8313043 C25.9540533,14.9888225 25.9540533,12.9555254 26.6504348,11.1130435 C26.9773126,10.2742356 27.4666811,9.50826757 28.0904348,8.85913043 C29.3476764,7.56086005 31.0832842,6.83643244 32.8904348,6.85565217 C33.7533288,6.83280025 34.6089513,7.01896079 35.3843478,7.39826087 C36.0669761,7.7488729 36.6651561,8.24379564 37.1373913,8.84869565 L37.1373913,7.22086957 L40.0904348,7.22086957 L40.0904348,20.733913 Z M33.2347826,9.64173913 C32.6461856,9.63171996 32.0623911,9.74919082 31.5234783,9.98608696 C31.03934,10.2040557 30.6058158,10.5203152 30.2504348,10.9147826 C29.8965789,11.3180107 29.6237752,11.7856741 29.4469565,12.2921739 C29.0700775,13.380469 29.0700775,14.5638788 29.4469565,15.6521739 C29.6254472,16.1601723 29.9019867,16.6281622 30.2608696,17.0295652 C30.6158385,17.4244893 31.0494658,17.7408239 31.533913,17.9582609 C32.6155117,18.4104393 33.8331839,18.4104393 34.9147826,17.9582609 C35.4003419,17.7468787 35.8372234,17.437865 36.1982609,17.0504348 C36.5621582,16.6529457 36.8456376,16.1887483 37.0330435,15.6834783 C37.427761,14.5695863 37.427761,13.353892 37.0330435,12.24 C36.8456376,11.7347299 36.5621582,11.2705325 36.1982609,10.8730435 C35.8368319,10.4860615 35.4000497,10.1771179 34.9147826,9.96521739 C34.3841239,9.73926004 33.8114044,9.62898486 33.2347826,9.64173913 Z M53.6243478,10.6017391 C53.377357,10.459819 53.1230949,10.3309464 52.8626087,10.2156522 C52.523229,10.0681099 52.174678,9.94263158 51.8191304,9.84 C51.4352372,9.7239488 51.0450386,9.62988307 50.6504348,9.55826087 C50.2373931,9.48206935 49.8182711,9.44364983 49.3982609,9.44347826 C48.7384236,9.40580977 48.0819588,9.5617655 47.5095652,9.89217391 C47.0941779,10.13448 46.8396062,10.5799804 46.8417391,11.0608696 C46.8341636,11.2732038 46.8964828,11.4821564 47.0191304,11.6556522 C47.143255,11.8220095 47.3038993,11.9576647 47.4886957,12.0521739 C47.7132474,12.1663241 47.9518048,12.2505209 48.1982609,12.3026087 C48.4695652,12.3652174 48.7617391,12.4208696 49.0747826,12.4695652 L50.4730435,12.6782609 C51.7160779,12.8070029 52.9052946,13.25251 53.9269565,13.9721739 C54.7847949,14.6089129 55.2729286,15.628136 55.2313043,16.6956522 C55.2373887,17.3153125 55.094226,17.9273332 54.813913,18.48 C54.5207886,19.0136227 54.1105069,19.4738517 53.613913,19.826087 C53.0313485,20.2441724 52.3770469,20.5518709 51.6834783,20.733913 C50.8328336,20.9607145 49.9550594,21.0695585 49.0747826,21.0573913 C48.7269565,21.0573913 48.3234783,21.0365217 47.8643478,20.9947826 C47.3684134,20.9476627 46.8766394,20.8639565 46.3930435,20.7443478 C45.8512519,20.6086817 45.3209312,20.4307452 44.8069565,20.2121739 C44.2615541,19.979863 43.7464609,19.6820199 43.2730435,19.3252174 L44.64,17.1130435 C44.8920404,17.3081212 45.1569935,17.4859187 45.4330435,17.6452174 C45.742323,17.8209013 46.067184,17.9676128 46.4034783,18.0834783 C46.7943248,18.2176851 47.1957288,18.3189088 47.6034783,18.386087 C48.0967477,18.4663174 48.5959154,18.5047149 49.0956522,18.5008696 C49.886345,18.5455385 50.6756203,18.391271 51.3913043,18.0521739 C51.8610481,17.8357417 52.1652444,17.3693073 52.173913,16.8521739 C52.1666925,16.458429 51.9525788,16.0976078 51.6104348,15.9026087 C51.0639935,15.5987091 50.4594657,15.4137947 49.8365217,15.36 L48.4278261,15.1721739 C47.1844388,15.0713766 45.9963082,14.6149606 45.0052174,13.8573913 C44.2276323,13.2006478 43.7932476,12.2242432 43.826087,11.2069565 C43.8175751,10.5793696 43.9532321,9.95820298 44.2226087,9.39130435 C44.4809383,8.85344543 44.8636758,8.38486034 45.3391304,8.02434783 C45.8660153,7.63396346 46.4602667,7.34391217 47.0921739,7.16869565 C47.8494277,6.95738056 48.6330167,6.85547885 49.4191304,6.86608696 C50.4329298,6.86030914 51.4431646,6.98658849 52.4243478,7.24173913 C53.2980213,7.45861012 54.1324362,7.8106839 54.8973913,8.28521739 L53.6243478,10.6017391 Z M67.6278261,9.89217391 L62.4104348,9.89217391 L62.4104348,15.7773913 C62.4097102,16.1753857 62.4767552,16.5705982 62.6086957,16.946087 C62.7046036,17.2365211 62.8610993,17.5032752 63.0678261,17.7286957 C63.2553607,17.9296613 63.4877761,18.083413 63.746087,18.1773913 C64.0169989,18.2755787 64.3031523,18.3250373 64.5913043,18.3234783 C65.0734826,18.3196784 65.550901,18.2277312 66,18.0521739 C66.4588387,17.8811381 66.8993155,17.6643956 67.3147826,17.4052174 L68.4834783,19.7634783 C67.9087773,20.147745 67.2927437,20.4662623 66.6469565,20.7130435 C65.9093685,20.9865865 65.1274637,21.1210317 64.3408696,21.1095652 C63.0260906,21.1860303 61.7370801,20.7224388 60.7721739,19.826087 C59.8234174,18.7248735 59.3571592,17.2884973 59.4782609,15.84 L59.4782609,9.9026087 L56.7965217,9.9026087 L56.7965217,7.22086957 L59.4782609,7.22086957 L59.4782609,3.13043478 L62.4417391,3.13043478 L62.4417391,7.22086957 L67.6591304,7.22086957 L67.6278261,9.89217391 Z M76.706087,6.85565217 C77.5948511,6.84443889 78.4761977,7.01857592 79.293913,7.36695652 C80.0623085,7.6989307 80.7494464,8.19381243 81.3078261,8.8173913 C81.8860408,9.47388274 82.3324287,10.2355764 82.6226087,11.0608696 C82.9465288,11.9895829 83.105447,12.9678123 83.0921739,13.9513043 C83.0921739,14.1391304 83.0921739,14.3269565 83.0921739,14.5147826 C83.0921739,14.7026087 83.0921739,14.88 83.0921739,15.0469565 L73.0434783,15.0469565 C73.1167299,15.5970215 73.2937797,16.1281709 73.5652174,16.6121739 C73.8025152,17.0149737 74.1141178,17.3690675 74.4834783,17.6556522 C74.8415242,17.9340034 75.2485432,18.1428218 75.6834783,18.2713043 C76.1338911,18.4049553 76.6014858,18.4717546 77.0713043,18.4695652 C77.7839226,18.4712779 78.4909683,18.3440096 79.1582609,18.093913 C79.8336736,17.8504171 80.4646368,17.4979237 81.026087,17.0504348 L82.4973913,19.1373913 C81.7325282,19.8074945 80.8372184,20.3119945 79.8678261,20.6191304 C78.9171159,20.9066134 77.9288699,21.0508058 76.9356522,21.0469565 C75.9652573,21.0807406 74.9975986,20.9247809 74.0869565,20.5878261 C73.2640754,20.2659277 72.5176486,19.7754187 71.8956522,19.1478261 C71.2695793,18.5065365 70.7828687,17.7427206 70.466087,16.9043478 C70.1158052,15.9706062 69.9424165,14.9798137 69.9547826,13.9826087 C69.9424203,12.9974233 70.1085799,12.0181428 70.4452174,11.0921739 C70.751529,10.2551766 71.2235541,9.48857935 71.8330435,8.83826087 C72.4200439,8.21466163 73.1308916,7.72062249 73.92,7.38782609 C74.803579,7.02634905 75.7515822,6.84882036 76.706087,6.86608696 L76.706087,6.85565217 Z M76.653913,9.48521739 C76.1734675,9.47637258 75.69563,9.55778192 75.2452174,9.72521739 C74.8535255,9.8801856 74.4982207,10.1146868 74.2017391,10.413913 C73.898515,10.7158455 73.6512111,11.0691367 73.4713043,11.4573913 C73.2643457,11.8903522 73.1202825,12.3506516 73.0434783,12.8243478 L80.0556522,12.8243478 C79.9619065,11.9047146 79.5655257,11.0422194 78.9286957,10.3721739 C78.321739,9.78081681 77.5009685,9.46079164 76.653913,9.48521739 Z M93.3495652,6.85565217 C93.758421,6.8530714 94.1667838,6.88448392 94.5704348,6.94956522 C94.9272009,7.01161933 95.276797,7.10950622 95.613913,7.24173913 L94.9043478,10.1634783 C94.5742543,9.9960095 94.2233509,9.87319331 93.8608696,9.79826087 C93.4799177,9.71804293 93.0919029,9.67609538 92.7026087,9.67304348 C92.2598632,9.66885591 91.8204879,9.75035295 91.4086957,9.91304348 C91.0104758,10.0653021 90.6532061,10.3082455 90.3652174,10.6226087 C90.0675407,10.9563098 89.8403839,11.3467356 89.6973913,11.7704348 C89.5308943,12.2644074 89.4497342,12.7831266 89.4573913,13.3043478 L89.4573913,20.7443478 L86.5043478,20.7443478 L86.5043478,7.17913043 L89.426087,7.17913043 L89.426087,8.7026087 C89.8395434,8.09640896 90.4092089,7.61327499 91.0747826,7.30434783 C91.782718,6.99968419 92.5477147,6.85024297 93.3182609,6.86608696 L93.3495652,6.85565217 Z M103.44,6.85565217 C104.412781,6.84570977 105.377748,7.0301887 106.278261,7.39826087 C107.136052,7.74975171 107.895325,8.30488052 108.490435,9.01565217 L106.601739,11.0295652 C106.163854,10.6035711 105.659958,10.2511961 105.109565,9.98608696 C104.55852,9.73895753 103.96041,9.61435119 103.356522,9.62086957 C102.815363,9.61572638 102.278963,9.72229586 101.78087,9.93391304 C101.299423,10.1377547 100.865828,10.4398496 100.507826,10.8208696 C100.142422,11.2172235 99.8587514,11.681734 99.6730435,12.1878261 C99.2661193,13.3246837 99.2661193,14.5674902 99.6730435,15.7043478 C99.8589979,16.2103208 100.14264,16.6747856 100.507826,17.0713043 C100.866029,17.4520917 101.299572,17.7541502 101.78087,17.9582609 C102.278963,18.1698781 102.815363,18.2764475 103.356522,18.2713043 C103.983848,18.2772596 104.604447,18.1417264 105.172174,17.8747826 C105.721034,17.6070631 106.224536,17.2549635 106.664348,16.8313043 L108.48,18.866087 C107.872351,19.5723983 107.107526,20.1263602 106.246957,20.4834783 C105.350171,20.8518106 104.388557,21.036327 103.41913,21.026087 C102.418922,21.0401589 101.425853,20.8557319 100.497391,20.4834783 C98.7986703,19.8064244 97.4622427,18.4472813 96.813913,16.7373913 C96.1358024,14.9167438 96.1358024,12.9128214 96.813913,11.0921739 C97.4622427,9.38228395 98.7986703,8.02314085 100.497391,7.34608696 C101.426916,6.99655754 102.416163,6.83345592 103.408696,6.86608696 L103.44,6.85565217 Z M124.173913,20.733913 L121.22087,20.733913 L121.22087,19.1165217 C120.749216,19.7192935 120.150722,20.2109142 119.467826,20.5565217 C118.690863,20.9302762 117.835763,21.1127451 116.973913,21.0886957 C115.166762,21.1079154 113.431155,20.3834878 112.173913,19.0852174 C111.549942,18.436251 111.060545,17.6702372 110.733913,16.8313043 C110.037532,14.9888225 110.037532,12.9555254 110.733913,11.1130435 C111.060791,10.2742356 111.550159,9.50826757 112.173913,8.85913043 C113.431155,7.56086005 115.166762,6.83643244 116.973913,6.85565217 C117.836807,6.83280025 118.69243,7.01896079 119.467826,7.39826087 C120.150454,7.7488729 120.748634,8.24379564 121.22087,8.84869565 L121.22087,7.22086957 L124.173913,7.22086957 L124.173913,20.733913 Z M117.328696,9.64173913 C116.740099,9.63171996 116.156304,9.74919082 115.617391,9.98608696 C115.133253,10.2040557 114.699729,10.5203152 114.344348,10.9147826 C113.990492,11.3180107 113.717688,11.7856741 113.54087,12.2921739 C113.163991,13.380469 113.163991,14.5638788 113.54087,15.6521739 C113.717688,16.1586737 113.990492,16.6263371 114.344348,17.0295652 C114.699523,17.4242604 115.133099,17.7405572 115.617391,17.9582609 C116.699223,18.4092755 117.916429,18.4092755 118.998261,17.9582609 C119.483674,17.7466188 119.920505,17.4376403 120.281739,17.0504348 C120.646925,16.653916 120.930567,16.1894512 121.116522,15.6834783 C121.512942,14.5698797 121.512942,13.3535985 121.116522,12.24 C120.930567,11.734027 120.646925,11.2695623 120.281739,10.8730435 C119.92031,10.4860615 119.483528,10.1771179 118.998261,9.96521739 C118.473954,9.74245529 117.908719,9.63225224 117.33913,9.64173913 L117.328696,9.64173913 Z M135.370435,6.86608696 C135.779291,6.86350619 136.187653,6.8949187 136.591304,6.96 C136.94807,7.02205411 137.297667,7.119941 137.634783,7.25217391 L136.925217,10.173913 C136.595124,10.0064443 136.24422,9.88362809 135.881739,9.80869565 C135.500765,9.72861496 135.112764,9.6866689 134.723478,9.68347826 C134.28071,9.67902682 133.841284,9.76053317 133.429565,9.92347826 C133.031345,10.0757368 132.674076,10.3186802 132.386087,10.6330435 C132.08841,10.9667446 131.861253,11.3571704 131.718261,11.7808696 C131.551764,12.2748422 131.470604,12.7935613 131.478261,13.3147826 L131.478261,20.7547826 L128.525217,20.7547826 L128.525217,7.18956522 L131.478261,7.18956522 L131.478261,8.71304348 C131.892755,8.10119866 132.466422,7.6141228 133.137391,7.30434783 C133.845422,6.9999941 134.610351,6.85056612 135.38087,6.86608696 L135.370435,6.86608696 Z M145.053913,6.86608696 C145.916807,6.84323503 146.77243,7.02939557 147.547826,7.40869565 C148.23027,7.75958699 148.828394,8.25446364 149.30087,8.85913043 L149.30087,0.417391304 L152.253913,0.417391304 L152.253913,20.733913 L149.30087,20.733913 L149.30087,19.1165217 C148.829216,19.7192935 148.230722,20.2109142 147.547826,20.5565217 C146.770863,20.9302762 145.915763,21.1127451 145.053913,21.0886957 C143.246762,21.1079154 141.511155,20.3834878 140.253913,19.0852174 C139.618927,18.4388647 139.118796,17.6727061 138.782609,16.8313043 C138.086227,14.9888225 138.086227,12.9555254 138.782609,11.1130435 C139.109487,10.2742356 139.598855,9.50826757 140.222609,8.85913043 C141.47985,7.56086005 143.215458,6.83643244 145.022609,6.85565217 L145.053913,6.86608696 Z M155.697391,19.4921739 C155.815239,19.489392 155.932413,19.5106965 156.041739,19.5547826 C156.146843,19.5987177 156.242498,19.6624883 156.323478,19.7426087 C156.402895,19.8201707 156.466661,19.9122769 156.511304,20.013913 C156.602977,20.2270838 156.602977,20.4685684 156.511304,20.6817391 C156.466436,20.7832495 156.402698,20.8753154 156.323478,20.9530435 C156.242176,21.0327673 156.146601,21.0964841 156.041739,21.1408696 C155.933355,21.1891143 155.816028,21.2140018 155.697391,21.213913 C155.346032,21.2188696 155.025674,21.0135118 154.883478,20.6921739 C154.791806,20.4790032 154.791806,20.2375186 154.883478,20.0243478 C154.9727,19.8149389 155.141683,19.6497109 155.353043,19.5652174 C155.465021,19.5167234 155.5858,19.4918571 155.707826,19.4921739 L155.697391,19.4921739 Z M155.697391,21.026087 C155.787052,21.0272645 155.87595,21.0094849 155.958261,20.973913 C156.036305,20.938619 156.107081,20.8890759 156.166957,20.8278261 C156.425471,20.5640887 156.425471,20.1419982 156.166957,19.8782609 C156.107409,19.8166254 156.036555,19.7670276 155.958261,19.7321739 C155.872206,19.7144605 155.783446,19.7144605 155.697391,19.7321739 C155.611254,19.715294 155.522659,19.715294 155.436522,19.7321739 C155.248538,19.8233401 155.114051,19.9972267 155.073077,20.2020937 C155.032104,20.4069607 155.089366,20.6191972 155.227826,20.7756522 C155.28754,20.8370919 155.358354,20.8866617 155.436522,20.9217391 C155.519079,20.9723421 155.611652,21.0043869 155.707826,21.0156522 L155.697391,21.026087 Z M155.697391,19.9826087 C155.783506,19.9778547 155.868525,20.0037301 155.937391,20.0556522 C155.993257,20.1016109 156.024192,20.1712138 156.02087,20.2434783 C156.02461,20.3054892 156.001853,20.3661734 155.958261,20.4104348 C155.906832,20.4586077 155.840655,20.48802 155.770435,20.493913 L156.031304,20.7965217 L155.822609,20.7965217 L155.582609,20.493913 L155.509565,20.493913 L155.509565,20.7965217 L155.342609,20.7965217 L155.342609,19.9930435 L155.697391,19.9826087 Z M155.49913,20.1286957 L155.49913,20.3373913 L155.697391,20.3373913 C155.731476,20.3472471 155.767655,20.3472471 155.801739,20.3373913 C155.814786,20.3110945 155.814786,20.2802098 155.801739,20.253913 C155.816651,20.2280848 155.816651,20.196263 155.801739,20.1704348 C155.767581,20.1611173 155.73155,20.1611173 155.697391,20.1704348 L155.49913,20.1286957 Z M145.356522,9.69391304 C144.767925,9.68389387 144.18413,9.80136473 143.645217,10.0382609 C143.161079,10.2562296 142.727555,10.5724891 142.372174,10.9669565 C142.018318,11.3701846 141.745514,11.8378481 141.568696,12.3443478 C141.191817,13.432643 141.191817,14.6160527 141.568696,15.7043478 C141.745514,16.2108476 142.018318,16.6785111 142.372174,17.0817391 C142.72735,17.4764343 143.160925,17.7927312 143.645217,18.0104348 C144.727049,18.4614494 145.944255,18.4614494 147.026087,18.0104348 C147.5115,17.7987927 147.948331,17.4898142 148.309565,17.1026087 C148.71055,16.6881506 149.019856,16.1939708 149.217391,15.6521739 C149.612958,14.5384282 149.612958,13.3224414 149.217391,12.2086957 C149.031437,11.7027227 148.747794,11.2382579 148.382609,10.8417391 C148.02118,10.4547571 147.584397,10.1458135 147.09913,9.93391304 C146.566048,9.71897329 145.99348,9.61939631 145.41913,9.64173913 L145.356522,9.69391304 Z" id="Shape" fill="#FFFFFF"></path>
                </g>
            </g>
        </g>
    </g>
</svg>