<?xml version="1.0" encoding="UTF-8"?>
<svg width="162px" height="48px" viewBox="0 0 162 48" version="1.1" xmlns="http://www.w3.org/2000/svg" xmlns:xlink="http://www.w3.org/1999/xlink">
    <!-- Generator: Sketch 50.2 (55047) - http://www.bohemiancoding.com/sketch -->
    <title>orangepay</title>
    <desc>Created with Sketch.</desc>
    <defs>
        <linearGradient x1="49.9968881%" y1="0.674698795%" x2="49.9968881%" y2="133.180723%" id="linearGradient-1">
            <stop stop-color="#FC6B0E" offset="0%"></stop>
            <stop stop-color="#FEC66B" offset="53%"></stop>
            <stop stop-color="#FFF197" offset="69%"></stop>
        </linearGradient>
        <linearGradient x1="49.9950412%" y1="0.716555127%" x2="49.9950412%" y2="133.218414%" id="linearGradient-2">
            <stop stop-color="#FEC66B" offset="9%"></stop>
            <stop stop-color="#FFF197" offset="27%"></stop>
            <stop stop-color="#FC6B0E" offset="100%"></stop>
        </linearGradient>
        <linearGradient x1="-0.962082527%" y1="58.7760813%" x2="98.7662969%" y2="32.2494345%" id="linearGradient-3">
            <stop stop-color="#FEC66B" offset="9%"></stop>
            <stop stop-color="#FFF197" offset="36%"></stop>
            <stop stop-color="#FC6B0E" offset="100%"></stop>
        </linearGradient>
        <linearGradient x1="-5.36054793%" y1="10.7352288%" x2="106.889637%" y2="67.6613949%" id="linearGradient-4">
            <stop stop-color="#FFF197" stop-opacity="0" offset="0%"></stop>
            <stop stop-color="#FFF197" offset="52%"></stop>
            <stop stop-color="#FFF197" stop-opacity="0" offset="100%"></stop>
        </linearGradient>
    </defs>
    <g id="Page-1" stroke="none" stroke-width="1" fill="none" fill-rule="evenodd">
        <g id="main-v6-slide-1" transform="translate(-1199.000000, -3381.000000)" fill-rule="nonzero">
            <g id="5-section---payment-system" transform="translate(276.000000, 3324.000000)">
                <g id="orangepay" transform="translate(923.000000, 57.000000)">
                    <path d="M38.4026816,18.1675978 L38.4026816,18.387486 C38.4026816,26.6064804 32.1787709,33.2513966 24.2252514,33.2513966 C16.2717318,33.2513966 9.58391061,26.5877095 9.58391061,18.3901676 L9.58391061,18.1702793 C8.15200984,20.3698323 7.3916672,22.9387841 7.39575419,25.563352 C7.39575419,33.7850279 15.0569832,40.424581 24.2493855,40.424581 C30.6207821,40.424581 34.6350838,33.8574302 39.0596648,25.5901676 C40.3012291,23.2008939 39.7890503,20.3316201 38.4026816,18.1675978 Z" id="Shape" fill="url(#linearGradient-1)"></path>
                    <path d="M23.5977654,0.753519553 C20.3396648,0.753519553 17.2505028,1.02167598 14.6225698,2.72446927 L14.8907263,2.72446927 C24.8634637,2.72446927 32.9617877,10.5546369 32.9617877,20.2350838 C32.9617877,29.9155307 25.4963128,37.7215642 14.8907263,37.7215642 L14.6413408,37.7215642 C17.3900111,39.4694408 20.5764448,40.4054789 23.833743,40.4218994 C33.8064804,40.4218994 41.6607821,31.3743017 41.6607821,20.2350838 C41.6607821,9.09586592 33.5624581,0.753519553 23.5977654,0.753519553 Z" id="Shape" fill="url(#linearGradient-2)"></path>
                    <path d="M42.0013408,20.1868156 C41.9996731,12.0353217 37.0962578,4.68451689 29.5707438,1.551867 C22.0452297,-1.58078289 13.3741685,0.119367061 7.58882682,5.86189944 C7.34480447,6.10592179 7.10346369,6.37139665 6.85944134,6.63955307 C6.18802904,7.39710477 5.56127121,8.19308722 4.98234637,9.02346369 C1.87136003,13.6334628 0.227966492,19.0768534 0.268156425,24.6382123 C0.268156425,37.4319553 8.51396648,47.9678212 8.51396648,47.9678212 C8.51396648,47.9678212 6.85944134,45.8547486 5.4972067,39.4967598 C3.64960894,30.8138547 3.9901676,29.4757542 4.37899441,24.7481564 C5.06011173,20.3450279 6.29899441,17.0627933 10.4098324,13.4641341 C13.8636872,10.4232402 17.1941899,9.70994413 21.8172067,9.70994413 C31.4976536,9.70994413 39.3278212,18.7575419 39.3278212,29.8967598 L39.3278212,30.1890503 C41.0830504,27.1480811 42.0052343,23.6979846 42.0013408,20.1868156 Z" id="Shape" fill="url(#linearGradient-3)"></path>
                    <path d="M39.3278212,30.2319553 C39.3036872,29.6232402 39.3036872,28.966257 39.2312849,28.1403352 C39.0868266,26.6700488 38.7902681,25.2187092 38.3463687,23.8096089 C37.8238469,22.1098897 37.1038484,20.4772929 36.2011173,18.9452514 C35.665023,18.0139972 35.055255,17.1271435 34.3776536,16.2931844 C33.8681564,15.6362011 33.452514,15.1749721 33.1119553,14.7861453 C32.7713966,14.3973184 32.4791061,14.1050279 32.2350838,13.8368715 C31.9427933,13.5687151 31.6746369,13.3005587 31.3340782,13.0109497 C31.722905,13.3273743 32.0393296,13.5713966 32.3798883,13.8368715 C32.7204469,14.1023464 33.0368715,14.3973184 33.4015642,14.7861453 C33.5973184,14.9818994 33.7903911,15.1991061 34.0102793,15.4189944 C34.2301676,15.6388827 34.4473743,15.9284916 34.7155307,16.2449162 C34.9836872,16.5613408 35.2250279,16.9260335 35.5414525,17.3389944 C35.686257,17.5347486 35.833743,17.7760894 36.0026816,18.0201117 C36.1716201,18.2641341 36.3191061,18.5054749 36.4880447,18.7977654 C37.3911168,20.3094492 38.0941946,21.9319364 38.5796648,23.624581 C38.9814698,25.036949 39.2340247,26.4875667 39.3331844,27.9526257 C39.3573184,28.3897207 39.3814525,28.8294972 39.3814525,29.218324 C39.3814525,29.6071508 39.3519553,29.9396648 39.3278212,30.2319553 Z" id="Shape" fill="#FFFFFF"></path>
                    <path d="M14.6172067,37.7215642 C15.1025698,37.7215642 15.6147486,37.7215642 16.2717318,37.6732961 C17.4519231,37.5789994 18.6197369,37.3669963 19.7577654,37.0404469 C21.1249018,36.6474259 22.4456234,36.1079889 23.6969832,35.4315084 C24.4500275,35.0243916 25.1804816,34.5768094 25.8851397,34.0907263 C26.4455866,33.7260335 26.8102793,33.3854749 27.150838,33.1414525 C27.4913966,32.8974302 27.7112849,32.6802235 27.9553073,32.4844693 C28.1993296,32.2887151 28.3924022,32.0715084 28.6605587,31.803352 C28.3924022,32.0956425 28.1993296,32.3637989 27.9794413,32.6292737 C27.7595531,32.8947486 27.5182123,33.1387709 27.2017877,33.433743 L26.6654749,33.8949721 C26.4697207,34.0639106 26.2283799,34.2355307 25.9843575,34.4312849 C25.7403352,34.6270391 25.4239106,34.8201117 25.083352,35.0641341 C24.9144134,35.1848045 24.7186592,35.2840223 24.522905,35.4046927 C24.3271508,35.5253631 24.1099441,35.6487151 23.8900559,35.7693855 C22.6541686,36.4411284 21.3350857,36.9469422 19.9669274,37.273743 C18.8228039,37.5491083 17.6559685,37.7196458 16.4808939,37.7832402 C16.1403352,37.7832402 15.7756425,37.8073743 15.4592179,37.7832402 C15.1427933,37.7591061 14.8612291,37.7456983 14.6172067,37.7215642 Z" id="Shape" fill="#FFFFFF"></path>
                    <path d="M31.2777654,9.8252514 C36.6992202,15.2031395 39.6339419,22.5972776 39.3760894,30.2292737 C42.935459,23.9894682 42.9096695,16.3279876 39.308373,10.1122858 C35.7070765,3.89658391 29.0732046,0.0637399859 21.8896089,0.0482681564 C21.5249162,0.0482681564 21.1843575,0.0724022346 20.8169832,0.0965363128 C19.8050065,0.14756159 18.797848,0.269424187 17.802905,0.46122905 C16.2464646,0.748117998 14.7202659,1.17994245 13.2442458,1.75106145 C20.0514963,2.10141208 26.4826482,4.98084681 31.2777654,9.8252514 Z" id="Shape" fill="url(#linearGradient-4)"></path>
                    <path d="M61.4346369,16.4406704 C64.8546647,16.4539008 67.6238645,19.2231007 67.637095,22.6431285 C67.6444601,25.4540579 65.7605403,27.9185251 63.0461311,28.6488408 C60.3317218,29.3791564 57.4655202,28.1927161 56.0614238,25.7575792 C54.6573273,23.3224423 55.0664092,20.2474782 57.058324,18.2641341 C58.20281,17.078221 59.7866877,16.418272 61.4346369,16.4406704 Z M61.4346369,19.0927374 C60.4827746,19.0734603 59.566109,19.4525691 58.9059218,20.1385475 C58.2360879,20.8077292 57.8672659,21.7205877 57.8842458,22.6672626 C57.8784934,23.6106365 58.2507038,24.5170385 58.9177824,25.1841171 C59.5848609,25.8511956 60.4912629,26.2234061 61.4346369,26.2176536 C62.3794152,26.2367564 63.2885647,25.857133 63.9392179,25.1718436 C64.6081497,24.505171 64.9841422,23.5996118 64.9841422,22.6551955 C64.9841422,21.7107792 64.6081497,20.8052201 63.9392179,20.1385475 C63.2820474,19.4627753 62.3772294,19.0849605 61.4346369,19.0927374 Z" id="Shape" fill="#FFFFFF"></path>
                    <path d="M73.6196648,16.4406704 C73.9702046,16.4322034 74.3077155,16.5736458 74.547486,16.8294972 C74.7862995,17.0777143 74.9173779,17.4102293 74.9121788,17.7546369 L74.9121788,17.7787709 C74.9212132,18.1159684 74.7890097,18.4416166 74.547486,18.677095 C74.3083438,18.9322414 73.9719597,19.0736203 73.6223464,19.0659218 L73.0136313,19.0659218 C72.455228,19.0485523 71.9158797,19.2699485 71.5307263,19.6746369 C71.1394454,20.0688205 70.9205269,20.6021328 70.9220112,21.1575419 L70.9220112,27.4806704 C70.9389685,27.8250214 70.7953647,28.1577862 70.5331844,28.381676 C70.3006992,28.63195 69.9737634,28.7730384 69.6321788,28.7705028 L69.6080447,28.7705028 C69.2655001,28.7778615 68.9366736,28.6359572 68.7070391,28.381676 C68.4487781,28.1549149 68.3060327,27.8241395 68.3182123,27.4806704 L68.3182123,21.1602235 C68.3192462,19.9020287 68.8175739,18.6952467 69.704581,17.802905 C70.5833059,16.8956379 71.7990593,16.3936055 73.0618994,16.4165363 L73.6223464,16.4165363 L73.6196648,16.4406704 Z" id="Shape" fill="#FFFFFF"></path>
                    <path d="M85.4641341,18.2641341 C86.6507316,19.4092612 87.31074,20.9942518 87.2875978,22.6431285 L87.2875978,27.5316201 C87.3045551,27.8759711 87.1609513,28.2087359 86.8987709,28.4326257 C86.6662858,28.6828998 86.33935,28.8239881 85.9977654,28.8214525 L85.9736313,28.8214525 C85.6310867,28.8288112 85.3022602,28.6869069 85.0726257,28.4326257 C84.8143646,28.2058646 84.6716193,27.8750892 84.6837989,27.5316201 C83.8578771,28.4084916 82.6887151,28.8214525 81.1334078,28.8214525 C77.71338,28.8082221 74.9441802,26.0390222 74.9309497,22.6189944 C74.9071383,20.1123839 76.409277,17.8429341 78.7259412,16.8854739 C81.0426054,15.9280138 83.7086646,16.4747783 85.4614525,18.2668156 L85.4641341,18.2641341 Z M78.5698324,20.1117318 C77.5451132,21.1261636 77.2381548,22.6607821 77.7938254,23.9913276 C78.3494961,25.321873 79.6567168,26.1823681 81.0985475,26.1667039 C82.537133,26.1752599 83.8380226,25.3129292 84.3904154,23.984598 C84.9428083,22.6562668 84.6369845,21.1257767 83.6165363,20.1117318 C82.9630318,19.4305912 82.055788,19.0517635 81.1119553,19.0659218 C80.1576441,19.0544402 79.2397981,19.4320351 78.5698324,20.1117318 Z" id="Shape" fill="#FFFFFF"></path>
                    <path d="M90.886257,27.507486 C90.9032143,27.8518371 90.7596105,28.1846018 90.4974302,28.4084916 C90.264945,28.6587657 89.9380092,28.799854 89.5964246,28.7973184 L89.5642458,28.7973184 C89.2217012,28.8046771 88.8928748,28.6627728 88.6632402,28.4084916 C88.4049792,28.1817305 88.2622338,27.8509551 88.2744134,27.507486 L88.2744134,21.6455866 C88.2890788,18.7770873 90.6108303,16.4553358 93.4793296,16.4406704 C94.8589007,16.4121021 96.1866873,16.9659955 97.1369832,17.9664804 C98.1405133,18.9250762 98.700072,20.2579138 98.6815642,21.6455866 L98.6815642,27.507486 C98.6985216,27.8518371 98.5549178,28.1846018 98.2927374,28.4084916 C98.0659763,28.6667527 97.7352009,28.809498 97.3917318,28.7973184 L97.3675978,28.7973184 C97.0179844,28.8050169 96.6816004,28.6636381 96.4424581,28.4084916 C96.184197,28.1817305 96.0414517,27.8509551 96.0536313,27.507486 L96.0536313,21.6455866 C96.0633855,20.9648214 95.8008024,20.3083638 95.3242458,19.8221229 C94.8495921,19.3254684 94.1875738,19.0518991 93.5007821,19.0686034 C92.8149165,19.056832 92.1547985,19.3296161 91.6773184,19.8221229 C91.1968771,20.3058209 90.933612,20.9639837 90.947933,21.6455866 L90.947933,27.507486 L90.886257,27.507486 Z" id="Shape" fill="#FFFFFF"></path>
                    <path d="M105.47933,30.596648 C106.398115,30.5912536 107.275543,30.2139691 107.911508,29.550838 C108.62668,28.9153398 109.034021,28.0029755 109.029721,27.046257 C108.203799,28.2368715 107.034637,28.8214525 105.47933,28.8214525 C102.059302,28.8082221 99.2901019,26.0390222 99.2768715,22.6189944 C99.2729665,20.1168488 100.775428,17.8582824 103.084687,16.8949178 C105.393945,15.9315532 108.05606,16.4527638 109.831508,18.2158659 C111.020517,19.3482348 111.681696,20.9263116 111.654972,22.5680447 L111.654972,26.9953073 C111.65551,28.6642582 110.949117,30.2553459 109.710838,31.3743017 C108.595158,32.5120797 107.072778,33.1594288 105.47933,33.1736313 C103.065922,33.1736313 101.271955,32.2243575 100.054525,30.3526257 C99.9165275,30.1518131 99.8401098,29.9151045 99.8346369,29.6715084 C99.8350431,29.5228591 99.859493,29.3752543 99.9070391,29.2344134 C100.022945,28.8434983 100.323778,28.5346429 100.711508,28.4084916 L100.735642,28.4084916 C100.897037,28.3416429 101.070478,28.3087803 101.24514,28.3119553 C101.662645,28.3216636 102.043106,28.5538269 102.242682,28.9206704 C102.972067,30.0603352 104.044693,30.596648 105.47933,30.596648 Z M109.029721,22.5707263 C108.983354,20.6399487 107.410632,19.0957357 105.47933,19.0846927 C104.527467,19.0654156 103.610802,19.4445244 102.950615,20.1305028 C101.925895,21.1449345 101.618937,22.6795531 102.174608,24.0100985 C102.730278,25.340644 104.037499,26.201139 105.47933,26.1854749 C106.422704,26.1912273 107.329106,25.8190168 107.996184,25.1519383 C108.663263,24.4848598 109.035473,23.5784578 109.029721,22.6350838 L109.029721,22.5626816 L109.029721,22.5707263 Z" id="Shape" fill="#FFFFFF"></path>
                    <path d="M124.108156,20.0634637 C124.194285,20.2287172 124.235874,20.4135585 124.228827,20.5997765 C124.22945,20.7585985 124.196555,20.9157647 124.132291,21.0610056 C124.023336,21.3923347 123.774279,21.6590417 123.451173,21.7903911 C122.453631,22.2516201 121.139665,22.8362011 119.511955,23.5655866 C117.492737,24.4907263 116.294078,25.0243575 115.961564,25.1959777 C116.497877,25.877095 117.348827,26.2176536 118.514413,26.2176536 C120.036436,26.2200088 121.389028,25.2476985 121.871732,23.8042458 C122.033281,23.2602042 122.546552,22.8976998 123.113296,22.9273743 C123.541959,22.9234956 123.944303,23.1337204 124.185922,23.4878212 C124.348731,23.6956475 124.434914,23.9532486 124.429944,24.2172067 C124.432991,24.3762654 124.399987,24.53395 124.333408,24.6784358 C123.323203,27.511676 120.421494,29.2076792 117.457122,28.6975162 C114.492751,28.1873531 112.324947,25.6188959 112.32,22.6109497 C112.315391,20.3401634 113.554702,18.249204 115.548924,17.1631248 C117.543147,16.0770456 119.971997,16.1702777 121.877095,17.4060335 C122.846837,18.0744202 123.617745,18.9926523 124.108156,20.0634637 Z M118.476872,19.0900559 C117.525009,19.0707788 116.608344,19.4498876 115.948156,20.1358659 C115.278322,20.8050476 114.909501,21.7179061 114.92648,22.664581 L114.92648,22.7369832 L120.938547,20.0393296 C120.402235,19.409162 119.597765,19.0927374 118.490279,19.0927374 L118.476872,19.0900559 Z" id="Shape" fill="#FFFFFF"></path>
                    <path d="M126.467933,33.2218994 C126.125388,33.2292581 125.796562,33.0873538 125.566927,32.8330726 C125.326056,32.5940631 125.186763,32.2712859 125.178101,31.932067 L125.178101,22.6189944 C125.151377,20.9772613 125.812555,19.3991845 127.001564,18.2668156 C128.779676,16.5092555 131.439175,15.9910925 133.747048,16.9525601 C136.054922,17.9140276 137.559904,20.1671262 137.564246,22.6672626 C137.551015,26.0872904 134.781816,28.8564902 131.361788,28.8697207 C129.80648,28.8697207 128.613184,28.5050279 127.811397,27.797095 L127.811397,31.9803352 C127.818755,32.3228798 127.676851,32.6517062 127.42257,32.8813408 C127.18356,33.1222119 126.860783,33.2615056 126.521564,33.2701676 L126.473296,33.2701676 L126.467933,33.2218994 Z M133.861006,25.1235754 C134.88247,24.1122192 135.190881,22.5835587 134.641447,21.2552692 C134.092013,19.9269798 132.793852,19.0628626 131.356425,19.0686034 C130.409502,19.0509542 129.496155,19.4193419 128.826464,20.0890336 C128.156772,20.7587252 127.788384,21.6720719 127.806034,22.6189944 C127.800281,23.5623684 128.172492,24.4687704 128.83957,25.1358489 C129.506649,25.8029274 130.413051,26.1751379 131.356425,26.1693855 C132.298284,26.1734445 133.201707,25.7962125 133.861006,25.1235754 Z" id="Shape" fill="#FFFFFF"></path>
                    <path d="M148.722235,18.2641341 C149.908832,19.4092612 150.568841,20.9942518 150.545698,22.6431285 L150.545698,27.5316201 C150.562794,27.8714223 150.423507,28.2003757 150.167598,28.424581 C149.935113,28.6748551 149.608177,28.8159434 149.266592,28.8134078 L149.218324,28.8134078 C148.875779,28.8207665 148.546953,28.6788622 148.317318,28.424581 C148.059057,28.1978199 147.916312,27.8670445 147.928492,27.5235754 C147.10257,28.4004469 145.933408,28.8134078 144.378101,28.8134078 C140.958073,28.8001774 138.188873,26.0309775 138.175642,22.6109497 C138.188873,19.1909219 140.958073,16.4217221 144.378101,16.4084916 C146.018166,16.4109062 147.586581,17.0808708 148.722235,18.2641341 Z M141.838659,20.1117318 C140.81394,21.1261636 140.506982,22.6607821 141.062652,23.9913276 C141.618323,25.321873 142.925544,26.1823681 144.367374,26.1667039 C145.804005,26.1708785 147.10089,25.306946 147.65052,23.9796057 C148.200149,22.6522655 147.893665,21.1244044 146.874637,20.1117318 C146.221132,19.4305912 145.313889,19.0517635 144.370056,19.0659218 C143.419454,19.0573603 142.50603,19.4347284 141.838659,20.1117318 Z" id="Shape" fill="#FFFFFF"></path>
                    <path d="M154.144358,23.396648 C154.134603,24.0774132 154.397186,24.7338709 154.873743,25.2201117 C155.351223,25.7126186 156.011341,25.9854026 156.697207,25.9736313 C157.376873,25.9898945 158.031282,25.7158425 158.496536,25.2201117 C158.993191,24.745458 159.26676,24.0834397 159.250056,23.396648 L159.250056,17.7653631 C159.264311,17.045667 159.844326,16.4656522 160.564022,16.4513966 L160.588156,16.4513966 C160.931626,16.4392171 161.262401,16.5819624 161.489162,16.8402235 C161.744308,17.0793657 161.885687,17.4157498 161.877989,17.7653631 L161.877989,28.0277095 C161.796047,30.8583699 159.527456,33.1375287 156.697207,33.2326257 C155.668504,33.2433036 154.657523,32.9645405 153.779665,32.4281564 C152.949007,31.9360422 152.274181,31.2193876 151.832849,30.3606704 C151.739318,30.1798948 151.689709,29.9796208 151.688045,29.7760894 C151.682539,29.6090363 151.715571,29.4429587 151.784581,29.2907263 C151.908324,28.9434303 152.186962,28.6737166 152.538101,28.5613408 L152.586369,28.5372067 C152.735487,28.4895546 152.891051,28.4651347 153.047598,28.4648045 C153.206657,28.4617576 153.364341,28.4947614 153.508827,28.5613408 C153.796351,28.6747679 154.030814,28.8920054 154.16581,29.1700559 C154.400947,29.6080197 154.75513,29.9705699 155.187486,30.2158659 C155.644345,30.484674 156.164454,30.6271949 156.694525,30.6288268 C157.365259,30.6352599 158.008414,30.3622592 158.469721,29.8753073 C158.968955,29.4004893 159.250287,28.7408124 159.247374,28.0518436 L159.247374,27.9553073 C158.686927,28.3682682 157.836872,28.5881564 156.694525,28.5881564 C155.310719,28.6086607 153.980412,28.0542041 153.020782,27.0569832 C152.024978,26.1074876 151.470081,24.7858416 151.489609,23.4100559 L151.489609,17.7787709 C151.48191,17.4291576 151.623289,17.0927735 151.878436,16.8536313 C152.110921,16.6033572 152.437857,16.4622689 152.779441,16.4648045 L152.803575,16.4648045 C153.14612,16.4574458 153.474946,16.5993501 153.704581,16.8536313 C153.94906,17.1000519 154.088442,17.4316851 154.093408,17.7787709 L154.093408,23.4100559 L154.144358,23.396648 Z" id="Shape" fill="#FFFFFF"></path>
                </g>
            </g>
        </g>
    </g>
</svg>