<?xml version="1.0" encoding="UTF-8"?>
<svg width="96px" height="48px" viewBox="0 0 96 48" version="1.1" xmlns="http://www.w3.org/2000/svg" xmlns:xlink="http://www.w3.org/1999/xlink">
    <!-- Generator: Sketch 50.2 (55047) - http://www.bohemiancoding.com/sketch -->
    <title>Verified-by-visa-logo</title>
    <desc>Created with Sketch.</desc>
    <defs></defs>
    <g id="Page-1" stroke="none" stroke-width="1" fill="none" fill-rule="evenodd">
        <g id="main-v6-slide-1" transform="translate(-493.000000, -3382.000000)" fill="#FFFFFF" fill-rule="nonzero">
            <g id="5-section---payment-system" transform="translate(276.000000, 3324.000000)">
                <g id="Verified-by-visa-logo" transform="translate(217.000000, 58.000000)">
                    <g id="Group">
                        <path d="M5.21290323,16.7741935 L0.15483871,1.23870968 L2.32258065,1.23870968 L4.7483871,8.87741935 C5.41935484,10.9935484 5.98709677,12.8516129 6.4,14.7096774 L6.4516129,14.7096774 C6.86451613,12.9032258 7.53548387,10.9419355 8.20645161,8.92903226 L10.8387097,1.23870968 L13.0064516,1.23870968 L7.43225806,16.7741935 L5.21290323,16.7741935 Z" id="Shape"></path>
                        <path d="M14.0903226,11.5612903 C14.1419355,14.2967742 15.8967742,15.4322581 17.9096774,15.4322581 C19.3548387,15.4322581 20.2322581,15.1741935 21.0064516,14.8645161 L21.3677419,16.3096774 C20.6451613,16.6193548 19.4064516,16.9806452 17.6516129,16.9806452 C14.1935484,16.9806452 12.1806452,14.7096774 12.1806452,11.3548387 C12.1806452,8 14.1419355,5.31612903 17.3935484,5.31612903 C21.0580645,5.31612903 21.9870968,8.51612903 21.9870968,10.5806452 C21.9870968,10.9935484 21.9354839,11.3032258 21.9354839,11.5096774 L14.0903226,11.5612903 Z M20.0258065,10.116129 C20.0774194,8.82580645 19.5096774,6.81290323 17.1870968,6.81290323 C15.1225806,6.81290323 14.2451613,8.72258065 14.0903226,10.116129 L20.0258065,10.116129 Z" id="Shape"></path>
                        <path d="M23.5870968,9.08387097 C23.5870968,7.79354839 23.5870968,6.65806452 23.483871,5.62580645 L25.2387097,5.62580645 L25.2903226,7.79354839 L25.3935484,7.79354839 C25.9096774,6.29677419 27.1483871,5.36774194 28.4903226,5.36774194 C28.6967742,5.36774194 28.9032258,5.36774194 29.0580645,5.41935484 L29.0580645,7.32903226 C28.8516129,7.27741935 28.6451613,7.27741935 28.3870968,7.27741935 C26.9419355,7.27741935 25.9612903,8.36129032 25.6516129,9.85806452 C25.6,10.116129 25.5483871,10.4774194 25.5483871,10.7870968 L25.5483871,16.7225806 L23.5354839,16.7225806 L23.5354839,9.08387097 L23.5870968,9.08387097 Z" id="Shape"></path>
                        <path d="M32.5677419,2.47741935 C32.5677419,3.1483871 32.1032258,3.71612903 31.2774194,3.71612903 C30.5548387,3.71612903 30.0387097,3.1483871 30.0387097,2.47741935 C30.0387097,1.75483871 30.5548387,1.18709677 31.3290323,1.18709677 C32.0516129,1.18709677 32.5677419,1.75483871 32.5677419,2.47741935 Z M30.2967742,5.62580645 L32.3096774,5.62580645 L32.3096774,16.7741935 L30.2967742,16.7741935 L30.2967742,5.62580645 Z" id="Shape"></path>
                        <path d="M34.9935484,16.7741935 L34.9935484,7.17419355 L33.4451613,7.17419355 L33.4451613,5.62580645 L34.9935484,5.62580645 L34.9935484,5.10967742 C34.9935484,3.56129032 35.3548387,2.11612903 36.283871,1.18709677 C37.0580645,0.464516129 38.0387097,0.15483871 39.0193548,0.15483871 C39.7419355,0.15483871 40.3612903,0.309677419 40.7741935,0.464516129 L40.516129,2.01290323 C40.2064516,1.85806452 39.7935484,1.75483871 39.2258065,1.75483871 C37.5225806,1.75483871 37.0580645,3.2516129 37.0580645,5.00645161 L37.0580645,5.62580645 L39.7419355,5.62580645 L39.7419355,7.17419355 L37.0580645,7.17419355 L37.0580645,16.7741935 L34.9935484,16.7741935 Z" id="Shape"></path>
                        <path d="M43.9225806,2.47741935 C43.9741935,3.1483871 43.4580645,3.71612903 42.6322581,3.71612903 C41.9096774,3.71612903 41.3935484,3.1483871 41.3935484,2.47741935 C41.3935484,1.75483871 41.9096774,1.18709677 42.683871,1.18709677 C43.4580645,1.18709677 43.9225806,1.75483871 43.9225806,2.47741935 Z M41.6516129,5.62580645 L43.6645161,5.62580645 L43.6645161,16.7741935 L41.6516129,16.7741935 L41.6516129,5.62580645 Z" id="Shape"></path>
                        <path d="M47.2774194,11.5612903 C47.3290323,14.2967742 49.083871,15.4322581 51.0967742,15.4322581 C52.5419355,15.4322581 53.4193548,15.1741935 54.1935484,14.8645161 L54.5548387,16.3096774 C53.8322581,16.6193548 52.5935484,16.9806452 50.8387097,16.9806452 C47.3806452,16.9806452 45.3677419,14.7096774 45.3677419,11.3548387 C45.3677419,8 47.3290323,5.31612903 50.5806452,5.31612903 C54.2451613,5.31612903 55.1741935,8.51612903 55.1741935,10.5806452 C55.1741935,10.9935484 55.1225806,11.3032258 55.1225806,11.5096774 L47.2774194,11.5612903 Z M53.2129032,10.116129 C53.2129032,8.82580645 52.6967742,6.81290323 50.3741935,6.81290323 C48.3096774,6.81290323 47.4322581,8.72258065 47.2774194,10.116129 L53.2129032,10.116129 Z" id="Shape"></path>
                        <path d="M66.4258065,0.412903226 L66.4258065,13.883871 C66.4258065,14.8645161 66.4258065,16 66.5290323,16.7741935 L64.7225806,16.7741935 L64.6193548,14.8129032 L64.5677419,14.8129032 C63.9483871,16.0516129 62.6064516,16.9806452 60.7483871,16.9806452 C58.0645161,16.9806452 56,14.7096774 56,11.3032258 C56,7.58709677 58.2709677,5.31612903 61.0064516,5.31612903 C62.7096774,5.31612903 63.8451613,6.14193548 64.3612903,7.01935484 L64.4129032,7.01935484 L64.4129032,0.412903226 L66.4258065,0.412903226 Z M64.4129032,10.1677419 C64.4129032,9.90967742 64.4129032,9.5483871 64.3096774,9.29032258 C64,8 62.916129,6.91612903 61.3677419,6.91612903 C59.2516129,6.91612903 58.0129032,8.77419355 58.0129032,11.2516129 C58.0129032,13.5225806 59.0967742,15.3806452 61.316129,15.3806452 C62.6580645,15.3806452 63.8967742,14.5032258 64.3096774,12.9548387 C64.3612903,12.6967742 64.4129032,12.3870968 64.4129032,12.0774194 L64.4129032,10.1677419 Z" id="Shape"></path>
                        <path d="M73.9096774,16.7741935 C73.9612903,16 74.0129032,14.8645161 74.0129032,13.883871 L74.0129032,0.412903226 L76.0258065,0.412903226 L76.0258065,7.43225806 L76.0774194,7.43225806 C76.8,6.19354839 78.0903226,5.36774194 79.8967742,5.36774194 C82.683871,5.36774194 84.6451613,7.69032258 84.5935484,11.0451613 C84.5935484,15.0193548 82.0645161,17.0322581 79.5870968,17.0322581 C77.9870968,17.0322581 76.6967742,16.4129032 75.8709677,14.916129 L75.8193548,14.916129 L75.716129,16.7741935 L73.9096774,16.7741935 Z M76.0258065,12.283871 C76.0258065,12.5419355 76.0774194,12.8 76.1290323,13.0064516 C76.5419355,14.4 77.6774194,15.3806452 79.1741935,15.3806452 C81.2903226,15.3806452 82.5806452,13.6258065 82.5806452,11.0967742 C82.5806452,8.87741935 81.4451613,6.96774194 79.2774194,6.96774194 C77.883871,6.96774194 76.5935484,7.89677419 76.1806452,9.44516129 C76.1290323,9.6516129 76.0774194,9.96129032 76.0774194,10.2709677 L76.0774194,12.283871 L76.0258065,12.283871 Z" id="Shape"></path>
                        <path d="M86.8129032,5.62580645 L89.2387097,12.2322581 C89.4967742,12.9548387 89.7548387,13.8322581 89.9612903,14.5032258 L90.0129032,14.5032258 C90.2193548,13.8322581 90.4258065,12.9548387 90.7354839,12.1806452 L92.9548387,5.62580645 L95.1225806,5.62580645 L92.0774194,13.5741935 C90.6322581,17.3935484 89.6516129,19.3548387 88.2580645,20.5419355 C87.2774194,21.4193548 86.2967742,21.7806452 85.7806452,21.8322581 L85.2645161,20.1290323 C85.7806452,19.9741935 86.4516129,19.6645161 87.0193548,19.1483871 C87.5870968,18.7354839 88.2580645,17.9096774 88.7225806,16.8774194 C88.8258065,16.6709677 88.8774194,16.516129 88.8774194,16.4129032 C88.8774194,16.3096774 88.8258065,16.1548387 88.7225806,15.8967742 L84.5935484,5.62580645 L86.8129032,5.62580645 Z" id="Shape"></path>
                    </g>
                    <g id="Group" transform="translate(11.870968, 23.741935)">
                        <path d="M21.9354839,0.619354839 L15.7935484,16.1548387 L13.316129,2.94193548 C13.0064516,1.44516129 11.8709677,0.619354839 10.5806452,0.619354839 L0.516129032,0.619354839 L0.361290323,1.29032258 C2.42580645,1.75483871 4.7483871,2.47741935 6.19354839,3.2516129 C7.07096774,3.71612903 7.32903226,4.12903226 7.58709677,5.26451613 L12.283871,23.483871 L18.5806452,23.483871 L28.1806452,0.619354839 L21.9354839,0.619354839 Z" id="Shape"></path>
                        <polygon id="Shape" points="30.7096774 0.619354839 25.8064516 23.483871 31.7419355 23.483871 36.5935484 0.619354839"></polygon>
                        <path d="M44.3870968,6.96774194 C44.3870968,6.14193548 45.2129032,5.26451613 46.916129,5.05806452 C47.7419355,4.95483871 50.116129,4.8516129 52.7483871,6.09032258 L53.7806452,1.23870968 C52.3354839,0.722580645 50.5290323,0.206451613 48.2580645,0.206451613 C42.4258065,0.206451613 38.2967742,3.30322581 38.2451613,7.79354839 C38.1935484,11.0967742 41.1870968,12.9032258 43.4064516,13.9870968 C45.7290323,15.1225806 46.5032258,15.7935484 46.4516129,16.8258065 C46.4516129,18.3741935 44.5935484,19.0451613 42.9419355,19.0451613 C39.9483871,19.0967742 38.2451613,18.2193548 36.8516129,17.6 L35.7677419,22.6064516 C37.1612903,23.2258065 39.6903226,23.7935484 42.3225806,23.7935484 C48.516129,23.7935484 52.5935484,20.7483871 52.5935484,15.9483871 C52.6967742,10.0129032 44.3354839,9.6516129 44.3870968,6.96774194" id="Shape"></path>
                        <path d="M61.4709677,15.3806452 L64.6193548,6.81290323 L66.3741935,15.3806452 L61.4709677,15.3806452 Z M63.7419355,0.619354839 C62.6064516,0.619354839 61.6258065,1.29032258 61.2129032,2.27096774 L52.3354839,23.4322581 L58.5290323,23.4322581 L59.7677419,20.0258065 L67.3548387,20.0258065 L68.0774194,23.4322581 L73.5483871,23.4322581 L68.8,0.567741935 L63.7419355,0.567741935 L63.7419355,0.619354839 Z" id="Shape"></path>
                    </g>
                </g>
            </g>
        </g>
    </g>
</svg>