<?xml version="1.0" encoding="UTF-8"?>
<svg width="75px" height="48px" viewBox="0 0 75 48" version="1.1" xmlns="http://www.w3.org/2000/svg" xmlns:xlink="http://www.w3.org/1999/xlink">
    <!-- Generator: Sketch 50.2 (55047) - http://www.bohemiancoding.com/sketch -->
    <title>visa</title>
    <desc>Created with Sketch.</desc>
    <defs></defs>
    <g id="Page-1" stroke="none" stroke-width="1" fill="none" fill-rule="evenodd">
        <g id="main-v6-slide-1" transform="translate(-346.000000, -3382.000000)">
            <g id="5-section---payment-system" transform="translate(276.000000, 3324.000000)">
                <g id="visa" transform="translate(70.000000, 58.000000)">
                    <polygon id="Fill-1" fill="#FFFFFE" points="0 47.4768123 74.341816 47.4768123 74.341816 0 0 0"></polygon>
                    <polygon id="Fill-3" fill="#F1AD2B" points="0 47.4768123 74.341816 47.4768123 74.341816 40.6956522 0 40.6956522"></polygon>
                    <polygon id="Fill-4" fill="#182E66" points="0 6.78116008 74.341816 6.78116008 74.341816 0 0 0"></polygon>
                    <path d="M37.26063,13.9057244 L33.3420563,32.5448586 L28.6024549,32.5448586 L32.5213846,13.9057244 L37.26063,13.9057244 Z M57.2002813,25.941559 L59.695408,18.9416051 L61.1306043,25.941559 L57.2002813,25.941559 Z M62.4910322,32.5448586 L66.8731697,32.5448586 L63.0443181,13.9057244 L59.0018425,13.9057244 C58.0903807,13.9057244 57.322759,14.4432907 56.982741,15.2720991 L49.8708466,32.5448586 L54.8486386,32.5448586 L55.836649,29.7613952 L61.9163841,29.7613952 L62.4910322,32.5448586 Z M50.1179382,26.4599266 C50.1385885,21.5410498 43.4343596,21.268282 43.4788646,19.0702008 C43.4934622,18.4022276 44.1193801,17.6911476 45.4887091,17.5093024 C46.1673209,17.420191 48.0400901,17.3481049 50.1631552,18.3431822 L50.99344,14.3889545 C49.8526885,13.9694789 48.3854487,13.5652174 46.5600328,13.5652174 C41.8745494,13.5652174 38.5783332,16.0972852 38.5519863,19.7262201 C38.5220789,22.4097048 40.9068333,23.9061243 42.6994935,24.799774 C44.547696,25.7129847 45.1672052,26.2990913 45.1583042,27.1152213 C45.1454868,28.3656789 43.6839435,28.919546 42.3238716,28.9401938 C39.9394732,28.9782292 38.5576829,28.284899 37.4560958,27.7621846 L36.5959038,31.8486305 C37.7049676,32.3648246 39.748992,32.8147284 41.8649363,32.8375497 C46.8459327,32.8375497 50.1033405,30.3351857 50.1179382,26.4599266 Z M30.4883976,13.9057244 L22.8089758,32.5448586 L17.7994962,32.5448586 L14.020134,17.6694131 C13.7912005,16.7551157 13.5914622,16.4185934 12.8946923,16.032444 C11.755009,15.4021438 9.87333885,14.8131392 8.21917808,14.4469131 L8.33097457,13.9057244 L16.3959874,13.9057244 C17.4235182,13.9057244 18.3474414,14.601228 18.5824277,15.8053186 L20.5787426,26.5917824 L25.5091814,13.9057244 L30.4883976,13.9057244 Z" id="Fill-5" fill="#182E66"></path>
                </g>
            </g>
        </g>
    </g>
</svg>