<?xml version="1.0" encoding="UTF-8"?>
<svg width="1010px" height="317px" viewBox="0 0 1010 317" version="1.1" xmlns="http://www.w3.org/2000/svg" xmlns:xlink="http://www.w3.org/1999/xlink">
    <!-- Generator: Sketch 50.2 (55047) - http://www.bohemiancoding.com/sketch -->
    <title>Shape</title>
    <desc>Created with Sketch.</desc>
    <defs></defs>
    <g id="Page-1" stroke="none" stroke-width="1" fill="none" fill-rule="evenodd" opacity="0.234542411">
        <g id="main-v6-slide-1" transform="translate(0.000000, -991.000000)" fill="#00A2FF" fill-rule="nonzero">
            <g id="2-section" transform="translate(0.000000, 788.000000)">
                <g id="bg-v5-copy" transform="translate(0.000000, 203.000000)">
                    <path d="M1007.58147,189.326268 C1006.95172,189.193198 1006.29569,189.357009 1005.80272,189.770423 L990.709537,173.206056 C990.986186,172.942394 991.185218,172.608059 991.285014,172.239366 C991.545054,171.099443 990.830661,169.9648 989.689373,169.705071 C988.548085,169.445341 987.412084,170.158879 987.152044,171.298803 C987.146767,171.377095 987.146767,171.455652 987.152044,171.533944 L885.763488,173.049296 C885.657442,172.190068 885.032038,171.485068 884.19081,171.276461 C883.349581,171.067854 882.466663,171.398822 881.970572,172.108732 L834.049046,143.369296 C834.394956,142.647555 834.29796,141.791906 833.799245,141.165683 C833.30053,140.539459 832.487634,140.252579 831.705736,140.42686 C830.923838,140.601142 830.310181,141.205993 830.125341,141.984577 C830.100895,142.16665 830.100895,142.351167 830.125341,142.533239 L755.758038,153.140704 C755.562372,152.287985 754.849747,151.651094 753.979593,151.551264 C753.109439,151.451433 752.270794,151.91035 751.886649,152.696549 L674.877384,122.859789 C675.005335,121.78602 674.302237,120.788625 673.246982,120.546945 C672.191727,120.305265 671.123795,120.89705 670.770572,121.919225 C670.671441,122.2783 670.671441,122.657475 670.770572,123.016549 L615.446322,146.243239 C615.089816,145.56258 614.384352,145.135979 613.615259,145.135979 C612.846166,145.135979 612.140702,145.56258 611.784196,146.243239 L543.32861,117.503803 C543.477663,116.945272 543.391493,116.350151 543.090118,115.856683 C542.788742,115.363215 542.298391,115.01435 541.73297,114.891127 C540.739914,114.676549 539.736027,115.205438 539.352589,116.145211 L449.761308,90.2274648 C449.917674,89.4282463 449.588942,88.6119048 448.922078,88.1434 C448.255213,87.6748952 447.374885,87.6418131 446.674659,88.0589437 L384.810899,4.21816901 C385.116293,3.94787706 385.334737,3.59333122 385.438692,3.19922535 C385.703357,2.43332385 385.506968,1.58371814 384.932928,1.01122287 C384.358888,0.438727599 383.507972,0.243846376 382.741551,0.5093423 C381.97513,0.774838224 381.427752,1.45410253 381.33188,2.25866197 C381.320903,2.38034037 381.320903,2.50275822 381.33188,2.62443662 L275.182561,11.2723944 C274.989777,10.29209 274.129388,9.5851058 273.129155,9.5851058 C272.128923,9.5851058 271.268533,10.29209 271.075749,11.2723944 C270.989364,11.6065626 270.989364,11.9571698 271.075749,12.291338 L183.106267,48.085 C182.825959,47.5561835 182.329685,47.1748906 181.746049,47.0399296 C180.893036,46.8041156 179.983141,47.1227347 179.464295,47.8389347 C178.945449,48.5551347 178.926981,49.5179987 179.417984,50.2535211 L103.925886,112.12169 C103.667624,111.856877 103.342107,111.667219 102.984196,111.573028 C102.424996,111.424154 101.829163,111.51022 101.335105,111.811236 C100.841046,112.112251 100.491763,112.602016 100.368392,113.166761 C100.343947,113.348833 100.343947,113.53335 100.368392,113.715423 L4.05449591,129.391479 C3.83331936,128.726333 3.2930922,128.216184 2.61580381,128.032887 C1.68375912,127.81723 0.722649813,128.252184 0.270445257,129.094287 C-0.181759299,129.936391 -0.0128581547,130.976703 0.682608308,131.63292 C1.37807477,132.289138 2.42754748,132.398441 3.24359673,131.899648 L37.5106267,178.274648 C37.1769728,178.551562 36.9390305,178.92633 36.8305177,179.345845 C36.6814648,179.904376 36.7676346,180.499497 37.0690104,180.992965 C37.3703862,181.486433 37.860737,181.835298 38.426158,181.958521 C39.1664346,182.12121 39.9369205,181.871351 40.440327,181.305352 L106.463215,229.326338 C106.072811,230.039853 106.132133,230.914752 106.615291,231.569177 C107.098448,232.223601 107.917739,232.538762 108.715575,232.377103 C109.513412,232.215444 110.144972,231.60631 110.334605,230.815563 C110.41548,230.489554 110.41548,230.148756 110.334605,229.822746 L187.762398,200.142746 C188.129423,200.882508 188.9025,201.332647 189.727844,201.287165 C190.553188,201.241683 191.271994,200.709332 191.555313,199.933732 L283.762398,222.846901 C283.636917,223.732304 284.096541,224.597707 284.900865,224.990461 C285.705188,225.383216 286.671242,225.213978 287.293733,224.571268 L362.995095,283.304225 C362.876422,283.48934 362.788116,283.692201 362.733515,283.905141 C362.515543,284.760996 362.852578,285.662064 363.578987,286.165529 C364.305397,286.668993 365.268445,286.668993 365.994855,286.165529 C366.721264,285.662064 367.058299,284.760996 366.840327,283.905141 L405.449591,272.54 C405.6863,273.194161 406.236969,273.685242 406.914441,273.846338 C407.774441,274.039698 408.66354,273.674036 409.137875,272.931901 L482.746594,309.509366 C482.742176,309.587684 482.742176,309.666189 482.746594,309.744507 C482.481929,310.510409 482.678318,311.360014 483.252358,311.93251 C483.826398,312.505005 484.677314,312.699886 485.443735,312.43439 C486.210156,312.168894 486.757534,311.48963 486.853406,310.68507 C486.963858,310.309818 486.963858,309.910745 486.853406,309.535493 L572.416349,268.202958 C572.781818,268.779668 573.406181,269.141824 574.08881,269.173052 C574.771438,269.20428 575.426332,268.900646 575.843052,268.359718 L650.995095,313.663521 C650.921779,313.778917 650.860427,313.901475 650.811989,314.029296 C650.547324,314.795197 650.743713,315.644803 651.317753,316.217298 C651.891793,316.789794 652.74271,316.984675 653.509131,316.719179 C654.275552,316.453683 654.822929,315.774419 654.918801,314.969859 C655.016505,314.52064 654.96127,314.0517 654.761853,313.637394 L712.701907,280.169014 C712.995389,280.588665 713.432851,280.886156 713.931335,281.00507 C714.490535,281.153945 715.086368,281.067878 715.580427,280.766863 C716.074486,280.465848 716.423768,279.976083 716.547139,279.411338 C716.623753,279.093651 716.623753,278.762335 716.547139,278.444648 L801.220708,246.909648 C801.497729,247.462116 802.005288,247.863851 802.607084,248.006972 C803.454702,248.210507 804.339856,247.867879 804.828786,247.146988 C805.317716,246.426097 805.307984,245.477981 804.80436,244.767254 L825.181471,227.314577 L912.340054,227.105563 C912.44281,228.134156 913.282923,228.933234 914.316536,228.985506 C915.35015,229.037779 916.266775,228.327543 916.473025,227.314577 C916.549639,226.996891 916.549639,226.665574 916.473025,226.347887 L1005.41035,192.383099 C1005.68758,192.919629 1006.18355,193.310214 1006.77057,193.454296 C1007.84563,193.582094 1008.84422,192.879837 1009.08618,191.825843 C1009.32815,190.77185 1008.73566,189.705195 1007.71226,189.352394 L1007.58147,189.326268 Z M4.1852861,130.018521 L100.499183,114.342465 C100.57835,114.610614 100.711909,114.859627 100.891553,115.074014 L40.1525886,178.274648 C39.4445561,177.784535 38.5063976,177.784535 37.7983651,178.274648 L3.50517711,131.63838 C3.84019649,131.362668 4.07844403,130.98742 4.1852861,130.567183 C4.2094232,130.38509 4.2094232,130.200614 4.1852861,130.018521 Z M716.102452,277.556338 C715.916355,277.304519 715.674685,277.098899 715.396185,276.955423 L733.706812,228.411901 C734.43158,228.286793 735.037379,227.79083 735.302452,227.105563 L784.479564,240.978873 L716.102452,277.556338 Z M485.153134,308.124648 C484.936431,308.091263 484.715885,308.091263 484.499183,308.124648 L464.488283,216.158451 C465.154225,215.937539 465.664985,215.397957 465.848501,214.721479 L516.516621,223.212676 C516.453161,224.034257 516.885039,224.814817 517.615259,225.19831 L485.231608,308.255282 L485.153134,308.124648 Z M407.856131,269.71831 C407.504867,269.624039 407.134915,269.624039 406.783651,269.71831 L372.307357,191.338028 C372.704627,191.096604 373.008758,190.728401 373.170572,190.292958 L461.741689,214.016056 C461.660501,214.598344 461.831774,215.187581 462.212534,215.635915 L408.693188,270.266972 C408.464123,270.017485 408.176443,269.828921 407.856131,269.71831 Z M40.4926431,178.588169 L101.231608,115.309155 C101.473178,115.447529 101.739969,115.536353 102.016349,115.570423 C102.249884,115.612526 102.48908,115.612526 102.722616,115.570423 L112.244142,163.826549 C111.507999,164.022885 110.936873,164.603336 110.753134,165.341901 C110.718424,165.558244 110.718424,165.778727 110.753134,165.99507 L40.8850136,179.058451 C40.7780407,178.883306 40.6458328,178.724846 40.4926431,178.588169 Z M182.478474,50.7760563 L230.766213,102.507042 C230.542097,102.752412 230.380577,103.048179 230.295368,103.369225 L179.967302,95.5311972 C180.047363,94.5074828 179.371067,93.5773037 178.371662,93.3365493 L178.214714,93.3365493 L181.222888,51.1679577 C181.672984,51.177416 182.113859,51.0398072 182.478474,50.7760563 Z M382.822888,4.74070423 L371.758038,73.7676056 C370.742634,73.7009429 369.826409,74.373508 369.586921,75.361338 C369.586921,75.361338 369.586921,75.361338 369.586921,75.361338 L321.377657,70.6323944 C321.391165,70.1374368 321.223793,69.654497 320.906812,69.2738028 L382.116621,4.4271831 C382.329895,4.57567838 382.569618,4.68209429 382.822888,4.74070423 Z M445.60218,89.7310563 C445.581093,89.904598 445.581093,90.0800499 445.60218,90.2535915 L410.105722,101.461972 L373.484469,76.7460563 C373.545832,76.637234 373.598318,76.5236506 373.641417,76.4064085 L445.60218,89.7310563 Z M830.386921,143.552183 C830.627452,143.894752 830.964255,144.158418 831.354768,144.309859 L808.911172,224.127113 L769.281744,173.17993 L830.386921,143.552183 Z M884.874114,174.904296 C885.231038,174.644605 885.496565,174.278798 885.632698,173.859225 L955.265395,189.927183 C955.265395,189.927183 955.265395,189.927183 955.265395,189.927183 L895.101907,192.539859 L884.874114,174.904296 Z M955.265395,190.580352 C955.319709,190.891977 955.445005,191.186965 955.631608,191.442535 L915.87139,225.302817 C915.609141,225.024338 915.273751,224.825155 914.903542,224.728028 C914.453786,224.630441 913.984283,224.68561 913.569482,224.884789 L895.258856,193.140775 L955.265395,190.580352 Z M955.893188,191.703803 C956.155437,191.982282 956.490826,192.181464 956.861035,192.278592 C957.420235,192.427466 958.016068,192.341399 958.510127,192.040384 C959.004186,191.739369 959.353468,191.249604 959.476839,190.684859 C959.482987,190.597878 959.482987,190.510573 959.476839,190.423592 L963.348229,190.423592 L919.114986,223.082042 L955.893188,191.703803 Z M959.424523,190.11007 C959.424523,190.11007 959.424523,190.11007 959.424523,189.927183 L966.042507,188.490211 L963.714441,190.214577 L959.424523,190.11007 Z M864.627793,192.722746 C864.1864,192.309018 863.576649,192.125345 862.979837,192.226338 L879.485559,177.334085 L864.627793,192.722746 Z M861.227248,193.793944 C861.129232,194.274186 861.203302,194.773559 861.436512,195.204789 L855.629428,198.836408 L861.227248,193.793944 Z M864.810899,192.931761 L882.336785,174.799789 C882.581837,175.024492 882.87818,175.18594 883.2,175.27007 C883.649757,175.367658 884.119259,175.312488 884.53406,175.11331 L894.604905,192.775 L865.360218,193.950704 C865.267824,193.584859 865.078005,193.250817 864.810899,192.984014 L864.810899,192.931761 Z M986.158038,183.891901 L967.847411,187.863169 L975.06703,182.637817 L986.210354,183.735141 C986.190625,183.786604 986.17317,183.838908 986.158038,183.891901 Z M986.158038,183.108099 L975.694823,182.063028 L987.779837,173.17993 C988.057468,173.489372 988.422144,173.707915 988.826158,173.806972 L989.009264,173.806972 L988.355313,181.514366 C987.330373,181.434402 986.399081,182.109889 986.158038,183.108099 Z M974.910082,182.010775 L972.294278,181.749507 L986.158038,173.702465 L974.910082,182.010775 Z M974.256131,182.481056 L966.617984,188.124437 L959.372207,189.692042 C959.381206,189.579005 959.381206,189.465432 959.372207,189.352394 L971.666485,182.219789 L974.256131,182.481056 Z M959.084469,189.065 C958.651816,188.388298 957.865526,188.02361 957.068755,188.130092 C956.271983,188.236575 955.609344,188.794903 955.370027,189.561408 L887.359128,173.885352 L971.06485,182.141408 L959.084469,189.065 Z M862.299728,192.226338 L861.122616,190.266831 L879.616349,176.576408 L862.299728,192.226338 Z M862.011989,192.487606 L853.013624,200.586901 L815.529155,224.100986 L860.808719,190.632606 L862.011989,192.487606 Z M668.233243,261.462254 C668.01844,261.166662 667.729835,260.932451 667.396185,260.782958 L684.39891,214.016056 L695.803815,216.96838 L703.415804,242.494225 L668.233243,261.462254 Z M465.953134,214.434085 C466.00176,213.955477 465.881482,213.474938 465.613079,213.075493 L492.241962,189.221761 L517.144414,221.906338 C516.857119,222.165876 516.648646,222.500845 516.542779,222.873028 L465.953134,214.434085 Z M373.379837,189.770423 C373.43339,189.503095 373.43339,189.22782 373.379837,188.960493 L438.199455,163.121127 L462.761853,212.526831 C462.418874,212.767074 462.154893,213.103475 462.00327,213.493521 L373.379837,189.770423 Z M179.810354,96.1843662 C179.814586,96.1147589 179.814586,96.0449594 179.810354,95.9753521 L230.190736,103.81338 C230.132807,104.5795 230.505712,105.314352 231.158583,105.720634 L225.19455,119.019155 L179.810354,96.1843662 Z M447.302452,92.056338 C447.441636,92.0698 447.581797,92.0698 447.720981,92.056338 L448.976567,126.021127 C448.459501,126.08231 447.983843,126.333828 447.642507,126.726549 L429.488828,114.473099 L446.596185,91.6121831 C446.799797,91.8055398 447.039876,91.95652 447.302452,92.056338 Z M492.503542,188.725352 L533.623978,151.965 L518.713896,221.305423 C518.287062,221.266301 517.858386,221.3574 517.484469,221.56669 L492.503542,188.725352 Z M421.876839,127.719366 L437.571662,136.811479 L428.991826,143.682817 L421.379837,128.372535 C421.602299,128.235314 421.797411,128.058152 421.955313,127.85 L421.876839,127.719366 Z M422.033787,127.405845 C422.109371,127.273322 422.170746,127.133203 422.216894,126.987817 C422.216894,126.987817 422.216894,126.987817 422.216894,126.987817 L447.040872,128.268028 C447.05561,128.589022 447.145181,128.902146 447.302452,129.182465 L437.780926,136.654718 L422.033787,127.405845 Z M447.668665,129.495986 C448.055258,129.950143 448.646672,130.176581 449.238147,130.096901 L451.723161,144.675634 L438.304087,136.837606 L447.668665,129.495986 Z M462.212534,152.696549 L454.103542,155.936268 L452.324796,145.485563 L462.369482,151.337958 C462.292357,151.469703 462.230905,151.609997 462.186376,151.755986 C462.125792,152.11601 462.161897,152.485643 462.291008,152.827183 L462.212534,152.696549 Z M462.39564,153.192958 C462.678612,153.719522 463.173718,154.099918 463.755858,154.238028 L464.017439,154.238028 L463.546594,211.716901 L454.26049,156.589437 L462.39564,153.192958 Z M462.39564,150.972183 L452.141689,144.989155 L449.525886,130.018521 L449.944414,129.861761 L462.997275,150.606408 C462.832431,150.748799 462.691175,150.916339 462.578747,151.102817 L462.39564,150.972183 Z M417.926975,126.151761 L345.364578,122.415634 C345.364578,122.415634 345.364578,122.285 345.364578,122.20662 L399.354768,105.198099 L418.52861,125.289577 C418.300774,125.542405 418.13903,125.847556 418.057766,126.177887 C418.057766,126.177887 418.188556,126.256268 418.162398,126.282394 L417.926975,126.151761 Z M419.522616,128.555423 C419.898526,128.664288 420.29766,128.664288 420.673569,128.555423 L428.337875,143.970211 L372.699728,187.915423 L419.156403,128.424789 C419.344927,128.525099 419.547883,128.595608 419.758038,128.633803 L419.522616,128.555423 Z M373.039782,188.307324 L428.834877,144.492746 L437.833243,162.598592 L373.06594,188.411831 L373.039782,188.307324 Z M429.253406,144.153099 L438.094823,137.229507 L451.880109,145.250423 L453.73733,156.249789 L438.330245,162.389577 L429.253406,144.153099 Z M453.841962,156.772324 L463.20654,212.239437 L438.644142,162.859859 L453.841962,156.772324 Z M464.305177,212.13493 L464.043597,212.13493 L464.514441,154.394789 C464.83582,154.380068 465.149318,154.290604 465.429973,154.133521 L491.771117,188.725352 L465.116076,212.605211 C464.867437,212.423194 464.581606,212.298293 464.279019,212.239437 L464.305177,212.13493 Z M465.796185,153.793873 C466.101579,153.523581 466.320023,153.169035 466.423978,152.77493 C466.441297,152.627383 466.441297,152.478321 466.423978,152.330775 L535.06267,145.616197 L533.885559,151.102817 L492.189646,188.411831 L465.796185,153.793873 Z M534.408719,151.337958 L539.980381,146.347746 C540.153503,146.489955 540.347629,146.604528 540.555858,146.687394 L520.414169,216.367465 L534.408719,151.337958 Z M539.274114,144.649507 L535.742779,144.989155 L535.978202,143.944085 L539.274114,144.649507 Z M539.274114,145.198169 C539.335595,145.4709 539.451227,145.728542 539.614169,145.955845 L534.591826,150.449648 L535.638147,145.537817 L539.274114,145.198169 Z M545.159673,151.808239 L583.088828,216.942254 L581.885559,219.71169 L579.583651,219.71169 L545.159673,151.808239 Z M694.966757,139.319648 L713.277384,181.122465 L691.644687,196.040845 C691.364457,195.693259 690.978984,195.445751 690.546049,195.335423 L690.389101,195.335423 L693.920436,138.483592 L694.966757,139.319648 Z M749.453951,180.67831 C749.33776,180.855373 749.249535,181.049237 749.192371,181.253099 C749.140813,181.520619 749.140813,181.795507 749.192371,182.063028 L745.8703,182.925211 L747.021253,178.797183 L749.453951,180.67831 Z M732.895913,224.466761 L718.011989,190.501972 L745.190191,183.5 L733.785286,224.414507 C733.473481,224.351616 733.151425,224.360551 732.843597,224.440634 L732.895913,224.466761 Z M691.958583,196.56338 L713.486649,181.697254 L717.279564,190.345211 L692.063215,196.876901 C692.035827,196.770048 692.000861,196.665276 691.958583,196.56338 Z M691.958583,198.575141 C692.061305,198.412906 692.140562,198.236989 692.194005,198.052606 C692.246212,197.785147 692.246212,197.510135 692.194005,197.242676 L717.436512,190.710986 L732.346594,224.675775 C732.125678,224.804266 731.930549,224.972585 731.771117,225.172183 L691.958583,198.575141 Z M745.687193,183.42162 L749.270845,182.481056 C749.440855,182.963595 749.786339,183.364624 750.238692,183.604507 L748.826158,187.366761 L734.648501,223.082042 L745.687193,183.42162 Z M745.320981,183.108099 L717.776567,190.162324 L713.905177,181.357606 L732.948229,168.294225 L746.550409,178.614296 L745.320981,183.108099 Z M713.748229,180.887324 L695.803815,139.94669 L732.608174,167.823944 L713.748229,180.887324 Z M652.381471,205.211338 L631.847411,199.985986 C631.847411,199.985986 631.847411,199.985986 631.847411,199.855352 L687.459401,197.895845 L652.381471,205.211338 Z M586.986376,219.058521 L613.353678,207.223099 L589.340599,218.562113 L586.986376,219.058521 Z M583.795095,218.065704 C583.389941,218.3569 583.102341,218.783151 582.984196,219.267535 C582.971258,219.397849 582.971258,219.529122 582.984196,219.659437 L582.434877,219.659437 L583.324251,217.464789 L583.795095,218.065704 Z M582.251771,220.103592 L582.958038,220.103592 C583.001947,220.401403 583.108961,220.686432 583.271935,220.939648 L582.461035,221.514437 C582.296351,221.302903 582.092004,221.125422 581.859401,220.991901 L582.251771,220.103592 Z M582.644142,221.723451 L583.455041,221.148662 L583.664305,221.383803 L582.644142,221.723451 Z M590.883924,218.222465 L628.054496,200.691408 C628.142778,200.834309 628.248189,200.965915 628.368392,201.08331 L619.056131,212.239437 L590.883924,218.222465 Z M628.734605,201.370704 C628.931796,201.513879 629.153372,201.620108 629.388556,201.684225 C629.838312,201.781813 630.307815,201.726643 630.722616,201.527465 L635.012534,208.895211 L619.893188,212.082676 L628.734605,201.370704 Z M631.114986,201.370704 C631.432732,201.139228 631.677747,200.821996 631.821253,200.456268 L651.308992,205.498732 L635.457221,208.842958 L631.114986,201.370704 Z M628.00218,198.758028 C627.916192,198.888657 627.845951,199.028971 627.792916,199.176056 C627.678801,199.559671 627.678801,199.968146 627.792916,200.351761 L586.750954,218.640493 C586.553831,218.281528 586.253027,217.990188 585.887738,217.804437 L600.300817,181.56662 L628.00218,198.758028 Z M581.650136,220.077465 L581.362398,220.730634 L581.20545,220.730634 C580.813239,220.611418 580.39439,220.611418 580.00218,220.730634 L579.688283,220.129718 L581.650136,220.077465 Z M582.696458,222.010845 L583.847411,221.462183 L584.318256,221.671197 L583.821253,223.865845 L582.722616,223.369437 C582.722616,223.369437 582.722616,223.369437 582.722616,223.186549 C582.818095,222.816857 582.80904,222.427958 582.696458,222.063099 L582.696458,222.010845 Z M587.038692,219.972958 L588.686649,219.189155 L618.53297,212.866479 L604.590736,229.744366 L586.93406,220.443239 C586.940387,220.356265 586.940387,220.268946 586.93406,220.181972 C586.961421,220.148054 586.987595,220.113197 587.012534,220.077465 L587.038692,219.972958 Z M653.584741,205.472606 L688.165668,198.157113 C688.345388,198.6716 688.721509,199.09423 689.211989,199.332817 L683.980381,213.362887 L653.584741,205.472606 Z M689.60436,199.489577 C689.888971,199.549497 690.182963,199.549497 690.467575,199.489577 L695.46376,216.262958 L684.477384,213.415141 L689.60436,199.489577 Z M690.93842,199.489577 C691.262713,199.361153 691.550241,199.15474 691.775477,198.888662 L731.640327,225.511831 L731.640327,225.746972 L696.143869,216.576479 L690.93842,199.489577 Z M749.715531,180.338662 L747.099728,178.379155 L753.377657,155.857887 L751.232698,179.816127 C750.688024,179.757463 750.142317,179.917221 749.715531,180.260282 L749.715531,180.338662 Z M613.32752,149.22169 C613.628957,149.289185 613.941616,149.289185 614.243052,149.22169 L628.996185,197.712958 C628.661903,197.836563 628.364772,198.043406 628.13297,198.313873 L600.483924,181.174718 L613.19673,149.169437 L613.32752,149.22169 Z M539.378747,143.996338 L539.378747,144.179225 L536.108992,143.57831 L536.422888,142.193592 L539.378747,143.996338 Z M447.302452,127.196831 C447.213568,127.344383 447.143281,127.502341 447.093188,127.667113 C447.093188,127.667113 447.093188,127.667113 447.093188,127.667113 L422.26921,126.386901 C422.236913,125.832518 421.982319,125.31452 421.562943,124.94993 L429.122616,114.812746 L447.302452,127.196831 Z M399.171662,104.910704 L345.416894,121.840845 C345.276638,121.509379 345.051008,121.220917 344.762943,121.004789 L370.711717,77.660493 C370.84328,77.7450206 370.983604,77.8150989 371.130245,77.869507 C371.747666,78.0013727 372.391689,77.8477599 372.882834,77.4514789 L399.171662,104.910704 Z M370.39782,77.5298592 L344.449046,120.795775 C344.318385,120.709676 344.177876,120.639505 344.030518,120.586761 C343.646668,120.471257 343.237256,120.471257 342.853406,120.586761 L330.088283,93.1275352 L369.822343,76.6676761 C369.940645,76.9977737 370.138251,77.2938272 370.39782,77.5298592 Z M318.840327,72.6702817 C319.224615,72.7827744 319.63315,72.7827744 320.017439,72.6702817 L329.591281,92.9707746 L287.215259,110.501831 L318.160218,72.3567606 C318.366197,72.501272 318.59659,72.6074802 318.840327,72.6702817 Z M286.299728,110.893732 L279.99564,113.506408 L279.786376,113.245141 L315.361308,75.256831 L286.299728,110.893732 Z M277.275204,116.380352 C277.414814,116.467016 277.564047,116.537159 277.719891,116.589366 L278.059946,116.589366 L278.347684,120.691268 L265.268665,136.759225 L277.275204,116.380352 Z M278.635422,116.589366 C279.45329,116.432936 280.100466,115.807054 280.283379,114.995634 L282.768392,115.309155 L278.897003,120.090352 L278.635422,116.589366 Z M280.283379,114.577606 C280.313499,114.37843 280.313499,114.175866 280.283379,113.97669 L285.698093,111.729789 L283.082289,114.94338 L280.283379,114.577606 Z M233.852861,105.380986 C234.065101,105.157096 234.225797,104.88959 234.323706,104.597183 L272.828338,113.480282 C272.663322,114.560121 273.358634,115.584764 274.423978,115.83169 C275.041439,115.967469 275.687156,115.813452 276.176567,115.413662 L276.359673,115.622676 C276.518642,115.883599 276.732934,116.106553 276.987466,116.275845 L264.850136,136.968239 C264.711133,136.880466 264.561763,136.810258 264.40545,136.759225 C263.787989,136.623446 263.142272,136.777463 262.652861,137.177254 L233.852861,105.380986 Z M283.553134,114.995634 L286.508992,111.337887 L329.695913,93.4410563 L342.487193,120.795775 C341.97579,121.07818 341.605904,121.561299 341.46703,122.128239 L283.553134,114.995634 Z M519.367847,221.462183 L540.948229,146.922535 C541.299652,147.015587 541.669285,147.015587 542.020708,146.922535 L579.008174,220.077465 L520.544959,223.082042 C520.458496,222.375479 520.013624,221.763278 519.367847,221.462183 Z M619.239237,212.761972 L635.221798,209.39162 L665.19891,260.965845 C665.006407,261.102144 664.838369,261.26998 664.701907,261.462254 L604.983106,230.110141 L619.239237,212.761972 Z M667.029973,260.60007 C666.580216,260.502483 666.110714,260.557652 665.695913,260.756831 L635.640327,209.313239 L652.381471,205.786127 L683.928065,213.937676 L667.029973,260.626197 L667.029973,260.60007 Z M734.491553,224.597394 L741.554223,206.778944 L734.753134,224.728028 L734.491553,224.597394 Z M753.116076,182.794577 C753.244754,182.611634 753.342,182.408545 753.403815,182.193662 C753.514266,181.81841 753.514266,181.419337 753.403815,181.044085 L765.253406,175.296197 L780.241962,203.330211 L753.116076,182.794577 Z M753.116076,155.544366 L746.890463,177.908873 L733.811444,167.641056 L752.122071,154.969577 C752.348114,155.228592 752.636056,155.426316 752.959128,155.544366 L753.116076,155.544366 Z M695.568392,139.006127 L695.20218,138.196197 C695.357553,138.093665 695.498337,137.970626 695.620708,137.830423 L732.948229,167.536549 L695.568392,139.006127 Z M691.958583,136.915986 L692.194005,137.098873 C692.267352,137.30593 692.373318,137.499967 692.507902,137.673662 L679.795095,150.214507 L677.179292,138.90162 L691.958583,136.915986 Z M692.821798,138.039437 C693.06514,138.240881 693.351502,138.383891 693.658856,138.457465 L693.815804,138.457465 L690.049046,195.43993 L689.86594,195.43993 L679.664305,150.763169 L692.821798,138.039437 Z M689.682834,195.51831 C689.329088,195.6327 689.012796,195.840301 688.767302,196.119225 L655.886649,174.434014 L679.428883,151.07669 L689.682834,195.51831 Z M688.505722,196.537254 C688.331641,196.769045 688.256414,197.060199 688.296458,197.347183 L632.108992,199.332817 C632.05684,198.958944 631.903033,198.606515 631.664305,198.313873 L655.520436,174.799789 L688.505722,196.537254 Z M631.324251,197.974225 L647.280654,169.391549 L655.128065,174.616901 L631.324251,197.974225 Z M630.80109,197.686831 C630.700945,197.633227 630.595818,197.589476 630.487193,197.556197 C630.185957,197.486927 629.872899,197.486927 629.571662,197.556197 L614.818529,149.06493 C615.13215,148.943058 615.410722,148.745598 615.629428,148.490141 L646.809809,169.051901 L630.80109,197.686831 Z M600.143869,180.887324 L599.46376,180.469296 L608.697548,159.358873 L600.143869,180.887324 Z M599.934605,181.383732 L585.521526,217.726056 C585.186678,217.642 584.83621,217.642 584.501362,217.726056 L583.899728,216.315211 L599.33297,181.017958 L599.934605,181.383732 Z M583.559673,215.688169 L558.186376,155.59662 L598.862125,180.887324 L583.559673,215.688169 Z M583.114986,216.106197 L542.543869,146.452254 C542.680504,146.355788 542.803658,146.241567 542.910082,146.112606 L557.375477,155.074085 L583.114986,216.106197 Z M539.640327,143.473803 L536.449046,141.697183 L541.47139,118.784014 L541.288283,142.716127 C540.651403,142.701475 540.043354,142.981035 539.640327,143.473803 Z M535.821253,141.88007 L535.481199,143.473803 L498.493733,136.785352 L514.52861,129.391479 L535.821253,141.88007 Z M535.376567,143.944085 L535.114986,145.145915 L466.371662,151.88662 C466.37582,151.808294 466.37582,151.729804 466.371662,151.651479 L497.761308,137.151127 L535.376567,143.944085 Z M466.110082,151.207324 C465.814239,150.718471 465.333104,150.36983 464.776022,150.240634 C464.508181,150.189137 464.232964,150.189137 463.965123,150.240634 L458.733515,130.123028 L497.002725,137.020493 L466.110082,151.207324 Z M463.494278,150.345141 L463.232698,150.345141 L450.336785,129.731127 C450.709314,129.4701 450.985165,129.093556 451.121526,128.65993 L458.105722,129.914014 L463.494278,150.345141 Z M451.173842,128.241901 C451.173842,128.241901 451.173842,128.241901 451.173842,128.241901 L457.373297,127.484225 L457.948774,129.600493 L451.173842,128.241901 Z M451.173842,127.614859 C450.998323,126.842466 450.400776,126.235518 449.630518,126.047254 C449.500002,126.03528 449.368663,126.03528 449.238147,126.047254 L447.930245,92.056338 L457.216349,126.96169 L451.173842,127.614859 Z M428.991826,114.760493 L421.432153,124.871549 C421.240032,124.742104 421.027952,124.645017 420.80436,124.584155 C420.186939,124.452289 419.542916,124.605902 419.051771,125.002183 L400.034877,105.119718 L410.079564,101.95838 L428.991826,114.760493 Z M399.694823,104.78007 L373.249046,77.1902113 L409.504087,101.644859 L399.694823,104.78007 Z M369.613079,76.3802817 L329.852861,92.8401408 L320.357493,72.4090141 C320.868897,72.1266087 321.238783,71.6434901 321.377657,71.0765493 C321.377657,71.0765493 321.377657,71.0765493 321.377657,71.0765493 L369.560763,75.8838732 C369.557226,76.050882 369.574804,76.2176689 369.613079,76.3802817 Z M317.741689,71.9909859 L279.47248,112.957746 C279.198408,112.662316 278.843787,112.453431 278.452316,112.356831 L278.13842,112.356831 L276.961308,87.2228873 L317.453951,71.7035915 C317.547037,71.8112568 317.652381,71.907707 317.767847,71.9909859 L317.741689,71.9909859 Z M277.641417,112.226197 C277.295063,112.292625 276.971136,112.445407 276.699728,112.670352 C276.272846,111.964221 275.470093,111.574896 274.650524,111.676514 C273.830955,111.778132 273.147876,112.351684 272.906812,113.140634 L234.40218,104.257535 C234.456434,103.990278 234.456434,103.714863 234.40218,103.447606 L276.490463,87.3012676 L277.641417,112.226197 Z M231.73406,105.955775 C232.351521,106.091554 232.997238,105.937537 233.486649,105.537746 L262.26049,137.307887 L262.025068,137.569155 L225.586921,119.280423 L231.73406,105.955775 Z M265.425613,137.307887 L278.504632,121.344437 L279.498638,135.400634 L266.053406,138.01331 C265.895122,137.751861 265.6807,137.52877 265.425613,137.360141 L265.425613,137.307887 Z M278.897003,120.795775 L283.265395,115.413662 L341.46703,122.703028 C341.461831,122.781322 341.461831,122.859875 341.46703,122.938169 L279.891008,135.34838 L278.897003,120.795775 Z M345.6,123.225563 C345.6,123.225563 345.6,123.225563 345.6,123.225563 L418.162398,126.96169 C418.206721,127.458606 418.42974,127.922672 418.790191,128.268028 L372.333515,187.628028 C372.14163,187.498165 371.929478,187.401045 371.705722,187.340634 C371.354459,187.246363 370.984506,187.246363 370.633243,187.340634 L344.475204,124.505775 C345.022876,124.254929 345.433664,123.777839 345.6,123.199437 L345.6,123.225563 Z M579.217439,220.286479 L579.609809,221.044155 C579.149347,221.335511 578.820876,221.794821 578.694278,222.324366 C578.686112,222.428714 578.686112,222.533539 578.694278,222.637887 L527.319891,223.134296 L579.217439,220.286479 Z M582.53951,223.891972 L583.716621,224.440634 L574.822888,262.899225 L580.708447,224.832535 C581.438881,224.851682 582.125137,224.484129 582.513351,223.865845 L582.53951,223.891972 Z M574.692098,265.19838 L584.082834,224.597394 L602.053406,232.957958 L575.215259,265.433521 C575.028574,265.317536 574.825874,265.229511 574.613624,265.172254 L574.692098,265.19838 Z M584.187466,224.100986 L584.710627,221.827958 C585.499761,221.953196 586.291421,221.618663 586.750954,220.965775 L604.250681,230.188521 L602.314986,232.53993 L584.187466,224.100986 Z M604.66921,230.528169 L657.429973,258.300915 L602.759673,232.853451 L604.66921,230.528169 Z M696.222343,217.203521 L731.378747,226.295634 C731.339378,226.651692 731.393467,227.011853 731.535695,227.340704 L703.651226,242.259085 L696.222343,217.203521 Z M731.718801,227.654225 C731.937349,227.963034 732.235684,228.206834 732.582016,228.359648 L716.311717,273.193169 L714.925341,276.877042 C714.640729,276.817123 714.346737,276.817123 714.062125,276.877042 L703.86049,242.729366 L731.718801,227.654225 Z M732.922071,228.490282 L733.235967,228.490282 L725.545504,248.816901 L732.922071,228.490282 Z M735.06703,225.146056 L750.761853,183.787394 C751.319056,183.917058 751.905115,183.813204 752.383651,183.5 L787.252316,226.687535 L735.564033,226.269507 C735.515906,225.840655 735.332722,225.438131 735.040872,225.11993 L735.06703,225.146056 Z M752.697548,183.186479 L780.477384,204.296901 L792.483924,226.765915 L787.801635,226.765915 L752.697548,183.186479 Z M802.39782,244.035704 L797.401635,234.682324 L807.550954,229.221831 L803.417984,243.90507 C803.057573,243.843283 802.687161,243.879378 802.345504,244.009577 L802.39782,244.035704 Z M797.166213,234.212042 L793.425613,227.183944 L808.126431,227.183944 L807.786376,228.385775 L797.166213,234.212042 Z M808.675749,227.314577 L808.885014,227.314577 C808.905271,227.493768 808.949252,227.669481 809.015804,227.837113 L808.440327,228.150634 L808.675749,227.314577 Z M811.291553,225.041549 C810.821599,224.97189 810.341901,225.06403 809.931335,225.302817 L809.46049,224.701901 L827.588011,160.247183 L811.291553,225.041549 Z M809.565123,225.616338 L809.303542,225.433451 L809.303542,225.250563 L809.565123,225.616338 Z M809.251226,226.008239 C809.123372,226.191663 809.026194,226.394611 808.963488,226.609155 C808.958438,226.687454 808.958438,226.765997 808.963488,226.844296 L809.225068,225.903732 L809.251226,226.008239 Z M808.309537,226.844296 L793.242507,226.844296 L781.654496,205.159085 L808.675749,225.694718 L808.309537,226.844296 Z M792.876294,227.157817 L796.773842,234.447183 L794.995095,235.413873 L788.298638,227.13169 L792.876294,227.157817 Z M797.035422,234.995845 L801.770027,243.852817 L795.20436,235.753521 L797.035422,234.995845 Z M808.283379,228.856056 L809.303542,228.307394 C809.506275,228.587279 809.776099,228.811863 810.088283,228.960563 L804.333515,242.86 L808.283379,228.856056 Z M764.782561,174.852042 L752.985286,180.573803 C752.685367,180.110322 752.216047,179.782192 751.677384,179.659366 L751.520436,179.659366 L753.665395,155.701127 C753.924511,155.751844 754.19102,155.751844 754.450136,155.701127 L764.782561,174.852042 Z M676.865395,138.431338 L673.621798,124.270634 C673.929599,124.162817 674.207474,123.983757 674.432698,123.748099 L691.226158,136.471831 L676.865395,138.431338 Z M540.843597,118.65338 L535.978202,141.305282 L515.051771,129.104085 L539.614169,117.791197 C539.891944,118.225298 540.320448,118.541639 540.817439,118.679507 L540.843597,118.65338 Z M446.334605,91.4815493 L429.227248,114.368592 L410.681199,101.853873 L445.811444,90.7761268 C445.934548,91.0452065 446.112769,91.2855169 446.334605,91.4815493 Z M189.985831,197.112042 C189.838081,197.095209 189.688894,197.095209 189.541144,197.112042 L178.39782,97.4384507 C178.909954,97.3188622 179.358224,97.0110449 179.653406,96.5762676 L224.959128,119.489437 L190.221253,197.164296 L189.985831,197.112042 Z M812.285559,225.668592 C812.067802,225.436324 811.799228,225.257488 811.500817,225.146056 L831.825613,144.492746 C832.227451,144.548515 832.636835,144.484909 833.002725,144.309859 L860.599455,190.11007 L812.285559,225.668592 Z M808.649591,224.754155 L808.649591,225.11993 L781.000545,204.218521 L765.46267,175.165563 L768.810899,173.545704 L808.649591,224.754155 Z M765.253406,174.616901 L755.365668,156.119155 L768.444687,173.023169 L765.253406,174.616901 Z M751.651226,153.219085 C751.567432,153.693962 751.650605,154.183172 751.886649,154.603803 L733.419074,167.353662 L695.673025,137.490775 C695.735483,137.373445 695.787983,137.251091 695.829973,137.125 L751.651226,153.219085 Z M691.827793,136.341197 L678.330245,126.021127 L692.115531,135.27 C691.998203,135.446435 691.909893,135.640484 691.853951,135.844789 C691.823587,136.00841 691.814793,136.175296 691.827793,136.341197 Z M672.470845,124.401268 C672.713088,124.444273 672.961026,124.444273 673.20327,124.401268 L676.420708,138.509718 L663.210899,140.286338 L672.26158,124.244507 L672.470845,124.401268 Z M676.525341,138.953873 L679.141144,150.580282 L655.180381,174.094366 L647.176022,168.869014 L662.870845,140.730493 L676.525341,138.953873 Z M646.809809,168.66 L615.655586,148.124366 C615.741947,147.984703 615.812151,147.835697 615.86485,147.680211 C615.887896,147.506793 615.887896,147.331094 615.86485,147.157676 L662.321526,140.887254 L646.809809,168.66 Z M612.80436,148.986549 L599.123706,180.338662 L557.846322,154.760563 L553.922616,145.43331 L611.73188,147.340563 C611.782871,148.029551 612.175606,148.647368 612.778202,148.986549 L612.80436,148.986549 Z M557.06158,154.211901 L543.223978,145.616197 C543.298092,145.492067 543.35944,145.360764 543.407084,145.224296 C543.407084,145.224296 543.407084,145.224296 543.407084,145.015282 L553.347139,145.35493 L557.06158,154.211901 Z M543.407084,144.62338 C543.352538,143.706513 542.705111,142.93265 541.811444,142.716127 L541.47139,142.716127 L541.654496,118.784014 L542.073025,118.784014 L553.137875,144.910775 L543.407084,144.62338 Z M539.588011,117.347042 L514.685559,128.81669 L502.652861,121.762465 L539.535695,117.190282 L539.588011,117.347042 Z M514.083924,129.104085 L497.73515,136.628592 L458.498093,129.548239 L457.765668,127.327465 L501.632698,121.893099 L514.083924,129.104085 Z M457.765668,126.831056 L448.453406,91.8473239 C448.822059,91.7214045 449.148197,91.4951909 449.395095,91.1941549 L501.057221,121.47507 L457.765668,126.831056 Z M317.270845,71.1549296 L276.93515,86.6219718 L273.508447,13.6760563 C273.777142,13.6287175 274.034495,13.5312174 274.26703,13.388662 L317.87248,68.9864085 C317.296652,69.4826862 317.070591,70.2729539 317.297003,70.998169 L317.270845,71.1549296 Z M272.67139,13.6760563 L272.985286,13.6760563 L276.438147,86.8309859 L234.192916,103.029577 C234.011631,102.692113 233.739919,102.41168 233.408174,102.219648 L272.540599,13.6760563 L272.67139,13.6760563 Z M176.331335,96.7330282 L114.049046,164.244577 C113.821121,164.08244 113.563298,163.967003 113.290463,163.90493 C113.056581,163.866892 112.818078,163.866892 112.584196,163.90493 L103.06267,115.570423 C104.084876,115.324422 104.745643,114.334456 104.579837,113.297394 L175.965123,96.0537324 C176.043933,96.3009 176.168119,96.5312555 176.331335,96.7330282 Z M114.415259,164.662606 L176.67139,97.1249296 C176.899655,97.2864722 177.157355,97.4018548 177.429973,97.4645775 C177.577862,97.4787496 177.72677,97.4787496 177.874659,97.4645775 L189.122616,197.138169 C188.569385,197.277213 188.096968,197.63582 187.814714,198.130986 L114.807629,166.569859 L114.807629,166.439225 C114.969589,165.797836 114.81396,165.117772 114.389101,164.610352 L114.415259,164.662606 Z M190.718256,197.399437 L225.560763,119.724577 L261.99891,138.01331 C261.681751,138.603371 261.754154,139.326535 262.182016,139.842183 L190.953678,197.686831 C190.88475,197.583613 190.805903,197.487358 190.718256,197.399437 Z M266.00109,139.293521 C266.03536,139.077143 266.03536,138.85673 266.00109,138.640352 L279.394005,136.027676 L285.384196,220.338732 L264.693188,140.730493 C265.339003,140.495152 265.827901,139.958008 266.00109,139.293521 Z M286.325886,221.044155 L285.985831,221.044155 L279.891008,135.792535 L341.571662,123.408451 C341.713868,123.95125 342.079352,124.408623 342.577744,124.667476 C343.076135,124.92633 343.660907,124.9625 344.187466,124.767042 L370.345504,187.601901 C369.464386,188.034146 369.031053,189.044049 369.325341,189.979437 L287.73842,222.115352 C287.452717,221.564371 286.934001,221.171002 286.325886,221.044155 Z M520.649591,223.656831 L578.66812,223.082042 C578.744519,223.979078 579.38741,224.726467 580.26376,224.937042 L574.142779,265.19838 C573.527263,265.151043 572.922793,265.381042 572.494823,265.825423 L520.335695,224.519014 C520.468848,224.319628 520.566216,224.098603 520.623433,223.865845 C520.605963,223.759358 520.579715,223.654495 520.544959,223.552324 L520.649591,223.656831 Z M575.581471,265.825423 L602.419619,233.140845 L664.414169,262.010915 C664.41035,262.071818 664.41035,262.1329 664.414169,262.193803 C664.404193,262.3068 664.404193,262.420454 664.414169,262.533451 L576.13079,266.844366 C576.032756,266.419409 575.804097,266.035721 575.476839,265.747042 L575.581471,265.825423 Z M668.337875,261.880282 L703.415804,242.912254 L713.591281,276.877042 C713.096099,277.08615 712.702001,277.479777 712.492643,277.974366 L668.468665,263.082113 C668.546139,262.677443 668.500588,262.258875 668.337875,261.880282 Z M735.485559,226.818169 C735.485559,226.818169 735.485559,226.818169 735.485559,226.818169 L787.540054,227.262324 L794.39346,235.753521 L784.976567,240.822113 L735.485559,226.818169 Z M794.759673,236.067042 L801.586921,244.505986 C801.392773,244.708919 801.241537,244.94883 801.142234,245.211408 L785.761308,240.978873 L794.759673,236.067042 Z M803.967302,244.114085 L810.192916,229.06507 L810.40218,229.06507 C810.957696,229.214574 811.550198,229.132015 812.043539,228.836365 C812.536879,228.540714 812.888637,228.057395 813.017984,227.497465 C813.017984,227.497465 813.017984,227.340704 813.017984,227.288451 L823.481199,227.288451 L804.595095,244.323099 C804.399652,244.211935 804.187735,244.132561 803.967302,244.087958 L803.967302,244.114085 Z M812.965668,226.844296 C812.935763,226.607482 812.864958,226.377643 812.756403,226.165 L851.33951,202.102254 L823.978202,226.792042 L812.965668,226.844296 Z M865.281744,194.577746 L894.866485,193.271408 L913.177112,225.172183 C912.998561,225.295579 912.839804,225.445337 912.706267,225.616338 L865.098638,195.387676 C865.188009,195.240378 865.258324,195.082358 865.307902,194.917394 C865.337316,194.79748 865.354839,194.674964 865.360218,194.55162 L865.281744,194.577746 Z M964.028338,190.606479 L975.32861,190.867746 L918.147139,224.336127 L964.028338,190.606479 Z M964.473025,190.266831 L967.088828,188.281197 L986.158038,184.179296 L986.158038,184.440563 L975.694823,190.528099 L964.473025,190.266831 Z M986.471935,184.858592 C986.894049,185.458196 987.606043,185.785185 988.336536,185.714926 C989.067028,185.644666 989.703467,185.187983 990.00327,184.518944 L1005.0703,190.737113 C1005.00922,190.887937 1005.00922,191.05657 1005.0703,191.207394 L976.871935,190.554225 L986.471935,184.858592 Z M853.902997,200.534648 L860.965668,196.119225 L825.102997,226.792042 L824.736785,226.792042 L853.902997,200.534648 Z M1005.17493,190.606479 L990.107902,184.38831 C990.111225,184.318678 990.111225,184.248928 990.107902,184.179296 C990.256955,183.620764 990.170785,183.025644 989.869409,182.532176 C989.568033,182.038708 989.077683,181.689843 988.512262,181.56662 L988.302997,181.56662 L988.956948,173.859225 C989.449172,173.880055 989.932318,173.722292 990.317166,173.41507 L1005.41035,189.979437 C1005.33541,190.146018 1005.28264,190.321693 1005.25341,190.501972 L1005.17493,190.606479 Z M987.282834,172.788028 L971.744959,181.801761 L888.379292,173.571831 L987.073569,172.187113 C987.145251,172.36546 987.242148,172.532628 987.361308,172.683521 L987.282834,172.788028 Z M881.787466,174.407887 L860.730245,190.083944 L833.421253,144.126972 C833.600327,144.004222 833.759177,143.854376 833.892098,143.682817 L881.813624,172.422254 C881.737114,172.554311 881.675693,172.694532 881.630518,172.840282 C881.527457,173.340332 881.611198,173.860766 881.86594,174.30338 L881.787466,174.407887 Z M830.229973,143.108028 L769.046322,172.814155 L755.261035,155.074085 C755.554869,154.809359 755.764122,154.46405 755.86267,154.081268 C755.887116,153.899195 755.887116,153.714678 755.86267,153.532606 L830.229973,142.925141 L830.229973,143.108028 Z M695.960763,136.759225 C696.173751,135.791522 695.67723,134.807423 694.77178,134.402671 C693.86633,133.997919 692.800773,134.283743 692.220163,135.087113 L674.877384,123.408451 L749.166213,152.147887 L695.960763,136.759225 Z M671.712262,124.035493 L662.583106,140.364718 L615.838692,146.661268 L671.110627,123.408451 C671.27258,123.659908 671.486661,123.873734 671.73842,124.035493 L671.712262,124.035493 Z M611.73188,146.922535 L553.73951,145.015282 L542.596185,118.575 C542.917455,118.378179 543.179543,118.098351 543.354768,117.76507 L611.810354,146.504507 C611.810354,146.504507 611.758038,146.922535 611.73188,146.922535 Z M539.457221,116.72 L501.920436,121.370563 L449.60436,90.7238732 L539.431063,116.380352 C539.431165,116.494066 539.439909,116.607608 539.457221,116.72 Z M445.706812,89.443662 L373.719891,76.0928873 C373.818782,75.0893979 373.177275,74.1614295 372.202725,73.8982394 L383.241417,4.79295775 C383.630877,4.81956697 384.020127,4.73819351 384.366213,4.5578169 L446.256131,88.4247183 C445.980657,88.7059567 445.790251,89.059144 445.706812,89.443662 Z M381.776567,4.06140845 L320.566757,68.9080282 C319.85057,68.4133906 318.902563,68.4133906 318.186376,68.9080282 L274.659401,13.2057746 C274.964795,12.9354827 275.183238,12.5809369 275.287193,12.186831 C275.297895,12.0651404 275.297895,11.942747 275.287193,11.8210563 L381.305722,3.22535211 C381.394756,3.53710292 381.55606,3.82352283 381.776567,4.06140845 Z M272.043597,13.5192958 L232.80654,101.95838 C232.201341,101.823705 231.567579,101.96757 231.080109,102.350282 L182.792371,50.488662 C183.03058,50.2393005 183.201579,49.9336689 183.289373,49.6003521 C183.37463,49.2660416 183.37463,48.915719 183.289373,48.5814085 L271.311172,12.735493 C271.48293,13.0559226 271.735377,13.3260783 272.043597,13.5192958 Z M180.752044,51.1679577 L180.908992,51.1679577 L177.874659,93.3365493 C177.266943,93.3119644 176.680647,93.5629791 176.279416,94.0195312 C175.878185,94.4760832 175.70499,95.089276 175.808174,95.6879577 L104.449046,112.957746 C104.412017,112.813146 104.359393,112.672983 104.292098,112.539718 L179.784196,50.6192958 C180.051318,50.8860825 180.385761,51.0756744 180.752044,51.1679577 Z M40.9634877,179.737746 L110.831608,166.674366 C111.036338,167.399546 111.615992,167.958543 112.348774,168.137465 L112.479564,168.137465 L108.215804,228.281268 C107.646308,228.292775 107.106824,228.538562 106.724796,228.960563 L40.7019074,180.887324 C40.8150734,180.717958 40.903175,180.533166 40.9634877,180.338662 C40.9924666,180.139402 40.9924666,179.937006 40.9634877,179.737746 Z M108.738965,228.307394 L108.608174,228.307394 L112.871935,168.032958 C113.599633,168.017196 114.265366,167.620218 114.624523,166.987887 L187.631608,198.575141 L187.631608,198.705775 C187.550732,199.031784 187.550732,199.372582 187.631608,199.698592 L110.125341,229.404718 C109.84832,228.852251 109.340761,228.450516 108.738965,228.307394 Z M191.398365,198.052606 L262.495913,140.312465 C262.758162,140.590944 263.093551,140.790126 263.46376,140.887254 C263.714562,140.932833 263.971541,140.932833 264.222343,140.887254 L285.148774,221.148662 C284.608727,221.3584 284.181651,221.784965 283.971662,222.324366 L191.686104,199.411197 C191.755846,198.941805 191.663596,198.462681 191.424523,198.052606 L191.398365,198.052606 Z M287.73842,222.559507 L369.273025,190.397465 C369.550249,190.933995 370.046217,191.32458 370.633243,191.468662 L364.486104,282.311408 C363.973741,282.33615 363.488905,282.550341 363.125886,282.912324 L287.73842,224.153239 C288.063398,223.688511 288.150601,223.098174 287.973842,222.559507 L287.73842,222.559507 Z M365.140054,282.311408 L371.444142,191.468662 L371.941144,191.468662 L406.417439,270.057958 C405.915982,270.345826 405.556172,270.828151 405.423433,271.390423 C405.35408,271.691299 405.35408,272.003982 405.423433,272.304859 L366.840327,283.696127 C366.607388,282.984365 366.00676,282.454444 365.270845,282.311408 L365.140054,282.311408 Z M408.850136,270.475986 L462.369482,215.84493 C462.781838,216.194462 463.326256,216.347098 463.86049,216.262958 L483.923706,308.333662 C483.486747,308.478457 483.109788,308.763134 482.851226,309.143592 L409.242507,272.566127 C409.24687,272.487807 409.24687,272.409306 409.242507,272.330986 C409.457449,271.706462 409.360213,271.016916 408.980926,270.475986 L408.850136,270.475986 Z M486.53951,309.169718 C486.339226,308.881028 486.069336,308.647403 485.754768,308.490423 L517.929155,225.302817 C518.6433,225.458483 519.387012,225.230685 519.891008,224.701901 L572.050136,265.903803 C571.917898,266.103688 571.820602,266.324551 571.762398,266.556972 C571.653402,266.932432 571.653402,267.331089 571.762398,267.706549 L486.53951,309.169718 Z M576.13079,267.366901 L664.414169,263.003732 C664.553967,263.746187 665.084012,264.355509 665.800545,264.597465 L653.140054,312.54007 C652.375079,312.407951 651.599738,312.70967 651.125886,313.323873 L575.973842,268.02007 C576.047158,267.904674 576.108511,267.782116 576.156948,267.654296 C576.13288,267.538036 576.097846,267.424312 576.052316,267.314648 L576.13079,267.366901 Z M654.474114,313.42838 C654.225162,313.089052 653.878342,312.833806 653.480109,312.696831 L666.140599,264.754225 C667.084766,264.915081 668.015857,264.406837 668.390191,263.526268 L712.414169,278.418521 C712.314408,278.867638 712.369724,279.337256 712.571117,279.750986 L654.474114,313.42838 Z M785.264305,241.214014 L800.959128,245.629437 C800.899137,245.913708 800.899137,246.207349 800.959128,246.49162 L717.828883,277.373451 L785.264305,241.214014 Z M824.187466,227.366831 L824.52752,227.366831 L817.700272,233.140845 L824.187466,227.366831 Z M861.907357,196.014718 C862.166424,196.2785 862.491638,196.467982 862.849046,196.56338 C863.655892,196.742325 864.49327,196.436333 864.994005,195.779577 L912.601635,226.008239 C912.512751,226.155791 912.442463,226.313749 912.392371,226.478521 C912.388139,226.548128 912.388139,226.617928 912.392371,226.687535 L825.835422,226.870423 L861.907357,196.014718 Z M976.322616,190.972254 L1005.09646,191.625423 C1005.08602,191.747124 1005.08602,191.869495 1005.09646,191.991197 L917.100817,225.564085 L976.322616,190.972254 Z" id="Shape"></path>
                </g>
            </g>
        </g>
    </g>
</svg>