<?xml version="1.0" encoding="UTF-8"?>
<svg width="1010px" height="317px" viewBox="0 0 1010 317" version="1.1" xmlns="http://www.w3.org/2000/svg" xmlns:xlink="http://www.w3.org/1999/xlink">
    <!-- Generator: Sketch 50.2 (55047) - http://www.bohemiancoding.com/sketch -->
    <title>Shape</title>
    <desc>Created with Sketch.</desc>
    <defs></defs>
    <g id="Page-1" stroke="none" stroke-width="1" fill="none" fill-rule="evenodd" opacity="0.234542411">
        <g id="main-v6-slide-1" transform="translate(-910.000000, -1042.000000)" fill="#00A2FF" fill-rule="nonzero">
            <g id="2-section" transform="translate(0.000000, 788.000000)">
                <g id="bg-v5-copy" transform="translate(0.000000, 203.000000)">
                    <path d="M912.078474,179.398099 C912.708226,179.531168 913.364253,179.367357 913.857221,178.953944 L928.950409,195.51831 C928.672691,195.781122 928.473469,196.115776 928.374932,196.485 C928.114892,197.624923 928.829284,198.759566 929.970572,199.019295 C931.11186,199.279025 932.247861,198.565487 932.507902,197.425563 C932.513025,197.347267 932.513025,197.268719 932.507902,197.190423 L1033.89646,195.753451 C1034.0025,196.612679 1034.62791,197.317679 1035.46914,197.526286 C1036.31036,197.734893 1037.19328,197.403925 1037.68937,196.694014 L1085.55858,225.302817 C1085.48227,225.434972 1085.42086,225.575171 1085.37548,225.720845 C1085.24753,226.794614 1085.95062,227.792009 1087.00588,228.033689 C1088.06113,228.275369 1089.12907,227.683584 1089.48229,226.661408 C1089.50673,226.479336 1089.50673,226.294819 1089.48229,226.112746 L1164.0327,215.635915 C1164.22836,216.488635 1164.94099,217.125525 1165.81114,217.225356 C1166.6813,217.325187 1167.51994,216.86627 1167.90409,216.08007 L1244.80872,245.864577 C1244.68077,246.938346 1245.38387,247.935741 1246.43912,248.177421 C1247.49438,248.419101 1248.56231,247.827316 1248.91553,246.805141 C1249.01466,246.446067 1249.01466,246.066891 1248.91553,245.707817 L1304.23978,222.481127 C1304.59629,223.161787 1305.30175,223.588388 1306.07084,223.588388 C1306.83994,223.588388 1307.5454,223.161787 1307.90191,222.481127 L1376.35749,251.220563 C1376.35749,251.220563 1376.35749,251.220563 1376.35749,251.351197 C1376.20844,251.909728 1376.29461,252.504849 1376.59599,252.998317 C1376.89736,253.491785 1377.38771,253.84065 1377.95313,253.963873 C1378.94619,254.178451 1379.95008,253.649562 1380.33351,252.709789 L1470.18638,278.392394 C1470.03001,279.191613 1470.35874,280.007954 1471.02561,280.476459 C1471.69247,280.944964 1472.5728,280.978046 1473.27302,280.560915 L1535.16294,364.427817 C1534.85632,364.697078 1534.63763,365.052026 1534.53515,365.446761 C1534.27511,366.586684 1534.9895,367.721327 1536.13079,367.981056 C1537.27208,368.240785 1538.40808,367.527247 1538.66812,366.387324 C1538.67576,366.265518 1538.67576,366.143355 1538.66812,366.021549 L1644.76512,357.347465 C1644.95791,358.327769 1645.8183,359.034753 1646.81853,359.034753 C1647.81876,359.034753 1648.67915,358.327769 1648.87193,357.347465 C1648.95948,357.013445 1648.95948,356.662541 1648.87193,356.328521 L1736.94605,320.508732 C1737.22636,321.037549 1737.72263,321.418842 1738.30627,321.553803 C1739.13867,321.73524 1739.99891,321.401035 1740.4898,320.705498 C1740.98068,320.009962 1741.00671,319.088407 1740.55586,318.366338 L1815.73406,256.65493 C1815.99149,256.920802 1816.31732,257.110644 1816.67575,257.203592 C1817.23495,257.352466 1817.83078,257.266399 1818.32484,256.965384 C1818.8189,256.664369 1819.16818,256.174604 1819.29155,255.609859 C1819.31426,255.427675 1819.31426,255.243381 1819.29155,255.061197 L1915.60545,239.385141 C1915.81018,240.11032 1916.38983,240.669317 1917.12262,240.848239 C1918.05466,241.063897 1919.01577,240.628943 1919.46797,239.786839 C1919.92018,238.944736 1919.75128,237.904424 1919.05581,237.248206 C1918.36034,236.591989 1917.31087,236.482686 1916.49482,236.981479 L1882.14932,190.371338 C1882.48434,190.095626 1882.72259,189.720377 1882.82943,189.300141 C1882.97848,188.74161 1882.89231,188.146489 1882.59094,187.653021 C1882.28956,187.159553 1881.79921,186.810688 1881.23379,186.687465 C1880.49324,186.518935 1879.71981,186.769747 1879.21962,187.340634 L1813.19673,139.398028 C1813.31055,139.229033 1813.3987,139.044143 1813.45831,138.849366 C1813.72298,138.083465 1813.52659,137.233859 1812.95255,136.661364 C1812.37851,136.088868 1811.52759,135.893987 1810.76117,136.159483 C1809.99475,136.424979 1809.44737,137.104243 1809.3515,137.908803 C1809.26955,138.234681 1809.26955,138.575741 1809.3515,138.90162 L1731.89755,168.607746 C1731.53052,167.867985 1730.75745,167.417846 1729.9321,167.463328 C1729.10676,167.508809 1728.38795,168.041161 1728.10463,168.816761 L1635.89755,145.903592 C1636.01904,144.992283 1635.52243,144.110577 1634.67957,143.74113 C1633.83671,143.371684 1632.85082,143.603573 1632.26158,144.309859 L1556.66485,85.4462676 C1556.78238,85.2605444 1556.8706,85.0578693 1556.92643,84.8453521 C1557.1444,83.9894971 1556.80737,83.0884285 1556.08096,82.5849645 C1555.35455,82.0815004 1554.3915,82.0815004 1553.66509,82.5849645 C1552.93868,83.0884285 1552.60165,83.9894971 1552.81962,84.8453521 L1514.23651,96.2366197 C1513.96573,95.4977232 1513.2979,94.976873 1512.51454,94.8936365 C1511.73118,94.8104001 1510.96859,95.1792589 1510.54823,95.8447183 L1436.93951,59.2672535 C1436.94422,59.1889439 1436.94422,59.1104223 1436.93951,59.0321127 C1437.06746,57.958344 1436.36436,56.9609492 1435.30911,56.7192691 C1434.25385,56.4775891 1433.18592,57.0693737 1432.8327,58.0915493 C1432.72225,58.4668017 1432.72225,58.8658744 1432.8327,59.2411268 L1347.45286,100.416901 C1347.15501,99.9514363 1346.68478,99.6226709 1346.14496,99.5024648 C1345.34333,99.317676 1344.50708,99.6130713 1344,100.260141 L1268.84796,54.9824648 C1268.9216,54.8672525 1268.98297,54.7446601 1269.03106,54.6166901 C1269.28734,53.8554624 1269.09012,53.014941 1268.52191,52.4467021 C1267.9537,51.8784632 1267.11242,51.6804366 1266.34996,51.9354535 C1265.5875,52.1904704 1265.03527,52.8545814 1264.92425,53.65 C1264.82855,54.0993134 1264.88371,54.567604 1265.0812,54.9824648 L1206.95804,88.6076056 C1206.66456,88.1879545 1206.22709,87.8904642 1205.72861,87.7715493 C1205.16941,87.6226746 1204.57358,87.7087414 1204.07952,88.0097568 C1203.58546,88.3107722 1203.23618,88.8005367 1203.11281,89.3652817 C1203.03619,89.6829686 1203.03619,90.0142849 1203.11281,90.3319718 L1118.43924,121.840845 C1118.12806,121.283383 1117.57892,120.898482 1116.94823,120.795775 C1116.10061,120.592239 1115.21546,120.934867 1114.72653,121.655758 C1114.2376,122.376649 1114.24733,123.324766 1114.75095,124.035493 L1094.37384,141.488169 L1007.31989,141.697183 C1007.22875,140.923029 1006.71387,140.263854 1005.98425,139.987211 C1005.25463,139.710568 1004.43151,139.862428 1003.84898,140.381152 C1003.26646,140.899876 1003.02132,141.699267 1003.21308,142.454859 L914.275749,176.419648 C913.998525,175.883117 913.502557,175.492533 912.915531,175.348451 C912.148713,175.084102 911.29809,175.280257 910.724909,175.85361 C910.151729,176.426964 909.956614,177.276863 910.222428,178.042367 C910.488242,178.807872 911.168319,179.354595 911.973842,179.450352 L912.078474,179.398099 Z M1915.47466,238.731972 L1819.16076,254.408028 C1819.08024,254.140434 1818.94682,253.891682 1818.76839,253.676479 L1879.50736,190.397465 C1879.74094,190.572051 1880.0081,190.696576 1880.2921,190.763239 C1880.82929,190.88595 1881.39327,190.792066 1881.86158,190.501972 L1916.15477,236.981479 C1915.81975,237.257191 1915.5815,237.632439 1915.47466,238.052676 C1915.43893,238.277702 1915.43893,238.506946 1915.47466,238.731972 Z M1203.55749,91.0635211 C1203.74359,91.3153397 1203.98526,91.5209604 1204.26376,91.6644366 L1185.95313,140.207958 C1185.22228,140.337985 1184.6151,140.845022 1184.35749,141.540423 L1135.25886,127.77162 L1203.55749,91.0635211 Z M1434.50681,60.4952113 C1434.72345,60.5294407 1434.94413,60.5294407 1435.16076,60.4952113 L1455.17166,152.565915 C1454.50308,152.782667 1453.99065,153.324006 1453.81144,154.002887 L1403.14332,145.51169 C1403.20678,144.690109 1402.77491,143.90955 1402.04469,143.526056 L1434.42834,60.4690845 L1434.50681,60.4952113 Z M1511.9346,99.0060563 C1512.29411,99.1050687 1512.67374,99.1050687 1513.03324,99.0060563 L1547.48338,177.595352 C1547.08745,177.838319 1546.78375,178.206001 1546.62016,178.640423 L1457.91826,154.760563 C1457.99944,154.178275 1457.82817,153.589039 1457.44741,153.140704 L1510.99292,98.5880282 C1511.26643,98.8045622 1511.5904,98.9483765 1511.9346,99.0060563 Z M1879.1673,190.162324 L1818.42834,253.441338 C1818.19619,253.258725 1817.92915,253.125369 1817.6436,253.049437 C1817.41017,253.006176 1817.17076,253.006176 1816.93733,253.049437 L1807.52044,204.79331 C1808.25658,204.596974 1808.8277,204.016523 1809.01144,203.277958 C1809.04487,203.061514 1809.04487,202.841232 1809.01144,202.624789 L1878.87956,189.561408 C1878.94183,189.77612 1879.03904,189.979137 1879.1673,190.162324 Z M1737.18147,317.974437 L1688.89373,266.16507 C1689.11785,265.9197 1689.27937,265.623934 1689.36458,265.302887 L1739.69264,273.140915 C1739.61258,274.16463 1740.28888,275.094809 1741.28828,275.335563 L1741.44523,275.335563 L1738.43706,317.504155 C1737.97783,317.517155 1737.53603,317.682632 1737.18147,317.974437 Z M1536.83706,363.983662 L1547.90191,294.982887 C1548.91731,295.04955 1549.83354,294.376985 1550.07302,293.389155 C1550.07302,293.389155 1550.07302,293.389155 1550.07302,293.389155 L1598.25613,298.118099 C1598.24499,298.612688 1598.41209,299.094821 1598.72698,299.47669 L1537.51717,364.32331 C1537.31313,364.16956 1537.08262,364.054444 1536.83706,363.983662 Z M1474.05777,278.99331 C1474.07911,278.819784 1474.07911,278.644301 1474.05777,278.470775 L1509.58038,267.288521 L1546.20163,292.004437 C1546.14066,292.113456 1546.08819,292.227008 1546.04469,292.344085 L1474.05777,278.99331 Z M1089.24687,225.302817 C1089.0052,224.961324 1088.66876,224.69794 1088.27902,224.545141 L1110.72262,144.727887 L1150.35204,195.67507 L1089.24687,225.302817 Z M1034.75967,193.950704 C1034.40275,194.210395 1034.13722,194.576202 1034.00109,194.995775 L964.368392,178.927817 C964.368392,178.927817 964.368392,178.927817 964.368392,178.927817 L1024.53188,176.315141 L1034.75967,193.950704 Z M964.368392,178.274648 C964.314078,177.963023 964.188782,177.668035 964.00218,177.412465 L1003.78856,143.447676 C1004.0499,143.727278 1004.38564,143.926667 1004.7564,144.022465 C1005.20606,144.122106 1005.67624,144.066857 1006.09046,143.865704 L1024.40109,175.609718 L964.368392,178.274648 Z M963.740599,177.151197 C963.479254,176.871595 963.143517,176.672206 962.772752,176.576408 C962.213552,176.427534 961.617719,176.513601 961.12366,176.814616 C960.629602,177.115631 960.280319,177.605396 960.156948,178.170141 C960.151129,178.257133 960.151129,178.344416 960.156948,178.431408 L956.285559,178.431408 L1000.54496,145.668451 L963.740599,177.151197 Z M960.209264,178.74493 C960.209264,178.74493 960.209264,178.74493 960.209264,178.927817 L953.591281,180.364789 L955.919346,178.640423 L960.209264,178.74493 Z M1055.00599,176.132254 C1055.44739,176.545982 1056.05714,176.729655 1056.65395,176.628662 L1040.17439,191.338028 L1055.00599,176.132254 Z M1058.40654,175.061056 C1058.50685,174.580879 1058.43266,174.080716 1058.19728,173.650211 L1064.00436,170.018592 L1058.40654,175.061056 Z M1054.82289,175.923239 L1037.32316,193.950704 C1037.07132,193.721308 1036.76531,193.559497 1036.43379,193.480423 C1035.98403,193.382835 1035.51453,193.438005 1035.09973,193.637183 L1025.00272,176.027746 L1054.16894,174.695282 C1054.29649,175.07682 1054.53288,175.412818 1054.84905,175.661972 L1054.82289,175.923239 Z M933.501907,185.015352 L951.812534,181.044085 L944.592916,186.269437 L933.449591,185.172113 C933.485799,185.06145 933.512061,184.947784 933.528065,184.832465 L933.501907,185.015352 Z M933.501907,185.799155 L943.965123,186.844225 L931.880109,195.727324 C931.602477,195.417882 931.237802,195.199338 930.833787,195.100282 L930.650681,195.100282 L931.304632,187.392887 C932.387378,187.459015 933.341214,186.687785 933.501907,185.616268 L933.501907,185.799155 Z M944.749864,186.896479 L947.365668,187.157746 L933.501907,195.204789 L944.749864,186.896479 Z M945.403815,186.426197 L953.041962,180.782817 L960.287738,179.215211 C960.278153,179.328225 960.278153,179.441846 960.287738,179.554859 L947.99346,186.687465 L945.403815,186.426197 Z M960.575477,179.842254 C961.00813,180.518955 961.794419,180.883644 962.591191,180.777161 C963.387962,180.670678 964.050602,180.112351 964.289918,179.345845 L1032.30082,195.021901 L948.595095,186.765845 L960.575477,179.842254 Z M1057.36022,176.680915 L1058.53733,178.640423 L1040.0436,192.330845 L1057.36022,176.680915 Z M1057.64796,176.419648 L1066.64632,168.320352 L1104.13079,144.806268 L1058.90354,178.274648 L1057.64796,176.419648 Z M1251.4267,107.445 C1251.6406,107.741447 1251.92946,107.975863 1252.26376,108.124296 L1235.33951,154.760563 L1223.98692,151.834366 L1216.34877,126.256268 L1251.4267,107.445 Z M1453.70681,154.473169 C1453.65819,154.951776 1453.77846,155.432316 1454.04687,155.831761 L1427.52262,179.580986 L1402.51553,146.922535 C1402.80283,146.662997 1403.0113,146.328029 1403.11717,145.955845 L1453.70681,154.473169 Z M1546.28011,179.136831 C1546.22918,179.404412 1546.22918,179.67918 1546.28011,179.946761 L1481.59128,205.707746 L1457.00272,156.302042 C1457.34681,156.062965 1457.61108,155.726191 1457.76131,155.335352 L1546.28011,179.136831 Z M1739.84959,272.722887 C1739.8426,272.792384 1739.8426,272.862405 1739.84959,272.931901 L1689.52153,265.093873 C1689.57945,264.327754 1689.20655,263.592902 1688.55368,263.18662 L1694.51771,249.888099 L1739.84959,272.722887 Z M1472.43597,276.772535 C1472.29678,276.759234 1472.15663,276.759234 1472.01744,276.772535 L1470.68338,242.677113 C1471.20044,242.615929 1471.6761,242.364411 1472.01744,241.97169 L1490.17112,254.225141 L1473.06376,277.086056 C1472.8734,276.947415 1472.66123,276.841455 1472.43597,276.772535 Z M1427.1564,179.894507 L1386.00981,216.759366 L1400.91989,147.418944 C1401.34673,147.458065 1401.7754,147.366967 1402.14932,147.157676 L1427.1564,179.894507 Z M1497.78311,240.900493 L1482.08828,231.80838 L1490.66812,225.067676 L1498.28011,240.377958 C1498.04945,240.537194 1497.85365,240.741647 1497.70463,240.978873 L1497.78311,240.900493 Z M1497.65232,241.214014 C1497.57561,241.34597 1497.51418,241.486215 1497.46921,241.632042 C1497.46921,241.632042 1497.46921,241.632042 1497.46921,241.632042 L1472.64523,240.351831 C1472.62559,240.019914 1472.52694,239.697467 1472.35749,239.411268 L1481.87902,231.939014 L1497.65232,241.214014 Z M1472.01744,239.123873 C1471.74805,238.841159 1471.40304,238.641657 1471.02343,238.549085 C1470.83255,238.522276 1470.63884,238.522276 1470.44796,238.549085 L1467.96294,223.970352 L1481.38202,231.80838 L1472.01744,239.123873 Z M1457.47357,215.92331 L1465.58256,212.683592 L1467.36131,223.134296 L1457.31662,217.281901 C1457.39396,217.150266 1457.45543,217.009946 1457.49973,216.863873 C1457.53409,216.535834 1457.48924,216.204347 1457.36894,215.897183 L1457.47357,215.92331 Z M1457.29046,215.426901 C1457.00749,214.900337 1456.51239,214.519941 1455.93025,214.381831 L1455.66866,214.381831 L1456.13951,156.902958 L1465.39946,212.239437 L1457.29046,215.426901 Z M1457.29046,217.647676 L1467.46594,223.604577 L1470.08174,238.575211 L1469.66322,238.731972 L1456.7673,218.117958 C1456.86504,217.971581 1456.94413,217.813602 1457.00272,217.647676 L1457.29046,217.647676 Z M1501.75913,242.468099 L1574.03379,246.204225 C1574.03379,246.204225 1574.03379,246.334859 1574.03379,246.413239 L1520.06975,263.421761 L1501.00054,243.591549 C1501.22929,243.339355 1501.39116,243.033963 1501.47139,242.703239 C1501.48206,242.616476 1501.48206,242.528735 1501.47139,242.441972 L1501.75913,242.468099 Z M1500.16349,240.064437 C1499.78758,239.955572 1499.38844,239.955572 1499.01253,240.064437 L1491.00817,224.728028 L1546.96022,180.887324 L1500.5297,240.325704 C1500.33691,240.197454 1500.12503,240.100458 1499.90191,240.03831 L1500.16349,240.064437 Z M1546.88174,180.443169 L1490.82507,224.257746 L1481.8267,206.151901 L1546.59401,180.338662 L1546.88174,180.443169 Z M1490.66812,224.597394 L1481.8267,231.520986 L1468.04142,223.50007 L1466.1842,212.500704 L1481.61744,206.360915 L1490.66812,224.597394 Z M1466.07956,211.978169 L1456.68883,156.56331 L1481.25123,205.942887 L1466.07956,211.978169 Z M1455.61635,156.615563 L1455.87793,156.615563 L1455.40708,214.355704 C1455.08586,214.371369 1454.77258,214.460773 1454.49155,214.616972 L1427.83651,179.999014 L1454.38692,156.119155 C1454.66964,156.362725 1455.01314,156.525242 1455.38093,156.589437 L1455.61635,156.615563 Z M1453.91608,214.852113 C1453.61068,215.122405 1453.39224,215.47695 1453.28828,215.871056 C1453.26912,216.027233 1453.26912,216.185161 1453.28828,216.341338 L1384.64959,223.055915 L1385.8267,217.569296 L1427.49646,180.234155 L1453.91608,214.852113 Z M1385.30354,217.464789 L1379.73188,222.455 C1379.55951,222.311718 1379.36521,222.197039 1379.1564,222.115352 L1399.29809,152.435282 L1385.30354,217.464789 Z M1380.43815,224.153239 L1383.96948,223.813592 L1383.73406,224.858662 L1380.43815,224.153239 Z M1380.43815,223.604577 C1380.376,223.332068 1380.26042,223.074554 1380.09809,222.846901 L1385.12044,218.353099 L1384.07411,223.26493 L1380.43815,223.604577 Z M1374.55259,216.994507 L1336.67575,151.782113 L1337.87902,149.012676 L1340.18093,149.012676 L1374.55259,216.994507 Z M1224.7455,229.483099 L1206.43488,187.680282 L1228.06757,172.761901 C1228.34906,173.108088 1228.73403,173.355272 1229.16621,173.467324 L1229.32316,173.467324 L1225.79183,230.319155 L1224.7455,229.483099 Z M1170.25831,188.072183 C1170.3745,187.89512 1170.46273,187.701256 1170.51989,187.497394 C1170.57145,187.229873 1170.57145,186.954986 1170.51989,186.687465 L1173.84196,185.825282 L1172.69101,189.927183 L1170.25831,188.072183 Z M1186.81635,144.309859 L1201.70027,178.274648 L1174.49591,185.27662 L1185.87466,144.309859 C1186.18448,144.381318 1186.50653,144.381318 1186.81635,144.309859 Z M1227.70136,172.265493 L1206.1733,187.13162 L1202.38038,178.483662 L1227.59673,171.978099 C1227.62584,172.067384 1227.66079,172.154661 1227.70136,172.239366 L1227.70136,172.265493 Z M1227.70136,170.253732 C1227.59833,170.415799 1227.51905,170.591762 1227.46594,170.776268 C1227.41373,171.043726 1227.41373,171.318738 1227.46594,171.586197 L1202.22343,178.117887 L1187.31335,144.153099 C1187.53427,144.024607 1187.7294,143.856289 1187.88883,143.65669 L1227.70136,170.253732 Z M1173.97275,185.407254 L1170.3891,186.347817 C1170.21687,185.866567 1169.872,185.466253 1169.42125,185.224366 L1170.83379,181.462113 L1184.95913,145.720704 L1173.97275,185.407254 Z M1174.33896,185.720775 L1201.85722,178.614296 L1205.72861,187.419014 L1186.68556,200.482394 L1173.08338,190.162324 L1174.33896,185.720775 Z M1205.88556,187.837042 L1223.88229,228.803803 L1187.05177,200.822042 L1205.88556,187.837042 Z M1267.25232,163.565282 L1287.78638,168.790634 C1287.78638,168.790634 1287.78638,168.790634 1287.78638,168.921268 L1232.17439,170.880775 L1267.25232,163.565282 Z M1332.64741,149.718099 L1306.28011,161.553521 L1330.29319,150.214507 L1332.64741,149.718099 Z M1335.83869,150.710915 C1336.24857,150.43066 1336.54528,150.013918 1336.67575,149.535211 C1336.68886,149.404906 1336.68886,149.273615 1336.67575,149.14331 L1337.22507,149.14331 L1336.23106,151.416338 L1335.83869,150.710915 Z M1337.38202,148.673028 L1336.67575,148.673028 C1336.63184,148.375216 1336.52483,148.090187 1336.36185,147.836972 L1337.17275,147.262183 C1337.33792,147.473262 1337.54217,147.65066 1337.77439,147.784718 L1337.38202,148.673028 Z M1336.98965,147.053169 L1336.17875,147.627958 L1335.96948,147.392817 L1336.98965,147.053169 Z M1328.74986,150.554155 L1291.68392,168.032958 C1291.59483,167.89063 1291.48949,167.759116 1291.37003,167.641056 L1300.60381,156.458803 L1328.74986,150.554155 Z M1290.89918,167.405915 C1290.70199,167.262741 1290.48042,167.156512 1290.24523,167.092394 C1289.79548,166.994807 1289.32597,167.049976 1288.91117,167.249155 L1284.62125,159.881408 L1299.7406,156.693944 L1290.89918,167.405915 Z M1288.5188,167.405915 C1288.20106,167.637391 1287.95604,167.954624 1287.81253,168.320352 L1268.3248,163.277887 L1284.35967,159.985915 L1288.5188,167.405915 Z M1291.63161,170.018592 C1291.70656,169.894909 1291.76795,169.763516 1291.81471,169.62669 C1291.92883,169.243076 1291.92883,168.8346 1291.81471,168.450986 L1332.85668,150.162254 C1333.0538,150.521219 1333.3546,150.812559 1333.71989,150.99831 L1319.30681,187.236127 L1291.63161,170.018592 Z M1337.87902,148.673028 L1338.16676,148.019859 L1338.32371,148.019859 C1338.71568,148.140674 1339.13501,148.140674 1339.52698,148.019859 L1339.84087,148.620775 L1337.87902,148.673028 Z M1336.8327,146.739648 L1335.68174,147.28831 L1335.2109,147.079296 L1335.7079,144.884648 L1336.80654,145.381056 C1336.80654,145.381056 1336.80654,145.381056 1336.80654,145.537817 C1336.74773,145.928116 1336.8022,146.327072 1336.96349,146.687394 L1336.8327,146.739648 Z M1332.49046,148.777535 L1330.86866,149.535211 L1301.15313,155.805634 L1315.09537,138.927746 L1332.75204,148.228873 C1332.74606,148.31586 1332.74606,148.403154 1332.75204,148.490141 C1332.71198,148.566113 1332.67702,148.644668 1332.64741,148.725282 L1332.49046,148.777535 Z M1266.04905,163.225634 L1231.49428,170.43662 C1231.3171,169.920646 1230.94021,169.497157 1230.44796,169.260915 L1235.67956,155.230845 L1266.04905,163.225634 Z M1230.02943,169.208662 C1229.74482,169.148743 1229.45082,169.148743 1229.16621,169.208662 L1224.19619,152.383028 L1235.18256,155.230845 L1230.02943,169.208662 Z M1228.69537,169.208662 C1228.37055,169.336119 1228.0828,169.542692 1227.85831,169.809577 L1188.04578,143.290915 L1188.04578,143.055775 L1223.62071,152.147887 L1228.69537,169.208662 Z M1169.94441,188.464085 L1172.56022,190.423592 L1166.28229,212.944859 L1168.42725,188.960493 C1168.97913,189.004701 1169.52569,188.82587 1169.94441,188.464085 Z M1306.33243,219.502676 C1306.03119,219.433406 1305.71813,219.433406 1305.41689,219.502676 L1290.6376,171.011408 C1290.97188,170.887803 1291.26902,170.68096 1291.50082,170.410493 L1319.14986,187.549648 L1306.4109,219.55493 L1306.33243,219.502676 Z M1380.2812,224.728028 L1380.2812,224.545141 L1383.55095,225.146056 L1383.23706,226.530775 L1380.2812,224.728028 Z M1472.30518,241.501408 C1472.39383,241.353735 1472.4641,241.195807 1472.51444,241.031127 C1472.51444,241.031127 1472.51444,241.031127 1472.51444,241.031127 L1497.33842,242.311338 C1497.37072,242.865722 1497.62531,243.383719 1498.04469,243.74831 L1490.48501,253.885493 L1472.30518,241.501408 Z M1520.48828,263.813662 L1574.24305,246.883521 C1574.38331,247.214987 1574.60894,247.503449 1574.897,247.719577 L1548.94823,291.063873 C1548.81555,290.98838 1548.67526,290.927078 1548.5297,290.880986 C1547.91228,290.74912 1547.26826,290.902733 1546.77711,291.299014 L1520.48828,263.813662 Z M1549.26213,291.194507 L1575.2109,247.850211 C1575.34256,247.934563 1575.48287,248.004632 1575.62943,248.059225 C1576.0135,248.173203 1576.42247,248.173203 1576.80654,248.059225 L1589.57166,275.518451 L1549.8376,291.97831 C1549.70503,291.685878 1549.50836,291.42694 1549.26213,291.220634 L1549.26213,291.194507 Z M1600.87193,296.080211 C1600.48765,295.967719 1600.07911,295.967719 1599.69482,296.080211 L1590.19946,275.649085 L1632.47084,258.118028 L1601.52589,296.263099 C1601.32002,296.165125 1601.09881,296.10326 1600.87193,296.080211 Z M1633.41253,257.856761 L1639.71662,255.244085 L1639.92589,255.505352 L1604.35095,293.493662 L1633.41253,257.856761 Z M1642.46322,252.344014 C1642.32298,252.258514 1642.17388,252.188434 1642.01853,252.135 L1641.67847,252.135 L1641.39074,248.033099 L1654.46975,231.965141 L1642.46322,252.344014 Z M1641.103,252.135 C1640.28513,252.291431 1639.63795,252.917312 1639.45504,253.728732 L1636.97003,253.415211 L1640.84142,248.660141 L1641.103,252.135 Z M1639.45504,254.146761 C1639.42492,254.345936 1639.42492,254.548501 1639.45504,254.747676 L1634.04033,256.994577 L1636.65613,253.807113 L1639.45504,254.146761 Z M1685.8594,263.369507 C1685.64783,263.593902 1685.48722,263.861254 1685.38856,264.15331 L1646.88392,255.270211 C1647.02421,254.422545 1646.62409,253.576736 1645.87939,253.14672 C1645.13468,252.716704 1644.20117,252.792427 1643.53569,253.336831 L1643.35259,253.127817 C1643.19531,252.85845 1642.98106,252.626622 1642.7248,252.448521 L1654.86213,231.756127 C1655.00138,231.84344 1655.15069,231.91362 1655.30681,231.965141 C1655.92427,232.10092 1656.56999,231.946903 1657.0594,231.547113 L1685.8594,263.369507 Z M1636.15913,253.728732 L1633.20327,257.386479 L1590.01635,275.28331 L1577.25123,247.824085 C1577.76627,247.533336 1578.13615,247.040752 1578.27139,246.465493 L1636.15913,253.728732 Z M1400.2921,147.262183 L1378.71172,221.906338 C1378.36014,221.814474 1377.99081,221.814474 1377.63924,221.906338 L1340.65177,148.751408 L1399.01035,145.563944 C1399.09578,146.321044 1399.58689,146.971742 1400.2921,147.262183 Z M1300.42071,155.962394 L1284.35967,159.332746 L1254.46104,107.732394 C1254.6529,107.595346 1254.82083,107.427625 1254.95804,107.235986 L1314.67684,138.588099 L1300.42071,155.962394 Z M1252.76076,108.150423 C1253.21052,108.24801 1253.68002,108.192841 1254.09482,107.993662 L1284.01962,159.46338 L1267.27847,163.01662 L1235.73188,154.760563 L1252.70845,108.072042 L1252.76076,108.150423 Z M1185.29918,144.153099 L1178.21035,161.971549 L1185.01144,144.022465 L1185.29918,144.153099 Z M1166.67466,185.955915 C1166.30858,186.476071 1166.23925,187.148799 1166.49155,187.732535 L1154.64196,193.480423 L1139.65341,165.446408 L1166.67466,185.955915 Z M1166.67466,213.206127 L1172.90027,190.84162 L1185.97929,201.109437 L1167.66866,213.807042 C1167.39659,213.509148 1167.04117,213.29979 1166.6485,213.206127 L1166.67466,213.206127 Z M1224.22234,229.744366 L1224.58856,230.554296 C1224.43318,230.656828 1224.2924,230.779867 1224.17003,230.92007 L1186.71172,201.187817 L1224.22234,229.744366 Z M1227.83215,231.834507 L1227.59673,231.65162 C1227.5222,231.445092 1227.41633,231.251232 1227.28283,231.076831 L1239.99564,218.535986 L1242.61144,229.848873 L1227.83215,231.834507 Z M1226.96894,230.711056 C1226.72611,230.508819 1226.43956,230.365712 1226.13188,230.293028 L1225.97493,230.293028 L1229.50627,173.284437 L1229.68937,173.284437 L1239.89101,217.987324 L1226.96894,230.711056 Z M1230.1079,173.232183 C1230.46109,173.116633 1230.7771,172.909221 1231.02343,172.631268 L1263.90409,194.316479 L1240.36185,217.673803 L1230.1079,173.232183 Z M1231.28501,172.213239 C1231.37243,172.07415 1231.4427,171.925017 1231.49428,171.769085 C1231.50485,171.647388 1231.50485,171.525006 1231.49428,171.40331 L1287.68174,169.417676 C1287.7339,169.791549 1287.8877,170.143978 1288.12643,170.43662 L1264.2703,193.950704 L1231.28501,172.213239 Z M1288.46649,170.776268 L1272.51008,199.358944 L1264.66267,194.133592 L1288.46649,170.776268 Z M1288.98965,171.063662 C1289.08993,171.116976 1289.19503,171.160715 1289.30354,171.194296 C1289.60507,171.260937 1289.91754,171.260937 1290.21907,171.194296 L1304.99837,219.685563 C1304.68575,219.809304 1304.4076,220.006465 1304.18747,220.260352 L1273.00708,199.698592 L1288.98965,171.063662 Z M1319.4376,187.837042 L1320.11771,188.25507 L1310.88392,209.365493 L1319.4376,187.837042 Z M1319.64687,187.340634 L1334.05995,150.99831 C1334.39479,151.082367 1334.74526,151.082367 1335.08011,150.99831 L1335.68174,152.409155 L1320.2485,187.706408 L1319.64687,187.340634 Z M1336.0218,153.036197 L1361.3951,213.127746 L1320.7455,187.915423 L1336.0218,153.036197 Z M1336.46649,152.618169 L1377.06376,222.324366 C1376.92732,222.42107 1376.80419,222.535263 1376.69755,222.664014 L1362.23215,213.702535 L1336.46649,152.618169 Z M1380.01962,225.302817 L1383.2109,227.157817 L1378.29319,249.992606 L1378.47629,226.060493 C1379.07651,226.043879 1379.63982,225.767332 1380.01962,225.302817 Z M1383.83869,226.896549 L1384.17875,225.302817 L1421.16621,231.965141 L1405.13134,239.359014 L1383.83869,226.896549 Z M1384.28338,224.832535 L1384.54496,223.630704 L1453.28828,216.916127 C1453.28397,216.994448 1453.28397,217.072946 1453.28828,217.151268 L1421.89864,231.65162 L1384.28338,224.832535 Z M1453.54986,217.464789 C1453.84343,217.955724 1454.32556,218.305088 1454.88392,218.431479 C1455.15176,218.482975 1455.42698,218.482975 1455.69482,218.431479 L1460.92643,238.549085 L1422.73569,231.73 L1453.54986,217.464789 Z M1456.16567,218.326972 L1456.42725,218.326972 L1469.32316,238.940986 C1468.94595,239.208688 1468.66962,239.595096 1468.53842,240.03831 L1461.55422,238.784225 L1456.16567,218.326972 Z M1468.4861,240.430211 C1468.4861,240.430211 1468.4861,240.430211 1468.4861,240.430211 L1462.28665,241.187887 L1461.71117,239.07162 L1468.4861,240.430211 Z M1468.4861,241.057254 C1468.62141,242.016157 1469.48162,242.703505 1470.44796,242.624859 L1471.78202,276.720282 L1462.23433,241.841056 L1468.4861,241.057254 Z M1490.74659,254.042254 L1498.30627,243.931197 C1499.01425,244.480319 1500.00483,244.480319 1500.71281,243.931197 L1519.62507,263.709155 L1509.58038,266.870493 L1490.74659,254.042254 Z M1520.0436,264.022676 L1546.4109,291.586408 L1510.15586,267.105634 L1520.0436,264.022676 Z M1550.02071,292.422465 L1589.80708,275.936479 L1599.30245,296.367606 C1598.79105,296.650011 1598.42116,297.13313 1598.28229,297.70007 C1598.28229,297.70007 1598.28229,297.70007 1598.28229,297.70007 L1550.07302,292.918873 C1550.08946,292.735652 1550.08066,292.551044 1550.04687,292.370211 L1550.02071,292.422465 Z M1601.8921,296.811761 L1640.10899,255.871127 C1640.38208,256.167773 1640.73709,256.37689 1641.12916,256.472042 L1641.44305,256.472042 L1642.62016,281.605986 L1602.12752,297.151408 C1602.07307,297.013179 1602.00285,296.881678 1601.91826,296.759507 L1601.8921,296.811761 Z M1642.01853,256.576549 C1642.36419,256.50801 1642.68762,256.355463 1642.96022,256.132394 C1643.3871,256.838526 1644.18985,257.227851 1645.00942,257.126233 C1645.82899,257.024615 1646.51207,256.451062 1646.75313,255.662113 L1685.25777,264.545211 C1685.20279,264.812396 1685.20279,265.087956 1685.25777,265.355141 L1643.16948,281.501479 L1642.01853,256.576549 Z M1687.92589,262.846972 C1687.30842,262.711193 1686.66271,262.865209 1686.1733,263.265 L1657.39946,231.494859 L1657.63488,231.233592 L1694.07302,249.522324 L1687.92589,262.846972 Z M1654.23433,231.494859 L1641.15531,247.45831 L1640.16131,233.402113 L1653.60654,230.789437 C1653.76884,231.033558 1653.98324,231.238771 1654.23433,231.390352 L1654.23433,231.494859 Z M1640.76294,248.085352 L1636.39455,253.467465 L1578.19292,246.204225 C1578.19851,246.117226 1578.19851,246.029957 1578.19292,245.942958 L1639.74278,233.50662 L1640.76294,248.085352 Z M1574.05995,245.655563 L1501.47139,241.919437 C1501.42707,241.42252 1501.20405,240.958455 1500.8436,240.613099 L1547.30027,181.122465 C1547.79909,181.464643 1548.43354,181.542635 1549.00054,181.331479 L1575.15858,244.166338 C1574.60309,244.440118 1574.19986,244.948349 1574.05995,245.551056 L1574.05995,245.655563 Z M1340.44251,148.464014 L1340.05014,147.706338 C1340.5106,147.414982 1340.83907,146.955672 1340.96567,146.426127 C1340.97363,146.321771 1340.97363,146.216962 1340.96567,146.112606 L1392.34005,145.616197 L1340.44251,148.464014 Z M1337.12044,144.858521 L1335.94332,144.309859 L1344.83706,105.851268 L1339.05613,143.891831 C1338.28909,143.833972 1337.55336,144.206431 1337.14659,144.858521 L1337.12044,144.858521 Z M1344.96785,103.552113 L1335.57711,144.153099 L1317.60654,135.792535 L1344.52316,103.316972 L1344.96785,103.552113 Z M1335.47248,144.649507 L1334.94932,146.922535 C1334.1594,146.79076 1333.36437,147.126715 1332.90899,147.784718 L1315.35695,138.535845 L1317.29264,136.184437 L1335.47248,144.649507 Z M1314.93842,138.326831 L1262.22997,110.554085 L1316.90027,136.001549 L1314.93842,138.326831 Z M1223.38529,151.651479 L1188.22888,142.559366 C1188.26825,142.203308 1188.21416,141.843147 1188.07193,141.514296 L1215.87793,126.491408 L1223.38529,151.651479 Z M1187.88883,141.200775 C1187.67028,140.891966 1187.37195,140.648166 1187.02561,140.495352 L1203.26975,95.5834507 L1204.65613,91.8995775 C1204.94066,91.9602722 1205.23482,91.9602722 1205.51935,91.8995775 L1215.82561,126.021127 L1187.88883,141.200775 Z M1186.71172,140.364718 L1186.39782,140.364718 L1194.03597,120.168732 L1186.71172,140.364718 Z M1184.56676,143.708944 L1168.87193,185.067606 C1168.31473,184.937942 1167.72867,185.041796 1167.25014,185.355 L1132.45995,142.062958 L1184.14823,142.480986 C1184.18847,142.894248 1184.35256,143.28578 1184.61907,143.604437 L1184.56676,143.708944 Z M1166.93624,185.668521 L1139.18256,164.505845 L1127.17602,142.036831 L1131.85831,142.036831 L1166.93624,185.668521 Z M1117.23597,124.819296 L1122.23215,134.172676 L1112.08283,139.633169 L1116.2158,124.94993 C1116.59693,124.977223 1116.97797,124.895669 1117.31444,124.714789 L1117.23597,124.819296 Z M1122.46757,134.642958 L1126.31281,141.697183 L1111.61199,141.697183 L1111.95204,140.495352 L1122.46757,134.642958 Z M1110.95804,141.540423 L1110.74877,141.540423 C1110.72914,141.361119 1110.68514,141.185324 1110.61798,141.017887 L1111.19346,140.704366 L1110.95804,141.540423 Z M1108.34223,143.813451 C1108.81219,143.88311 1109.29189,143.79097 1109.70245,143.552183 L1110.1733,144.153099 L1092.04578,208.633944 L1108.34223,143.813451 Z M1110.06866,143.238662 L1110.33025,143.421549 L1110.33025,143.604437 L1110.06866,143.238662 Z M1110.38256,142.846761 C1110.50963,142.662882 1110.60675,142.460065 1110.6703,142.245845 C1110.67521,142.167541 1110.67521,142.089008 1110.6703,142.010704 L1110.40872,142.951268 L1110.38256,142.846761 Z M1111.32425,142.010704 L1126.39128,142.010704 L1137.97929,163.695915 L1110.95804,143.160282 L1111.32425,142.010704 Z M1126.75749,141.697183 L1122.85995,134.407817 L1124.63869,133.441127 L1131.4921,141.697183 L1126.75749,141.697183 Z M1122.59837,133.859155 L1117.86376,125.002183 L1124.27248,132.840211 L1122.59837,133.859155 Z M1111.29809,139.920563 L1110.27793,140.469225 C1110.0752,140.189341 1109.80537,139.964756 1109.49319,139.816056 L1115.24796,125.91662 L1111.29809,139.920563 Z M1154.87738,193.950704 L1166.6485,188.150563 C1166.94341,188.623919 1167.41341,188.961919 1167.9564,189.091127 L1168.11335,189.091127 L1165.96839,213.049366 C1165.70072,213.040366 1165.43393,213.084777 1165.18365,213.18 L1154.87738,193.950704 Z M1242.79455,230.371408 L1246.03815,244.532113 C1245.73035,244.639929 1245.45247,244.81899 1245.22725,245.054648 L1228.45995,232.330915 L1242.79455,230.371408 Z M1378.81635,250.149366 L1383.76022,227.419085 L1404.68665,239.620282 L1380.12425,250.933169 C1379.82278,250.492967 1379.36424,250.184521 1378.84251,250.070986 L1378.81635,250.149366 Z M1473.32534,277.347324 L1490.4327,254.460282 L1508.95259,266.975 L1473.82234,278.052746 C1473.71676,277.757977 1473.54701,277.490278 1473.32534,277.268944 L1473.32534,277.347324 Z M1729.67411,171.690704 C1729.82181,171.708493 1729.97111,171.708493 1730.1188,171.690704 L1741.36676,271.364296 C1740.85462,271.483884 1740.40635,271.791702 1740.11117,272.226479 L1694.67466,249.31331 L1729.51717,171.612324 L1729.67411,171.690704 Z M1107.26975,143.081901 C1107.48871,143.312755 1107.75693,143.491358 1108.0545,143.604437 L1087.75586,224.257746 C1087.35401,224.200396 1086.94417,224.264073 1086.57875,224.440634 L1059.16512,178.640423 L1107.26975,143.081901 Z M1110.90572,143.996338 L1110.90572,143.630563 L1138.55477,164.531972 L1154.09264,193.58493 L1150.74441,195.204789 L1110.90572,143.996338 Z M1154.40654,194.133592 L1164.29428,212.605211 L1151.21526,195.701197 L1154.40654,194.133592 Z M1168.00872,215.531408 C1168.0988,215.048108 1168.01544,214.548558 1167.7733,214.120563 L1186.24087,201.370704 L1223.98692,231.233592 C1223.92537,231.351354 1223.8729,231.473633 1223.82997,231.599366 L1168.00872,215.531408 Z M1227.83215,232.409296 L1241.35586,242.677113 L1227.57057,233.428239 C1227.68751,233.251589 1227.77579,233.057604 1227.83215,232.853451 C1227.84971,232.705919 1227.84971,232.556828 1227.83215,232.409296 Z M1247.1891,244.349225 C1246.94672,244.307797 1246.69906,244.307797 1246.45668,244.349225 L1243.23924,230.240775 L1256.44905,228.464155 L1247.503,244.505986 C1247.40246,244.445919 1247.29753,244.393516 1247.1891,244.349225 Z M1243.1346,229.79662 L1240.5188,218.170211 L1264.47956,194.656127 L1272.48392,199.881479 L1256.7891,228.02 L1243.1346,229.79662 Z M1272.85014,200.090493 L1304.00436,220.626127 C1303.9168,220.774365 1303.84659,220.93216 1303.7951,221.096408 C1303.77174,221.269806 1303.77174,221.445546 1303.7951,221.618944 L1257.33842,227.915493 L1272.85014,200.090493 Z M1306.85559,219.763944 L1320.53624,188.411831 L1361.76131,213.963803 L1365.68501,223.291056 L1307.90191,221.436056 C1307.86504,220.742792 1307.48171,220.114481 1306.88174,219.763944 L1306.85559,219.763944 Z M1362.59837,214.538592 L1376.43597,223.134296 C1376.36136,223.258165 1376.29999,223.389519 1376.25286,223.526197 C1376.25286,223.526197 1376.25286,223.526197 1376.25286,223.735211 L1366.31281,223.395563 L1362.59837,214.538592 Z M1376.25286,224.127113 C1376.30741,225.04398 1376.95483,225.817843 1377.8485,226.034366 L1378.1624,226.034366 L1377.97929,249.966479 L1377.56076,249.966479 L1366.49591,223.839718 L1376.25286,224.127113 Z M1380.09809,251.429577 L1405.00054,239.95993 L1417.03324,247.014155 L1380.17657,251.429577 C1380.15041,251.428824 1380.12425,251.428824 1380.09809,251.429577 Z M1405.60218,239.672535 L1421.95095,232.148028 L1461.18801,239.22838 L1461.78965,241.475282 L1417.92262,246.909648 L1405.60218,239.672535 Z M1461.92044,241.945563 L1471.2327,276.929296 C1470.8634,277.053949 1470.53694,277.280388 1470.29101,277.582465 L1418.62888,247.249296 L1461.92044,241.945563 Z M1602.3891,297.673944 L1642.7248,282.154648 L1646.17766,354.943803 C1645.9096,354.993445 1645.65266,355.090789 1645.41907,355.231197 L1601.81362,299.633451 C1602.11782,299.362158 1602.33603,299.007998 1602.44142,298.614507 C1602.50523,298.284254 1602.48727,297.943428 1602.3891,297.62169 L1602.3891,297.673944 Z M1647.01471,355.022183 L1646.70082,355.022183 L1643.24796,282.024014 L1685.49319,265.825423 C1685.66622,266.160254 1685.92881,266.440614 1686.25177,266.635352 L1647.01471,355.100563 L1647.01471,355.022183 Z M1743.35477,272.043592 L1805.6109,204.401408 C1805.83982,204.561805 1806.09729,204.677083 1806.36948,204.741056 C1806.60357,204.776528 1806.84167,204.776528 1807.07575,204.741056 L1816.59728,252.997183 C1815.86113,253.193519 1815.29001,253.77397 1815.10627,254.512535 C1815.05758,254.762753 1815.05758,255.019994 1815.10627,255.270211 L1743.72098,272.513873 C1743.61842,272.320233 1743.48601,272.143902 1743.32861,271.991338 L1743.35477,272.043592 Z M1805.27084,204.114014 L1742.98856,271.599437 C1742.76063,271.437299 1742.50281,271.321862 1742.22997,271.259789 C1742.08201,271.247182 1741.93325,271.247182 1741.78529,271.259789 L1730.53733,171.586197 C1731.09192,171.449992 1731.56535,171.090617 1731.84523,170.59338 L1804.90463,202.180634 L1804.90463,202.311268 C1804.73252,202.944511 1804.86813,203.621726 1805.27084,204.140141 L1805.27084,204.114014 Z M1729.04632,171.351056 L1694.09918,248.999789 L1657.66104,230.711056 C1657.66601,230.632755 1657.66601,230.554217 1657.66104,230.475915 C1657.7882,229.931021 1657.69415,229.358003 1657.39946,228.882183 L1728.497,171.142042 C1728.66784,171.240398 1728.85327,171.310953 1729.04632,171.351056 Z M1653.65886,229.456972 C1653.62662,229.673505 1653.62662,229.893608 1653.65886,230.110141 L1640.26594,232.722817 L1634.30191,148.281127 L1654.96676,227.915493 C1654.29157,228.16648 1653.796,228.750563 1653.65886,229.456972 Z M1633.33406,147.706338 L1633.67411,147.706338 L1639.69046,232.931831 L1578.08828,245.394296 C1577.94608,244.851496 1577.58059,244.394124 1577.0822,244.13527 C1576.58381,243.876417 1575.99904,243.840247 1575.47248,244.035704 L1549.31444,181.200845 C1549.85161,180.923952 1550.24267,180.428577 1550.38692,179.842254 C1550.46795,179.507426 1550.46795,179.158137 1550.38692,178.82331 L1631.92153,146.661268 C1632.21316,147.202253 1632.73095,147.585338 1633.33406,147.706338 Z M1399.01035,145.093662 L1340.99183,145.668451 C1340.90478,144.781366 1340.26408,144.047019 1339.39619,143.839577 L1345.51717,103.578239 C1346.13268,103.625577 1346.73715,103.395578 1347.16512,102.951197 L1399.32425,144.309859 C1399.1911,144.509245 1399.09373,144.730271 1399.03651,144.963028 C1399.02414,145.032195 1399.01541,145.101962 1399.01035,145.172042 L1399.01035,145.093662 Z M1344.07847,102.92507 L1317.13569,135.505141 L1255.21962,106.713451 C1255.22211,106.661227 1255.22211,106.608914 1255.21962,106.55669 C1255.22946,106.443688 1255.22946,106.330045 1255.21962,106.217042 L1343.503,101.906127 C1343.60813,102.3344 1343.84619,102.71849 1344.18311,103.003451 L1344.07847,102.92507 Z M1251.21744,106.791831 L1216.34877,125.838239 L1206.1733,91.8734507 C1206.66848,91.6643429 1207.06258,91.2707164 1207.27193,90.7761268 L1251.29591,105.694507 C1251.1903,106.080651 1251.19939,106.489135 1251.32207,106.870211 L1251.21744,106.791831 Z M1184.17439,141.932324 C1184.17439,141.932324 1184.17439,141.932324 1184.17439,141.932324 L1132.09373,141.697183 L1125.24033,133.205986 L1134.65722,128.137394 L1184.17439,141.932324 Z M1124.79564,132.683451 L1117.96839,124.244507 C1118.16311,124.042022 1118.31443,123.801986 1118.41308,123.539085 L1133.79401,127.85 L1124.79564,132.683451 Z M1115.58801,124.636408 L1109.3624,139.685423 L1109.15313,139.685423 C1108.59762,139.535919 1108.00512,139.618478 1107.51177,139.914128 C1107.01843,140.209779 1106.66668,140.693098 1106.53733,141.253028 C1106.53733,141.253028 1106.53733,141.409789 1106.53733,141.462042 L1096.07411,141.462042 L1114.96022,124.427394 C1115.1898,124.545357 1115.43724,124.624798 1115.69264,124.662535 L1115.58801,124.636408 Z M1106.58965,141.906197 C1106.61902,142.143124 1106.68986,142.373052 1106.79891,142.585493 L1068.2158,166.648239 L1095.62943,141.932324 L1106.58965,141.906197 Z M1054.27357,174.172746 L1024.68883,175.479085 L1006.3782,143.57831 C1006.55489,143.462872 1006.71355,143.322011 1006.84905,143.160282 L1054.45668,173.388944 C1054.3673,173.536242 1054.29699,173.694262 1054.24741,173.859225 C1054.25429,173.973814 1054.2718,174.087518 1054.29973,174.198873 L1054.27357,174.172746 Z M955.553134,178.274648 L944.252861,178.01338 L1001.40817,144.309859 L955.553134,178.274648 Z M955.108447,178.614296 L952.492643,180.59993 L933.501907,184.701831 L933.501907,184.440563 L943.965123,178.353028 L955.108447,178.614296 Z M933.109537,184.022535 C932.821357,183.614417 932.393168,183.3262 931.906267,183.212606 C930.957252,183.010318 929.993505,183.486208 929.578202,184.362183 L914.511172,178.144014 C914.575136,177.993763 914.575136,177.823983 914.511172,177.673732 L942.709537,178.326901 L933.109537,184.022535 Z M1065.67847,168.346479 L1058.6158,172.761901 L1094.55695,141.958451 L1094.92316,141.958451 L1065.67847,168.346479 Z M914.40654,178.274648 L929.473569,184.492817 C929.469847,184.562439 929.469847,184.632209 929.473569,184.701831 C929.324517,185.260362 929.410686,185.855483 929.712062,186.348951 C930.013438,186.842419 930.503789,187.191284 931.06921,187.314507 L931.226158,187.314507 L930.572207,195.021901 C930.079983,195.001072 929.596837,195.158835 929.211989,195.466056 L914.118801,178.90169 C914.247594,178.709348 914.344736,178.497657 914.40654,178.274648 Z M932.298638,196.093099 L947.836512,187.079366 L1031.20218,195.309296 L932.507902,196.56338 C932.461044,196.389186 932.390642,196.22218 932.298638,196.066972 L932.298638,196.093099 Z M1037.79401,194.473239 L1058.85123,178.797183 L1086.23869,224.545141 C1086.06039,224.668848 1085.90168,224.818565 1085.76785,224.989296 L1037.84632,196.249859 C1038.22814,195.661817 1038.22814,194.904521 1037.84632,194.316479 L1037.79401,194.473239 Z M1089.42997,225.668592 L1150.66594,195.962465 L1164.45123,213.702535 C1164.15739,213.96726 1163.94814,214.31257 1163.84959,214.695352 C1163.82515,214.877425 1163.82515,215.061942 1163.84959,215.244014 L1089.48229,225.825352 L1089.42997,225.668592 Z M1223.69918,232.017394 C1223.48619,232.985097 1223.98272,233.969197 1224.88817,234.373948 C1225.79362,234.7787 1226.85917,234.492877 1227.43978,233.689507 L1244.83488,245.342042 L1170.46757,216.602606 L1223.69918,232.017394 Z M1247.94768,244.741127 L1257.07684,228.411901 L1303.84741,222.115352 L1248.52316,245.368169 C1248.37481,245.100485 1248.16943,244.868595 1247.92153,244.688873 L1247.94768,244.741127 Z M1307.90191,221.854085 L1365.89428,223.761338 L1377.0376,250.20162 C1376.71633,250.398441 1376.45424,250.678269 1376.27902,251.011549 L1307.90191,222.167606 C1307.90191,222.167606 1307.90191,221.906338 1307.90191,221.854085 Z M1380.20272,252.004366 L1417.76567,247.353803 L1470.08174,278.000493 L1380.25504,252.344014 C1380.24631,252.22963 1380.22882,252.116082 1380.20272,252.004366 Z M1473.95313,279.411338 L1545.94005,292.762113 C1545.84116,293.765602 1546.48267,294.69357 1547.45722,294.956761 L1536.39237,363.957535 C1536.00282,363.929542 1535.61319,364.010994 1535.26757,364.192676 L1473.37766,280.325775 C1473.64638,280.076586 1473.84483,279.761245 1473.95313,279.411338 Z M1537.88338,364.662958 L1599.09319,299.816338 C1599.81167,300.303583 1600.75509,300.303583 1601.47357,299.816338 L1645.07902,355.414085 C1644.77363,355.684376 1644.55518,356.038922 1644.45123,356.433028 C1644.44359,356.554834 1644.44359,356.676997 1644.45123,356.798803 L1538.35422,365.446761 C1538.2552,365.16258 1538.09441,364.903827 1537.88338,364.689085 L1537.88338,364.662958 Z M1647.59019,355.20507 L1686.82725,266.739859 C1687.43245,266.874534 1688.06621,266.73067 1688.55368,266.347958 L1736.89373,318.261831 C1736.65644,318.511865 1736.48558,318.817249 1736.39673,319.150141 C1736.30919,319.484161 1736.30919,319.835064 1736.39673,320.169085 L1648.34877,355.93662 C1648.16092,355.640181 1647.89963,355.3972 1647.59019,355.231197 L1647.59019,355.20507 Z M1738.9079,317.556408 L1738.75095,317.556408 L1741.75913,275.387817 C1742.36684,275.412402 1742.95314,275.161387 1743.35437,274.704835 C1743.7556,274.248283 1743.9288,273.63509 1743.82561,273.036408 L1815.2109,255.792746 C1815.24732,255.937539 1815.29996,256.077768 1815.36785,256.210775 L1739.84959,318.10507 C1739.58747,317.850799 1739.26253,317.670494 1738.9079,317.582535 L1738.9079,317.556408 Z M1878.69646,188.98662 L1808.82834,202.05 C1808.62858,201.321861 1808.04674,200.760752 1807.31117,200.586901 L1807.18038,200.586901 L1811.44414,140.312465 C1812.01294,140.297906 1812.55127,140.052642 1812.93515,139.633169 L1878.9842,187.654155 C1878.87071,187.823338 1878.78258,188.008178 1878.72262,188.202817 C1878.66596,188.469117 1878.6571,188.743352 1878.69646,189.012746 L1878.69646,188.98662 Z M1810.92098,140.443099 L1806.68338,200.717535 C1805.95568,200.733297 1805.28995,201.130275 1804.93079,201.762606 L1732.02834,170.175352 C1732.02834,170.175352 1732.02834,170.175352 1732.02834,170.044718 C1732.11028,169.71884 1732.11028,169.37778 1732.02834,169.051901 L1809.5346,139.345775 C1809.80871,139.9006 1810.31755,140.303349 1810.92098,140.443099 Z M1728.23542,170.697887 L1657.16403,228.438028 C1656.89941,228.167984 1656.56399,227.977838 1656.19619,227.889366 C1655.94524,227.84544 1655.68855,227.84544 1655.4376,227.889366 L1634.51117,147.627958 C1635.06645,147.418537 1635.50477,146.980745 1635.71444,146.426127 L1727.92153,169.365423 C1727.87548,169.832045 1727.98589,170.300729 1728.23542,170.697887 Z M1631.79074,146.190986 L1550.25613,178.274648 C1549.98166,177.735854 1549.4845,177.344329 1548.89591,177.203451 L1555.06921,86.3607042 C1555.58157,86.3359624 1556.06641,86.1217721 1556.42943,85.7597887 L1632.02616,144.571127 C1631.91068,144.748581 1631.8225,144.942333 1631.76458,145.145915 C1631.68217,145.490618 1631.69119,145.850827 1631.79074,146.190986 Z M1554.3891,86.4390845 L1548.2158,177.281831 L1547.7188,177.281831 L1513.34714,98.7447887 C1513.8486,98.4569205 1514.20841,97.9745952 1514.34114,97.4123239 C1514.4105,97.1114473 1514.4105,96.798764 1514.34114,96.4978873 L1552.92425,85.1066197 C1553.15363,85.7708583 1553.70557,86.2729197 1554.3891,86.4390845 Z M1510.67902,98.274507 L1457.15967,152.905563 C1456.92394,152.707608 1456.64688,152.564783 1456.34877,152.487535 C1456.13195,152.45572 1455.91164,152.45572 1455.69482,152.487535 L1435.68392,60.416831 C1436.12088,60.2720356 1436.49784,59.987359 1436.7564,59.6069014 L1510.36512,96.1843662 C1510.36512,96.1843662 1510.36512,96.3411268 1510.36512,96.419507 C1510.17825,97.0446522 1510.29435,97.7210974 1510.67902,98.2483803 L1510.67902,98.274507 Z M1433.19891,59.5807746 C1433.39746,59.871017 1433.66779,60.1050283 1433.98365,60.2600704 L1401.6,143.317042 C1400.88585,143.161376 1400.14214,143.389175 1399.63815,143.917958 L1347.4267,102.68993 C1347.55939,102.490291 1347.65672,102.269348 1347.71444,102.036761 C1347.82489,101.661508 1347.82489,101.262435 1347.71444,100.887183 L1433.19891,59.5807746 Z M1343.60763,101.383592 L1255.32425,105.720634 C1255.18445,104.978179 1254.65441,104.368857 1253.93787,104.126901 L1266.59837,56.1842958 C1267.36516,56.3552573 1268.16322,56.0828287 1268.66485,55.4788732 L1343.81689,100.782676 C1343.74446,100.898568 1343.68315,101.021037 1343.63379,101.148451 C1343.61781,101.243452 1343.60907,101.339525 1343.60763,101.435845 L1343.60763,101.383592 Z M1265.26431,55.4788732 C1265.51326,55.8182015 1265.86008,56.0734474 1266.25831,56.2104225 L1253.59782,104.153028 C1252.65365,103.992173 1251.72256,104.500416 1251.34823,105.380986 L1207.32425,90.4887324 C1207.42196,90.0395136 1207.36672,89.5705728 1207.1673,89.1562676 L1265.26431,55.4788732 Z M1134.47411,127.693239 L1118.77929,123.277817 C1118.83853,122.993467 1118.83853,122.699983 1118.77929,122.415634 L1201.90954,91.5338028 L1134.47411,127.693239 Z M1095.55095,141.540423 L1095.2109,141.540423 L1101.98583,135.740282 L1095.55095,141.540423 Z M1057.83106,172.892535 C1057.5728,172.627722 1057.24728,172.438064 1056.88937,172.343873 C1056.08253,172.164929 1055.24515,172.47092 1054.74441,173.127676 L1007.08447,142.820634 C1007.17359,142.673207 1007.24389,142.515219 1007.29373,142.350352 C1007.29803,142.280747 1007.29803,142.210943 1007.29373,142.141338 L1093.85068,141.958451 L1057.83106,172.892535 Z M943.415804,177.935 L914.641962,177.281831 C914.652402,177.160129 914.652402,177.037758 914.641962,176.916056 L1002.6376,143.264789 L943.415804,177.935 Z" id="Shape"></path>
                </g>
            </g>
        </g>
    </g>
</svg>