<?xml version="1.0" encoding="UTF-8"?>
<svg width="243px" height="72px" viewBox="0 0 243 72" version="1.1" xmlns="http://www.w3.org/2000/svg" xmlns:xlink="http://www.w3.org/1999/xlink">
    <!-- Generator: Sketch 50.2 (55047) - http://www.bohemiancoding.com/sketch -->
    <title>android</title>
    <desc>Created with Sketch.</desc>
    <defs>
        <linearGradient x1="98.3787934%" y1="98.3787934%" x2="1.62120665%" y2="-1.62120665%" id="linearGradient-1">
            <stop stop-color="#284293" offset="0%"></stop>
            <stop stop-color="#38BCF3" offset="100%"></stop>
        </linearGradient>
        <linearGradient x1="91.4762131%" y1="4.9481245%" x2="-38.5502813%" y2="71.9074222%" id="linearGradient-2">
            <stop stop-color="#00A0FF" offset="0%"></stop>
            <stop stop-color="#00A1FF" offset="1%"></stop>
            <stop stop-color="#00BEFF" offset="26%"></stop>
            <stop stop-color="#00D2FF" offset="51%"></stop>
            <stop stop-color="#00DFFF" offset="76%"></stop>
            <stop stop-color="#00E3FF" offset="100%"></stop>
        </linearGradient>
        <linearGradient x1="107.684729%" y1="50%" x2="-130.640394%" y2="50%" id="linearGradient-3">
            <stop stop-color="#FFE000" offset="0%"></stop>
            <stop stop-color="#FFBD00" offset="41%"></stop>
            <stop stop-color="#FFA500" offset="78%"></stop>
            <stop stop-color="#FF9C00" offset="100%"></stop>
        </linearGradient>
        <linearGradient x1="86.219293%" y1="17.8768889%" x2="-50.1497903%" y2="194.702638%" id="linearGradient-4">
            <stop stop-color="#FF3A44" offset="0%"></stop>
            <stop stop-color="#C31162" offset="100%"></stop>
        </linearGradient>
        <linearGradient x1="-18.7537448%" y1="-54.0521474%" x2="42.1210306%" y2="24.9170664%" id="linearGradient-5">
            <stop stop-color="#32A071" offset="0%"></stop>
            <stop stop-color="#2DA771" offset="7%"></stop>
            <stop stop-color="#15CF74" offset="48%"></stop>
            <stop stop-color="#06E775" offset="80%"></stop>
            <stop stop-color="#00F076" offset="100%"></stop>
        </linearGradient>
    </defs>
    <g id="Page-1" stroke="none" stroke-width="1" fill="none" fill-rule="evenodd">
        <g id="main-v6-slide-1" transform="translate(-345.000000, -2858.000000)" fill-rule="nonzero">
            <g id="4-section" transform="translate(-597.000000, 2339.000000)">
                <g id="android" transform="translate(942.000000, 519.000000)">
                    <rect id="Rectangle-path" fill="url(#linearGradient-1)" x="0" y="0" width="243" height="72"></rect>
                    <path d="M234,1.44 C238.175273,1.44 241.56,4.82472729 241.56,9 L241.56,63 C241.56,67.1752727 238.175273,70.56 234,70.56 L9,70.56 C4.82472729,70.56 1.44,67.1752727 1.44,63 L1.44,9 C1.44,4.82472729 4.82472729,1.44 9,1.44 L234,1.44 Z M234,0 L9,0 C4.02943725,-3.04359188e-16 6.08718376e-16,4.02943725 0,9 L0,63 C6.08718376e-16,67.9705627 4.02943725,72 9,72 L234,72 C238.970563,72 243,67.9705627 243,63 L243,9 C243,4.02943725 238.970563,3.04359188e-16 234,0 Z" id="Shape"></path>
                    <path d="M85.356,18.432 C85.4178364,19.7662159 84.9298817,21.0674284 84.006,22.032 C82.9736096,23.1044458 81.5336709,23.6869664 80.046,23.634 C78.5489662,23.6486614 77.1092333,23.0592029 76.0523149,21.9988969 C74.9953966,20.938591 74.4105482,19.4969792 74.43,18 C74.4105482,16.5030208 74.9953966,15.061409 76.0523149,14.0011031 C77.1092333,12.9407971 78.5489662,12.3513386 80.046,12.366 C80.8069637,12.3634646 81.5604047,12.516603 82.26,12.816 C82.9113381,13.0787164 83.4911713,13.4920018 83.952,14.022 L82.998,14.976 C82.2696243,14.1096176 81.1761927,13.6362418 80.046,13.698 C78.9131558,13.6926008 77.8267285,14.1476786 77.0359244,14.9588468 C76.2451202,15.770015 75.8178061,16.8676591 75.852,18 C75.8278834,19.7157414 76.8383578,21.2775111 78.4132799,21.9586649 C79.9882021,22.6398188 81.8182666,22.3065822 83.052,21.114 C83.6058771,20.5137659 83.9253294,19.7343023 83.952,18.918 L80.046,18.918 L80.046,17.622 L85.284,17.622 C85.3320116,17.8893254 85.3561069,18.1603974 85.356,18.432 Z" id="Shape" stroke="#FFFFFF" stroke-width="0.5" fill="#FFFFFF"></path>
                    <polygon id="Shape" stroke="#FFFFFF" stroke-width="0.5" fill="#FFFFFF" points="93.6 13.932 88.74 13.932 88.74 17.352 93.168 17.352 93.168 18.648 88.74 18.648 88.74 22.068 93.6 22.068 93.6 23.4 87.3 23.4 87.3 12.6 93.6 12.6"></polygon>
                    <polygon id="Shape" stroke="#FFFFFF" stroke-width="0.5" fill="#FFFFFF" points="99.504 23.4 98.118 23.4 98.118 13.932 95.094 13.932 95.094 12.6 102.6 12.6 102.6 13.932 99.504 13.932"></polygon>
                    <polygon id="Shape" stroke="#FFFFFF" stroke-width="0.5" fill="#FFFFFF" points="107.892 23.4 107.892 12.6 109.278 12.6 109.278 23.4"></polygon>
                    <polygon id="Shape" stroke="#FFFFFF" stroke-width="0.5" fill="#FFFFFF" points="115.434 23.4 114.048 23.4 114.048 13.932 111.024 13.932 111.024 12.6 118.44 12.6 118.44 13.932 115.434 13.932"></polygon>
                    <path d="M132.498,21.996 C130.307382,24.1744102 126.768618,24.1744102 124.578,21.996 C123.532348,20.9323586 122.961072,19.4911867 122.994,18 C122.961072,16.5088133 123.532348,15.0676414 124.578,14.004 C125.625597,12.948744 127.051048,12.3552593 128.538,12.3552593 C130.024952,12.3552593 131.450403,12.948744 132.498,14.004 C133.543652,15.0676414 134.114928,16.5088133 134.082,18 C134.114928,19.4911867 133.543652,20.9323586 132.498,21.996 Z M125.604,21.096 C127.226383,22.7116171 129.849617,22.7116171 131.472,21.096 C132.279448,20.2716875 132.715102,19.1532941 132.678,18 C132.696129,16.8361168 132.233838,15.7161992 131.4,14.904 C129.777617,13.2883829 127.154383,13.2883829 125.532,14.904 C124.750799,15.7401357 124.341679,16.8570974 124.398,18 C124.360898,19.1532941 124.796552,20.2716875 125.604,21.096 Z" id="Shape" stroke="#FFFFFF" stroke-width="0.5" fill="#FFFFFF"></path>
                    <polygon id="Shape" stroke="#FFFFFF" stroke-width="0.5" fill="#FFFFFF" points="136.044 23.4 136.044 12.6 137.736 12.6 142.992 21.006 142.992 21.006 142.992 18.918 142.992 12.6 144.378 12.6 144.378 23.4 142.938 23.4 137.43 14.598 137.43 14.598 137.43 16.686 137.43 23.4"></polygon>
                    <path d="M122.652,39.15 C118.431765,39.1698601 115.024813,42.6036261 115.038038,46.8238871 C115.051262,51.0441482 118.479667,54.4564949 122.699944,54.449906 C126.92022,54.4433171 130.337953,51.0202818 130.338,46.8 C130.367651,44.7558728 129.566217,42.7872775 128.117259,41.3451066 C126.668302,39.9029357 124.695965,39.1107522 122.652,39.15 Z M122.652,51.444 C120.749809,51.5770295 118.959611,50.5337643 118.137638,48.8131867 C117.315665,47.0926092 117.628985,45.0444291 118.927739,43.6482684 C120.226493,42.2521078 122.246708,41.7917383 124.022138,42.4873495 C125.797568,43.1829608 126.967354,44.8931689 126.972,46.8 C127.030577,47.9928094 126.604859,49.158707 125.791453,50.0331187 C124.978046,50.9075304 123.845926,51.4163095 122.652,51.444 Z M105.894,39.15 C101.671379,39.1599356 98.2553896,42.5893443 98.2620094,46.8119718 C98.2686292,51.0345992 101.695355,54.4532806 105.917986,54.4499765 C110.140617,54.4466724 113.561988,51.0226326 113.562,46.8 C113.591651,44.7558728 112.790217,42.7872775 111.341259,41.3451066 C109.892302,39.9029357 107.919965,39.1107522 105.876,39.15 L105.894,39.15 Z M105.894,51.444 C103.990816,51.5845315 102.195399,50.5464683 101.367633,48.8269739 C100.539867,47.1074794 100.848281,45.0566307 102.145164,43.6566481 C103.442047,42.2566655 105.463364,41.7925756 107.241037,42.4866468 C109.01871,43.1807179 110.190819,44.891642 110.196,46.8 C110.254577,47.9928094 109.828859,49.158707 109.015453,50.0331187 C108.202046,50.9075304 107.069926,51.4163095 105.876,51.444 L105.894,51.444 Z M85.932,41.508 L85.932,44.748 L93.708,44.748 C93.5860742,46.2740468 92.9517203,47.71403 91.908,48.834 C90.3348412,50.4364043 88.1577778,51.2993844 85.914,51.21 C81.1422598,51.21 77.274,47.3417402 77.274,42.57 C77.274,37.7982598 81.1422598,33.93 85.914,33.93 C88.1060323,33.8942499 90.2227715,34.7292938 91.8,36.252 L94.086,33.966 C91.9348552,31.7877446 88.9932931,30.5734574 85.932,30.6 C81.5741294,30.4304022 77.4727084,32.6586092 75.2433373,36.4069027 C73.0139662,40.1551962 73.0139662,44.8228038 75.2433373,48.5710973 C77.4727084,52.3193908 81.5741294,54.5475978 85.932,54.378 C89.0491771,54.5188578 92.0749333,53.3046172 94.23,51.048 C96.1158163,48.9760589 97.1226776,46.2523702 97.038,43.452 C97.0438083,42.7697788 96.9835269,42.0885986 96.858,41.418 L85.932,41.508 Z M167.49,44.028 C166.528943,41.2005781 163.92227,39.2598955 160.938,39.15 C158.947854,39.1461089 157.044861,39.9661336 155.680883,41.4153604 C154.316905,42.8645872 153.613612,44.8137416 153.738,46.8 C153.693794,48.832733 154.478096,50.796051 155.910694,52.2388333 C157.343292,53.6816157 159.301005,54.4798058 161.334,54.45 C163.891545,54.4637862 166.285158,53.1926019 167.706,51.066 L165.096,49.266 C164.303543,50.5870959 162.874541,51.3939006 161.334,51.39 C159.738465,51.4508132 158.267954,50.5299597 157.626,49.068 L167.868,44.838 L167.49,44.028 Z M157.05,46.584 C156.976293,45.4592957 157.358386,44.3522609 158.11014,43.512464 C158.861894,42.6726671 159.920028,42.170799 161.046,42.12 C162.232866,42.0417929 163.35192,42.6792286 163.89,43.74 L157.05,46.584 Z M148.734,54 L152.1,54 L152.1,31.5 L148.734,31.5 L148.734,54 Z M143.226,40.86 L143.1,40.86 C142.073932,39.7128182 140.607103,39.0579839 139.068,39.06 C134.982264,39.258129 131.771407,42.6284633 131.771407,46.719 C131.771407,50.8095367 134.982264,54.179871 139.068,54.378 C140.612092,54.4039627 142.088429,53.7448839 143.1,52.578 L143.208,52.578 L143.208,53.676 C143.208,56.61 141.642,58.176 139.122,58.176 C137.405345,58.1358194 135.883311,57.0618602 135.27,55.458 L132.336,56.682 C133.465827,59.4302598 136.150616,61.217745 139.122,61.2 C143.064,61.2 146.322,58.878 146.322,53.226 L146.322,39.6 L143.226,39.6 L143.226,40.86 Z M139.374,51.444 C136.967198,51.2318876 135.121277,49.216131 135.121277,46.8 C135.121277,44.383869 136.967198,42.3681124 139.374,42.156 C140.537015,42.2156835 141.626675,42.7423863 142.39593,43.6166937 C143.165185,44.4910011 143.548871,45.6388503 143.46,46.8 C143.559243,47.9664889 143.176783,49.122776 142.401547,50.0000179 C141.62631,50.8772597 140.525839,51.3990249 139.356,51.444 L139.374,51.444 Z M183.258,31.5 L175.194,31.5 L175.194,54 L178.56,54 L178.56,45.468 L183.258,45.468 C185.872831,45.6558549 188.373553,44.3673161 189.738234,42.1289513 C191.102915,39.8905866 191.102915,37.0774134 189.738234,34.8390487 C188.373553,32.6006839 185.872831,31.3121451 183.258,31.5 Z M183.258,42.3 L178.56,42.3 L178.56,34.632 L183.33,34.632 C185.462371,34.632 187.191,36.3606286 187.191,38.493 C187.191,40.6253714 185.462371,42.354 183.33,42.354 L183.258,42.3 Z M204.012,39.06 C201.507683,38.9103101 199.153236,40.2607584 198.018,42.498 L201.006,43.74 C201.60793,42.6306027 202.808024,41.98114 204.066,42.084 C204.92915,41.9831903 205.796617,42.2333462 206.473551,42.7782783 C207.150485,43.3232105 207.580137,44.1172348 207.666,44.982 L207.666,45.216 C206.584907,44.6435983 205.379266,44.3468253 204.156,44.352 C200.934,44.352 197.676,46.152 197.676,49.41 C197.740238,50.8134758 198.369433,52.1312931 199.420436,53.0636352 C200.47144,53.9959774 201.854877,54.4635588 203.256,54.36 C204.982612,54.4839896 206.639224,53.6556837 207.576,52.2 L207.684,52.2 L207.684,54 L210.924,54 L210.924,45.342 C210.924,41.4 207.936,39.114 204.102,39.114 L204.012,39.06 Z M203.598,51.39 C202.5,51.39 200.97,50.832 200.97,49.482 C200.97,47.682 202.878,47.088 204.57,47.088 C205.639276,47.0616154 206.696035,47.3226973 207.63,47.844 C207.397253,49.8589471 205.715743,51.394573 203.688,51.444 L203.598,51.39 Z M222.732,39.6 L218.88,49.356 L218.772,49.356 L214.776,39.6 L211.176,39.6 L217.17,53.244 L213.75,60.822 L217.26,60.822 L226.476,39.6 L222.732,39.6 Z M192.474,54 L195.84,54 L195.84,31.5 L192.474,31.5 L192.474,54 Z" id="Shape" fill="#FFFFFF"></path>
                    <path d="M18.792,13.572 C18.2182259,14.2813 17.9351519,15.1819902 18,16.092 L18,55.908 C17.9451966,56.8227691 18.2413169,57.724005 18.828,58.428 L18.954,58.554 L41.22,36.27 L41.22,35.748 L18.918,13.446 L18.792,13.572 Z" id="Shape" fill="url(#linearGradient-2)"></path>
                    <path d="M48.6,43.704 L41.22,36.27 L41.22,35.748 L48.6,28.296 L48.762,28.386 L57.6,33.408 C60.12,34.83 60.12,37.17 57.6,38.61 L48.798,43.614 L48.6,43.704 Z" id="Shape" fill="url(#linearGradient-3)"></path>
                    <path d="M48.816,43.614 L41.22,36 L18.792,58.428 C19.8516919,59.3595403 21.4243721,59.4049061 22.536,58.536 L48.834,43.596" id="Shape" fill="url(#linearGradient-4)"></path>
                    <path d="M48.816,28.404 L22.518,13.464 C21.4063721,12.5950939 19.8336919,12.6404597 18.774,13.572 L41.22,36 L48.816,28.404 Z" id="Shape" fill="url(#linearGradient-5)"></path>
                    <path d="M48.6,43.434 L22.518,58.284 C21.4506694,59.0820056 19.9853306,59.0820056 18.918,58.284 L18.792,58.41 L18.918,58.536 C19.9833224,59.3400226 21.4526776,59.3400226 22.518,58.536 L48.816,43.596 L48.6,43.434 Z" id="Shape" fill="#000000" opacity="0.2"></path>
                    <path d="M18.792,58.176 C18.2053169,57.472005 17.9091966,56.5707691 17.964,55.656 L17.964,55.926 C17.9091966,56.8407691 18.2053169,57.742005 18.792,58.446 L18.918,58.32 L18.792,58.176 Z" id="Shape" fill="#000000" opacity="0.12"></path>
                    <path d="M57.6,38.34 L48.6,43.434 L48.762,43.596 L57.6,38.592 C58.6207262,38.1125038 59.3072431,37.1239194 59.4,36 C59.1948531,37.0167083 58.5300707,37.8809254 57.6,38.34 Z" id="Shape" fill="#000000" opacity="0.12"></path>
                    <path d="M22.518,13.716 L57.6,33.66 C58.5300707,34.1190746 59.1948531,34.9832917 59.4,36 C59.3072431,34.8760806 58.6207262,33.8874962 57.6,33.408 L22.518,13.464 C20.016,12.024 18,13.212 18,16.092 L18,16.362 C18,13.482 20.016,12.294 22.518,13.716 Z" id="Shape" fill="#FFFFFF" opacity="0.25"></path>
                </g>
            </g>
        </g>
    </g>
</svg>