<?xml version="1.0" encoding="UTF-8"?>
<svg width="243px" height="72px" viewBox="0 0 243 72" version="1.1" xmlns="http://www.w3.org/2000/svg" xmlns:xlink="http://www.w3.org/1999/xlink">
    <!-- Generator: Sketch 50.2 (55047) - http://www.bohemiancoding.com/sketch -->
    <title>Download_on_the_App_Store_Badge_US-UK_135x40</title>
    <desc>Created with Sketch.</desc>
    <defs>
        <linearGradient x1="98.3787934%" y1="98.3787934%" x2="1.62120665%" y2="-1.62120665%" id="linearGradient-1">
            <stop stop-color="#284293" offset="0%"></stop>
            <stop stop-color="#38BCF3" offset="100%"></stop>
        </linearGradient>
    </defs>
    <g id="Page-1" stroke="none" stroke-width="1" fill="none" fill-rule="evenodd">
        <g id="main-v6-slide-1" transform="translate(-345.000000, -2962.000000)" fill-rule="nonzero">
            <g id="4-section" transform="translate(-597.000000, 2339.000000)">
                <g id="Download_on_the_App_Store_Badge_US-UK_135x40" transform="translate(942.000000, 623.000000)">
                    <rect id="Rectangle-path" fill="url(#linearGradient-1)" x="0" y="0" width="243" height="72"></rect>
                    <path d="M241.2576,63.4824 C241.2576,67.2912 238.1724,70.3764 234.3564,70.3764 L8.5122,70.3764 C4.698,70.3764 1.602,67.2912 1.602,63.4824 L1.602,8.505 C1.602,4.698 4.698,1.602 8.5122,1.602 L234.3546,1.602 C238.1724,1.602 241.2558,4.698 241.2558,8.505 L241.2576,63.4824 Z" id="Shape" fill="url(#linearGradient-1)"></path>
                    <g id="Group" transform="translate(22.600000, 10.800000)" fill="#FFFFFF">
                        <path d="M31.6304,24.8112 C31.5782,19.0098 36.3806,16.1874 36.6002,16.056 C33.8804,12.0906 29.6648,11.5488 28.1834,11.5056 C24.6428,11.133 21.2084,13.6242 19.4048,13.6242 C17.5652,13.6242 14.7878,11.5416 11.7944,11.6028 C7.9424,11.6622 4.3388,13.8924 2.3624,17.3556 C-1.7164,24.417 1.3256,34.794 5.2334,40.5018 C7.1882,43.2972 9.4724,46.4184 12.4622,46.3086 C15.3872,46.188 16.4798,44.4438 20.0096,44.4438 C23.507,44.4438 24.533,46.3086 27.5822,46.2384 C30.7214,46.188 32.6978,43.4304 34.5842,40.6098 C36.8432,37.4058 37.7504,34.2504 37.7864,34.0884 C37.7126,34.0632 31.6898,31.7646 31.6304,24.8112 Z" id="Shape"></path>
                        <path d="M25.8704,7.7508 C27.4436,5.7834 28.52,3.1068 28.2212,0.3906 C25.9442,0.4914 23.0966,1.9656 21.4568,3.8898 C20.006,5.5854 18.71,8.3646 19.0448,10.9782 C21.6026,11.169 24.2288,9.6876 25.8704,7.7508 Z" id="Shape"></path>
                    </g>
                    <g id="Group" transform="translate(75.600000, 32.400000)" fill="#FFFFFF">
                        <path d="M20.961,24.3072 L16.8732,24.3072 L14.634,17.271 L6.8508,17.271 L4.7178,24.3072 L0.738,24.3072 L8.4492,0.3528 L13.212,0.3528 L20.961,24.3072 Z M13.959,14.319 L11.934,8.064 C11.7198,7.425 11.3184,5.9202 10.7262,3.5514 L10.6542,3.5514 C10.4184,4.5702 10.0386,6.075 9.5166,8.064 L7.5276,14.319 L13.959,14.319 Z" id="Shape"></path>
                        <path d="M40.7916,15.4584 C40.7916,18.396 39.9978,20.718 38.4102,22.4226 C36.9882,23.94 35.2224,24.6978 33.1146,24.6978 C30.8394,24.6978 29.205,23.8806 28.2096,22.2462 L28.1376,22.2462 L28.1376,31.3452 L24.3,31.3452 L24.3,12.7206 C24.3,10.8738 24.2514,8.9784 24.1578,7.0344 L27.5328,7.0344 L27.747,9.7722 L27.819,9.7722 C29.0988,7.7094 31.041,6.6798 33.6474,6.6798 C35.685,6.6798 37.386,7.4844 38.7468,9.0954 C40.1112,10.7082 40.7916,12.8286 40.7916,15.4584 Z M36.882,15.5988 C36.882,13.9176 36.504,12.5316 35.7444,11.4408 C34.9146,10.3032 33.8004,9.7344 32.4036,9.7344 C31.4568,9.7344 30.5964,10.0512 29.8278,10.6758 C29.0574,11.3058 28.5534,12.1284 28.3176,13.1472 C28.1988,13.6224 28.1394,14.0112 28.1394,14.3172 L28.1394,17.1972 C28.1394,18.4536 28.5246,19.5138 29.295,20.3796 C30.0654,21.2454 31.0662,21.6774 32.2974,21.6774 C33.7428,21.6774 34.8678,21.1194 35.6724,20.007 C36.4788,18.8928 36.882,17.424 36.882,15.5988 Z" id="Shape"></path>
                        <path d="M60.6582,15.4584 C60.6582,18.396 59.8644,20.718 58.275,22.4226 C56.8548,23.94 55.089,24.6978 52.9812,24.6978 C50.706,24.6978 49.0716,23.8806 48.078,22.2462 L48.006,22.2462 L48.006,31.3452 L44.1684,31.3452 L44.1684,12.7206 C44.1684,10.8738 44.1198,8.9784 44.0262,7.0344 L47.4012,7.0344 L47.6154,9.7722 L47.6874,9.7722 C48.9654,7.7094 50.9076,6.6798 53.5158,6.6798 C55.5516,6.6798 57.2526,7.4844 58.617,9.0954 C59.976,10.7082 60.6582,12.8286 60.6582,15.4584 Z M56.7486,15.5988 C56.7486,13.9176 56.3688,12.5316 55.6092,11.4408 C54.7794,10.3032 53.6688,9.7344 52.2702,9.7344 C51.3216,9.7344 50.463,10.0512 49.6926,10.6758 C48.9222,11.3058 48.42,12.1284 48.1842,13.1472 C48.0672,13.6224 48.006,14.0112 48.006,14.3172 L48.006,17.1972 C48.006,18.4536 48.3912,19.5138 49.158,20.3796 C49.9284,21.2436 50.9292,21.6774 52.164,21.6774 C53.6094,21.6774 54.7344,21.1194 55.539,20.007 C56.3454,18.8928 56.7486,17.424 56.7486,15.5988 Z" id="Shape"></path>
                        <path d="M82.8702,17.5896 C82.8702,19.6272 82.1628,21.285 80.7426,22.5648 C79.182,23.9634 77.0094,24.6618 74.2176,24.6618 C71.64,24.6618 69.5736,24.165 68.0094,23.1696 L68.8986,19.971 C70.5834,20.9898 72.432,21.501 74.4462,21.501 C75.8916,21.501 77.0166,21.1734 77.8248,20.5218 C78.6294,19.8702 79.0308,18.9954 79.0308,17.9046 C79.0308,16.9326 78.6996,16.1136 78.0354,15.4494 C77.3748,14.7852 76.2714,14.1678 74.7306,13.5972 C70.5366,12.033 68.4414,9.7416 68.4414,6.7284 C68.4414,4.7592 69.1758,3.1446 70.6464,1.8882 C72.1116,0.63 74.0664,0.0018 76.5108,0.0018 C78.6906,0.0018 80.5014,0.3816 81.9468,1.1394 L80.9874,4.2678 C79.6374,3.5334 78.111,3.1662 76.4028,3.1662 C75.0528,3.1662 73.998,3.4992 73.242,4.1616 C72.603,4.7538 72.2826,5.4756 72.2826,6.3306 C72.2826,7.2774 72.648,8.0604 73.3824,8.676 C74.0214,9.2448 75.1824,9.8604 76.8672,10.5246 C78.9282,11.3544 80.442,12.3246 81.4158,13.437 C82.386,14.5458 82.8702,15.9336 82.8702,17.5896 Z" id="Shape"></path>
                        <path d="M95.5584,9.9144 L91.3284,9.9144 L91.3284,18.3006 C91.3284,20.4336 92.0736,21.4992 93.5676,21.4992 C94.2534,21.4992 94.8222,21.4398 95.2722,21.321 L95.3784,24.2352 C94.6224,24.5178 93.627,24.66 92.394,24.66 C90.8784,24.66 89.694,24.1974 88.839,23.274 C87.9876,22.3488 87.5592,20.7972 87.5592,18.6174 L87.5592,9.9108 L85.0392,9.9108 L85.0392,7.0308 L87.5592,7.0308 L87.5592,3.8682 L91.3284,2.7306 L91.3284,7.0308 L95.5584,7.0308 L95.5584,9.9144 Z" id="Shape"></path>
                        <path d="M114.6438,15.5286 C114.6438,18.1836 113.8842,20.3634 112.3686,22.068 C110.7792,23.823 108.6696,24.6978 106.0398,24.6978 C103.5054,24.6978 101.4876,23.8572 99.9828,22.176 C98.478,20.4948 97.7256,18.3726 97.7256,15.8148 C97.7256,13.1382 98.4996,10.9458 100.053,9.2412 C101.6028,7.5348 103.6944,6.6816 106.3242,6.6816 C108.8586,6.6816 110.898,7.5222 112.437,9.2052 C113.9094,10.8378 114.6438,12.9456 114.6438,15.5286 Z M110.6622,15.6528 C110.6622,14.0598 110.322,12.6936 109.6326,11.5542 C108.828,10.1754 107.6778,9.4878 106.1874,9.4878 C104.6448,9.4878 103.473,10.1772 102.6684,11.5542 C101.979,12.6954 101.6388,14.0832 101.6388,15.7248 C101.6388,17.3178 101.979,18.684 102.6684,19.8216 C103.4982,21.2004 104.6574,21.888 106.1532,21.888 C107.6184,21.888 108.7686,21.186 109.5984,19.7856 C110.3058,18.6246 110.6622,17.244 110.6622,15.6528 Z" id="Shape"></path>
                        <path d="M127.1178,10.4094 C126.738,10.3392 126.333,10.3032 125.9082,10.3032 C124.5582,10.3032 123.5142,10.8126 122.7798,11.8332 C122.1408,12.7332 121.8204,13.8708 121.8204,15.2442 L121.8204,24.3072 L117.9846,24.3072 L118.0206,12.474 C118.0206,10.4832 117.972,8.6706 117.8766,7.0362 L121.2192,7.0362 L121.3596,10.341 L121.4658,10.341 C121.8708,9.2052 122.5098,8.2908 123.3846,7.605 C124.2396,6.9876 125.163,6.6798 126.1584,6.6798 C126.513,6.6798 126.8334,6.705 127.1178,6.75 L127.1178,10.4094 Z" id="Shape"></path>
                        <path d="M144.2808,14.8536 C144.2808,15.5412 144.2358,16.1208 144.1404,16.5942 L132.6276,16.5942 C132.6726,18.3006 133.2288,19.6056 134.298,20.5056 C135.2682,21.3102 136.5228,21.7134 138.0636,21.7134 C139.7682,21.7134 141.3234,21.4416 142.722,20.8962 L143.3232,23.5602 C141.6888,24.273 139.7592,24.6276 137.5326,24.6276 C134.8542,24.6276 132.7518,23.8392 131.2218,22.2642 C129.6954,20.6892 128.9304,18.5742 128.9304,15.921 C128.9304,13.3164 129.6414,11.1474 131.0652,9.4176 C132.5556,7.5708 134.5698,6.6474 137.1042,6.6474 C139.5936,6.6474 141.4782,7.5708 142.758,9.4176 C143.7714,10.8846 144.2808,12.699 144.2808,14.8536 Z M140.6214,13.8582 C140.6466,12.7206 140.3964,11.7378 139.8762,10.908 C139.212,9.8406 138.1914,9.3078 136.818,9.3078 C135.5634,9.3078 134.5428,9.828 133.7634,10.872 C133.1244,11.7018 132.7446,12.6972 132.6276,13.8564 L140.6214,13.8564 L140.6214,13.8582 Z" id="Shape"></path>
                    </g>
                    <g id="Group" transform="translate(78.400000, 11.800000)" fill="#FFFFFF">
                        <path d="M9.89,6.2162 C9.89,8.3348 9.2546,9.9296 7.9856,11.0006 C6.8102,11.9888 5.1398,12.4838 2.9762,12.4838 C1.9034,12.4838 0.9854,12.437 0.2168,12.3434 L0.2168,0.7676 C1.2194,0.6056 2.2994,0.5228 3.4658,0.5228 C5.5268,0.5228 7.0802,0.971 8.1278,1.8674 C9.3014,2.8808 9.89,4.3298 9.89,6.2162 Z M7.901,6.2684 C7.901,4.895 7.5374,3.842 6.8102,3.1076 C6.083,2.375 5.021,2.0078 3.6224,2.0078 C3.0284,2.0078 2.5226,2.0474 2.1032,2.1302 L2.1032,10.9304 C2.3354,10.9664 2.7602,10.9826 3.3776,10.9826 C4.8212,10.9826 5.9354,10.5812 6.7202,9.7784 C7.505,8.9756 7.901,7.8056 7.901,6.2684 Z" id="Shape"></path>
                        <path d="M20.4362,8.0666 C20.4362,9.3716 20.0636,10.4408 19.3184,11.2796 C18.5372,12.1418 17.5022,12.572 16.2098,12.572 C14.9642,12.572 13.9724,12.1598 13.2326,11.3318 C12.4946,10.5056 12.1256,9.4634 12.1256,8.207 C12.1256,6.893 12.5054,5.8148 13.2686,4.9778 C14.0318,4.1408 15.0578,3.7214 16.3502,3.7214 C17.5958,3.7214 18.5966,4.1336 19.3544,4.9598 C20.0744,5.7626 20.4362,6.7994 20.4362,8.0666 Z M18.4796,8.1278 C18.4796,7.3448 18.3104,6.6734 17.9738,6.1136 C17.5778,5.4368 17.0144,5.0984 16.2818,5.0984 C15.524,5.0984 14.948,5.4368 14.552,6.1136 C14.2136,6.6734 14.0462,7.3556 14.0462,8.162 C14.0462,8.945 14.2154,9.6164 14.552,10.1762 C14.9606,10.853 15.5294,11.1914 16.2638,11.1914 C16.9838,11.1914 17.549,10.8476 17.9558,10.1582 C18.305,9.5876 18.4796,8.9108 18.4796,8.1278 Z" id="Shape"></path>
                        <path d="M34.577,3.8942 L31.922,12.3794 L30.194,12.3794 L29.0942,8.6948 C28.8152,7.775 28.5884,6.8606 28.412,5.9534 L28.3778,5.9534 C28.214,6.8858 27.9872,7.7984 27.6956,8.6948 L26.5274,12.3794 L24.7796,12.3794 L22.283,3.8942 L24.2216,3.8942 L25.181,7.928 C25.4132,8.882 25.604,9.791 25.757,10.6514 L25.7912,10.6514 C25.9316,9.9422 26.1638,9.0386 26.4914,7.946 L27.6956,3.896 L29.2328,3.896 L30.3866,7.8596 C30.6656,8.8262 30.8924,9.7568 31.067,10.6532 L31.1192,10.6532 C31.247,9.7802 31.4396,8.8496 31.6952,7.8596 L32.7248,3.896 L34.577,3.896 L34.577,3.8942 Z" id="Shape"></path>
                        <path d="M44.3564,12.3794 L42.47,12.3794 L42.47,7.5194 C42.47,6.0218 41.9012,5.273 40.76,5.273 C40.2002,5.273 39.7484,5.4782 39.3974,5.8904 C39.05,6.3026 38.8736,6.7886 38.8736,7.3448 L38.8736,12.3776 L36.9872,12.3776 L36.9872,6.3188 C36.9872,5.5736 36.9638,4.7654 36.9188,3.8906 L38.5766,3.8906 L38.6648,5.2172 L38.717,5.2172 C38.9366,4.805 39.2642,4.4648 39.6944,4.193 C40.2056,3.8762 40.778,3.716 41.4044,3.716 C42.1964,3.716 42.8552,3.9716 43.379,4.4846 C44.0306,5.1128 44.3564,6.0506 44.3564,7.2962 L44.3564,12.3794 Z" id="Shape"></path>
                        <polygon id="Shape" points="49.5584 12.3794 47.6738 12.3794 47.6738 0.0008 49.5584 0.0008"></polygon>
                        <path d="M60.6644,8.0666 C60.6644,9.3716 60.2918,10.4408 59.5466,11.2796 C58.7654,12.1418 57.7286,12.572 56.438,12.572 C55.1906,12.572 54.1988,12.1598 53.4608,11.3318 C52.7228,10.5056 52.3538,9.4634 52.3538,8.207 C52.3538,6.893 52.7336,5.8148 53.4968,4.9778 C54.26,4.1408 55.286,3.7214 56.5766,3.7214 C57.824,3.7214 58.823,4.1336 59.5826,4.9598 C60.3026,5.7626 60.6644,6.7994 60.6644,8.0666 Z M58.706,8.1278 C58.706,7.3448 58.5368,6.6734 58.2002,6.1136 C57.806,5.4368 57.2408,5.0984 56.51,5.0984 C55.7504,5.0984 55.1744,5.4368 54.7802,6.1136 C54.4418,6.6734 54.2744,7.3556 54.2744,8.162 C54.2744,8.945 54.4436,9.6164 54.7802,10.1762 C55.1888,10.853 55.7576,11.1914 56.492,11.1914 C57.212,11.1914 57.7754,10.8476 58.1822,10.1582 C58.5332,9.5876 58.706,8.9108 58.706,8.1278 Z" id="Shape"></path>
                        <path d="M69.794,12.3794 L68.1002,12.3794 L67.9598,11.402 L67.9076,11.402 C67.328,12.1814 66.5018,12.572 65.429,12.572 C64.628,12.572 63.98,12.3146 63.4922,11.8034 C63.0494,11.339 62.828,10.7612 62.828,10.0754 C62.828,9.0386 63.26,8.2484 64.1294,7.7012 C64.997,7.154 66.2174,6.8858 67.7888,6.8984 L67.7888,6.74 C67.7888,5.6222 67.202,5.0642 66.0266,5.0642 C65.1896,5.0642 64.4516,5.2748 63.8144,5.6924 L63.431,4.454 C64.2194,3.9662 65.1932,3.7214 66.3416,3.7214 C68.5592,3.7214 69.6716,4.8914 69.6716,7.2314 L69.6716,10.3562 C69.6716,11.204 69.713,11.879 69.794,12.3794 Z M67.8356,9.4634 L67.8356,8.1548 C65.7548,8.1188 64.7144,8.6894 64.7144,9.8648 C64.7144,10.3076 64.8332,10.6388 65.0762,10.8602 C65.3192,11.0816 65.6288,11.1914 65.9978,11.1914 C66.4118,11.1914 66.7988,11.06 67.1516,10.799 C67.5062,10.5362 67.724,10.2032 67.805,9.7946 C67.8248,9.7028 67.8356,9.5912 67.8356,9.4634 Z" id="Shape"></path>
                        <path d="M80.513,12.3794 L78.839,12.3794 L78.7508,11.0168 L78.6986,11.0168 C78.164,12.0536 77.2532,12.572 75.9734,12.572 C74.951,12.572 74.0996,12.1706 73.4246,11.3678 C72.7496,10.565 72.413,9.5228 72.413,8.243 C72.413,6.8696 72.7784,5.7572 73.5128,4.9076 C74.2238,4.1156 75.095,3.7196 76.1318,3.7196 C77.2712,3.7196 78.0686,4.103 78.5222,4.8716 L78.5582,4.8716 L78.5582,0.0008 L80.4464,0.0008 L80.4464,10.0934 C80.4464,10.9196 80.468,11.681 80.513,12.3794 Z M78.5582,8.801 L78.5582,7.3862 C78.5582,7.1414 78.5402,6.9434 78.506,6.7922 C78.3998,6.3386 78.1712,5.957 77.8238,5.6492 C77.4728,5.3414 77.0498,5.1866 76.562,5.1866 C75.8582,5.1866 75.3074,5.4656 74.9024,6.0254 C74.501,6.5852 74.2976,7.2998 74.2976,8.1728 C74.2976,9.0116 74.4902,9.692 74.8772,10.2158 C75.2858,10.7738 75.8366,11.0528 76.526,11.0528 C77.1452,11.0528 77.6402,10.8206 78.0164,10.3544 C78.38,9.9242 78.5582,9.4058 78.5582,8.801 Z" id="Shape"></path>
                        <path d="M96.6464,8.0666 C96.6464,9.3716 96.2738,10.4408 95.5286,11.2796 C94.7474,12.1418 93.7142,12.572 92.42,12.572 C91.1762,12.572 90.1844,12.1598 89.4428,11.3318 C88.7048,10.5056 88.3358,9.4634 88.3358,8.207 C88.3358,6.893 88.7156,5.8148 89.4788,4.9778 C90.242,4.1408 91.268,3.7214 92.5622,3.7214 C93.806,3.7214 94.8086,4.1336 95.5646,4.9598 C96.2846,5.7626 96.6464,6.7994 96.6464,8.0666 Z M94.6916,8.1278 C94.6916,7.3448 94.5224,6.6734 94.1858,6.1136 C93.788,5.4368 93.2264,5.0984 92.492,5.0984 C91.736,5.0984 91.16,5.4368 90.7622,6.1136 C90.4238,6.6734 90.2564,7.3556 90.2564,8.162 C90.2564,8.945 90.4256,9.6164 90.7622,10.1762 C91.1708,10.853 91.7396,11.1914 92.474,11.1914 C93.194,11.1914 93.761,10.8476 94.1678,10.1582 C94.5152,9.5876 94.6916,8.9108 94.6916,8.1278 Z" id="Shape"></path>
                        <path d="M106.7894,12.3794 L104.9048,12.3794 L104.9048,7.5194 C104.9048,6.0218 104.336,5.273 103.193,5.273 C102.6332,5.273 102.1814,5.4782 101.8322,5.8904 C101.483,6.3026 101.3084,6.7886 101.3084,7.3448 L101.3084,12.3776 L99.4202,12.3776 L99.4202,6.3188 C99.4202,5.5736 99.3986,4.7654 99.3536,3.8906 L101.0096,3.8906 L101.0978,5.2172 L101.15,5.2172 C101.3714,4.805 101.699,4.4648 102.1274,4.193 C102.6404,3.8762 103.211,3.716 103.8392,3.716 C104.6294,3.716 105.2882,3.9716 105.812,4.4846 C106.4654,5.1128 106.7894,6.0506 106.7894,7.2962 L106.7894,12.3794 Z" id="Shape"></path>
                        <path d="M119.4848,5.3072 L117.4076,5.3072 L117.4076,9.4292 C117.4076,10.4768 117.7766,11.0006 118.5074,11.0006 C118.8458,11.0006 119.1266,10.9718 119.348,10.9124 L119.3966,12.3434 C119.024,12.4838 118.5344,12.554 117.9314,12.554 C117.1862,12.554 116.6066,12.3272 116.1872,11.8736 C115.766,11.42 115.5572,10.6568 115.5572,9.5858 L115.5572,5.3072 L114.317,5.3072 L114.317,3.8942 L115.5572,3.8942 L115.5572,2.339 L117.4058,1.781 L117.4058,3.8924 L119.483,3.8924 L119.483,5.3072 L119.4848,5.3072 Z" id="Shape"></path>
                        <path d="M129.4712,12.3794 L127.583,12.3794 L127.583,7.5554 C127.583,6.0344 127.0142,5.273 125.8748,5.273 C125,5.273 124.4024,5.714 124.0748,6.596 C124.019,6.7814 123.9866,7.0082 123.9866,7.2746 L123.9866,12.3776 L122.102,12.3776 L122.102,0.0008 L123.9866,0.0008 L123.9866,5.1146 L124.0226,5.1146 C124.6166,4.184 125.468,3.7196 126.5714,3.7196 C127.3526,3.7196 127.9988,3.9752 128.5118,4.4882 C129.1508,5.1272 129.4712,6.0776 129.4712,7.334 L129.4712,12.3794 Z" id="Shape"></path>
                        <path d="M139.7726,7.7354 C139.7726,8.0738 139.7474,8.3582 139.7024,8.5904 L134.045,8.5904 C134.0702,9.4292 134.3402,10.0682 134.864,10.511 C135.3428,10.907 135.9602,11.105 136.7162,11.105 C137.5532,11.105 138.3164,10.9718 139.004,10.7036 L139.2992,12.014 C138.4946,12.3632 137.5478,12.5378 136.4516,12.5378 C135.1376,12.5378 134.1026,12.1508 133.3538,11.3768 C132.6014,10.6028 132.2288,9.5642 132.2288,8.261 C132.2288,6.9812 132.5762,5.9156 133.2764,5.066 C134.0072,4.1588 134.9954,3.7052 136.2428,3.7052 C137.4632,3.7052 138.3902,4.1588 139.0166,5.066 C139.5224,5.786 139.7726,6.677 139.7726,7.7354 Z M137.9726,7.2476 C137.987,6.6878 137.8628,6.2054 137.6072,5.7986 C137.2796,5.2748 136.781,5.012 136.106,5.012 C135.4904,5.012 134.9882,5.2676 134.6048,5.7806 C134.2916,6.1892 134.1062,6.677 134.045,7.2476 L137.9726,7.2476 Z" id="Shape"></path>
                    </g>
                </g>
            </g>
        </g>
    </g>
</svg>