<?xml version="1.0" encoding="UTF-8"?>
<svg width="1368px" height="546px" viewBox="0 0 1368 546" version="1.1" xmlns="http://www.w3.org/2000/svg" xmlns:xlink="http://www.w3.org/1999/xlink">
    <!-- Generator: Sketch 50.2 (55047) - http://www.bohemiancoding.com/sketch -->
    <title>bg-v6</title>
    <desc>Created with Sketch.</desc>
    <defs></defs>
    <g id="Page-1" stroke="none" stroke-width="1" fill="none" fill-rule="evenodd" opacity="0.200000003">
        <g id="main-v6-slide-1" transform="translate(-276.000000, -1530.000000)" fill="#2B404C" fill-rule="nonzero">
            <g id="3-section" transform="translate(276.000000, 1488.000000)">
                <g id="bg-v6" transform="translate(-276.000000, 42.000000)">
                    <g id="Group" opacity="0.7" style="mix-blend-mode: multiply;" transform="translate(0.000000, 312.180328)">
                        <path d="M335.988612,237.006393 L259.598577,137.199836" id="Shape"></path>
                        <rect id="Rectangle-path" transform="translate(298.532642, 186.517828) rotate(-37.440000) translate(-298.532642, -186.517828) " x="297.393852" y="123.660205" width="1" height="125.715246"></rect>
                        <path d="M335.988612,237.006393 L259.598577,137.199836" id="Shape"></path>
                        <rect id="Rectangle-path" transform="translate(298.532642, 186.517828) rotate(-37.440000) translate(-298.532642, -186.517828) " x="297.393852" y="123.660205" width="1" height="125.715246"></rect>
                        <path d="M446.656228,218.275574 L335.988612,237.006393" id="Shape"></path>
                        <polygon id="Shape" points="336.011388 237.188689 335.94306 236.801311 446.610676 218.093279 446.679004 218.480656"></polygon>
                        <path d="M534.730249,155.133115 L446.656228,218.275574" id="Shape"></path>
                        <rect id="Rectangle-path" transform="translate(491.227973, 187.454040) rotate(-35.490000) translate(-491.227973, -187.454040) " x="437.044344" y="186.314695" width="108.36726" height="1"></rect>
                        <path d="M649.292527,96.6391803 L534.730249,155.133115" id="Shape"></path>
                        <polygon id="Shape" points="534.821352 155.292623 534.639146 154.95082 649.201423 96.4796721 649.38363 96.8214754"></polygon>
                        <path d="M517.580071,120.041311 L649.292527,96.6391803" id="Shape"></path>
                        <polygon id="Shape" points="517.602847 120.223607 517.53452 119.83623 649.246975 96.4568852 649.338078 96.8442623"></polygon>
                        <path d="M517.580071,120.041311 L534.730249,155.133115" id="Shape"></path>
                        <polygon id="Shape" points="534.548043 155.201475 517.397865 120.132459 517.762278 119.950164 534.88968 155.041967"></polygon>
                        <path d="M517.580071,120.041311 L446.656228,218.275574" id="Shape"></path>
                        <polygon id="Shape" points="446.815658 218.389508 446.496797 218.161639 517.420641 119.927377 517.739502 120.155246"></polygon>
                        <path d="M396.777224,97.4139344 L517.580071,120.041311" id="Shape"></path>
                        <polygon id="Shape" points="517.53452 120.223607 396.731673 97.6190164 396.8 97.2316393 517.602847 119.83623"></polygon>
                        <path d="M396.777224,97.4139344 L534.730249,155.133115" id="Shape"></path>
                        <polygon id="Shape" points="534.639146 155.31541 396.708897 97.5962295 396.845552 97.2544262 534.798577 154.95082"></polygon>
                        <path d="M396.777224,97.4139344 L446.656228,218.275574" id="Shape"></path>
                        <rect id="Rectangle-path" transform="translate(422.586012, 157.451998) rotate(-22.440000) translate(-422.586012, -157.451998) " x="421.447222" y="92.0764239" width="1" height="130.751148"></rect>
                        <path d="M396.777224,97.4139344 L335.988612,237.006393" id="Shape"></path>
                        <rect id="Rectangle-path" transform="translate(367.230653, 167.605689) rotate(-66.790000) translate(-367.230653, -167.605689) " x="291.136703" y="166.466345" width="152.1879" height="1"></rect>
                        <path d="M396.777224,97.4139344 L259.598577,137.199836" id="Shape"></path>
                        <rect id="Rectangle-path" transform="translate(328.426763, 118.216957) rotate(-15.950000) translate(-328.426763, -118.216957) " x="257.024628" y="117.077613" width="142.80427" height="1"></rect>
                        <path d="M396.777224,97.4139344 L259.598577,137.199836" id="Shape"></path>
                        <rect id="Rectangle-path" transform="translate(328.426763, 118.216957) rotate(-15.950000) translate(-328.426763, -118.216957) " x="257.024628" y="117.077613" width="142.80427" height="1"></rect>
                        <path d="M360.928114,322.77623 L446.656228,218.275574" id="Shape"></path>
                        <rect id="Rectangle-path" transform="translate(404.517204, 271.080497) rotate(-51.040000) translate(-404.517204, -271.080497) " x="336.952791" y="269.941152" width="135.128826" height="1"></rect>
                        <path d="M586.95516,267.404098 L534.730249,155.133115" id="Shape"></path>
                        <rect id="Rectangle-path" transform="translate(561.690291, 210.883245) rotate(-24.950000) translate(-561.690291, -210.883245) " x="560.551501" y="148.959885" width="1" height="123.846721"></rect>
                        <path d="M586.95516,267.404098 L446.656228,218.275574" id="Shape"></path>
                        <polygon id="Shape" points="586.886833 267.586393 446.5879 218.480656 446.724555 218.093279 587.000712 267.221803"></polygon>
                        <path d="M413.130249,320.42918 L446.656228,218.275574" id="Shape"></path>
                        <polygon id="Shape" points="413.312456 320.497541 412.948043 320.383607 446.474021 218.23 446.838434 218.343934"></polygon>
                        <path d="M938.454093,234.659344 L907.274021,84.9495082" id="Shape"></path>
                        <rect id="Rectangle-path" transform="translate(923.795338, 159.586505) rotate(-11.770000) translate(-923.795338, -159.586505) " x="922.656548" y="83.125112" width="1" height="152.922787"></rect>
                        <path d="M789.591459,114.572459 L844.52669,82.9898361" id="Shape"></path>
                        <polygon id="Shape" points="789.682562 114.754754 789.47758 114.412951 844.435587 82.8303279 844.640569 83.1721311"></polygon>
                        <path d="M789.591459,114.572459 L706.960854,215.951311" id="Shape"></path>
                        <rect id="Rectangle-path" transform="translate(748.986393, 165.803416) rotate(-50.780000) translate(-748.986393, -165.803416) " x="683.619845" y="164.664071" width="130.733096" height="1"></rect>
                        <path d="M789.591459,114.572459 L907.274021,84.9495082" id="Shape"></path>
                        <polygon id="Shape" points="789.637011 114.777541 789.545907 114.390164 907.22847 84.7444262 907.319573 85.1318033"></polygon>
                        <path d="M789.591459,114.572459 L777.11032,210.482459" id="Shape"></path>
                        <polygon id="Shape" points="777.315302 210.505246 776.928114 210.459672 789.386477 114.549672 789.773665 114.595246"></polygon>
                        <path d="M789.591459,114.572459 L649.292527,96.6391803" id="Shape"></path>
                        <polygon id="Shape" points="789.568683 114.777541 649.269751 96.8442623 649.315302 96.4568852 789.614235 114.390164"></polygon>
                        <path d="M655.533096,163.700984 L789.591459,114.572459" id="Shape"></path>
                        <rect id="Rectangle-path" transform="translate(722.873686, 140.073222) rotate(-20.090000) translate(-722.873686, -140.073222) " x="651.494326" y="138.933878" width="142.758719" height="1"></rect>
                        <path d="M655.533096,163.700984 L706.960854,215.951311" id="Shape"></path>
                        <rect id="Rectangle-path" transform="translate(681.911706, 189.134147) rotate(-44.570000) translate(-681.911706, -189.134147) " x="680.772915" y="152.470048" width="1" height="73.3281967"></rect>
                        <path d="M655.533096,163.700984 L777.11032,210.482459" id="Shape"></path>
                        <rect id="Rectangle-path" transform="translate(716.703747, 186.265614) rotate(-68.960000) translate(-716.703747, -186.265614) " x="715.564957" y="121.095122" width="1" height="130.340984"></rect>
                        <path d="M655.533096,163.700984 L586.95516,267.404098" id="Shape"></path>
                        <polygon id="Shape" points="587.114591 267.518033 586.772954 267.312951 655.373665 163.587049 655.692527 163.814918"></polygon>
                        <path d="M655.533096,163.700984 L517.580071,120.041311" id="Shape"></path>
                        <rect id="Rectangle-path" transform="translate(586.859182, 141.011558) rotate(-72.440000) translate(-586.859182, -141.011558) " x="585.720392" y="68.6290166" width="1" height="144.765082"></rect>
                        <path d="M655.533096,163.700984 L649.292527,96.6391803" id="Shape"></path>
                        <polygon id="Shape" points="655.328114 163.72377 649.11032 96.6619672 649.497509 96.6163934 655.715302 163.678197"></polygon>
                        <path d="M655.533096,163.700984 L534.730249,155.133115" id="Shape"></path>
                        <polygon id="Shape" points="655.51032 163.906066 534.707473 155.31541 534.730249 154.928033 655.533096 163.495902"></polygon>
                        <path d="M901.033452,3.85098361 L844.52669,82.9898361" id="Shape"></path>
                        <rect id="Rectangle-path" transform="translate(873.552421, 44.001768) rotate(-54.290000) translate(-873.552421, -44.001768) " x="824.948862" y="42.8624239" width="97.2071174" height="1"></rect>
                        <path d="M901.033452,3.85098361 L907.274021,84.9495082" id="Shape"></path>
                        <polygon id="Shape" points="907.069039 84.9495082 900.82847 3.87377049 901.238434 3.82819672 907.456228 84.9267213"></polygon>
                        <path d="M802.049822,363.314098 L777.11032,210.482459" id="Shape"></path>
                        <polygon id="Shape" points="801.867616 363.359672 776.928114 210.528033 777.315302 210.459672 802.254804 363.291311"></polygon>
                        <path d="M895.590036,261.958033 L777.11032,210.482459" id="Shape"></path>
                        <rect id="Rectangle-path" transform="translate(836.718085, 235.357766) rotate(-66.530000) translate(-836.718085, -235.357766) " x="835.579295" y="170.745553" width="1" height="129.224426"></rect>
                        <path d="M529.264057,313.41082 L446.656228,218.275574" id="Shape"></path>
                        <polygon id="Shape" points="529.127402 313.547541 446.496797 218.412295 446.792883 218.161639 529.423488 313.296885"></polygon>
                        <path d="M400.671886,177.737705 L413.130249,320.42918" id="Shape"></path>
                        <rect id="Rectangle-path" transform="translate(407.872693, 248.977137) rotate(-5.000000) translate(-407.872693, -248.977137) " x="406.733903" y="177.357957" width="1" height="143.238361"></rect>
                        <path d="M400.671886,177.737705 L360.928114,322.77623" id="Shape"></path>
                        <polygon id="Shape" points="361.11032 322.821803 360.723132 322.730656 400.48968 177.692131 400.854093 177.783279"></polygon>
                        <path d="M400.671886,177.737705 L396.777224,97.4139344" id="Shape"></path>
                        <polygon id="Shape" points="400.466904 177.737705 396.572242 97.4367213 396.959431 97.4139344 400.854093 177.737705"></polygon>
                        <path d="M400.671886,177.737705 L517.580071,120.041311" id="Shape"></path>
                        <rect id="Rectangle-path" transform="translate(459.551293, 149.691870) rotate(-26.270000) translate(-459.551293, -149.691870) " x="394.366951" y="148.552526" width="130.368683" height="1"></rect>
                        <path d="M400.671886,177.737705 L534.730249,155.133115" id="Shape"></path>
                        <rect id="Rectangle-path" transform="translate(467.829100, 167.376089) rotate(-9.890000) translate(-467.829100, -167.376089) " x="399.854723" y="166.236745" width="135.948754" height="1"></rect>
                        <path d="M400.671886,177.737705 L446.656228,218.275574" id="Shape"></path>
                        <polygon id="Shape" points="446.519573 218.435082 400.535231 177.874426 400.785765 177.600984 446.770107 218.138852"></polygon>
                        <path d="M400.671886,177.737705 L335.988612,237.006393" id="Shape"></path>
                        <rect id="Rectangle-path" transform="translate(368.980240, 208.035775) rotate(-42.440000) translate(-368.980240, -208.035775) " x="325.125435" y="206.896431" width="87.7096085" height="1"></rect>
                        <path d="M400.671886,177.737705 L259.598577,137.199836" id="Shape"></path>
                        <polygon id="Shape" points="400.626335 177.92 259.553025 137.382131 259.644128 136.994754 400.717438 177.55541"></polygon>
                        <path d="M400.671886,177.737705 L259.598577,137.199836" id="Shape"></path>
                        <polygon id="Shape" points="400.626335 177.92 259.553025 137.382131 259.644128 136.994754 400.717438 177.55541"></polygon>
                        <path d="M286.883986,279.891311 L259.598577,137.199836" id="Shape"></path>
                        <rect id="Rectangle-path" transform="translate(274.193370, 208.355484) rotate(-10.830000) translate(-274.193370, -208.355484) " x="273.05458" y="135.710893" width="1" height="145.28918"></rect>
                        <path d="M286.883986,279.891311 L259.598577,137.199836" id="Shape"></path>
                        <rect id="Rectangle-path" transform="translate(274.193370, 208.355484) rotate(-10.830000) translate(-274.193370, -208.355484) " x="273.05458" y="135.710893" width="1" height="145.28918"></rect>
                        <path d="M683.592883,275.994754 L655.533096,163.700984" id="Shape"></path>
                        <polygon id="Shape" points="683.410676 276.040328 655.35089 163.746557 655.715302 163.65541 683.775089 275.94918"></polygon>
                        <path d="M683.592883,275.994754 L706.960854,215.951311" id="Shape"></path>
                        <polygon id="Shape" points="683.775089 276.063115 683.410676 275.926393 706.778648 215.882951 707.14306 216.019672"></polygon>
                        <path d="M683.592883,275.994754 L777.11032,210.482459" id="Shape"></path>
                        <rect id="Rectangle-path" transform="translate(730.886234, 244.040130) rotate(-35.040000) translate(-730.886234, -244.040130) " x="673.810077" y="242.900786" width="114.152313" height="1"></rect>
                        <ellipse id="Oval" cx="446.656228" cy="218.275574" rx="1.61708185" ry="1.61786885"></ellipse>
                        <ellipse id="Oval" cx="446.656228" cy="218.275574" rx="1.61708185" ry="1.61786885"></ellipse>
                        <ellipse id="Oval" cx="534.730249" cy="155.133115" rx="1.61708185" ry="1.61786885"></ellipse>
                        <ellipse id="Oval" cx="534.730249" cy="155.133115" rx="1.61708185" ry="1.61786885"></ellipse>
                        <ellipse id="Oval" cx="649.292527" cy="96.6391803" rx="1.61708185" ry="1.61786885"></ellipse>
                        <ellipse id="Oval" cx="649.292527" cy="96.6391803" rx="1.61708185" ry="1.61786885"></ellipse>
                        <ellipse id="Oval" cx="517.580071" cy="120.041311" rx="1.61708185" ry="1.61786885"></ellipse>
                        <ellipse id="Oval" cx="534.730249" cy="155.133115" rx="1.61708185" ry="1.61786885"></ellipse>
                        <ellipse id="Oval" cx="517.580071" cy="120.041311" rx="1.61708185" ry="1.61786885"></ellipse>
                        <ellipse id="Oval" cx="446.656228" cy="218.275574" rx="1.61708185" ry="1.61786885"></ellipse>
                        <ellipse id="Oval" cx="517.580071" cy="120.041311" rx="1.61708185" ry="1.61786885"></ellipse>
                        <ellipse id="Oval" cx="517.580071" cy="120.041311" rx="1.61708185" ry="1.61786885"></ellipse>
                        <ellipse id="Oval" cx="396.777224" cy="97.4139344" rx="1.61708185" ry="1.61786885"></ellipse>
                        <ellipse id="Oval" cx="534.730249" cy="155.133115" rx="1.61708185" ry="1.61786885"></ellipse>
                        <ellipse id="Oval" cx="396.777224" cy="97.4139344" rx="1.61708185" ry="1.61786885"></ellipse>
                        <ellipse id="Oval" cx="446.656228" cy="218.275574" rx="1.61708185" ry="1.61786885"></ellipse>
                        <ellipse id="Oval" cx="396.777224" cy="97.4139344" rx="1.61708185" ry="1.61786885"></ellipse>
                        <ellipse id="Oval" cx="396.777224" cy="97.4139344" rx="1.61708185" ry="1.61786885"></ellipse>
                        <ellipse id="Oval" cx="396.777224" cy="97.4139344" rx="1.61708185" ry="1.61786885"></ellipse>
                        <ellipse id="Oval" cx="396.777224" cy="97.4139344" rx="1.61708185" ry="1.61786885"></ellipse>
                        <ellipse id="Oval" cx="446.656228" cy="218.275574" rx="1.61708185" ry="1.61786885"></ellipse>
                        <ellipse id="Oval" cx="534.730249" cy="155.133115" rx="1.61708185" ry="1.61786885"></ellipse>
                        <ellipse id="Oval" cx="446.656228" cy="218.275574" rx="1.61708185" ry="1.61786885"></ellipse>
                        <ellipse id="Oval" cx="446.656228" cy="218.275574" rx="1.61708185" ry="1.61786885"></ellipse>
                        <ellipse id="Oval" cx="907.274021" cy="84.9495082" rx="1.61708185" ry="1.61786885"></ellipse>
                        <ellipse id="Oval" cx="938.454093" cy="234.659344" rx="1.61708185" ry="1.61786885"></ellipse>
                        <ellipse id="Oval" cx="844.52669" cy="82.9898361" rx="1.61708185" ry="1.61786885"></ellipse>
                        <ellipse id="Oval" cx="789.591459" cy="114.572459" rx="1.61708185" ry="1.61786885"></ellipse>
                        <ellipse id="Oval" cx="706.960854" cy="215.951311" rx="1.61708185" ry="1.61786885"></ellipse>
                        <ellipse id="Oval" cx="789.591459" cy="114.572459" rx="1.61708185" ry="1.61786885"></ellipse>
                        <ellipse id="Oval" cx="907.274021" cy="84.9495082" rx="1.61708185" ry="1.61786885"></ellipse>
                        <ellipse id="Oval" cx="789.591459" cy="114.572459" rx="1.61708185" ry="1.61786885"></ellipse>
                        <ellipse id="Oval" cx="777.11032" cy="210.482459" rx="1.61708185" ry="1.61786885"></ellipse>
                        <ellipse id="Oval" cx="789.591459" cy="114.572459" rx="1.61708185" ry="1.61786885"></ellipse>
                        <ellipse id="Oval" cx="649.292527" cy="96.6391803" rx="1.61708185" ry="1.61786885"></ellipse>
                        <ellipse id="Oval" cx="789.591459" cy="114.572459" rx="1.61708185" ry="1.61786885"></ellipse>
                        <ellipse id="Oval" cx="789.591459" cy="114.572459" rx="1.61708185" ry="1.61786885"></ellipse>
                        <ellipse id="Oval" cx="655.533096" cy="163.700984" rx="1.61708185" ry="1.61786885"></ellipse>
                        <ellipse id="Oval" cx="706.960854" cy="215.951311" rx="1.61708185" ry="1.61786885"></ellipse>
                        <ellipse id="Oval" cx="655.533096" cy="163.700984" rx="1.61708185" ry="1.61786885"></ellipse>
                        <ellipse id="Oval" cx="777.11032" cy="210.482459" rx="1.61708185" ry="1.61786885"></ellipse>
                        <ellipse id="Oval" cx="655.533096" cy="163.700984" rx="1.61708185" ry="1.61786885"></ellipse>
                        <ellipse id="Oval" cx="655.533096" cy="163.700984" rx="1.61708185" ry="1.61786885"></ellipse>
                        <ellipse id="Oval" cx="517.580071" cy="120.041311" rx="1.61708185" ry="1.61786885"></ellipse>
                        <ellipse id="Oval" cx="655.533096" cy="163.700984" rx="1.61708185" ry="1.61786885"></ellipse>
                        <ellipse id="Oval" cx="649.292527" cy="96.6391803" rx="1.61708185" ry="1.61786885"></ellipse>
                        <ellipse id="Oval" cx="655.533096" cy="163.700984" rx="1.61708185" ry="1.61786885"></ellipse>
                        <ellipse id="Oval" cx="534.730249" cy="155.133115" rx="1.61708185" ry="1.61786885"></ellipse>
                        <ellipse id="Oval" cx="655.533096" cy="163.700984" rx="1.61708185" ry="1.61786885"></ellipse>
                        <ellipse id="Oval" cx="844.52669" cy="82.9898361" rx="1.61708185" ry="1.61786885"></ellipse>
                        <ellipse id="Oval" cx="901.033452" cy="3.85098361" rx="1.61708185" ry="1.61786885"></ellipse>
                        <ellipse id="Oval" cx="907.274021" cy="84.9495082" rx="1.61708185" ry="1.61786885"></ellipse>
                        <ellipse id="Oval" cx="901.033452" cy="3.85098361" rx="1.61708185" ry="1.61786885"></ellipse>
                        <ellipse id="Oval" cx="777.11032" cy="210.482459" rx="1.61708185" ry="1.61786885"></ellipse>
                        <ellipse id="Oval" cx="938.454093" cy="234.659344" rx="1.61708185" ry="1.61786885"></ellipse>
                        <ellipse id="Oval" cx="777.11032" cy="210.482459" rx="1.61708185" ry="1.61786885"></ellipse>
                        <ellipse id="Oval" cx="446.656228" cy="218.275574" rx="1.61708185" ry="1.61786885"></ellipse>
                        <ellipse id="Oval" cx="400.671886" cy="177.737705" rx="1.61708185" ry="1.61786885"></ellipse>
                        <ellipse id="Oval" cx="400.671886" cy="177.737705" rx="1.61708185" ry="1.61786885"></ellipse>
                        <ellipse id="Oval" cx="396.777224" cy="97.4139344" rx="1.61708185" ry="1.61786885"></ellipse>
                        <ellipse id="Oval" cx="400.671886" cy="177.737705" rx="1.61708185" ry="1.61786885"></ellipse>
                        <ellipse id="Oval" cx="517.580071" cy="120.041311" rx="1.61708185" ry="1.61786885"></ellipse>
                        <ellipse id="Oval" cx="400.671886" cy="177.737705" rx="1.61708185" ry="1.61786885"></ellipse>
                        <ellipse id="Oval" cx="534.730249" cy="155.133115" rx="1.61708185" ry="1.61786885"></ellipse>
                        <ellipse id="Oval" cx="400.671886" cy="177.737705" rx="1.61708185" ry="1.61786885"></ellipse>
                        <ellipse id="Oval" cx="446.656228" cy="218.275574" rx="1.61708185" ry="1.61786885"></ellipse>
                        <ellipse id="Oval" cx="400.671886" cy="177.737705" rx="1.61708185" ry="1.61786885"></ellipse>
                        <ellipse id="Oval" cx="400.671886" cy="177.737705" rx="1.61708185" ry="1.61786885"></ellipse>
                        <ellipse id="Oval" cx="400.671886" cy="177.737705" rx="1.61708185" ry="1.61786885"></ellipse>
                        <ellipse id="Oval" cx="400.671886" cy="177.737705" rx="1.61708185" ry="1.61786885"></ellipse>
                        <ellipse id="Oval" cx="655.533096" cy="163.700984" rx="1.61708185" ry="1.61786885"></ellipse>
                        <ellipse id="Oval" cx="706.960854" cy="215.951311" rx="1.61708185" ry="1.61786885"></ellipse>
                        <ellipse id="Oval" cx="777.11032" cy="210.482459" rx="1.61708185" ry="1.61786885"></ellipse>
                    </g>
                    <g id="Group" opacity="0.9" style="mix-blend-mode: multiply;" transform="translate(505.622776, 0.000000)">
                        <path d="M1022.86121,581.566885 L1192.44982,492.629672" id="Shape"></path>
                        <polygon id="Shape" points="1192.31317 492.35623 1192.58648 492.880328 1022.99786 581.817541 1022.72456 581.31623"></polygon>
                        <path d="M1022.86121,581.566885 L1192.44982,492.629672" id="Shape"></path>
                        <polygon id="Shape" points="1192.31317 492.35623 1192.58648 492.880328 1022.99786 581.817541 1022.72456 581.31623"></polygon>
                        <path d="M908.230605,431.788689 L1022.86121,581.566885" id="Shape"></path>
                        <polygon id="Shape" points="908.481139 431.606393 1023.08897 581.38459 1022.63345 581.74918 908.002847 431.948197"></polygon>
                        <path d="M908.230605,431.788689 L1022.86121,581.566885" id="Shape"></path>
                        <polygon id="Shape" points="908.481139 431.606393 1023.08897 581.38459 1022.63345 581.74918 908.002847 431.948197"></polygon>
                        <path d="M1073.15018,368.577869 L908.230605,431.788689" id="Shape"></path>
                        <rect id="Rectangle-path" transform="translate(990.991912, 400.859146) rotate(-20.920000) translate(-990.991912, -400.859146) " x="902.690133" y="399.719801" width="176.603559" height="1"></rect>
                        <path d="M1073.15018,368.577869 L1022.86121,581.566885" id="Shape"></path>
                        <polygon id="Shape" points="1072.87687 368.509508 1073.44626 368.64623 1023.1573 581.635246 1022.5879 581.498525"></polygon>
                        <path d="M1073.15018,368.577869 L1022.86121,581.566885" id="Shape"></path>
                        <polygon id="Shape" points="1072.87687 368.509508 1073.44626 368.64623 1023.1573 581.635246 1022.5879 581.498525"></polygon>
                        <path d="M1073.15018,368.577869 L1192.44982,492.629672" id="Shape"></path>
                        <rect id="Rectangle-path" transform="translate(1133.396732, 429.978215) rotate(-43.900000) translate(-1133.396732, -429.978215) " x="1132.25794" y="343.912149" width="1" height="172.132131"></rect>
                        <path d="M742.149466,459.862131 L908.230605,431.788689" id="Shape"></path>
                        <polygon id="Shape" points="908.185053 431.492459 908.276157 432.062131 742.195018 460.158361 742.103915 459.588689"></polygon>
                        <path d="M609.981495,554.655574 L742.149466,459.862131" id="Shape"></path>
                        <rect id="Rectangle-path" transform="translate(676.588267, 507.986944) rotate(-35.750000) translate(-676.588267, -507.986944) " x="595.278658" y="506.847599" width="162.619217" height="1"></rect>
                        <path d="M635.718149,607.316066 L742.149466,459.862131" id="Shape"></path>
                        <polygon id="Shape" points="741.921708 459.702623 742.4 460.044426 635.945907 607.475574 635.467616 607.13377"></polygon>
                        <path d="M817.013523,641.245738 L742.149466,459.862131" id="Shape"></path>
                        <polygon id="Shape" points="742.422776 459.748197 817.286833 641.131803 816.740214 641.359672 741.876157 459.976066"></polygon>
                        <path d="M817.013523,641.245738 L908.230605,431.788689" id="Shape"></path>
                        <polygon id="Shape" points="907.980071 431.674754 908.503915 431.902623 817.264057 641.359672 816.740214 641.131803"></polygon>
                        <path d="M870.809964,303.065574 L742.149466,459.862131" id="Shape"></path>
                        <polygon id="Shape" points="870.582206 302.860492 871.037722 303.247869 742.377224 460.044426 741.921708 459.679836"></polygon>
                        <path d="M870.809964,303.065574 L1073.15018,368.577869" id="Shape"></path>
                        <polygon id="Shape" points="870.901068 302.769344 1073.24128 368.304426 1073.05907 368.874098 870.718861 303.339016"></polygon>
                        <path d="M870.809964,303.065574 L908.230605,431.788689" id="Shape"></path>
                        <polygon id="Shape" points="871.083274 302.974426 908.52669 431.697541 907.957295 431.857049 870.536655 303.133934"></polygon>
                        <path d="M797.130249,124.00623 L624.011388,256.238525" id="Shape"></path>
                        <polygon id="Shape" points="796.948043 123.778361 797.312456 124.234098 624.193594 256.48918 623.829181 256.010656"></polygon>
                        <path d="M797.130249,124.00623 L870.809964,303.065574" id="Shape"></path>
                        <polygon id="Shape" points="797.403559 123.915082 871.083274 302.951639 870.536655 303.156721 796.85694 124.120164"></polygon>
                        <path d="M797.130249,124.00623 L624.011388,256.238525" id="Shape"></path>
                        <polygon id="Shape" points="796.948043 123.778361 797.312456 124.234098 624.193594 256.48918 623.829181 256.010656"></polygon>
                        <path d="M797.130249,124.00623 L870.809964,303.065574" id="Shape"></path>
                        <polygon id="Shape" points="797.403559 123.915082 871.083274 302.951639 870.536655 303.156721 796.85694 124.120164"></polygon>
                        <path d="M447.407829,207.11 L624.011388,256.238525" id="Shape"></path>
                        <polygon id="Shape" points="447.476157 206.81377 624.102491 255.965082 623.94306 256.534754 447.316726 207.383443"></polygon>
                        <path d="M531.609964,386.146557 L447.407829,207.11" id="Shape"></path>
                        <rect id="Rectangle-path" transform="translate(490.278723, 296.271434) rotate(-25.200000) translate(-490.278723, -296.271434) " x="489.139933" y="197.330778" width="1" height="197.881311"></rect>
                        <path d="M531.609964,386.146557 L624.011388,256.238525" id="Shape"></path>
                        <polygon id="Shape" points="623.78363 256.079016 624.261922 256.42082 531.860498 386.306066 531.382206 385.964262"></polygon>
                        <path d="M531.609964,386.146557 L609.981495,554.655574" id="Shape"></path>
                        <rect id="Rectangle-path" transform="translate(571.565396, 470.051921) rotate(-24.950000) translate(-571.565396, -470.051921) " x="570.426606" y="377.127003" width="1" height="185.849836"></rect>
                        <path d="M531.609964,386.146557 L742.149466,459.862131" id="Shape"></path>
                        <polygon id="Shape" points="531.701068 385.873115 742.240569 459.588689 742.058363 460.135574 531.518861 386.42"></polygon>
                        <path d="M792.438434,306.574754 L797.130249,124.00623" id="Shape"></path>
                        <polygon id="Shape" points="796.834164 124.00623 797.426335 124.029016 792.73452 306.574754 792.142349 306.551967"></polygon>
                        <path d="M792.438434,306.574754 L797.130249,124.00623" id="Shape"></path>
                        <polygon id="Shape" points="796.834164 124.00623 797.426335 124.029016 792.73452 306.574754 792.142349 306.551967"></polygon>
                        <path d="M792.438434,306.574754 L624.011388,256.238525" id="Shape"></path>
                        <polygon id="Shape" points="624.102491 255.965082 792.529537 306.278525 792.370107 306.848197 623.920285 256.534754"></polygon>
                        <path d="M792.438434,306.574754 L870.809964,303.065574" id="Shape"></path>
                        <rect id="Rectangle-path" transform="translate(831.677101, 305.631670) rotate(-2.610000) translate(-831.677101, -305.631670) " x="792.457172" y="304.492326" width="78.4398577" height="1"></rect>
                        <path d="M792.438434,306.574754 L742.149466,459.862131" id="Shape"></path>
                        <rect id="Rectangle-path" transform="translate(768.159346, 383.497479) rotate(-71.830000) translate(-768.159346, -383.497479) " x="687.521624" y="382.358135" width="161.275445" height="1"></rect>
                        <path d="M792.438434,306.574754 L908.230605,431.788689" id="Shape"></path>
                        <polygon id="Shape" points="792.666192 306.369672 908.458363 431.583607 908.025623 431.970984 792.233452 306.757049"></polygon>
                        <path d="M4.12241993,435.297869 L50.9039146,659.976557" id="Shape"></path>
                        <rect id="Rectangle-path" transform="translate(28.346571, 547.443576) rotate(-11.770000) translate(-28.346571, -547.443576) " x="27.2077813" y="432.688822" width="1" height="229.509508"></rect>
                        <path d="M227.507473,615.496557 L351.498932,463.371311" id="Shape"></path>
                        <rect id="Rectangle-path" transform="translate(290.165034, 539.964492) rotate(-50.690000) translate(-290.165034, -539.964492) " x="192.06966" y="538.825148" width="196.190747" height="1"></rect>
                        <path d="M227.507473,615.496557 L246.229181,471.57459" id="Shape"></path>
                        <rect id="Rectangle-path" transform="translate(240.013665, 547.698738) rotate(-82.519114) translate(-240.013665, -547.698738) " x="167.581633" y="546.561104" width="144.864064" height="1"></rect>
                        <path d="M428.686121,541.780984 L227.507473,615.496557" id="Shape"></path>
                        <rect id="Rectangle-path" transform="translate(327.372754, 581.709759) rotate(-19.885165) translate(-327.372754, -581.709759) " x="220.289635" y="580.570871" width="214.166239" height="1"></rect>
                        <path d="M428.686121,541.780984 L351.498932,463.371311" id="Shape"></path>
                        <polygon id="Shape" points="351.703915 463.16623 428.891103 541.575902 428.481139 541.986066 351.29395 463.576393"></polygon>
                        <path d="M428.686121,541.780984 L246.229181,471.57459" id="Shape"></path>
                        <rect id="Rectangle-path" transform="translate(337.778182, 505.919159) rotate(-68.960000) translate(-337.778182, -505.919159) " x="336.639392" y="408.129241" width="1" height="195.579836"></rect>
                        <path d="M428.686121,541.780984 L531.609964,386.146557" id="Shape"></path>
                        <polygon id="Shape" points="531.382206 385.987049 531.860498 386.306066 428.936655 541.940492 428.435587 541.621475"></polygon>
                        <path d="M428.686121,541.780984 L635.718149,607.316066" id="Shape"></path>
                        <polygon id="Shape" points="428.777224 541.507541 635.809253 607.019836 635.627046 607.589508 428.595018 542.054426"></polygon>
                        <path d="M428.686121,541.780984 L438.046975,642.407869" id="Shape"></path>
                        <polygon id="Shape" points="428.982206 541.758197 438.34306 642.385082 437.75089 642.453443 428.390036 541.80377"></polygon>
                        <path d="M428.686121,541.780984 L609.981495,554.655574" id="Shape"></path>
                        <polygon id="Shape" points="428.708897 541.484754 610.00427 554.359344 609.958719 554.929016 428.663345 542.077213"></polygon>
                        <path d="M208.808541,242.201803 L246.229181,471.57459" id="Shape"></path>
                        <polygon id="Shape" points="209.081851 242.15623 246.525267 471.529016 245.933096 471.620164 208.512456 242.247377"></polygon>
                        <path d="M68.4412811,394.327049 L208.808541,242.201803" id="Shape"></path>
                        <rect id="Rectangle-path" transform="translate(139.217642, 318.792043) rotate(-47.300000) translate(-139.217642, -318.792043) " x="35.7585668" y="317.652698" width="206.918149" height="1"></rect>
                        <path d="M68.4412811,394.327049 L4.12241993,435.297869" id="Shape"></path>
                        <polygon id="Shape" points="68.2818505 394.076393 68.6007117 394.577705 4.25907473 435.525738 3.96298932 435.047213"></polygon>
                        <path d="M68.4412811,394.327049 L246.229181,471.57459" id="Shape"></path>
                        <polygon id="Shape" points="68.5551601 394.053607 246.34306 471.301148 246.115302 471.825246 68.3274021 394.600492"></polygon>
                        <path d="M1150.36014,181.36082 L1073.15018,368.577869" id="Shape"></path>
                        <polygon id="Shape" points="1150.08683 181.246885 1150.63345 181.474754 1073.42349 368.691803 1072.89964 368.486721"></polygon>
                        <path d="M960.86548,140.39 L1150.36014,181.36082" id="Shape"></path>
                        <polygon id="Shape" points="960.933808 140.116557 1150.40569 181.06459 1150.29181 181.634262 960.819929 140.68623"></polygon>
                        <path d="M960.86548,140.39 L797.130249,124.00623" id="Shape"></path>
                        <rect id="Rectangle-path" transform="translate(879.054593, 131.346852) rotate(-84.290000) translate(-879.054593, -131.346852) " x="877.915803" y="49.0292286" width="1" height="164.635246"></rect>
                        <path d="M960.86548,140.39 L797.130249,124.00623" id="Shape"></path>
                        <rect id="Rectangle-path" transform="translate(879.054593, 131.346852) rotate(-84.290000) translate(-879.054593, -131.346852) " x="877.915803" y="49.0292286" width="1" height="164.635246"></rect>
                        <path d="M960.86548,140.39 L870.809964,303.065574" id="Shape"></path>
                        <polygon id="Shape" points="960.614947 140.253279 961.116014 140.549508 871.060498 303.202295 870.559431 302.906066"></polygon>
                        <path d="M1202.99502,284.334754 L1073.15018,368.577869" id="Shape"></path>
                        <polygon id="Shape" points="1202.83559 284.084098 1203.15445 284.58541 1073.30961 368.828525 1072.99075 368.35"></polygon>
                        <path d="M940.982206,6.99557377 L960.86548,140.39" id="Shape"></path>
                        <rect id="Rectangle-path" transform="translate(951.775972, 73.629900) rotate(-8.480000) translate(-951.775972, -73.629900) " x="950.637182" y="6.19211312" width="1" height="134.875574"></rect>
                        <path d="M940.982206,6.99557377 L943.328114,156.77377" id="Shape"></path>
                        <rect id="Rectangle-path" transform="translate(943.530363, 75.559489) rotate(-1.145763) translate(-943.530363, -75.559489) " x="942.391345" y="0.644018121" width="1" height="149.830941"></rect>
                        <path d="M940.982206,6.99557377 L797.130249,124.00623" id="Shape"></path>
                        <rect id="Rectangle-path" transform="translate(869.590821, 66.146499) rotate(-38.790000) translate(-869.590821, -66.146499) " x="776.881925" y="65.0071551" width="185.417794" height="1"></rect>
                        <path d="M940.982206,6.99557377 L797.130249,124.00623" id="Shape"></path>
                        <rect id="Rectangle-path" transform="translate(869.590821, 66.146499) rotate(-38.790000) translate(-869.590821, -66.146499) " x="776.881925" y="65.0071551" width="185.417794" height="1"></rect>
                        <path d="M563.2,81.8960656 L447.407829,207.11" id="Shape"></path>
                        <polygon id="Shape" points="562.995018 81.6909836 563.404982 82.0783607 447.612811 207.292295 447.180071 206.904918"></polygon>
                        <path d="M563.2,81.8960656 L624.011388,256.238525" id="Shape"></path>
                        <polygon id="Shape" points="563.47331 81.7821311 624.284698 256.147377 623.738078 256.352459 562.92669 81.9872131"></polygon>
                        <path d="M618.180783,317.102295 L792.438434,306.574754" id="Shape"></path>
                        <rect id="Rectangle-path" transform="translate(705.378833, 312.644182) rotate(-3.490000) translate(-705.378833, -312.644182) " x="618.079188" y="311.504837" width="174.599288" height="1"></rect>
                        <path d="M618.180783,317.102295 L531.609964,386.146557" id="Shape"></path>
                        <polygon id="Shape" points="617.975801 316.874426 618.362989 317.330164 531.792171 386.374426 531.427758 385.918689"></polygon>
                        <path d="M618.180783,317.102295 L447.407829,207.11" id="Shape"></path>
                        <polygon id="Shape" points="447.56726 206.859344 618.317438 316.851639 618.021352 317.352951 447.248399 207.337869"></polygon>
                        <path d="M618.180783,317.102295 L624.011388,256.238525" id="Shape"></path>
                        <rect id="Rectangle-path" transform="translate(621.971292, 286.740106) rotate(-84.550000) translate(-621.971292, -286.740106) " x="591.417555" y="285.600761" width="61.1074733" height="1"></rect>
                        <path d="M618.180783,317.102295 L742.149466,459.862131" id="Shape"></path>
                        <polygon id="Shape" points="618.385765 316.897213 742.377224 459.679836 741.921708 460.044426 617.953025 317.28459"></polygon>
                        <path d="M811.160142,520.703115 L792.438434,306.574754" id="Shape"></path>
                        <rect id="Rectangle-path" transform="translate(802.644879, 413.499260) rotate(-5.000000) translate(-802.644879, -413.499260) " x="801.506089" y="306.013522" width="1" height="214.971475"></rect>
                        <path d="M811.160142,520.703115 L870.809964,303.065574" id="Shape"></path>
                        <polygon id="Shape" points="870.536655 302.974426 871.10605 303.133934 811.433452 520.794262 810.864057 520.634754"></polygon>
                        <path d="M811.160142,520.703115 L817.013523,641.245738" id="Shape"></path>
                        <polygon id="Shape" points="811.456228 520.703115 817.309609 641.222951 816.717438 641.268525 810.864057 520.725902"></polygon>
                        <path d="M811.160142,520.703115 L635.718149,607.316066" id="Shape"></path>
                        <polygon id="Shape" points="811.023488 520.452459 811.296797 520.976557 635.854804 607.566721 635.581495 607.042623"></polygon>
                        <path d="M811.160142,520.703115 L609.981495,554.655574" id="Shape"></path>
                        <polygon id="Shape" points="811.114591 520.429672 811.205694 520.999344 610.027046 554.929016 609.935943 554.359344"></polygon>
                        <path d="M811.160142,520.703115 L742.149466,459.862131" id="Shape"></path>
                        <polygon id="Shape" points="742.354448 459.634262 811.342349 520.498033 810.977936 520.930984 741.96726 460.09"></polygon>
                        <path d="M811.160142,520.703115 L908.230605,431.788689" id="Shape"></path>
                        <rect id="Rectangle-path" transform="translate(860.218420, 476.766676) rotate(-42.530000) translate(-860.218420, -476.766676) " x="794.407744" y="475.627332" width="131.621352" height="1"></rect>
                        <path d="M811.160142,520.703115 L1022.86121,581.566885" id="Shape"></path>
                        <polygon id="Shape" points="811.251246 520.429672 1022.95231 581.293443 1022.79288 581.840328 811.069039 520.999344"></polygon>
                        <path d="M811.160142,520.703115 L1022.86121,581.566885" id="Shape"></path>
                        <polygon id="Shape" points="811.251246 520.429672 1022.95231 581.293443 1022.79288 581.840328 811.069039 520.999344"></polygon>
                        <path d="M981.933096,367.415738 L952.688968,380.290328" id="Shape"></path>
                        <polygon id="Shape" points="981.796441 367.142295 982.046975 367.68918 952.802847 380.56377 952.575089 380.016885"></polygon>
                        <path d="M981.933096,367.415738 L960.86548,140.39" id="Shape"></path>
                        <polygon id="Shape" points="961.161566 140.367213 982.206406 367.392951 981.637011 367.438525 960.592171 140.435574"></polygon>
                        <path d="M981.933096,367.415738 L943.328114,156.77377" id="Shape"></path>
                        <polygon id="Shape" points="943.624199 156.728197 982.206406 367.370164 981.637011 367.461311 943.032028 156.842131"></polygon>
                        <path d="M981.933096,367.415738 L792.438434,306.574754" id="Shape"></path>
                        <polygon id="Shape" points="792.529537 306.278525 982.024199 367.142295 981.841993 367.68918 792.347331 306.848197"></polygon>
                        <path d="M981.933096,367.415738 L870.809964,303.065574" id="Shape"></path>
                        <rect id="Rectangle-path" transform="translate(926.815479, 334.532223) rotate(-59.930000) translate(-926.815479, -334.532223) " x="925.676689" y="270.307387" width="1" height="128.449672"></rect>
                        <path d="M981.933096,367.415738 L1073.15018,368.577869" id="Shape"></path>
                        <polygon id="Shape" points="981.933096 367.119508 1073.15018 368.304426 1073.15018 368.874098 981.933096 367.711967"></polygon>
                        <path d="M981.933096,367.415738 L908.230605,431.788689" id="Shape"></path>
                        <polygon id="Shape" points="981.728114 367.187869 982.115302 367.643607 908.435587 431.99377 908.048399 431.56082"></polygon>
                        <path d="M981.933096,367.415738 L1022.86121,581.566885" id="Shape"></path>
                        <polygon id="Shape" points="982.206406 367.370164 1023.1573 581.498525 1022.5879 581.612459 981.637011 367.461311"></polygon>
                        <path d="M981.933096,367.415738 L1022.86121,581.566885" id="Shape"></path>
                        <polygon id="Shape" points="982.206406 367.370164 1023.1573 581.498525 1022.5879 581.612459 981.637011 367.461311"></polygon>
                        <path d="M1261.4605,363.906557 L1073.15018,368.577869" id="Shape"></path>
                        <polygon id="Shape" points="1261.4605 363.610328 1261.48327 364.202787 1073.17295 368.874098 1073.15018 368.304426"></polygon>
                        <path d="M1060.28185,239.854754 L981.933096,367.415738" id="Shape"></path>
                        <rect id="Rectangle-path" transform="translate(1021.888097, 304.124211) rotate(-58.600000) translate(-1021.888097, -304.124211) " x="947.069591" y="302.984867" width="149.637011" height="1"></rect>
                        <path d="M1060.28185,239.854754 L952.688968,380.290328" id="Shape"></path>
                        <polygon id="Shape" points="1060.05409 239.695246 1060.53238 240.037049 952.916726 380.472623 952.46121 380.108033"></polygon>
                        <path d="M1060.28185,239.854754 L1202.99502,284.334754" id="Shape"></path>
                        <rect id="Rectangle-path" transform="translate(1131.884404, 261.289690) rotate(-72.700000) translate(-1131.884404, -261.289690) " x="1130.74561" y="186.525919" width="1" height="149.527541"></rect>
                        <path d="M1060.28185,239.854754 L960.86548,140.39" id="Shape"></path>
                        <rect id="Rectangle-path" transform="translate(1011.183887, 189.526627) rotate(-45.000000) translate(-1011.183887, -189.526627) " x="1010.0451" y="119.194906" width="1" height="140.663443"></rect>
                        <path d="M1060.28185,239.854754 L942.895374,156.77377" id="Shape"></path>
                        <polygon id="Shape" points="943.054804 156.545902 1060.46406 239.626885 1060.12242 240.10541 942.713167 157.024426"></polygon>
                        <path d="M1060.28185,239.854754 L1150.36014,181.36082" id="Shape"></path>
                        <polygon id="Shape" points="1150.20071 181.110164 1150.51957 181.588689 1060.44128 240.10541 1060.1452 239.626885"></polygon>
                        <path d="M1060.28185,239.854754 L870.809964,303.065574" id="Shape"></path>
                        <polygon id="Shape" points="1060.19075 239.581311 1060.37295 240.150984 870.901068 303.339016 870.718861 302.769344"></polygon>
                        <path d="M1060.28185,239.854754 L1073.15018,368.577869" id="Shape"></path>
                        <polygon id="Shape" points="1060.57794 239.831967 1073.44626 368.555082 1072.85409 368.623443 1060.00854 239.900328"></polygon>
                        <path d="M386.573665,373.271967 L208.808541,242.201803" id="Shape"></path>
                        <rect id="Rectangle-path" transform="translate(297.127858, 302.096448) rotate(-53.930590) translate(-297.127858, -302.096448) " x="295.986679" y="191.393882" width="1" height="221.405131"></rect>
                        <path d="M386.573665,373.271967 L428.686121,541.780984" id="Shape"></path>
                        <polygon id="Shape" points="386.869751 373.203607 428.982206 541.712623 428.412811 541.849344 386.300356 373.340328"></polygon>
                        <path d="M386.573665,373.271967 L351.498932,463.371311" id="Shape"></path>
                        <polygon id="Shape" points="386.300356 373.158033 386.846975 373.385902 351.772242 463.485246 351.225623 463.280164"></polygon>
                        <path d="M386.573665,373.271967 L246.229181,471.57459" id="Shape"></path>
                        <polygon id="Shape" points="386.414235 373.021311 386.755872 373.499836 246.388612 471.802459 246.069751 471.323934"></polygon>
                        <path d="M386.573665,373.271967 L531.609964,386.146557" id="Shape"></path>
                        <polygon id="Shape" points="386.596441 372.975738 531.63274 385.850328 531.587189 386.442787 386.55089 373.568197"></polygon>
                        <path d="M386.573665,373.271967 L447.407829,207.11" id="Shape"></path>
                        <polygon id="Shape" points="447.13452 206.996066 447.681139 207.201148 386.846975 373.363115 386.300356 373.158033"></polygon>
                        <ellipse id="Oval" cx="908.230605" cy="431.788689" rx="2.43701068" ry="2.43819672"></ellipse>
                        <ellipse id="Oval" cx="908.230605" cy="431.788689" rx="2.43701068" ry="2.43819672"></ellipse>
                        <ellipse id="Oval" cx="908.230605" cy="431.788689" rx="2.43701068" ry="2.43819672"></ellipse>
                        <ellipse id="Oval" cx="1073.15018" cy="368.577869" rx="2.43701068" ry="2.43819672"></ellipse>
                        <ellipse id="Oval" cx="1073.15018" cy="368.577869" rx="2.43701068" ry="2.43819672"></ellipse>
                        <ellipse id="Oval" cx="1073.15018" cy="368.577869" rx="2.43701068" ry="2.43819672"></ellipse>
                        <ellipse id="Oval" cx="1073.15018" cy="368.577869" rx="2.43701068" ry="2.43819672"></ellipse>
                        <ellipse id="Oval" cx="908.230605" cy="431.788689" rx="2.43701068" ry="2.43819672"></ellipse>
                        <ellipse id="Oval" cx="742.149466" cy="459.862131" rx="2.43701068" ry="2.43819672"></ellipse>
                        <ellipse id="Oval" cx="742.149466" cy="459.862131" rx="2.43701068" ry="2.43819672"></ellipse>
                        <ellipse id="Oval" cx="742.149466" cy="459.862131" rx="2.43701068" ry="2.43819672"></ellipse>
                        <ellipse id="Oval" cx="742.149466" cy="459.862131" rx="2.43701068" ry="2.43819672"></ellipse>
                        <ellipse id="Oval" cx="908.230605" cy="431.788689" rx="2.43701068" ry="2.43819672"></ellipse>
                        <ellipse id="Oval" cx="742.149466" cy="459.862131" rx="2.43701068" ry="2.43819672"></ellipse>
                        <ellipse id="Oval" cx="870.809964" cy="303.065574" rx="2.43701068" ry="2.43819672"></ellipse>
                        <ellipse id="Oval" cx="1073.15018" cy="368.577869" rx="2.43701068" ry="2.43819672"></ellipse>
                        <ellipse id="Oval" cx="870.809964" cy="303.065574" rx="2.43701068" ry="2.43819672"></ellipse>
                        <ellipse id="Oval" cx="908.230605" cy="431.788689" rx="2.43701068" ry="2.43819672"></ellipse>
                        <ellipse id="Oval" cx="870.809964" cy="303.065574" rx="2.43701068" ry="2.43819672"></ellipse>
                        <ellipse id="Oval" cx="624.011388" cy="256.238525" rx="2.43701068" ry="2.43819672"></ellipse>
                        <ellipse id="Oval" cx="797.130249" cy="124.00623" rx="2.43701068" ry="2.43819672"></ellipse>
                        <ellipse id="Oval" cx="870.809964" cy="303.065574" rx="2.43701068" ry="2.43819672"></ellipse>
                        <ellipse id="Oval" cx="797.130249" cy="124.00623" rx="2.43701068" ry="2.43819672"></ellipse>
                        <ellipse id="Oval" cx="624.011388" cy="256.238525" rx="2.43701068" ry="2.43819672"></ellipse>
                        <ellipse id="Oval" cx="797.130249" cy="124.00623" rx="2.43701068" ry="2.43819672"></ellipse>
                        <ellipse id="Oval" cx="870.809964" cy="303.065574" rx="2.43701068" ry="2.43819672"></ellipse>
                        <ellipse id="Oval" cx="797.130249" cy="124.00623" rx="2.43701068" ry="2.43819672"></ellipse>
                        <ellipse id="Oval" cx="624.011388" cy="256.238525" rx="2.43701068" ry="2.43819672"></ellipse>
                        <ellipse id="Oval" cx="447.407829" cy="207.11" rx="2.43701068" ry="2.43819672"></ellipse>
                        <ellipse id="Oval" cx="447.407829" cy="207.11" rx="2.43701068" ry="2.43819672"></ellipse>
                        <ellipse id="Oval" cx="531.609964" cy="386.146557" rx="2.43701068" ry="2.43819672"></ellipse>
                        <ellipse id="Oval" cx="624.011388" cy="256.238525" rx="2.43701068" ry="2.43819672"></ellipse>
                        <ellipse id="Oval" cx="531.609964" cy="386.146557" rx="2.43701068" ry="2.43819672"></ellipse>
                        <ellipse id="Oval" cx="531.609964" cy="386.146557" rx="2.43701068" ry="2.43819672"></ellipse>
                        <ellipse id="Oval" cx="742.149466" cy="459.862131" rx="2.43701068" ry="2.43819672"></ellipse>
                        <ellipse id="Oval" cx="531.609964" cy="386.146557" rx="2.43701068" ry="2.43819672"></ellipse>
                        <ellipse id="Oval" cx="797.130249" cy="124.00623" rx="2.43701068" ry="2.43819672"></ellipse>
                        <ellipse id="Oval" cx="792.438434" cy="306.574754" rx="2.43701068" ry="2.43819672"></ellipse>
                        <ellipse id="Oval" cx="797.130249" cy="124.00623" rx="2.43701068" ry="2.43819672"></ellipse>
                        <ellipse id="Oval" cx="792.438434" cy="306.574754" rx="2.43701068" ry="2.43819672"></ellipse>
                        <ellipse id="Oval" cx="624.011388" cy="256.238525" rx="2.43701068" ry="2.43819672"></ellipse>
                        <ellipse id="Oval" cx="792.438434" cy="306.574754" rx="2.43701068" ry="2.43819672"></ellipse>
                        <ellipse id="Oval" cx="870.809964" cy="303.065574" rx="2.43701068" ry="2.43819672"></ellipse>
                        <ellipse id="Oval" cx="792.438434" cy="306.574754" rx="2.43701068" ry="2.43819672"></ellipse>
                        <ellipse id="Oval" cx="742.149466" cy="459.862131" rx="2.43701068" ry="2.43819672"></ellipse>
                        <ellipse id="Oval" cx="792.438434" cy="306.574754" rx="2.43701068" ry="2.43819672"></ellipse>
                        <ellipse id="Oval" cx="908.230605" cy="431.788689" rx="2.43701068" ry="2.43819672"></ellipse>
                        <ellipse id="Oval" cx="792.438434" cy="306.574754" rx="2.43701068" ry="2.43819672"></ellipse>
                        <ellipse id="Oval" cx="4.12241993" cy="435.297869" rx="2.43701068" ry="2.43819672"></ellipse>
                        <ellipse id="Oval" cx="351.498932" cy="463.371311" rx="2.43701068" ry="2.43819672"></ellipse>
                        <ellipse id="Oval" cx="246.229181" cy="471.57459" rx="2.43701068" ry="2.43819672"></ellipse>
                        <ellipse id="Oval" cx="428.686121" cy="541.780984" rx="2.43701068" ry="2.43819672"></ellipse>
                        <ellipse id="Oval" cx="351.498932" cy="463.371311" rx="2.43701068" ry="2.43819672"></ellipse>
                        <ellipse id="Oval" cx="428.686121" cy="541.780984" rx="2.43701068" ry="2.43819672"></ellipse>
                        <ellipse id="Oval" cx="246.229181" cy="471.57459" rx="2.43701068" ry="2.43819672"></ellipse>
                        <ellipse id="Oval" cx="428.686121" cy="541.780984" rx="2.43701068" ry="2.43819672"></ellipse>
                        <ellipse id="Oval" cx="531.609964" cy="386.146557" rx="2.43701068" ry="2.43819672"></ellipse>
                        <ellipse id="Oval" cx="428.686121" cy="541.780984" rx="2.43701068" ry="2.43819672"></ellipse>
                        <ellipse id="Oval" cx="428.686121" cy="541.780984" rx="2.43701068" ry="2.43819672"></ellipse>
                        <ellipse id="Oval" cx="428.686121" cy="541.780984" rx="2.43701068" ry="2.43819672"></ellipse>
                        <ellipse id="Oval" cx="428.686121" cy="541.780984" rx="2.43701068" ry="2.43819672"></ellipse>
                        <ellipse id="Oval" cx="246.229181" cy="471.57459" rx="2.43701068" ry="2.43819672"></ellipse>
                        <ellipse id="Oval" cx="208.808541" cy="242.201803" rx="2.43701068" ry="2.43819672"></ellipse>
                        <ellipse id="Oval" cx="208.808541" cy="242.201803" rx="2.43701068" ry="2.43819672"></ellipse>
                        <ellipse id="Oval" cx="68.4412811" cy="394.327049" rx="2.43701068" ry="2.43819672"></ellipse>
                        <ellipse id="Oval" cx="4.12241993" cy="435.297869" rx="2.43701068" ry="2.43819672"></ellipse>
                        <ellipse id="Oval" cx="68.4412811" cy="394.327049" rx="2.43701068" ry="2.43819672"></ellipse>
                        <ellipse id="Oval" cx="246.229181" cy="471.57459" rx="2.43701068" ry="2.43819672"></ellipse>
                        <ellipse id="Oval" cx="68.4412811" cy="394.327049" rx="2.43701068" ry="2.43819672"></ellipse>
                        <ellipse id="Oval" cx="1073.15018" cy="368.577869" rx="2.43701068" ry="2.43819672"></ellipse>
                        <ellipse id="Oval" cx="960.86548" cy="140.39" rx="2.43701068" ry="2.43819672"></ellipse>
                        <ellipse id="Oval" cx="797.130249" cy="124.00623" rx="2.43701068" ry="2.43819672"></ellipse>
                        <ellipse id="Oval" cx="960.86548" cy="140.39" rx="2.43701068" ry="2.43819672"></ellipse>
                        <ellipse id="Oval" cx="797.130249" cy="124.00623" rx="2.43701068" ry="2.43819672"></ellipse>
                        <ellipse id="Oval" cx="960.86548" cy="140.39" rx="2.43701068" ry="2.43819672"></ellipse>
                        <ellipse id="Oval" cx="870.809964" cy="303.065574" rx="2.43701068" ry="2.43819672"></ellipse>
                        <ellipse id="Oval" cx="960.86548" cy="140.39" rx="2.43701068" ry="2.43819672"></ellipse>
                        <ellipse id="Oval" cx="1073.15018" cy="368.577869" rx="2.43701068" ry="2.43819672"></ellipse>
                        <ellipse id="Oval" cx="960.86548" cy="140.39" rx="2.43701068" ry="2.43819672"></ellipse>
                        <ellipse id="Oval" cx="940.982206" cy="6.99557377" rx="2.43701068" ry="2.43819672"></ellipse>
                        <ellipse id="Oval" cx="943.328114" cy="156.77377" rx="2.43701068" ry="2.43819672"></ellipse>
                        <ellipse id="Oval" cx="940.982206" cy="6.99557377" rx="2.43701068" ry="2.43819672"></ellipse>
                        <ellipse id="Oval" cx="797.130249" cy="124.00623" rx="2.43701068" ry="2.43819672"></ellipse>
                        <ellipse id="Oval" cx="940.982206" cy="6.99557377" rx="2.43701068" ry="2.43819672"></ellipse>
                        <ellipse id="Oval" cx="797.130249" cy="124.00623" rx="2.43701068" ry="2.43819672"></ellipse>
                        <ellipse id="Oval" cx="940.982206" cy="6.99557377" rx="2.43701068" ry="2.43819672"></ellipse>
                        <ellipse id="Oval" cx="447.407829" cy="207.11" rx="2.43701068" ry="2.43819672"></ellipse>
                        <ellipse id="Oval" cx="563.2" cy="81.8960656" rx="2.43701068" ry="2.43819672"></ellipse>
                        <ellipse id="Oval" cx="624.011388" cy="256.238525" rx="2.43701068" ry="2.43819672"></ellipse>
                        <ellipse id="Oval" cx="563.2" cy="81.8960656" rx="2.43701068" ry="2.43819672"></ellipse>
                        <ellipse id="Oval" cx="792.438434" cy="306.574754" rx="2.43701068" ry="2.43819672"></ellipse>
                        <ellipse id="Oval" cx="618.180783" cy="317.102295" rx="2.43701068" ry="2.43819672"></ellipse>
                        <ellipse id="Oval" cx="531.609964" cy="386.146557" rx="2.43701068" ry="2.43819672"></ellipse>
                        <ellipse id="Oval" cx="618.180783" cy="317.102295" rx="2.43701068" ry="2.43819672"></ellipse>
                        <ellipse id="Oval" cx="447.407829" cy="207.11" rx="2.43701068" ry="2.43819672"></ellipse>
                        <ellipse id="Oval" cx="618.180783" cy="317.102295" rx="2.43701068" ry="2.43819672"></ellipse>
                        <ellipse id="Oval" cx="624.011388" cy="256.238525" rx="2.43701068" ry="2.43819672"></ellipse>
                        <ellipse id="Oval" cx="618.180783" cy="317.102295" rx="2.43701068" ry="2.43819672"></ellipse>
                        <ellipse id="Oval" cx="742.149466" cy="459.862131" rx="2.43701068" ry="2.43819672"></ellipse>
                        <ellipse id="Oval" cx="618.180783" cy="317.102295" rx="2.43701068" ry="2.43819672"></ellipse>
                        <ellipse id="Oval" cx="792.438434" cy="306.574754" rx="2.43701068" ry="2.43819672"></ellipse>
                        <ellipse id="Oval" cx="811.160142" cy="520.703115" rx="2.43701068" ry="2.43819672"></ellipse>
                        <ellipse id="Oval" cx="870.809964" cy="303.065574" rx="2.43701068" ry="2.43819672"></ellipse>
                        <ellipse id="Oval" cx="811.160142" cy="520.703115" rx="2.43701068" ry="2.43819672"></ellipse>
                        <ellipse id="Oval" cx="811.160142" cy="520.703115" rx="2.43701068" ry="2.43819672"></ellipse>
                        <ellipse id="Oval" cx="811.160142" cy="520.703115" rx="2.43701068" ry="2.43819672"></ellipse>
                        <ellipse id="Oval" cx="811.160142" cy="520.703115" rx="2.43701068" ry="2.43819672"></ellipse>
                        <ellipse id="Oval" cx="742.149466" cy="459.862131" rx="2.43701068" ry="2.43819672"></ellipse>
                        <ellipse id="Oval" cx="811.160142" cy="520.703115" rx="2.43701068" ry="2.43819672"></ellipse>
                        <ellipse id="Oval" cx="908.230605" cy="431.788689" rx="2.43701068" ry="2.43819672"></ellipse>
                        <ellipse id="Oval" cx="811.160142" cy="520.703115" rx="2.43701068" ry="2.43819672"></ellipse>
                        <ellipse id="Oval" cx="811.160142" cy="520.703115" rx="2.43701068" ry="2.43819672"></ellipse>
                        <ellipse id="Oval" cx="811.160142" cy="520.703115" rx="2.43701068" ry="2.43819672"></ellipse>
                        <ellipse id="Oval" cx="952.688968" cy="380.290328" rx="2.43701068" ry="2.43819672"></ellipse>
                        <ellipse id="Oval" cx="981.933096" cy="367.415738" rx="2.43701068" ry="2.43819672"></ellipse>
                        <ellipse id="Oval" cx="960.86548" cy="140.39" rx="2.43701068" ry="2.43819672"></ellipse>
                        <ellipse id="Oval" cx="981.933096" cy="367.415738" rx="2.43701068" ry="2.43819672"></ellipse>
                        <ellipse id="Oval" cx="943.328114" cy="156.77377" rx="2.43701068" ry="2.43819672"></ellipse>
                        <ellipse id="Oval" cx="981.933096" cy="367.415738" rx="2.43701068" ry="2.43819672"></ellipse>
                        <ellipse id="Oval" cx="792.438434" cy="306.574754" rx="2.43701068" ry="2.43819672"></ellipse>
                        <ellipse id="Oval" cx="981.933096" cy="367.415738" rx="2.43701068" ry="2.43819672"></ellipse>
                        <ellipse id="Oval" cx="870.809964" cy="303.065574" rx="2.43701068" ry="2.43819672"></ellipse>
                        <ellipse id="Oval" cx="981.933096" cy="367.415738" rx="2.43701068" ry="2.43819672"></ellipse>
                        <ellipse id="Oval" cx="1073.15018" cy="368.577869" rx="2.43701068" ry="2.43819672"></ellipse>
                        <ellipse id="Oval" cx="981.933096" cy="367.415738" rx="2.43701068" ry="2.43819672"></ellipse>
                        <ellipse id="Oval" cx="908.230605" cy="431.788689" rx="2.43701068" ry="2.43819672"></ellipse>
                        <ellipse id="Oval" cx="981.933096" cy="367.415738" rx="2.43701068" ry="2.43819672"></ellipse>
                        <ellipse id="Oval" cx="981.933096" cy="367.415738" rx="2.43701068" ry="2.43819672"></ellipse>
                        <ellipse id="Oval" cx="981.933096" cy="367.415738" rx="2.43701068" ry="2.43819672"></ellipse>
                        <ellipse id="Oval" cx="1073.15018" cy="368.577869" rx="2.43701068" ry="2.43819672"></ellipse>
                        <ellipse id="Oval" cx="981.933096" cy="367.415738" rx="2.43701068" ry="2.43819672"></ellipse>
                        <ellipse id="Oval" cx="1060.28185" cy="239.854754" rx="2.43701068" ry="2.43819672"></ellipse>
                        <ellipse id="Oval" cx="952.688968" cy="380.290328" rx="2.43701068" ry="2.43819672"></ellipse>
                        <ellipse id="Oval" cx="1060.28185" cy="239.854754" rx="2.43701068" ry="2.43819672"></ellipse>
                        <ellipse id="Oval" cx="1060.28185" cy="239.854754" rx="2.43701068" ry="2.43819672"></ellipse>
                        <ellipse id="Oval" cx="960.86548" cy="140.39" rx="2.43701068" ry="2.43819672"></ellipse>
                        <ellipse id="Oval" cx="1060.28185" cy="239.854754" rx="2.43701068" ry="2.43819672"></ellipse>
                        <ellipse id="Oval" cx="942.895374" cy="156.77377" rx="2.43701068" ry="2.43819672"></ellipse>
                        <ellipse id="Oval" cx="1060.28185" cy="239.854754" rx="2.43701068" ry="2.43819672"></ellipse>
                        <ellipse id="Oval" cx="1060.28185" cy="239.854754" rx="2.43701068" ry="2.43819672"></ellipse>
                        <ellipse id="Oval" cx="870.809964" cy="303.065574" rx="2.43701068" ry="2.43819672"></ellipse>
                        <ellipse id="Oval" cx="1060.28185" cy="239.854754" rx="2.43701068" ry="2.43819672"></ellipse>
                        <ellipse id="Oval" cx="1073.15018" cy="368.577869" rx="2.43701068" ry="2.43819672"></ellipse>
                        <ellipse id="Oval" cx="1060.28185" cy="239.854754" rx="2.43701068" ry="2.43819672"></ellipse>
                        <ellipse id="Oval" cx="208.808541" cy="242.201803" rx="2.43701068" ry="2.43819672"></ellipse>
                        <ellipse id="Oval" cx="386.573665" cy="373.271967" rx="2.43701068" ry="2.43819672"></ellipse>
                        <ellipse id="Oval" cx="428.686121" cy="541.780984" rx="2.43701068" ry="2.43819672"></ellipse>
                        <ellipse id="Oval" cx="386.573665" cy="373.271967" rx="2.43701068" ry="2.43819672"></ellipse>
                        <ellipse id="Oval" cx="351.498932" cy="463.371311" rx="2.43701068" ry="2.43819672"></ellipse>
                        <ellipse id="Oval" cx="386.573665" cy="373.271967" rx="2.43701068" ry="2.43819672"></ellipse>
                        <ellipse id="Oval" cx="246.229181" cy="471.57459" rx="2.43701068" ry="2.43819672"></ellipse>
                        <ellipse id="Oval" cx="386.573665" cy="373.271967" rx="2.43701068" ry="2.43819672"></ellipse>
                        <ellipse id="Oval" cx="531.609964" cy="386.146557" rx="2.43701068" ry="2.43819672"></ellipse>
                        <ellipse id="Oval" cx="386.573665" cy="373.271967" rx="2.43701068" ry="2.43819672"></ellipse>
                        <ellipse id="Oval" cx="447.407829" cy="207.11" rx="2.43701068" ry="2.43819672"></ellipse>
                        <ellipse id="Oval" cx="386.573665" cy="373.271967" rx="2.43701068" ry="2.43819672"></ellipse>
                    </g>
                </g>
            </g>
        </g>
    </g>
</svg>