<?xml version="1.0" encoding="UTF-8"?>
<svg width="1001px" height="729px" viewBox="0 0 1001 729" version="1.1" xmlns="http://www.w3.org/2000/svg" xmlns:xlink="http://www.w3.org/1999/xlink">
    <!-- Generator: Sketch 50.2 (55047) - http://www.bohemiancoding.com/sketch -->
    <title>bg-v8</title>
    <desc>Created with Sketch.</desc>
    <defs></defs>
    <g id="Page-1" stroke="none" stroke-width="1" fill="none" fill-rule="evenodd" opacity="0.100000001">
        <g id="main-v6-slide-1" transform="translate(0.000000, -2598.000000)" fill="#00A2FF" fill-rule="nonzero">
            <g id="4-section" transform="translate(-597.000000, 2339.000000)">
                <g id="bg-v8" transform="translate(822.375570, 623.377520) rotate(29.000000) translate(-822.375570, -623.377520) translate(35.375570, 346.877520)">
                    <g id="Group" style="mix-blend-mode: overlay;">
                        <rect id="Rectangle-path" transform="translate(1216.677769, 297.987007) rotate(-41.330000) translate(-1216.677769, -297.987007) " x="1118.85393" y="297.003388" width="195.647668" height="1.96723759"></rect>
                        <rect id="Rectangle-path" transform="translate(1216.677769, 297.987007) rotate(-41.330000) translate(-1216.677769, -297.987007) " x="1118.85393" y="297.003388" width="195.647668" height="1.96723759"></rect>
                        <rect id="Rectangle-path" transform="translate(1216.677769, 297.987007) rotate(-41.330000) translate(-1216.677769, -297.987007) " x="1118.85393" y="297.003388" width="195.647668" height="1.96723759"></rect>
                        <rect id="Rectangle-path" transform="translate(1223.646842, 178.800160) rotate(-50.620000) translate(-1223.646842, -178.800160) " x="1222.75619" y="92.6871186" width="1.78131413" height="172.226083"></rect>
                        <rect id="Rectangle-path" transform="translate(1223.646842, 178.800160) rotate(-50.620000) translate(-1223.646842, -178.800160) " x="1222.75619" y="92.6871186" width="1.78131413" height="172.226083"></rect>
                        <rect id="Rectangle-path" transform="translate(1223.646842, 178.800160) rotate(-50.620000) translate(-1223.646842, -178.800160) " x="1222.75619" y="92.6871186" width="1.78131413" height="172.226083"></rect>
                        <rect id="Rectangle-path" transform="translate(812.462659, 263.419506) rotate(-5.490000) translate(-812.462659, -263.419506) " x="791.512552" y="262.919523" width="41.8979927" height="1"></rect>
                        <rect id="Rectangle-path" transform="translate(873.041515, 310.947431) rotate(-60.710000) translate(-873.041515, -310.947431) " x="872.095192" y="217.550043" width="1.89264626" height="186.794777"></rect>
                        <rect id="Rectangle-path" transform="translate(896.622966, 305.789177) rotate(-51.874818) translate(-896.622966, -305.789177) " x="895.793775" y="228.350144" width="1.65843035" height="154.878069"></rect>
                        <rect id="Rectangle-path" transform="translate(1048.882307, 359.647714) rotate(-88.190000) translate(-1048.882307, -359.647714) " x="1047.92671" y="265.229589" width="1.91120161" height="188.83625"></rect>
                        <rect id="Rectangle-path" transform="translate(1156.207514, 167.925373) rotate(-88.640000) translate(-1156.207514, -167.925373) " x="1112.49049" y="167.350083" width="87.432835" height="1.1506484"></rect>
                        <rect id="Rectangle-path" transform="translate(1152.742526, 284.343407) rotate(-85.426079) translate(-1152.742526, -284.343407) " x="1076.7855" y="283.524215" width="151.91406" height="1.63839621"></rect>
                        <rect id="Rectangle-path" transform="translate(1222.700893, 222.558072) rotate(-80.810000) translate(-1222.700893, -222.558072) " x="1221.94016" y="154.13161" width="1.52153915" height="136.852924"></rect>
                        <rect id="Rectangle-path" transform="translate(1222.700893, 222.558072) rotate(-80.810000) translate(-1222.700893, -222.558072) " x="1221.94016" y="154.13161" width="1.52153915" height="136.852924"></rect>
                        <rect id="Rectangle-path" transform="translate(1222.700893, 222.558072) rotate(-80.810000) translate(-1222.700893, -222.558072) " x="1221.94016" y="154.13161" width="1.52153915" height="136.852924"></rect>
                        <rect id="Rectangle-path" transform="translate(592.991019, 363.670282) rotate(-46.250000) translate(-592.991019, -363.670282) " x="592.016863" y="267.414831" width="1.94831233" height="192.510901"></rect>
                        <rect id="Rectangle-path" transform="translate(942.528471, 393.360098) rotate(-72.060000) translate(-942.528471, -393.360098) " x="903.896125" y="392.821892" width="77.2645002" height="1.07641302"></rect>
                        <rect id="Rectangle-path" transform="translate(882.006292, 345.755877) rotate(-29.960000) translate(-882.006292, -345.755877) " x="881.032136" y="248.294102" width="1.94831233" height="194.923551"></rect>
                        <rect id="Rectangle-path" transform="translate(1101.495114, 206.661082) rotate(-84.710000) translate(-1101.495114, -206.661082) " x="1100.84572" y="152.784755" width="1.29887488" height="107.752655"></rect>
                        <rect id="Rectangle-path" transform="translate(1001.225887, 279.220590) rotate(-58.890000) translate(-1001.225887, -279.220590) " x="910.777807" y="278.292647" width="180.896161" height="1.85588452"></rect>
                        <polygon id="Shape" points="1156.68519 123.601909 1157.5573 124.826793 1048.30336 202.309971 1047.43126 201.085088"></polygon>
                        <rect id="Rectangle-path" transform="translate(1095.551084, 282.157029) rotate(-30.650000) translate(-1095.551084, -282.157029) " x="1094.60476" y="188.629729" width="1.89264626" height="187.054601"></rect>
                        <rect id="Rectangle-path" transform="translate(551.260664, 283.175994) rotate(-26.460000) translate(-551.260664, -283.175994) " x="520.170123" y="282.676009" width="62.1789962" height="1"></rect>
                        <rect id="Rectangle-path" transform="translate(620.779216, 349.666529) rotate(-27.410000) translate(-620.779216, -349.666529) " x="619.851449" y="259.025129" width="1.85553555" height="181.2828"></rect>
                        <rect id="Rectangle-path" transform="translate(850.263456, 397.441790) rotate(-67.830000) translate(-850.263456, -397.441790) " x="849.363527" y="310.558556" width="1.79986948" height="173.766467"></rect>
                        <rect id="Rectangle-path" transform="translate(862.105903, 360.664018) rotate(-2.370000) translate(-862.105903, -360.664018) " x="769.653844" y="359.726797" width="184.904117" height="1.87444336"></rect>
                        <rect id="Rectangle-path" transform="translate(716.141504, 397.364680) rotate(-31.450000) translate(-716.141504, -397.364680) " x="653.285237" y="396.650178" width="125.712533" height="1.42903108"></rect>
                        <rect id="Rectangle-path" transform="translate(780.647080, 314.898467) rotate(-77.610000) translate(-780.647080, -314.898467) " x="729.796128" y="314.2675" width="101.701903" height="1.26200147"></rect>
                        <rect id="Rectangle-path" transform="translate(801.559540, 312.943912) rotate(-58.440000) translate(-801.559540, -312.943912) " x="740.920638" y="312.238689" width="121.277803" height="1.41047223"></rect>
                        <rect id="Rectangle-path" transform="translate(527.410555, 331.822561) rotate(-50.410000) translate(-527.410555, -331.822561) " x="446.277263" y="330.968858" width="162.266584" height="1.70741376"></rect>
                        <rect id="Rectangle-path" transform="translate(569.133204, 412.270497) rotate(-79.160000) translate(-569.133204, -412.270497) " x="568.168325" y="317.193533" width="1.92975697" height="190.153928"></rect>
                        <rect id="Rectangle-path" transform="translate(956.501452, 184.805988) rotate(-79.530000) translate(-956.501452, -184.805988) " x="955.555129" y="91.8632916" width="1.89264626" height="185.885393"></rect>
                        <polygon id="Shape" points="864.549678 167.493578 865.681555 168.347285 792.183792 265.688428 791.051915 264.834721"></polygon>
                        <rect id="Rectangle-path" transform="translate(849.188388, 214.571156) rotate(-71.120000) translate(-849.188388, -214.571156) " x="799.877514" y="213.949436" width="98.6217144" height="1.24344263"></rect>
                        <rect id="Rectangle-path" transform="translate(627.784616, 515.637795) rotate(-87.560000) translate(-627.784616, -515.637795) " x="627.181594" y="468.906886" width="1.20609811" height="93.4623444"></rect>
                        <rect id="Rectangle-path" transform="translate(644.623704, 486.803168) rotate(-44.060000) translate(-644.623704, -486.803168) " x="644.057766" y="443.950862" width="1.13187668" height="85.7047471"></rect>
                        <rect id="Rectangle-path" transform="translate(722.096175, 441.100619) rotate(-58.070000) translate(-722.096175, -441.100619) " x="631.972813" y="440.172676" width="180.246723" height="1.85588452"></rect>
                        <rect id="Rectangle-path" transform="translate(668.434176, 473.916718) rotate(-7.760000) translate(-668.434176, -473.916718) " x="667.859007" y="429.803069" width="1.15043204" height="88.22875"></rect>
                        <rect id="Rectangle-path" transform="translate(943.564555, 117.238281) rotate(-32.920000) translate(-943.564555, -117.238281) " x="850.175451" y="116.29178" width="186.778208" height="1.89300221"></rect>
                        <rect id="Rectangle-path" transform="translate(1034.946789, 134.226917) rotate(-10.820000) translate(-1034.946789, -134.226917) " x="1034.18605" y="65.4571167" width="1.52153915" height="137.539602"></rect>
                        <rect id="Rectangle-path" transform="translate(1088.555316, 139.054518) rotate(-42.550000) translate(-1088.555316, -139.054518) " x="1087.57188" y="40.6184031" width="1.96686768" height="196.87223"></rect>
                        <rect id="Rectangle-path" transform="translate(1089.624605, 95.442477) rotate(-66.900000) translate(-1089.624605, -95.442477) " x="1088.82676" y="22.0051272" width="1.59576057" height="146.874701"></rect>
                        <rect id="Rectangle-path" transform="translate(484.689329, 170.866754) rotate(-77.860000) translate(-484.689329, -170.866754) " x="483.835799" y="90.5904697" width="1.7070927" height="160.55257"></rect>
                        <rect id="Rectangle-path" transform="translate(623.815691, 212.654451) rotate(-67.710000) translate(-623.815691, -212.654451) " x="623.073505" y="147.169566" width="1.48442844" height="130.96977"></rect>
                        <rect id="Rectangle-path" transform="translate(466.830257, 209.617642) rotate(-12.690000) translate(-466.830257, -209.617642) " x="368.041545" y="208.624744" width="197.577425" height="1.98579643"></rect>
                        <rect id="Rectangle-path" transform="translate(571.120182, 228.517423) rotate(-11.040000) translate(-571.120182, -228.517423) " x="570.563522" y="187.019896" width="1.11332133" height="82.9951557"></rect>
                        <rect id="Rectangle-path" transform="translate(543.296368, 242.413920) rotate(-70.010000) translate(-543.296368, -242.413920) " x="485.171717" y="241.727243" width="116.249302" height="1.37335454"></rect>
                        <rect id="Rectangle-path" transform="translate(484.689329, 170.866754) rotate(-77.860000) translate(-484.689329, -170.866754) " x="483.835799" y="90.5904697" width="1.7070927" height="160.55257"></rect>
                        <rect id="Rectangle-path" transform="translate(623.815691, 212.654451) rotate(-67.710000) translate(-623.815691, -212.654451) " x="623.073505" y="147.169566" width="1.48442844" height="130.96977"></rect>
                        <rect id="Rectangle-path" transform="translate(466.830257, 209.617642) rotate(-12.690000) translate(-466.830257, -209.617642) " x="368.041545" y="208.624744" width="197.577425" height="1.98579643"></rect>
                        <rect id="Rectangle-path" transform="translate(571.120182, 228.517423) rotate(-11.040000) translate(-571.120182, -228.517423) " x="570.563522" y="187.019896" width="1.11332133" height="82.9951557"></rect>
                        <rect id="Rectangle-path" transform="translate(543.296368, 242.413920) rotate(-70.010000) translate(-543.296368, -242.413920) " x="485.171717" y="241.727243" width="116.249302" height="1.37335454"></rect>
                        <rect id="Rectangle-path" transform="translate(1476.885305, 205.634873) rotate(-71.510000) translate(-1476.885305, -205.634873) " x="1439.19848" y="205.105965" width="75.371854" height="1.05785418"></rect>
                        <polygon id="Shape" points="1488.38073 169.516492 1489.32705 170.277405 1429.72725 243.78899 1428.78093 243.028078"></polygon>
                        <rect id="Rectangle-path" transform="translate(1459.078204, 208.669672) rotate(-52.420000) translate(-1459.078204, -208.669672) " x="1410.21255" y="208.057246" width="97.7310573" height="1.22488378"></rect>
                        <rect id="Rectangle-path" transform="translate(1459.078204, 208.669672) rotate(-52.420000) translate(-1459.078204, -208.669672) " x="1410.21255" y="208.057246" width="97.7310573" height="1.22488378"></rect>
                        <rect id="Rectangle-path" transform="translate(1230.757617, 153.014616) rotate(-39.732303) translate(-1230.757617, -153.014616) " x="1136.15572" y="152.057642" width="189.203802" height="1.91394901"></rect>
                        <rect id="Rectangle-path" transform="translate(1228.607944, 107.261581) rotate(-13.360000) translate(-1228.607944, -107.261581) " x="1155.12874" y="106.463556" width="146.958415" height="1.59606069"></rect>
                        <polygon id="Shape" points="1299.35732 90.3815761 1300.91597 90.4929291 1290.98886 233.525949 1289.43021 233.433155"></polygon>
                        <polygon id="Shape" points="1299.35732 90.3815761 1300.91597 90.4929291 1290.98886 233.525949 1289.43021 233.433155"></polygon>
                        <polygon id="Shape" points="1299.35732 90.3815761 1300.91597 90.4929291 1290.98886 233.525949 1289.43021 233.433155"></polygon>
                        <rect id="Rectangle-path" transform="translate(1529.551833, 133.134098) rotate(-42.050000) translate(-1529.551833, -133.134098) " x="1474.7022" y="132.475259" width="109.699262" height="1.31767801"></rect>
                        <rect id="Rectangle-path" transform="translate(1517.717559, 168.962221) rotate(-54.040000) translate(-1517.717559, -168.962221) " x="1428.12302" y="168.043559" width="179.189068" height="1.83732567"></rect>
                        <rect id="Rectangle-path" transform="translate(1394.538203, 289.215523) rotate(-34.070000) translate(-1394.538203, -289.215523) " x="1309.41551" y="288.324698" width="170.245387" height="1.78164914"></rect>
                        <rect id="Rectangle-path" transform="translate(1376.674058, 290.218028) rotate(-41.590000) translate(-1376.674058, -290.218028) " x="1306.32143" y="289.438572" width="140.705261" height="1.558943"></rect>
                        <rect id="Rectangle-path" transform="translate(1376.625549, 292.127237) rotate(-40.310000) translate(-1376.625549, -292.127237) " x="1307.57179" y="291.357049" width="138.107511" height="1.54038415"></rect>
                        <rect id="Rectangle-path" transform="translate(1376.625549, 292.127237) rotate(-40.310000) translate(-1376.625549, -292.127237) " x="1307.57179" y="291.357049" width="138.107511" height="1.54038415"></rect>
                        <rect id="Rectangle-path" transform="translate(1233.295897, 350.586143) rotate(-8.049062) translate(-1233.295897, -350.586143) " x="1142.00797" y="349.649062" width="182.575861" height="1.87416218"></rect>
                        <rect id="Rectangle-path" transform="translate(1307.114258, 285.213503) rotate(-18.100000) translate(-1307.114258, -285.213503) " x="1306.45554" y="230.863925" width="1.31743024" height="108.699156"></rect>
                        <rect id="Rectangle-path" transform="translate(1307.114258, 285.213503) rotate(-18.100000) translate(-1307.114258, -285.213503) " x="1306.45554" y="230.863925" width="1.31743024" height="108.699156"></rect>
                        <rect id="Rectangle-path" transform="translate(1307.114258, 285.213503) rotate(-18.100000) translate(-1307.114258, -285.213503) " x="1306.45554" y="230.863925" width="1.31743024" height="108.699156"></rect>
                        <rect id="Rectangle-path" transform="translate(1478.918952, 117.287149) rotate(-12.870000) translate(-1478.918952, -117.287149) " x="1385.19585" y="116.331368" width="187.446201" height="1.91156105"></rect>
                        <rect id="Rectangle-path" transform="translate(1343.821518, 114.265638) rotate(-61.390000) translate(-1343.821518, -114.265638) " x="1343.19993" y="64.4815919" width="1.24320882" height="99.5682044"></rect>
                        <rect id="Rectangle-path" transform="translate(1438.255072, 154.021429) rotate(-72.580000) translate(-1438.255072, -154.021429) " x="1437.60566" y="100.924574" width="1.29887488" height="106.193712"></rect>
                        <rect id="Rectangle-path" transform="translate(1426.278372, 189.763810) rotate(-36.870000) translate(-1426.278372, -189.763810) " x="1425.54548" y="125.197588" width="1.46587308" height="129.132445"></rect>
                        <rect id="Rectangle-path" transform="translate(1408.355925, 190.661763) rotate(-21.620000) translate(-1408.355925, -190.661763) " x="1407.68796" y="134.029447" width="1.33598559" height="113.264632"></rect>
                        <rect id="Rectangle-path" transform="translate(1408.391903, 192.708193) rotate(-20.900000) translate(-1408.391903, -192.708193) " x="1407.70541" y="134.219994" width="1.37309631" height="116.976401"></rect>
                        <rect id="Rectangle-path" transform="translate(1408.391903, 192.708193) rotate(-20.900000) translate(-1408.391903, -192.708193) " x="1407.70541" y="134.219994" width="1.37309631" height="116.976401"></rect>
                        <rect id="Rectangle-path" transform="translate(1338.867841, 185.784985) rotate(-44.420000) translate(-1338.867841, -185.784985) " x="1270.74185" y="185.024081" width="136.251975" height="1.52182531"></rect>
                        <rect id="Rectangle-path" transform="translate(1338.867841, 185.784985) rotate(-44.420000) translate(-1338.867841, -185.784985) " x="1270.74185" y="185.024081" width="136.251975" height="1.52182531"></rect>
                        <rect id="Rectangle-path" transform="translate(1338.867841, 185.784985) rotate(-44.420000) translate(-1338.867841, -185.784985) " x="1270.74185" y="185.024081" width="136.251975" height="1.52182531"></rect>
                        <rect id="Rectangle-path" transform="translate(1240.544128, 384.512093) rotate(-29.780000) translate(-1240.544128, -384.512093) " x="1144.45522" y="383.547033" width="192.177817" height="1.9301199"></rect>
                        <rect id="Rectangle-path" transform="translate(1150.156000, 397.404551) rotate(-11.310000) translate(-1150.156000, -397.404551) " x="1149.64573" y="361.948525" width="1.02054455" height="70.9133475"></rect>
                        <rect id="Rectangle-path" transform="translate(954.490649, 489.793792) rotate(-21.800000) translate(-954.490649, -489.793792) " x="953.75775" y="425.598747" width="1.46587308" height="128.390091"></rect>
                        <rect id="Rectangle-path" transform="translate(966.411710, 453.029909) rotate(-7.050000) translate(-966.411710, -453.029909) " x="965.437554" y="355.939311" width="1.94831233" height="194.181197"></rect>
                        <rect id="Rectangle-path" transform="translate(1040.894901, 531.500538) rotate(-16.000000) translate(-1040.894901, -531.500538) " x="975.821269" y="530.767463" width="130.147263" height="1.46614877"></rect>
                        <rect id="Rectangle-path" transform="translate(1130.230851, 472.800323) rotate(-56.550000) translate(-1130.230851, -472.800323) " x="1081.47649" y="472.187908" width="97.5083931" height="1.22488378"></rect>
                        <rect id="Rectangle-path" transform="translate(1017.087254, 471.913870) rotate(-64.230000) translate(-1017.087254, -471.913870) " x="1016.12238" y="375.946082" width="1.92975697" height="191.935577"></rect>
                        <polygon id="Shape" points="1142.39757 362.417129 1144.01189 362.825423 1104.28487 513.820188 1102.67055 513.411893"></polygon>
                        <rect id="Rectangle-path" transform="translate(980.305817, 146.049262) rotate(-62.280000) translate(-980.305817, -146.049262) " x="890.56284" y="145.130599" width="179.485954" height="1.83732567"></rect>
                        <rect id="Rectangle-path" transform="translate(901.878509, 196.742140) rotate(-51.910000) translate(-901.878509, -196.742140) " x="901.284808" y="150.039381" width="1.18754275" height="93.4066678"></rect>
                        <rect id="Rectangle-path" transform="translate(993.231097, 213.579949) rotate(-12.380000) translate(-993.231097, -213.579949) " x="937.323811" y="212.911842" width="111.814572" height="1.33623685"></rect>
                        <rect id="Rectangle-path" transform="translate(946.554352, 291.099088) rotate(-6.910000) translate(-946.554352, -291.099088) " x="945.812185" y="225.057438" width="1.48442844" height="132.083301"></rect>
                        <polygon id="Shape" points="938.399993 224.747615 938.826766 226.325117 791.83124 266.059605 791.404467 264.482103"></polygon>
                        <rect id="Rectangle-path" transform="translate(885.969219, 243.404282) rotate(-18.860000) translate(-885.969219, -243.404282) " x="830.377373" y="242.736222" width="111.18369" height="1.33623685"></rect>
                        <rect id="Rectangle-path" transform="translate(990.261005, 265.291583) rotate(-52.430000) translate(-990.261005, -265.291583) " x="989.528079" y="200.122198" width="1.46587308" height="130.33877"></rect>
                        <rect id="Rectangle-path" transform="translate(1099.557764, 368.669325) rotate(-42.180000) translate(-1099.557764, -368.669325) " x="1098.66711" y="282.871784" width="1.78131413" height="171.595083"></rect>
                        <rect id="Rectangle-path" transform="translate(1044.883608, 253.336523) rotate(-86.740000) translate(-1044.883608, -253.336523) " x="993.151276" y="252.696291" width="103.464662" height="1.28056032"></rect>
                        <polygon id="Shape" points="1041.25233 304.420738 1042.56976 305.589945 931.330402 430.750797 930.012972 429.58159"></polygon>
                        <rect id="Rectangle-path" transform="translate(1098.528065, 258.305968) rotate(-39.570000) translate(-1098.528065, -258.305968) " x="1025.15091" y="257.50795" width="146.754307" height="1.59606069"></rect>
                        <polygon id="Shape" points="1041.58632 304.457855 1042.21721 305.552827 954.821482 357.202093 954.1906 356.12568"></polygon>
                        <rect id="Rectangle-path" transform="translate(1092.497181, 333.746806) rotate(-60.380000) translate(-1092.497181, -333.746806) " x="1091.81064" y="275.462752" width="1.37309631" height="116.568107"></rect>
                        <rect id="Rectangle-path" transform="translate(611.880362, 484.859942) rotate(-62.350000) translate(-611.880362, -484.859942) " x="611.101043" y="414.206419" width="1.55864986" height="141.307047"></rect>
                        <rect id="Rectangle-path" transform="translate(564.145422, 360.621129) rotate(-80.710000) translate(-564.145422, -360.621129) " x="471.563476" y="359.674627" width="185.163892" height="1.89300221"></rect>
                        <rect id="Rectangle-path" transform="translate(605.918263, 441.043982) rotate(-10.990000) translate(-605.918263, -441.043982) " x="548.257494" y="440.366659" width="115.321534" height="1.3547957"></rect>
                        <rect id="Rectangle-path" transform="translate(817.606257, 507.784016) rotate(-19.350000) translate(-817.606257, -507.784016) " x="817.106266" y="471.808488" width="1" height="71.9526428"></rect>
                        <rect id="Rectangle-path" transform="translate(817.606257, 507.784016) rotate(-19.350000) translate(-817.606257, -507.784016) " x="817.106266" y="471.808488" width="1" height="71.9526428"></rect>
                        <rect id="Rectangle-path" transform="translate(817.606257, 507.784016) rotate(-19.350000) translate(-817.606257, -507.784016) " x="817.106266" y="471.808488" width="1" height="71.9526428"></rect>
                        <rect id="Rectangle-path" transform="translate(860.142175, 521.689039) rotate(-33.090000) translate(-860.142175, -521.689039) " x="823.411836" y="521.067319" width="73.4606524" height="1.24344263"></rect>
                        <rect id="Rectangle-path" transform="translate(848.198838, 487.752504) rotate(-71.970000) translate(-848.198838, -487.752504) " x="847.614423" y="442.831589" width="1.1689874" height="89.8433695"></rect>
                        <rect id="Rectangle-path" transform="translate(848.198838, 487.752504) rotate(-71.970000) translate(-848.198838, -487.752504) " x="847.614423" y="442.831589" width="1.1689874" height="89.8433695"></rect>
                        <rect id="Rectangle-path" transform="translate(848.198838, 487.752504) rotate(-71.970000) translate(-848.198838, -487.752504) " x="847.614423" y="442.831589" width="1.1689874" height="89.8433695"></rect>
                        <rect id="Rectangle-path" transform="translate(742.987022, 545.500547) rotate(-2.500000) translate(-742.987022, -545.500547) " x="656.491233" y="544.693246" width="172.991579" height="1.61461953"></rect>
                        <rect id="Rectangle-path" transform="translate(731.046345, 511.566887) rotate(-26.890000) translate(-731.046345, -511.566887) " x="647.537968" y="510.694634" width="167.016755" height="1.74453145"></rect>
                        <rect id="Rectangle-path" transform="translate(731.046345, 511.566887) rotate(-26.890000) translate(-731.046345, -511.566887) " x="647.537968" y="510.694634" width="167.016755" height="1.74453145"></rect>
                        <rect id="Rectangle-path" transform="translate(731.046345, 511.566887) rotate(-26.890000) translate(-731.046345, -511.566887) " x="647.537968" y="510.694634" width="167.016755" height="1.74453145"></rect>
                        <rect id="Rectangle-path" transform="translate(851.241286, 461.032907) rotate(-44.290000) translate(-851.241286, -461.032907) " x="850.564022" y="404.131488" width="1.35454095" height="113.802839"></rect>
                        <rect id="Rectangle-path" transform="translate(820.410801, 481.032610) rotate(-8.370000) translate(-820.410801, -481.032610) " x="819.900539" y="419.612884" width="1.02054455" height="122.840996"></rect>
                        <rect id="Rectangle-path" transform="translate(808.553031, 447.077398) rotate(-83.660000) translate(-808.553031, -447.077398) " x="781.572048" y="446.577429" width="53.9589737" height="1"></rect>
                        <rect id="Rectangle-path" transform="translate(808.553031, 447.077398) rotate(-83.660000) translate(-808.553031, -447.077398) " x="781.572048" y="446.577429" width="53.9589737" height="1"></rect>
                        <rect id="Rectangle-path" transform="translate(808.553031, 447.077398) rotate(-83.660000) translate(-808.553031, -447.077398) " x="781.572048" y="446.577429" width="53.9589737" height="1"></rect>
                        <rect id="Rectangle-path" transform="translate(635.700772, 96.410605) rotate(-57.930000) translate(-635.700772, -96.410605) " x="634.726616" y="-0.884141172" width="1.94831233" height="194.589492"></rect>
                        <rect id="Rectangle-path" transform="translate(729.122225, 170.920037) rotate(-25.560000) translate(-729.122225, -170.920037) " x="728.622248" y="145.597763" width="1" height="50.6470885"></rect>
                        <rect id="Rectangle-path" transform="translate(954.562233, 5.001808) rotate(-88.150000) translate(-954.562233, -5.001808) " x="953.857131" y="-56.6228372" width="1.41020702" height="123.249291"></rect>
                        <rect id="Rectangle-path" transform="translate(716.109526, 129.119265) rotate(-20.270000) translate(-716.109526, -129.119265) " x="715.34876" y="60.2845082" width="1.52153915" height="137.669514"></rect>
                        <rect id="Rectangle-path" transform="translate(622.769436, 54.682414) rotate(-81.870000) translate(-622.769436, -54.682414) " x="621.999425" y="-15.5628142" width="1.5400945" height="140.490458"></rect>
                        <rect id="Rectangle-path" transform="translate(705.206778, 106.315762) rotate(-17.200000) translate(-705.206778, -106.315762) " x="704.631565" y="62.6377112" width="1.15043204" height="87.3564843"></rect>
                        <rect id="Rectangle-path" transform="translate(778.717196, 71.561534) rotate(-85.400000) translate(-778.717196, -71.561534) " x="777.817263" y="-15.1453903" width="1.79986948" height="173.413849"></rect>
                        <rect id="Rectangle-path" transform="translate(879.044785, 40.768617) rotate(-69.750000) translate(-879.044785, -40.768617) " x="838.824972" y="40.2211754" width="80.437466" height="1.09497187"></rect>
                        <rect id="Rectangle-path" transform="translate(802.565698, 136.160382) rotate(-42.640000) translate(-802.565698, -136.160382) " x="717.517226" y="135.269562" width="170.096944" height="1.78164914"></rect>
                        <rect id="Rectangle-path" transform="translate(940.578386, 42.701042) rotate(-25.350000) translate(-940.578386, -42.701042) " x="857.051453" y="41.8287783" width="167.053865" height="1.74453145"></rect>
                        <rect id="Rectangle-path" transform="translate(791.611279, 113.284816) rotate(-25.320000) translate(-791.611279, -113.284816) " x="710.310989" y="112.431112" width="162.60058" height="1.70741376"></rect>
                        <rect id="Rectangle-path" transform="translate(692.347422, 290.163692) rotate(-17.460000) translate(-692.347422, -290.163692) " x="675.692947" y="289.663707" width="33.3068631" height="1"></rect>
                        <rect id="Rectangle-path" transform="translate(708.230564, 244.457047) rotate(-57.900000) translate(-708.230564, -244.457047) " x="648.426652" y="243.761147" width="119.607821" height="1.39191339"></rect>
                        <rect id="Rectangle-path" transform="translate(697.263830, 221.548687) rotate(-74.140000) translate(-697.263830, -221.548687) " x="620.862154" y="220.722819" width="152.803352" height="1.65173722"></rect>
                        <rect id="Rectangle-path" transform="translate(721.088613, 358.668076) rotate(-35.110000) translate(-721.088613, -358.668076) " x="720.253622" y="280.952912" width="1.66998199" height="155.430328"></rect>
                        <rect id="Rectangle-path" transform="translate(743.930038, 357.603284) rotate(-47.190000) translate(-743.930038, -357.603284) " x="742.992992" y="265.514294" width="1.8740909" height="184.17798"></rect>
                        <rect id="Rectangle-path" transform="translate(459.897837, 60.581859) rotate(-9.630000) translate(-459.897837, -60.581859) " x="365.191303" y="59.6260787" width="189.413069" height="1.91156105"></rect>
                        <rect id="Rectangle-path" transform="translate(461.193917, 95.728936) rotate(-77.347443) translate(-461.193917, -95.728936) " x="460.224802" y="-0.371260662" width="1.9382293" height="192.200394"></rect>
                        <rect id="Rectangle-path" transform="translate(622.777911, 91.413869) rotate(-21.100000) translate(-622.777911, -91.413869) " x="548.259603" y="90.6065597" width="149.036615" height="1.61461953"></rect>
                        <rect id="Rectangle-path" x="552.726929" y="44.7268169" width="1.03909991" height="73.5115858"></rect>
                        <rect id="Rectangle-path" transform="translate(635.641656, 133.124638) rotate(-79.760000) translate(-635.641656, -133.124638) " x="634.769564" y="49.3407311" width="1.74420342" height="167.567813"></rect>
                        <rect id="Rectangle-path" transform="translate(1161.054768, 63.606911) rotate(-80.540000) translate(-1161.054768, -63.606911) " x="1160.21979" y="-14.9434014" width="1.66998199" height="157.100624"></rect>
                        <rect id="Rectangle-path" transform="translate(988.320686, 26.854781) rotate(-75.960000) translate(-988.320686, -26.854781) " x="987.337252" y="-71.4421422" width="1.96686768" height="196.593847"></rect>
                        <rect id="Rectangle-path" transform="translate(1049.899603, 28.880061) rotate(-57.090000) translate(-1049.899603, -28.880061) " x="1049.35222" y="-11.3461065" width="1.09476597" height="80.4525939"></rect>
                        <ellipse id="Oval" cx="1290.20953" cy="233.470272" rx="3.00596759" ry="3.00653292"></ellipse>
                        <ellipse id="Oval" cx="1143.21401" cy="362.621276" rx="3.00596759" ry="3.00653292"></ellipse>
                        <ellipse id="Oval" cx="1290.20953" cy="233.470272" rx="3.00596759" ry="3.00653292"></ellipse>
                        <ellipse id="Oval" cx="1143.21401" cy="362.621276" rx="3.00596759" ry="3.00653292"></ellipse>
                        <ellipse id="Oval" cx="1290.20953" cy="233.470272" rx="3.00596759" ry="3.00653292"></ellipse>
                        <ellipse id="Oval" cx="1143.21401" cy="362.621276" rx="3.00596759" ry="3.00653292"></ellipse>
                        <ellipse id="Oval" cx="1290.20953" cy="233.470272" rx="3.00596759" ry="3.00653292"></ellipse>
                        <ellipse id="Oval" cx="1157.11197" cy="124.214351" rx="3.00596759" ry="3.00653292"></ellipse>
                        <ellipse id="Oval" cx="1290.20953" cy="233.470272" rx="3.00596759" ry="3.00653292"></ellipse>
                        <ellipse id="Oval" cx="1157.11197" cy="124.214351" rx="3.00596759" ry="3.00653292"></ellipse>
                        <ellipse id="Oval" cx="1290.20953" cy="233.470272" rx="3.00596759" ry="3.00653292"></ellipse>
                        <ellipse id="Oval" cx="1157.11197" cy="124.214351" rx="3.00596759" ry="3.00653292"></ellipse>
                        <ellipse id="Oval" cx="833.33957" cy="261.289981" rx="3.00596759" ry="3.00653292"></ellipse>
                        <ellipse id="Oval" cx="791.608576" cy="265.261574" rx="3.00596759" ry="3.00653292"></ellipse>
                        <ellipse id="Oval" cx="791.608576" cy="265.261574" rx="3.00596759" ry="3.00653292"></ellipse>
                        <ellipse id="Oval" cx="954.506041" cy="356.663887" rx="3.00596759" ry="3.00653292"></ellipse>
                        <ellipse id="Oval" cx="833.33957" cy="261.289981" rx="3.00596759" ry="3.00653292"></ellipse>
                        <ellipse id="Oval" cx="954.506041" cy="356.663887" rx="3.00596759" ry="3.00653292"></ellipse>
                        <ellipse id="Oval" cx="1143.21401" cy="362.621276" rx="3.00596759" ry="3.00653292"></ellipse>
                        <ellipse id="Oval" cx="954.506041" cy="356.663887" rx="3.00596759" ry="3.00653292"></ellipse>
                        <ellipse id="Oval" cx="1157.11197" cy="124.214351" rx="3.00596759" ry="3.00653292"></ellipse>
                        <ellipse id="Oval" cx="1155.12654" cy="211.626512" rx="3.00596759" ry="3.00653292"></ellipse>
                        <ellipse id="Oval" cx="1143.21401" cy="362.621276" rx="3.00596759" ry="3.00653292"></ellipse>
                        <ellipse id="Oval" cx="1155.12654" cy="211.626512" rx="3.00596759" ry="3.00653292"></ellipse>
                        <ellipse id="Oval" cx="1290.20953" cy="233.470272" rx="3.00596759" ry="3.00653292"></ellipse>
                        <ellipse id="Oval" cx="1155.12654" cy="211.626512" rx="3.00596759" ry="3.00653292"></ellipse>
                        <ellipse id="Oval" cx="1290.20953" cy="233.470272" rx="3.00596759" ry="3.00653292"></ellipse>
                        <ellipse id="Oval" cx="1155.12654" cy="211.626512" rx="3.00596759" ry="3.00653292"></ellipse>
                        <ellipse id="Oval" cx="1290.20953" cy="233.470272" rx="3.00596759" ry="3.00653292"></ellipse>
                        <ellipse id="Oval" cx="1155.12654" cy="211.626512" rx="3.00596759" ry="3.00653292"></ellipse>
                        <ellipse id="Oval" cx="662.500412" cy="430.175473" rx="3.00596759" ry="3.00653292"></ellipse>
                        <ellipse id="Oval" cx="954.506041" cy="356.663887" rx="3.00596759" ry="3.00653292"></ellipse>
                        <ellipse id="Oval" cx="930.66241" cy="430.175473" rx="3.00596759" ry="3.00653292"></ellipse>
                        <ellipse id="Oval" cx="833.33957" cy="261.289981" rx="3.00596759" ry="3.00653292"></ellipse>
                        <ellipse id="Oval" cx="930.66241" cy="430.175473" rx="3.00596759" ry="3.00653292"></ellipse>
                        <ellipse id="Oval" cx="1155.12654" cy="211.626512" rx="3.00596759" ry="3.00653292"></ellipse>
                        <ellipse id="Oval" cx="1047.85803" cy="201.697529" rx="3.00596759" ry="3.00653292"></ellipse>
                        <ellipse id="Oval" cx="954.506041" cy="356.663887" rx="3.00596759" ry="3.00653292"></ellipse>
                        <ellipse id="Oval" cx="1047.85803" cy="201.697529" rx="3.00596759" ry="3.00653292"></ellipse>
                        <ellipse id="Oval" cx="1157.11197" cy="124.214351" rx="3.00596759" ry="3.00653292"></ellipse>
                        <ellipse id="Oval" cx="1047.85803" cy="201.697529" rx="3.00596759" ry="3.00653292"></ellipse>
                        <ellipse id="Oval" cx="1143.21401" cy="362.621276" rx="3.00596759" ry="3.00653292"></ellipse>
                        <ellipse id="Oval" cx="1047.85803" cy="201.697529" rx="3.00596759" ry="3.00653292"></ellipse>
                        <ellipse id="Oval" cx="579.075534" cy="269.233167" rx="3.00596759" ry="3.00653292"></ellipse>
                        <ellipse id="Oval" cx="662.500412" cy="430.175473" rx="3.00596759" ry="3.00653292"></ellipse>
                        <ellipse id="Oval" cx="579.075534" cy="269.233167" rx="3.00596759" ry="3.00653292"></ellipse>
                        <ellipse id="Oval" cx="930.66241" cy="430.175473" rx="3.00596759" ry="3.00653292"></ellipse>
                        <ellipse id="Oval" cx="769.768922" cy="364.607073" rx="3.00596759" ry="3.00653292"></ellipse>
                        <ellipse id="Oval" cx="954.506041" cy="356.663887" rx="3.00596759" ry="3.00653292"></ellipse>
                        <ellipse id="Oval" cx="769.768922" cy="364.607073" rx="3.00596759" ry="3.00653292"></ellipse>
                        <ellipse id="Oval" cx="662.500412" cy="430.175473" rx="3.00596759" ry="3.00653292"></ellipse>
                        <ellipse id="Oval" cx="769.768922" cy="364.607073" rx="3.00596759" ry="3.00653292"></ellipse>
                        <ellipse id="Oval" cx="791.608576" cy="265.261574" rx="3.00596759" ry="3.00653292"></ellipse>
                        <ellipse id="Oval" cx="769.768922" cy="364.607073" rx="3.00596759" ry="3.00653292"></ellipse>
                        <ellipse id="Oval" cx="833.33957" cy="261.289981" rx="3.00596759" ry="3.00653292"></ellipse>
                        <ellipse id="Oval" cx="769.768922" cy="364.607073" rx="3.00596759" ry="3.00653292"></ellipse>
                        <ellipse id="Oval" cx="579.075534" cy="269.233167" rx="3.00596759" ry="3.00653292"></ellipse>
                        <ellipse id="Oval" cx="662.500412" cy="430.175473" rx="3.00596759" ry="3.00653292"></ellipse>
                        <ellipse id="Oval" cx="1047.85803" cy="201.697529" rx="3.00596759" ry="3.00653292"></ellipse>
                        <ellipse id="Oval" cx="865.124894" cy="167.920431" rx="3.00596759" ry="3.00653292"></ellipse>
                        <ellipse id="Oval" cx="791.608576" cy="265.261574" rx="3.00596759" ry="3.00653292"></ellipse>
                        <ellipse id="Oval" cx="865.124894" cy="167.920431" rx="3.00596759" ry="3.00653292"></ellipse>
                        <ellipse id="Oval" cx="833.33957" cy="261.289981" rx="3.00596759" ry="3.00653292"></ellipse>
                        <ellipse id="Oval" cx="865.124894" cy="167.920431" rx="3.00596759" ry="3.00653292"></ellipse>
                        <ellipse id="Oval" cx="674.41295" cy="517.587633" rx="3.00596759" ry="3.00653292"></ellipse>
                        <ellipse id="Oval" cx="674.41295" cy="517.587633" rx="3.00596759" ry="3.00653292"></ellipse>
                        <ellipse id="Oval" cx="769.768922" cy="364.607073" rx="3.00596759" ry="3.00653292"></ellipse>
                        <ellipse id="Oval" cx="674.41295" cy="517.587633" rx="3.00596759" ry="3.00653292"></ellipse>
                        <ellipse id="Oval" cx="662.500412" cy="430.175473" rx="3.00596759" ry="3.00653292"></ellipse>
                        <ellipse id="Oval" cx="674.41295" cy="517.587633" rx="3.00596759" ry="3.00653292"></ellipse>
                        <ellipse id="Oval" cx="865.124894" cy="167.920431" rx="3.00596759" ry="3.00653292"></ellipse>
                        <ellipse id="Oval" cx="1022.04754" cy="66.5891365" rx="3.00596759" ry="3.00653292"></ellipse>
                        <ellipse id="Oval" cx="1047.85803" cy="201.697529" rx="3.00596759" ry="3.00653292"></ellipse>
                        <ellipse id="Oval" cx="1022.04754" cy="66.5891365" rx="3.00596759" ry="3.00653292"></ellipse>
                        <ellipse id="Oval" cx="1155.12654" cy="211.626512" rx="3.00596759" ry="3.00653292"></ellipse>
                        <ellipse id="Oval" cx="1022.04754" cy="66.5891365" rx="3.00596759" ry="3.00653292"></ellipse>
                        <ellipse id="Oval" cx="1157.11197" cy="124.214351" rx="3.00596759" ry="3.00653292"></ellipse>
                        <ellipse id="Oval" cx="1022.04754" cy="66.5891365" rx="3.00596759" ry="3.00653292"></ellipse>
                        <ellipse id="Oval" cx="563.173594" cy="187.778396" rx="3.00596759" ry="3.00653292"></ellipse>
                        <ellipse id="Oval" cx="684.358621" cy="237.460424" rx="3.00596759" ry="3.00653292"></ellipse>
                        <ellipse id="Oval" cx="563.173594" cy="187.778396" rx="3.00596759" ry="3.00653292"></ellipse>
                        <ellipse id="Oval" cx="563.173594" cy="187.778396" rx="3.00596759" ry="3.00653292"></ellipse>
                        <ellipse id="Oval" cx="579.075534" cy="269.233167" rx="3.00596759" ry="3.00653292"></ellipse>
                        <ellipse id="Oval" cx="563.173594" cy="187.778396" rx="3.00596759" ry="3.00653292"></ellipse>
                        <ellipse id="Oval" cx="563.173594" cy="187.778396" rx="3.00596759" ry="3.00653292"></ellipse>
                        <ellipse id="Oval" cx="563.173594" cy="187.778396" rx="3.00596759" ry="3.00653292"></ellipse>
                        <ellipse id="Oval" cx="684.358621" cy="237.460424" rx="3.00596759" ry="3.00653292"></ellipse>
                        <ellipse id="Oval" cx="563.173594" cy="187.778396" rx="3.00596759" ry="3.00653292"></ellipse>
                        <ellipse id="Oval" cx="563.173594" cy="187.778396" rx="3.00596759" ry="3.00653292"></ellipse>
                        <ellipse id="Oval" cx="579.075534" cy="269.233167" rx="3.00596759" ry="3.00653292"></ellipse>
                        <ellipse id="Oval" cx="563.173594" cy="187.778396" rx="3.00596759" ry="3.00653292"></ellipse>
                        <ellipse id="Oval" cx="563.173594" cy="187.778396" rx="3.00596759" ry="3.00653292"></ellipse>
                        <ellipse id="Oval" cx="1465.01954" cy="241.432017" rx="3.00596759" ry="3.00653292"></ellipse>
                        <ellipse id="Oval" cx="1488.84461" cy="169.906228" rx="3.00596759" ry="3.00653292"></ellipse>
                        <ellipse id="Oval" cx="1429.26337" cy="243.417813" rx="3.00596759" ry="3.00653292"></ellipse>
                        <ellipse id="Oval" cx="1488.84461" cy="169.906228" rx="3.00596759" ry="3.00653292"></ellipse>
                        <ellipse id="Oval" cx="1429.26337" cy="247.389406" rx="3.00596759" ry="3.00653292"></ellipse>
                        <ellipse id="Oval" cx="1488.84461" cy="169.906228" rx="3.00596759" ry="3.00653292"></ellipse>
                        <ellipse id="Oval" cx="1429.26337" cy="247.389406" rx="3.00596759" ry="3.00653292"></ellipse>
                        <ellipse id="Oval" cx="1488.84461" cy="169.906228" rx="3.00596759" ry="3.00653292"></ellipse>
                        <ellipse id="Oval" cx="1155.12654" cy="211.626512" rx="3.00596759" ry="3.00653292"></ellipse>
                        <ellipse id="Oval" cx="1300.13665" cy="90.4372526" rx="3.00596759" ry="3.00653292"></ellipse>
                        <ellipse id="Oval" cx="1157.11197" cy="124.214351" rx="3.00596759" ry="3.00653292"></ellipse>
                        <ellipse id="Oval" cx="1300.13665" cy="90.4372526" rx="3.00596759" ry="3.00653292"></ellipse>
                        <ellipse id="Oval" cx="1290.20953" cy="233.470272" rx="3.00596759" ry="3.00653292"></ellipse>
                        <ellipse id="Oval" cx="1300.13665" cy="90.4372526" rx="3.00596759" ry="3.00653292"></ellipse>
                        <ellipse id="Oval" cx="1290.20953" cy="233.470272" rx="3.00596759" ry="3.00653292"></ellipse>
                        <ellipse id="Oval" cx="1300.13665" cy="90.4372526" rx="3.00596759" ry="3.00653292"></ellipse>
                        <ellipse id="Oval" cx="1290.20953" cy="233.470272" rx="3.00596759" ry="3.00653292"></ellipse>
                        <ellipse id="Oval" cx="1300.13665" cy="90.4372526" rx="3.00596759" ry="3.00653292"></ellipse>
                        <ellipse id="Oval" cx="1488.84461" cy="169.906228" rx="3.00596759" ry="3.00653292"></ellipse>
                        <ellipse id="Oval" cx="1570.28407" cy="96.3946419" rx="3.00596759" ry="3.00653292"></ellipse>
                        <ellipse id="Oval" cx="1465.01954" cy="241.432017" rx="3.00596759" ry="3.00653292"></ellipse>
                        <ellipse id="Oval" cx="1570.28407" cy="96.3946419" rx="3.00596759" ry="3.00653292"></ellipse>
                        <ellipse id="Oval" cx="1465.01954" cy="241.432017" rx="3.00596759" ry="3.00653292"></ellipse>
                        <ellipse id="Oval" cx="1323.98028" cy="336.787364" rx="3.00596759" ry="3.00653292"></ellipse>
                        <ellipse id="Oval" cx="1429.26337" cy="243.417813" rx="3.00596759" ry="3.00653292"></ellipse>
                        <ellipse id="Oval" cx="1323.98028" cy="336.787364" rx="3.00596759" ry="3.00653292"></ellipse>
                        <ellipse id="Oval" cx="1429.26337" cy="247.389406" rx="3.00596759" ry="3.00653292"></ellipse>
                        <ellipse id="Oval" cx="1323.98028" cy="336.787364" rx="3.00596759" ry="3.00653292"></ellipse>
                        <ellipse id="Oval" cx="1429.26337" cy="247.389406" rx="3.00596759" ry="3.00653292"></ellipse>
                        <ellipse id="Oval" cx="1323.98028" cy="336.787364" rx="3.00596759" ry="3.00653292"></ellipse>
                        <ellipse id="Oval" cx="1143.21401" cy="362.621276" rx="3.00596759" ry="3.00653292"></ellipse>
                        <ellipse id="Oval" cx="1323.98028" cy="336.787364" rx="3.00596759" ry="3.00653292"></ellipse>
                        <ellipse id="Oval" cx="1290.20953" cy="233.470272" rx="3.00596759" ry="3.00653292"></ellipse>
                        <ellipse id="Oval" cx="1323.98028" cy="336.787364" rx="3.00596759" ry="3.00653292"></ellipse>
                        <ellipse id="Oval" cx="1290.20953" cy="233.470272" rx="3.00596759" ry="3.00653292"></ellipse>
                        <ellipse id="Oval" cx="1323.98028" cy="336.787364" rx="3.00596759" ry="3.00653292"></ellipse>
                        <ellipse id="Oval" cx="1290.20953" cy="233.470272" rx="3.00596759" ry="3.00653292"></ellipse>
                        <ellipse id="Oval" cx="1323.98028" cy="336.787364" rx="3.00596759" ry="3.00653292"></ellipse>
                        <ellipse id="Oval" cx="1570.28407" cy="96.3946419" rx="3.00596759" ry="3.00653292"></ellipse>
                        <ellipse id="Oval" cx="1387.53237" cy="138.114926" rx="3.00596759" ry="3.00653292"></ellipse>
                        <ellipse id="Oval" cx="1300.13665" cy="90.4372526" rx="3.00596759" ry="3.00653292"></ellipse>
                        <ellipse id="Oval" cx="1387.53237" cy="138.114926" rx="3.00596759" ry="3.00653292"></ellipse>
                        <ellipse id="Oval" cx="1488.84461" cy="169.906228" rx="3.00596759" ry="3.00653292"></ellipse>
                        <ellipse id="Oval" cx="1387.53237" cy="138.114926" rx="3.00596759" ry="3.00653292"></ellipse>
                        <ellipse id="Oval" cx="1465.01954" cy="241.432017" rx="3.00596759" ry="3.00653292"></ellipse>
                        <ellipse id="Oval" cx="1387.53237" cy="138.114926" rx="3.00596759" ry="3.00653292"></ellipse>
                        <ellipse id="Oval" cx="1429.26337" cy="243.417813" rx="3.00596759" ry="3.00653292"></ellipse>
                        <ellipse id="Oval" cx="1387.53237" cy="138.114926" rx="3.00596759" ry="3.00653292"></ellipse>
                        <ellipse id="Oval" cx="1429.26337" cy="247.389406" rx="3.00596759" ry="3.00653292"></ellipse>
                        <ellipse id="Oval" cx="1387.53237" cy="138.114926" rx="3.00596759" ry="3.00653292"></ellipse>
                        <ellipse id="Oval" cx="1429.26337" cy="247.389406" rx="3.00596759" ry="3.00653292"></ellipse>
                        <ellipse id="Oval" cx="1387.53237" cy="138.114926" rx="3.00596759" ry="3.00653292"></ellipse>
                        <ellipse id="Oval" cx="1290.20953" cy="233.470272" rx="3.00596759" ry="3.00653292"></ellipse>
                        <ellipse id="Oval" cx="1387.53237" cy="138.114926" rx="3.00596759" ry="3.00653292"></ellipse>
                        <ellipse id="Oval" cx="1290.20953" cy="233.470272" rx="3.00596759" ry="3.00653292"></ellipse>
                        <ellipse id="Oval" cx="1387.53237" cy="138.114926" rx="3.00596759" ry="3.00653292"></ellipse>
                        <ellipse id="Oval" cx="1290.20953" cy="233.470272" rx="3.00596759" ry="3.00653292"></ellipse>
                        <ellipse id="Oval" cx="1387.53237" cy="138.114926" rx="3.00596759" ry="3.00653292"></ellipse>
                        <ellipse id="Oval" cx="1323.98028" cy="336.787364" rx="3.00596759" ry="3.00653292"></ellipse>
                        <ellipse id="Oval" cx="1157.11197" cy="432.161269" rx="3.00596759" ry="3.00653292"></ellipse>
                        <ellipse id="Oval" cx="1143.21401" cy="362.621276" rx="3.00596759" ry="3.00653292"></ellipse>
                        <ellipse id="Oval" cx="1157.11197" cy="432.161269" rx="3.00596759" ry="3.00653292"></ellipse>
                        <ellipse id="Oval" cx="930.66241" cy="430.175473" rx="3.00596759" ry="3.00653292"></ellipse>
                        <ellipse id="Oval" cx="978.331118" cy="549.378935" rx="3.00596759" ry="3.00653292"></ellipse>
                        <ellipse id="Oval" cx="954.506041" cy="356.663887" rx="3.00596759" ry="3.00653292"></ellipse>
                        <ellipse id="Oval" cx="978.331118" cy="549.378935" rx="3.00596759" ry="3.00653292"></ellipse>
                        <ellipse id="Oval" cx="978.331118" cy="549.378935" rx="3.00596759" ry="3.00653292"></ellipse>
                        <ellipse id="Oval" cx="1103.48699" cy="513.616041" rx="3.00596759" ry="3.00653292"></ellipse>
                        <ellipse id="Oval" cx="1157.11197" cy="432.161269" rx="3.00596759" ry="3.00653292"></ellipse>
                        <ellipse id="Oval" cx="1103.48699" cy="513.616041" rx="3.00596759" ry="3.00653292"></ellipse>
                        <ellipse id="Oval" cx="930.66241" cy="430.175473" rx="3.00596759" ry="3.00653292"></ellipse>
                        <ellipse id="Oval" cx="1103.48699" cy="513.616041" rx="3.00596759" ry="3.00653292"></ellipse>
                        <ellipse id="Oval" cx="1143.21401" cy="362.621276" rx="3.00596759" ry="3.00653292"></ellipse>
                        <ellipse id="Oval" cx="1103.48699" cy="513.616041" rx="3.00596759" ry="3.00653292"></ellipse>
                        <ellipse id="Oval" cx="1022.04754" cy="66.5891365" rx="3.00596759" ry="3.00653292"></ellipse>
                        <ellipse id="Oval" cx="938.622657" cy="225.527087" rx="3.00596759" ry="3.00653292"></ellipse>
                        <ellipse id="Oval" cx="865.124894" cy="167.920431" rx="3.00596759" ry="3.00653292"></ellipse>
                        <ellipse id="Oval" cx="938.622657" cy="225.527087" rx="3.00596759" ry="3.00653292"></ellipse>
                        <ellipse id="Oval" cx="1047.85803" cy="201.697529" rx="3.00596759" ry="3.00653292"></ellipse>
                        <ellipse id="Oval" cx="938.622657" cy="225.527087" rx="3.00596759" ry="3.00653292"></ellipse>
                        <ellipse id="Oval" cx="954.506041" cy="356.663887" rx="3.00596759" ry="3.00653292"></ellipse>
                        <ellipse id="Oval" cx="938.622657" cy="225.527087" rx="3.00596759" ry="3.00653292"></ellipse>
                        <ellipse id="Oval" cx="791.608576" cy="265.261574" rx="3.00596759" ry="3.00653292"></ellipse>
                        <ellipse id="Oval" cx="938.622657" cy="225.527087" rx="3.00596759" ry="3.00653292"></ellipse>
                        <ellipse id="Oval" cx="833.33957" cy="261.289981" rx="3.00596759" ry="3.00653292"></ellipse>
                        <ellipse id="Oval" cx="938.622657" cy="225.527087" rx="3.00596759" ry="3.00653292"></ellipse>
                        <ellipse id="Oval" cx="938.622657" cy="225.527087" rx="3.00596759" ry="3.00653292"></ellipse>
                        <ellipse id="Oval" cx="1041.90177" cy="304.996062" rx="3.00596759" ry="3.00653292"></ellipse>
                        <ellipse id="Oval" cx="1157.11197" cy="432.161269" rx="3.00596759" ry="3.00653292"></ellipse>
                        <ellipse id="Oval" cx="1041.90177" cy="304.996062" rx="3.00596759" ry="3.00653292"></ellipse>
                        <ellipse id="Oval" cx="1047.85803" cy="201.697529" rx="3.00596759" ry="3.00653292"></ellipse>
                        <ellipse id="Oval" cx="1041.90177" cy="304.996062" rx="3.00596759" ry="3.00653292"></ellipse>
                        <ellipse id="Oval" cx="930.66241" cy="430.175473" rx="3.00596759" ry="3.00653292"></ellipse>
                        <ellipse id="Oval" cx="1041.90177" cy="304.996062" rx="3.00596759" ry="3.00653292"></ellipse>
                        <ellipse id="Oval" cx="1155.12654" cy="211.626512" rx="3.00596759" ry="3.00653292"></ellipse>
                        <ellipse id="Oval" cx="1041.90177" cy="304.996062" rx="3.00596759" ry="3.00653292"></ellipse>
                        <ellipse id="Oval" cx="954.506041" cy="356.663887" rx="3.00596759" ry="3.00653292"></ellipse>
                        <ellipse id="Oval" cx="1041.90177" cy="304.996062" rx="3.00596759" ry="3.00653292"></ellipse>
                        <ellipse id="Oval" cx="1143.21401" cy="362.621276" rx="3.00596759" ry="3.00653292"></ellipse>
                        <ellipse id="Oval" cx="1041.90177" cy="304.996062" rx="3.00596759" ry="3.00653292"></ellipse>
                        <ellipse id="Oval" cx="674.41295" cy="517.587633" rx="3.00596759" ry="3.00653292"></ellipse>
                        <ellipse id="Oval" cx="579.075534" cy="269.233167" rx="3.00596759" ry="3.00653292"></ellipse>
                        <ellipse id="Oval" cx="662.500412" cy="430.175473" rx="3.00596759" ry="3.00653292"></ellipse>
                        <ellipse id="Oval" cx="805.525092" cy="473.881553" rx="3.00596759" ry="3.00653292"></ellipse>
                        <ellipse id="Oval" cx="829.368724" cy="541.769809" rx="3.00596759" ry="3.00653292"></ellipse>
                        <ellipse id="Oval" cx="805.525092" cy="473.881553" rx="3.00596759" ry="3.00653292"></ellipse>
                        <ellipse id="Oval" cx="829.368724" cy="541.769809" rx="3.00596759" ry="3.00653292"></ellipse>
                        <ellipse id="Oval" cx="805.525092" cy="473.881553" rx="3.00596759" ry="3.00653292"></ellipse>
                        <ellipse id="Oval" cx="829.368724" cy="541.769809" rx="3.00596759" ry="3.00653292"></ellipse>
                        <ellipse id="Oval" cx="829.368724" cy="541.769809" rx="3.00596759" ry="3.00653292"></ellipse>
                        <ellipse id="Oval" cx="890.935393" cy="501.701262" rx="3.00596759" ry="3.00653292"></ellipse>
                        <ellipse id="Oval" cx="805.525092" cy="473.881553" rx="3.00596759" ry="3.00653292"></ellipse>
                        <ellipse id="Oval" cx="890.935393" cy="501.701262" rx="3.00596759" ry="3.00653292"></ellipse>
                        <ellipse id="Oval" cx="805.525092" cy="473.881553" rx="3.00596759" ry="3.00653292"></ellipse>
                        <ellipse id="Oval" cx="890.935393" cy="501.701262" rx="3.00596759" ry="3.00653292"></ellipse>
                        <ellipse id="Oval" cx="805.525092" cy="473.881553" rx="3.00596759" ry="3.00653292"></ellipse>
                        <ellipse id="Oval" cx="890.935393" cy="501.701262" rx="3.00596759" ry="3.00653292"></ellipse>
                        <ellipse id="Oval" cx="829.368724" cy="541.769809" rx="3.00596759" ry="3.00653292"></ellipse>
                        <ellipse id="Oval" cx="805.525092" cy="473.881553" rx="3.00596759" ry="3.00653292"></ellipse>
                        <ellipse id="Oval" cx="805.525092" cy="473.881553" rx="3.00596759" ry="3.00653292"></ellipse>
                        <ellipse id="Oval" cx="805.525092" cy="473.881553" rx="3.00596759" ry="3.00653292"></ellipse>
                        <ellipse id="Oval" cx="890.935393" cy="501.701262" rx="3.00596759" ry="3.00653292"></ellipse>
                        <ellipse id="Oval" cx="811.481361" cy="420.24649" rx="3.00596759" ry="3.00653292"></ellipse>
                        <ellipse id="Oval" cx="829.368724" cy="541.769809" rx="3.00596759" ry="3.00653292"></ellipse>
                        <ellipse id="Oval" cx="811.481361" cy="420.24649" rx="3.00596759" ry="3.00653292"></ellipse>
                        <ellipse id="Oval" cx="805.525092" cy="473.881553" rx="3.00596759" ry="3.00653292"></ellipse>
                        <ellipse id="Oval" cx="811.481361" cy="420.24649" rx="3.00596759" ry="3.00653292"></ellipse>
                        <ellipse id="Oval" cx="805.525092" cy="473.881553" rx="3.00596759" ry="3.00653292"></ellipse>
                        <ellipse id="Oval" cx="811.481361" cy="420.24649" rx="3.00596759" ry="3.00653292"></ellipse>
                        <ellipse id="Oval" cx="805.525092" cy="473.881553" rx="3.00596759" ry="3.00653292"></ellipse>
                        <ellipse id="Oval" cx="811.481361" cy="420.24649" rx="3.00596759" ry="3.00653292"></ellipse>
                        <ellipse id="Oval" cx="718.110812" cy="148.043908" rx="3.00596759" ry="3.00653292"></ellipse>
                        <ellipse id="Oval" cx="553.246479" cy="44.7268169" rx="3.00596759" ry="3.00653292"></ellipse>
                        <ellipse id="Oval" cx="718.110812" cy="148.043908" rx="3.00596759" ry="3.00653292"></ellipse>
                        <ellipse id="Oval" cx="739.969021" cy="193.735785" rx="3.00596759" ry="3.00653292"></ellipse>
                        <ellipse id="Oval" cx="1016.09127" cy="6.97812579" rx="3.00596759" ry="3.00653292"></ellipse>
                        <ellipse id="Oval" cx="892.920816" cy="3.00653292" rx="3.00596759" ry="3.00653292"></ellipse>
                        <ellipse id="Oval" cx="739.969021" cy="193.735785" rx="3.00596759" ry="3.00653292"></ellipse>
                        <ellipse id="Oval" cx="692.300313" cy="64.6033401" rx="3.00596759" ry="3.00653292"></ellipse>
                        <ellipse id="Oval" cx="553.246479" cy="44.7268169" rx="3.00596759" ry="3.00653292"></ellipse>
                        <ellipse id="Oval" cx="692.300313" cy="64.6033401" rx="3.00596759" ry="3.00653292"></ellipse>
                        <ellipse id="Oval" cx="718.110812" cy="148.043908" rx="3.00596759" ry="3.00653292"></ellipse>
                        <ellipse id="Oval" cx="692.300313" cy="64.6033401" rx="3.00596759" ry="3.00653292"></ellipse>
                        <ellipse id="Oval" cx="692.300313" cy="64.6033401" rx="3.00596759" ry="3.00653292"></ellipse>
                        <ellipse id="Oval" cx="865.124894" cy="78.5039151" rx="3.00596759" ry="3.00653292"></ellipse>
                        <ellipse id="Oval" cx="892.920816" cy="3.00653292" rx="3.00596759" ry="3.00653292"></ellipse>
                        <ellipse id="Oval" cx="865.124894" cy="78.5039151" rx="3.00596759" ry="3.00653292"></ellipse>
                        <ellipse id="Oval" cx="739.969021" cy="193.735785" rx="3.00596759" ry="3.00653292"></ellipse>
                        <ellipse id="Oval" cx="865.124894" cy="78.5039151" rx="3.00596759" ry="3.00653292"></ellipse>
                        <ellipse id="Oval" cx="1016.09127" cy="6.97812579" rx="3.00596759" ry="3.00653292"></ellipse>
                        <ellipse id="Oval" cx="865.124894" cy="78.5039151" rx="3.00596759" ry="3.00653292"></ellipse>
                        <ellipse id="Oval" cx="718.110812" cy="148.043908" rx="3.00596759" ry="3.00653292"></ellipse>
                        <ellipse id="Oval" cx="865.124894" cy="78.5039151" rx="3.00596759" ry="3.00653292"></ellipse>
                        <ellipse id="Oval" cx="708.183697" cy="285.138097" rx="3.00596759" ry="3.00653292"></ellipse>
                        <ellipse id="Oval" cx="676.398373" cy="295.06708" rx="3.00596759" ry="3.00653292"></ellipse>
                        <ellipse id="Oval" cx="739.969021" cy="193.735785" rx="3.00596759" ry="3.00653292"></ellipse>
                        <ellipse id="Oval" cx="676.398373" cy="295.06708" rx="3.00596759" ry="3.00653292"></ellipse>
                        <ellipse id="Oval" cx="718.110812" cy="148.043908" rx="3.00596759" ry="3.00653292"></ellipse>
                        <ellipse id="Oval" cx="676.398373" cy="295.06708" rx="3.00596759" ry="3.00653292"></ellipse>
                        <ellipse id="Oval" cx="765.798076" cy="422.232287" rx="3.00596759" ry="3.00653292"></ellipse>
                        <ellipse id="Oval" cx="676.398373" cy="295.06708" rx="3.00596759" ry="3.00653292"></ellipse>
                        <ellipse id="Oval" cx="811.481361" cy="420.24649" rx="3.00596759" ry="3.00653292"></ellipse>
                        <ellipse id="Oval" cx="676.398373" cy="295.06708" rx="3.00596759" ry="3.00653292"></ellipse>
                        <ellipse id="Oval" cx="553.246479" cy="44.7268169" rx="3.00596759" ry="3.00653292"></ellipse>
                        <ellipse id="Oval" cx="553.246479" cy="118.238403" rx="3.00596759" ry="3.00653292"></ellipse>
                        <ellipse id="Oval" cx="692.300313" cy="64.6033401" rx="3.00596759" ry="3.00653292"></ellipse>
                        <ellipse id="Oval" cx="553.246479" cy="118.238403" rx="3.00596759" ry="3.00653292"></ellipse>
                        <ellipse id="Oval" cx="553.246479" cy="44.7268169" rx="3.00596759" ry="3.00653292"></ellipse>
                        <ellipse id="Oval" cx="553.246479" cy="118.238403" rx="3.00596759" ry="3.00653292"></ellipse>
                        <ellipse id="Oval" cx="718.110812" cy="148.043908" rx="3.00596759" ry="3.00653292"></ellipse>
                        <ellipse id="Oval" cx="553.246479" cy="118.238403" rx="3.00596759" ry="3.00653292"></ellipse>
                        <ellipse id="Oval" cx="1238.56998" cy="76.5181187" rx="3.00596759" ry="3.00653292"></ellipse>
                        <ellipse id="Oval" cx="1083.6142" cy="50.702765" rx="3.00596759" ry="3.00653292"></ellipse>
                        <ellipse id="Oval" cx="892.920816" cy="3.00653292" rx="3.00596759" ry="3.00653292"></ellipse>
                        <ellipse id="Oval" cx="1083.6142" cy="50.702765" rx="3.00596759" ry="3.00653292"></ellipse>
                        <ellipse id="Oval" cx="1016.09127" cy="6.97812579" rx="3.00596759" ry="3.00653292"></ellipse>
                        <ellipse id="Oval" cx="1083.6142" cy="50.702765" rx="3.00596759" ry="3.00653292"></ellipse>
                    </g>
                </g>
            </g>
        </g>
    </g>
</svg>