<?xml version="1.0" encoding="UTF-8"?>
<svg width="142px" height="72px" viewBox="0 0 142 72" version="1.1" xmlns="http://www.w3.org/2000/svg" xmlns:xlink="http://www.w3.org/1999/xlink">
    <!-- Generator: Sketch 50.2 (55047) - http://www.bohemiancoding.com/sketch -->
    <title>Combined Shape</title>
    <desc>Created with Sketch.</desc>
    <defs></defs>
    <g id="Page-1" stroke="none" stroke-width="1" fill="none" fill-rule="evenodd">
        <g id="main-v6-slide-1" transform="translate(-1356.000000, -4469.000000)" fill="#D1F0FF">
            <g id="Footer" transform="translate(276.000000, 4427.000000)">
                <path d="M1080,42 L1222,42 L1222,114 L1080,114 L1080,42 Z M1153.64286,95.5702351 C1154.48405,95.5702351 1155.31721,95.5661879 1156.14151,95.5581325 L1163.74234,102.781765 C1165.47271,104.426265 1168.25401,104.402875 1169.95454,102.729521 C1170.76189,101.935074 1171.21429,100.865762 1171.21429,99.7518888 L1171.21429,94.8698425 C1171.86153,94.8112417 1172.49165,94.7492394 1173.10366,94.6839447 C1176.51112,94.3204193 1179.20151,91.7190783 1179.57796,88.4239449 C1179.86021,85.9534137 1180,82.6747305 1180,78.5777946 C1180,74.7350873 1179.87693,71.3791422 1179.62996,68.5075491 C1179.30398,64.7172108 1176.77116,61.4675364 1173.15195,60.0977701 C1172.39887,59.8127505 1171.54944,60.1720744 1171.25471,60.9003426 C1170.95998,61.6286109 1171.33155,62.450043 1172.08463,62.7350626 C1174.66916,63.7132303 1176.47862,66.0348132 1176.71147,68.7422807 C1176.95117,71.5293879 1177.07143,74.8086967 1177.07143,78.5777946 C1177.07143,82.5795172 1176.93577,85.7612697 1176.6671,88.1129512 C1176.44123,90.0900317 1174.827,91.6508348 1172.78252,91.8689501 C1171.78124,91.9757755 1170.72832,92.0737291 1169.62856,92.1622406 C1168.86956,92.2233263 1168.28571,92.8368753 1168.28571,93.5733986 L1168.28571,99.7518888 C1168.28571,100.12318 1168.13492,100.479617 1167.8658,100.744433 C1167.29896,101.302218 1166.37186,101.310014 1165.79507,100.761847 L1157.76001,93.1255304 C1157.48159,92.8609277 1157.10544,92.7147866 1156.71511,92.7195657 C1155.70465,92.7319374 1154.68003,92.7381617 1153.64286,92.7381617 C1152.29516,92.7381617 1151.16599,92.737655 1148.9578,92.7362925 C1144.41144,92.7334874 1142.65007,92.7334874 1140.46105,92.7381651 C1139.65235,92.7398932 1138.99822,93.3752738 1139,94.1573274 C1139.00179,94.939381 1139.65882,95.5719597 1140.46752,95.5702317 C1142.65272,95.565562 1144.41253,95.565562 1148.95593,95.5683654 C1151.16472,95.5697282 1152.29435,95.5702351 1153.64286,95.5702351 Z M1123.67207,88.7347434 C1124.26579,88.7998579 1124.87509,88.8611289 1125.5,88.9185615 L1125.5,93.7750527 C1125.5,94.8828522 1125.93768,95.9463338 1126.71878,96.7364486 C1128.36401,98.4006783 1131.05486,98.423941 1132.72896,96.7884073 L1140.13017,89.5576853 C1140.82859,89.5630186 1141.53805,89.565685 1142.25855,89.565685 C1149.67799,89.565685 1156.02825,89.282983 1161.31341,88.7160349 C1164.61882,88.361457 1167.23138,85.7693087 1167.59444,82.4840683 C1167.86566,80.029948 1168,76.777363 1168,72.7164157 C1168,68.8988509 1167.88119,65.5643353 1167.64278,62.7104812 C1167.24333,57.9288814 1163.43888,54.1276092 1158.63102,53.7062423 C1153.25866,53.2354074 1147.85106,53 1142.40832,53 C1136.99572,53 1131.64781,53.2328082 1126.36472,53.6984765 C1121.55939,54.1220323 1117.75785,57.9218405 1117.358,62.7010787 C1117.11907,65.5570158 1117,68.8946617 1117,72.7164157 C1117,76.791012 1117.13525,80.0518173 1117.40831,82.5088773 C1117.77252,85.7860432 1120.37542,88.3731997 1123.67207,88.7347434 Z M1124,80 L1124,65 L1125.80145,65 L1125.80145,78.3833561 L1132,78.3833561 L1132,80 L1124,80 Z M1135,80 L1135,69 L1137,69 L1137,80 L1135,80 Z M1136.5,68 C1135.64286,68 1135,67.3644068 1135,66.5 C1135,65.559322 1135.64286,65 1136.5,65 C1137.35714,65 1138,65.559322 1138,66.5 C1138,67.3644068 1137.35714,68 1136.5,68 Z M1141,80 L1141,69.2764811 L1142.5553,69.2764811 L1142.7212,70.8168761 L1142.78341,70.8168761 C1143.86175,69.8096948 1145.02304,69 1146.5576,69 C1148.92166,69 1150,70.4614004 1150,73.2064632 L1150,80 L1148.1129,80 L1148.1129,73.443447 C1148.1129,71.4290844 1147.47005,70.5798923 1145.97696,70.5798923 C1144.81567,70.5798923 1144.02765,71.1328546 1142.8871,72.2190305 L1142.8871,80 L1141,80 Z M1158.07592,81 C1155.26464,81 1153,78.7894737 1153,75.0210526 C1153,71.3157895 1155.32321,69 1157.78308,69 C1160.47722,69 1162,71.1052632 1162,74.3684211 C1162,74.7894737 1161.96095,75.1894737 1161.92191,75.4631579 L1154.77657,75.4631579 C1154.89371,77.9052632 1156.27983,79.4631579 1158.29067,79.4631579 C1159.32538,79.4631579 1160.16486,79.1263158 1160.94577,78.5578947 L1161.59002,79.8210526 C1160.65293,80.4736842 1159.52061,81 1158.07592,81 Z M1154.5,74 L1160.5,74 C1160.5,72.0473373 1159.46907,71 1157.71649,71 C1156.12887,71 1154.7268,72.1005917 1154.5,74 Z" id="Combined-Shape"></path>
            </g>
        </g>
    </g>
</svg>