<?xml version="1.0" encoding="UTF-8"?>
<svg width="1920px" height="795px" viewBox="0 0 1920 795" version="1.1" xmlns="http://www.w3.org/2000/svg" xmlns:xlink="http://www.w3.org/1999/xlink">
    <!-- Generator: Sketch 50.2 (55047) - http://www.bohemiancoding.com/sketch -->
    <title>bg-v10</title>
    <desc>Created with Sketch.</desc>
    <defs></defs>
    <g id="Page-1" stroke="none" stroke-width="1" fill="none" fill-rule="evenodd" opacity="0.149999991">
        <g id="main-v6-slide-1" transform="translate(0.000000, -3586.000000)" fill="#00A2FF" fill-rule="nonzero">
            <g id="6-section---contact-us" transform="translate(-482.000000, 3586.000000)">
                <g id="bg-v10">
                    <path d="M2784.48342,122.479816 C2782.63775,122.453647 2780.89041,123.311195 2779.78008,124.78809 L2728.04328,89.033405 C2728.63183,88.1361639 2728.95769,87.091751 2728.98395,86.0185172 C2728.98395,82.7403977 2726.33069,80.0829568 2723.05773,80.0829568 C2719.78477,80.0829568 2717.13152,82.7403977 2717.13152,86.0185172 C2717.11987,86.238198 2717.11987,86.4583431 2717.13152,86.6780239 L2441.60954,154.512999 C2440.71487,152.2811 2438.55493,150.818467 2436.15366,150.818467 C2433.75238,150.818467 2431.59244,152.2811 2430.69778,154.512999 L2282.35426,106.086364 C2282.48058,105.672706 2282.55948,105.245991 2282.58943,104.814458 C2282.31633,101.75325 2279.75529,99.4071548 2276.68673,99.4071548 C2273.61816,99.4071548 2271.05713,101.75325 2270.78403,104.814458 C2270.8087,105.327516 2270.90365,105.834743 2271.06623,106.321902 L2075.03079,182.165173 C2073.95199,179.973538 2071.6164,178.695301 2069.19217,178.969776 C2066.76795,179.244251 2064.77619,181.012437 2064.21309,183.389971 L1835.81864,150.414636 C1835.81864,150.414636 1835.81864,150.414636 1835.81864,150.414636 C1835.81864,147.136517 1833.16538,144.479076 1829.89242,144.479076 C1826.61946,144.479076 1823.9662,147.136517 1823.9662,150.414636 C1823.98707,151.467202 1824.29619,152.493807 1824.85984,153.382416 L1688.60392,251.601807 C1687.20774,249.974747 1685.02821,249.253542 1682.93905,249.727304 C1680.84989,250.201067 1679.1931,251.792245 1678.63283,253.862973 L1473.80213,218.202504 C1473.80213,218.202504 1473.80213,217.966965 1473.80213,217.825643 C1473.75464,214.673899 1471.25576,212.109022 1468.11108,211.984298 C1465.33687,211.998988 1462.95695,213.968964 1462.42004,216.69506 L1201.29029,203.175172 C1201.18523,200.916837 1199.77832,198.925945 1197.68675,198.075851 C1195.59517,197.225758 1193.20095,197.671731 1191.55437,199.218132 L969.932728,9.09177098 C970.580323,8.16465742 970.940275,7.06671097 970.967464,5.93556033 C970.967464,2.65744088 968.314207,2.00726925e-16 965.041248,0 C961.76829,-2.00726925e-16 959.115033,2.65744088 959.115033,5.93556033 C959.088602,6.26478235 959.088602,6.59559836 959.115033,6.92482039 L675.550333,97.5127769 C674.407549,94.9663194 671.636471,93.5736435 668.915109,94.178077 C666.193748,94.7825104 664.270232,97.2178885 664.309337,100.009481 C664.32851,100.96887 664.587222,101.908181 665.061872,102.741723 L447.579176,256.218354 C446.125679,254.695245 443.971302,254.064489 441.927579,254.563685 C439.883856,255.062881 438.261277,256.616189 437.671052,258.638494 C437.080826,260.660799 437.612623,262.844864 439.06612,264.367973 L272.238455,481.063033 C271.364843,480.506675 270.357223,480.197401 269.322381,480.167988 C267.750587,480.192778 266.253026,480.842032 265.159244,481.972878 C264.065461,483.103724 263.465086,484.623497 263.490233,486.197763 C263.516634,486.710616 263.611546,487.21761 263.772433,487.705207 L11.0616794,591.624621 C10.0513377,589.753825 8.10558282,588.580922 5.98206624,588.562625 C3.3006297,588.537557 0.936514699,590.319025 0.217528483,592.906467 C-0.501457732,595.493908 0.603867486,598.242491 2.91269727,599.608472 C5.22152705,600.974453 8.15846478,600.617408 10.0739768,598.737871 L132.878328,704.164729 C132.147042,705.129144 131.735835,706.298813 131.702492,707.50937 C131.702492,710.787489 134.355749,713.44493 137.628707,713.44493 C139.752224,713.426634 141.697978,712.253731 142.70832,710.382935 L353.041931,799.887416 C352.85273,800.418048 352.741818,800.973484 352.712697,801.536183 C352.513026,803.774335 353.592381,805.933533 355.501161,807.114371 C357.409942,808.29521 359.820849,808.29521 361.72963,807.114371 C363.63841,805.933533 364.717765,803.774335 364.518094,801.536183 C364.49117,800.592829 364.232716,799.670633 363.765559,798.851048 L556.320524,668.928228 C557.789737,670.714858 560.179616,671.454323 562.398949,670.808984 C564.618282,670.163645 566.241239,668.257327 566.526784,665.960448 L832.359872,670.67121 C832.588122,673.168032 834.393862,675.234555 836.834509,675.792072 C839.275156,676.349588 841.796935,675.271599 843.083499,673.120806 L1086.48163,786.179098 C1086.26159,786.751847 1086.13456,787.356197 1086.10536,787.969188 C1085.90569,790.20734 1086.98505,792.366538 1088.89383,793.547376 C1090.80261,794.728214 1093.21351,794.728214 1095.12229,793.547376 C1097.03108,792.366538 1098.11043,790.20734 1097.91076,787.969188 C1097.90925,787.105393 1097.71649,786.252685 1097.34636,785.472484 L1195.31704,729.979705 C1196.34997,731.593482 1198.10769,732.596964 1200.02039,732.66484 C1202.49313,732.650306 1204.69249,731.087614 1205.5233,728.754907 L1429.40255,781.98652 C1429.38976,782.221884 1429.38976,782.45777 1429.40255,782.693134 C1429.20288,784.931287 1430.28223,787.090485 1432.19101,788.271323 C1434.0998,789.452161 1436.5107,789.452161 1438.41948,788.271323 C1440.32826,787.090485 1441.40762,784.931287 1441.20795,782.693134 C1441.17396,781.599539 1440.83152,780.537932 1440.22024,779.631139 L1647.40261,612.728835 C1648.7688,614.048636 1650.68714,614.626612 1652.55359,614.280774 C1654.42004,613.934936 1656.00496,612.707836 1656.80931,610.985853 L1890.23634,687.441523 C1890.19591,687.817296 1890.19591,688.196333 1890.23634,688.572106 C1890.50944,691.633314 1893.07048,693.979409 1896.13904,693.979409 C1899.20761,693.979409 1901.76864,691.633314 1902.04174,688.572106 C1902.02175,687.285878 1901.57497,686.042885 1900.77184,685.039034 L2038.01546,556.435227 C2039.07372,557.39319 2040.44582,557.929487 2041.8722,557.942671 C2045.14516,557.942671 2047.79842,555.28523 2047.79842,552.007111 C2047.79278,551.087673 2047.56697,550.18301 2047.13995,549.369084 L2258.13203,409.836309 C2259.22481,411.189159 2260.8629,411.983592 2262.60021,412.003259 C2265.03973,412.012614 2267.23158,410.512049 2268.10873,408.232059 C2268.98587,405.952068 2268.36606,403.366403 2266.55102,401.733798 L2311.0917,341.200504 L2548.56361,285.707725 C2549.51619,288.444345 2552.3153,290.079848 2555.1626,289.563475 C2558.0099,289.047101 2560.05871,286.5324 2559.99274,283.63499 C2559.969,282.712167 2559.72723,281.808118 2559.28724,280.996963 L2779.78008,132.183986 C2780.88033,133.489102 2782.49581,134.246478 2784.20122,134.256722 C2786.46917,134.59486 2788.72837,133.592277 2790.00189,131.682511 C2791.27541,129.772745 2791.3347,127.298531 2790.15412,125.329774 C2788.97354,123.361017 2786.76496,122.251038 2784.48342,122.479816 Z M11.6260808,592.990742 L264.242768,489.071328 C264.624948,489.745934 265.136431,490.338268 265.747839,490.81431 L140.074447,701.903563 C137.887024,700.889274 135.300917,701.339741 133.58383,703.034146 L10.7324452,597.842827 C11.8656447,596.553241 12.2080901,594.748054 11.6260808,593.132064 L11.6260808,592.990742 Z M2045.49378,547.720317 C2044.81607,547.133822 2044.01069,546.714366 2043.14211,546.495519 L2062.66099,402.204874 C2064.59883,401.386484 2065.94668,399.586524 2066.1885,397.494112 L2208.7469,404.136286 L2045.49378,547.720317 Z M1435.18767,776.898897 C1434.56006,776.925561 1433.94077,777.052794 1433.35336,777.275758 L1320.75527,538.204578 C1322.40246,537.191866 1323.44174,535.427601 1323.53024,533.493815 L1467.02931,524.778905 C1467.3819,527.051391 1469.04296,528.899933 1471.26233,529.489668 L1435.32877,776.946004 L1435.18767,776.898897 Z M1200.02039,720.369751 C1198.98555,720.399164 1197.97793,720.708438 1197.10432,721.264795 L1053.60524,528.123547 C1054.53053,527.213017 1055.12635,526.019515 1055.29845,524.731798 L1311.72485,533.729354 C1311.86845,535.352672 1312.68796,536.84037 1313.98245,537.827717 L1202.51316,720.935042 C1201.76025,720.591096 1200.94198,720.414326 1200.11446,720.416858 L1200.02039,720.369751 Z M141.20325,702.892823 L266.876641,491.61514 C268.254961,492.223944 269.8254,492.223944 271.203719,491.61514 L327.643865,617.533813 C325.749473,618.582326 324.590626,620.595371 324.633724,622.762759 C324.662919,623.375749 324.78995,623.9801 325.009992,624.552848 L142.896454,704.635805 C142.457145,703.944835 141.880839,703.351587 141.20325,702.892823 Z M447.720276,263.802681 L612.008135,375.165099 C611.544509,375.986159 611.286306,376.907461 611.255599,377.850233 L469.120498,387.931264 C468.702219,385.075501 466.264157,382.953845 463.382417,382.937857 L462.959116,382.937857 L444.569035,265.828309 C445.816044,265.525018 446.92556,264.811818 447.720276,263.802681 Z M965.088282,11.6826902 L978.39875,207.273535 C975.676946,207.811296 973.710072,210.194967 973.695404,212.973558 C973.695404,212.973558 973.695404,212.973558 973.695404,213.209096 L838.897522,230.827346 C838.618647,229.455373 837.849314,228.23255 836.733983,227.38849 L962.689576,11.3529368 C963.375477,11.6425769 964.10906,11.802303 964.853115,11.824013 L965.088282,11.6826902 Z M1189.9082,204.447078 C1189.94125,204.943719 1190.03604,205.434289 1190.1904,205.907414 L1100.2154,259.091919 L984.7953,214.622324 C984.824092,214.27747 984.824092,213.930811 984.7953,213.585957 L1189.9082,204.447078 Z M2272.5713,109.007037 C2273.43058,109.81155 2274.51267,110.337026 2275.67551,110.51448 L2264.81078,342.896378 L2124.60405,228.613288 L2272.5713,109.007037 Z M2440.90403,160.495667 C2441.70537,159.570245 2442.19861,158.417552 2442.31504,157.198134 L2642.30129,157.198134 C2642.30129,157.198134 2642.30129,157.198134 2642.30129,157.480779 L2479.84774,202.562773 L2440.90403,160.495667 Z M2642.63052,158.799793 C2642.98918,159.636198 2643.53655,160.377934 2644.22966,160.966743 L2557.1237,278.735797 C2555.11267,277.3215 2552.39916,277.45739 2550.53902,279.065551 L2480.92951,203.693356 L2642.63052,158.799793 Z M2645.07626,161.532035 C2645.98666,162.127617 2647.04623,162.454151 2648.13344,162.474187 C2651.4064,162.474187 2654.05965,159.816746 2654.05965,156.538627 C2654.07389,156.303305 2654.07389,156.067335 2654.05965,155.832012 L2664.64218,153.617954 L2564.50795,270.444856 L2645.07626,161.532035 Z M2653.68339,154.936968 C2653.69243,154.764358 2653.69243,154.591393 2653.68339,154.418784 L2670.8506,146.316273 L2665.58285,152.440264 L2653.68339,154.936968 Z M2396.88072,222.018221 C2395.43844,221.209072 2393.7059,221.104956 2392.17738,221.735575 L2427.7817,170.670913 L2396.88072,222.018221 Z M2388.32063,227.105844 C2388.34141,228.473549 2388.84076,229.790576 2389.73164,230.827346 L2376.186,244.394341 L2388.32063,227.105844 Z M2397.72732,222.395082 L2434.03715,161.767573 C2436.02093,162.898466 2438.49792,162.67293 2440.24557,161.202281 L2478.76597,202.986742 L2399.74976,224.986001 C2399.27863,223.938831 2398.50972,223.054012 2397.53919,222.44219 L2397.72732,222.395082 Z M2722.7285,121.01948 L2675.17767,143.442708 L2691.49828,124.599659 L2722.5874,120.595511 C2722.56487,120.751775 2722.54918,120.908951 2722.54036,121.066588 L2722.7285,121.01948 Z M2722.3052,118.852529 L2692.95632,122.621139 L2720.28276,90.6821717 C2721.22938,91.365408 2722.36147,91.7433667 2723.52807,91.765647 L2724.04543,91.765647 L2727.10261,113.199615 C2724.23268,113.597384 2722.08941,116.044963 2722.07003,118.946745 L2722.3052,118.852529 Z M2690.93388,122.903785 L2683.69073,123.845937 L2716.61415,93.131768 L2690.93388,122.903785 Z M2689.47584,124.599659 L2672.16753,144.808829 L2653.35415,153.665062 C2653.19538,153.363877 2653.00626,153.079752 2652.78975,152.817125 L2681.80939,125.588919 L2689.47584,124.599659 Z M2652.27238,152.204726 C2650.66039,150.648121 2648.29629,150.163016 2646.20301,150.959312 C2644.10974,151.755609 2642.66324,153.69029 2642.48942,155.926228 L2447.30058,155.926228 L2680.39839,125.77735 L2652.27238,152.204726 Z M2389.9668,222.065329 L2385.54566,217.354566 L2427.3584,168.268425 L2389.9668,222.065329 Z M2389.35537,222.960373 L2369.97758,250.800978 L2282.54239,338.326939 L2384.69906,218.249611 L2389.35537,222.960373 Z M1904.58155,533.870676 C1903.80534,533.196135 1902.86375,532.740856 1901.85361,532.551663 L1918.73862,393.96104 L1951.66204,394.808977 L1988.53626,459.770388 L1904.58155,533.870676 Z M1323.38914,532.316125 C1323.21192,530.98268 1322.58062,529.751365 1321.60187,528.830161 L1379.12379,446.862899 L1467.87592,520.586327 C1467.27073,521.478544 1466.92845,522.523331 1466.88821,523.601215 L1323.38914,532.316125 Z M1055.29845,523.271462 C1055.24421,522.499967 1055.03631,521.747156 1054.68701,521.057403 L1215.25923,409.836309 L1313.37102,529.395452 C1312.57883,530.276507 1312.07065,531.376564 1311.91298,532.551663 L1055.29845,523.271462 Z M469.167532,389.532924 C469.180793,389.329007 469.180793,389.124441 469.167532,388.920525 L611.5378,378.839493 C611.837005,381.026292 613.350696,382.852893 615.441577,383.550256 L607.58699,423.638842 L469.167532,389.532924 Z M1195.41111,209.628916 C1195.78645,209.666383 1196.16458,209.666383 1196.53991,209.628916 L1221.70281,302.006963 C1220.32672,302.499391 1219.18534,303.491272 1218.50454,304.786312 L1161.26482,282.64573 L1193.48274,209.346271 C1194.10535,209.547281 1194.7571,209.642809 1195.41111,209.628916 Z M1379.92336,445.873639 L1468.86362,319.154137 L1471.92079,518.136731 C1470.72642,518.301661 1469.61069,518.82754 1468.72252,519.644175 L1379.92336,445.873639 Z M1149.17722,323.393823 L1197.52762,338.421154 L1178.385,362.257611 L1148.00139,325.23102 C1148.48472,324.770897 1148.88282,324.228626 1149.17722,323.629361 L1149.17722,323.393823 Z M1149.17722,322.45167 C1149.30395,322.038111 1149.38285,321.611349 1149.41239,321.179765 L1218.26937,309.025998 C1218.51707,309.904025 1218.9683,310.711054 1219.58631,311.381379 L1198.37422,337.808755 L1149.17722,322.45167 Z M1220.38588,312.040886 C1221.29009,312.655478 1222.35073,312.998686 1223.44305,313.030146 C1223.98941,312.999788 1224.52829,312.888668 1225.04219,312.700393 L1240.98653,350.998889 L1199.45599,338.279831 L1220.38588,312.040886 Z M1274.70952,366.497297 L1254.62623,380.629583 L1243.15007,353.071624 L1274.23918,362.493149 C1274.11325,362.906903 1274.03437,363.333573 1274.00401,363.765055 C1274.01076,364.72012 1274.25311,365.658706 1274.70952,366.497297 Z M1275.50909,367.722095 C1276.64754,369.344144 1278.67819,370.078591 1280.5887,369.559292 L1315.44049,526.757426 L1255.33173,381.807274 L1275.50909,367.722095 Z M1274.42732,361.598104 L1242.67973,351.752611 L1226.31209,312.417747 C1226.67957,312.217201 1227.02619,311.980494 1227.34683,311.711133 L1275.65019,359.90223 C1275.24605,360.39476 1274.928,360.952213 1274.70952,361.550996 L1274.42732,361.598104 Z M1137.84216,321.745056 L937.714811,357.31131 C937.714811,357.31131 937.714811,356.934449 937.714811,356.746019 L1074.11183,276.239093 L1138.64173,318.635953 C1138.16708,319.469495 1137.90837,320.408806 1137.8892,321.368195 C1137.8892,321.368195 1137.84216,321.650841 1137.84216,321.745056 Z M1143.67431,327.303755 C1144.78318,327.283991 1145.86213,326.940149 1146.77852,326.314495 L1177.3973,363.623732 L1052.66458,519.078883 L1142.02814,327.115325 C1142.5799,327.262869 1143.1507,327.326391 1143.72134,327.303755 L1143.67431,327.303755 Z M1053.88745,519.73839 L1178.33797,364.754315 L1214.27153,408.517295 L1053.98151,519.92682 L1053.88745,519.73839 Z M1179.27864,363.623732 L1198.98565,339.174876 L1241.7861,352.36501 L1253.77963,381.241982 L1215.6355,407.763573 L1179.27864,363.623732 Z M1254.24996,382.46678 L1314.82905,528.076439 L1314.54685,528.076439 L1216.43507,408.847049 L1254.24996,382.46678 Z M1317.65106,527.228502 C1317.41614,527.213257 1317.18048,527.213257 1316.94556,527.228502 L1281.81157,369.323754 C1282.67013,369.065795 1283.45843,368.614626 1284.11621,368.004741 L1378.18312,445.967854 L1320.56714,528.076439 C1319.67406,527.58816 1318.66821,527.344425 1317.65106,527.369825 L1317.65106,527.228502 Z M1284.72764,366.82705 C1285.37524,365.899936 1285.73519,364.80199 1285.76238,363.670839 C1285.73368,363.239149 1285.65475,362.812291 1285.52721,362.398934 L1468.44032,300.782164 L1468.67549,316.51611 L1378.79455,444.931487 L1284.72764,366.82705 Z M1470.18056,316.892971 L1482.22112,299.745797 C1482.78255,300.029502 1483.3861,300.220397 1484.00839,300.311088 L1473.0496,503.48626 L1470.18056,316.892971 Z M1479.21098,295.506111 L1479.21098,295.788756 L1469.80429,298.944967 L1469.80429,295.930079 L1479.21098,295.506111 Z M1479.58725,296.966447 C1479.93038,297.680705 1480.40972,298.320829 1480.99825,298.850752 L1470.13352,314.302052 L1470.13352,300.169765 L1479.58725,296.966447 Z M1499.81163,311.334272 L1644.25137,465.47041 L1642.69927,473.808459 L1636.86712,475.786979 L1499.81163,311.334272 Z M1900.3015,182.683357 L1976.87197,285.660618 L1927.53387,340.258351 C1926.55104,339.490229 1925.34678,339.060634 1924.10043,339.033553 L1923.7712,339.174876 L1897.43246,181.458559 L1900.3015,182.683357 Z M2074.88969,261.353085 C2074.68904,261.913105 2074.57793,262.50134 2074.56045,263.096067 C2074.57159,263.857743 2074.73137,264.609882 2075.03079,265.310125 L2066.51773,269.785349 L2067.0351,257.820013 L2074.88969,261.353085 Z M2057.34621,391.464336 L1995.35611,308.083846 L2065.15376,271.669654 L2060.16822,390.99326 C2059.26616,391.006365 2058.3799,391.232314 2057.58138,391.652767 L2057.34621,391.464336 Z M1928.47454,341.059181 L1977.81264,286.838308 L1993.61588,308.083846 L1928.99191,341.812903 C1928.8386,341.549001 1928.66566,341.297047 1928.47454,341.059181 Z M1929.69741,346.570773 C1929.88159,346.054989 1929.99242,345.51582 1930.02665,344.969114 C1930.01313,344.207708 1929.85344,343.456022 1929.55631,342.755055 L1994.32138,308.931783 L2056.40554,392.453596 C2055.89469,392.954604 2055.48018,393.545421 2055.18267,394.196578 L1929.69741,346.570773 Z M2066.6118,271.198578 L2076.01849,266.487816 C2076.78857,267.692029 2077.97922,268.565436 2079.35787,268.937412 L2077.8528,280.101918 L2061.67329,386.706466 L2066.6118,271.198578 Z M2065.43596,270.586179 L1994.88578,307.377231 L1978.80034,285.754833 L2022.54145,237.799274 L2066.09443,257.443152 L2065.43596,270.586179 Z M1978.09484,284.718465 L1903.21758,184.096585 L2021.27155,237.328198 L1978.09484,284.718465 Z M1826.12974,389.768462 L1766.77352,388.21391 C1766.77352,388.21391 1766.77352,387.978372 1766.77352,387.837049 L1917.28058,347.371602 L1826.12974,389.768462 Z M1656.33897,468.909266 L1720.7748,419.91734 L1662.45332,466.035701 L1656.33897,468.909266 Z M1646.93228,468.249759 C1646.01402,469.292176 1645.49705,470.628418 1645.47424,472.018369 C1645.43902,472.378666 1645.43902,472.741548 1645.47424,473.101844 L1644.01621,473.525813 L1645.28611,466.742316 L1646.93228,468.249759 Z M1644.01621,474.750611 L1645.94458,474.18532 C1646.25948,474.970428 1646.74092,475.677647 1647.35558,476.258055 L1645.52128,478.377898 C1644.95082,477.911734 1644.29612,477.55988 1643.5929,477.34153 L1644.01621,474.750611 Z M1646.13271,478.94319 L1647.96702,476.823347 L1648.67252,477.294423 L1646.13271,478.94319 Z M1656.95041,470.275387 L1657.23261,470.275387 L1656.99744,470.275387 L1656.95041,470.275387 Z M1666.3571,464.198504 L1756.66133,392.78335 C1757.00165,393.111067 1757.38073,393.395831 1757.79013,393.631287 L1739.63522,429.998371 L1666.3571,464.198504 Z M1759.1541,394.337901 C1759.79797,394.597699 1760.48269,394.741238 1761.17654,394.76187 C1762.46074,394.741846 1763.70178,394.294368 1764.70405,393.489964 L1781.02466,410.919784 L1741.79876,429.197541 L1759.1541,394.337901 Z M1765.59769,392.689134 C1766.29993,391.85758 1766.75608,390.845947 1766.91462,389.768462 L1823.35477,391.275906 L1782.29456,410.4016 L1765.59769,392.689134 Z M1755.48549,387.695726 C1754.98233,389.166172 1755.2858,390.793191 1756.28506,391.98252 L1655.6805,468.155544 C1654.90912,467.322886 1653.91209,466.733548 1652.81146,466.45967 L1669.22614,358.11214 L1755.48549,387.695726 Z M1642.8874,475.221687 L1642.51114,477.200208 L1642.08783,477.200208 C1640.93738,477.231948 1639.82304,477.609451 1638.88956,478.283683 L1637.71372,476.823347 L1642.8874,475.221687 Z M1646.93228,479.93245 L1649.70725,477.718391 C1650.17857,477.877056 1650.6689,477.972107 1651.16529,478.001037 L1651.16529,484.313458 L1647.87295,483.606844 C1647.8815,483.434222 1647.8815,483.261282 1647.87295,483.08866 C1647.82338,481.909993 1647.41285,480.775158 1646.69711,479.838234 L1646.93228,479.93245 Z M1657.46777,471.641508 L1661.41858,468.485298 L1738.78862,432.400859 L1711.41515,487.281239 L1657.37371,473.148952 C1657.39143,472.882304 1657.39143,472.614771 1657.37371,472.348123 C1657.37371,472.348123 1657.23261,471.688616 1657.23261,471.500185 L1657.46777,471.641508 Z M1829.70429,389.862677 L1919.06785,348.078217 C1919.89094,349.373173 1921.19346,350.288067 1922.68943,350.622028 L1917.60981,392.218058 L1829.70429,389.862677 Z M1923.7712,350.857566 C1924.57895,350.862706 1925.37922,350.702399 1926.12287,350.38649 L1950.3451,393.065995 L1919.06785,392.265166 L1923.7712,350.857566 Z M1927.34574,349.679876 C1928.14446,349.127111 1928.79144,348.381909 1929.22708,347.512925 L2054.6653,395.185838 C2054.6653,395.185838 2054.6653,395.656914 2054.6653,395.845345 L1951.99127,393.113103 L1927.34574,349.679876 Z M2075.54816,260.175395 L2075.17189,260.175395 L2067.12917,256.359677 L2070.04524,190.832975 L2079.45193,257.725798 C2077.91193,258.013454 2076.55424,258.914342 2075.68926,260.222502 L2075.54816,260.175395 Z M1684.18278,261.353085 C1685.04539,261.353151 1685.8971,261.160008 1686.67555,260.787794 L1757.50793,384.021332 C1756.69467,384.571161 1756.03174,385.316112 1755.57956,386.188282 L1669.79054,356.840234 L1683.90058,261.353085 L1684.18278,261.353085 Z M1479.30505,293.621806 C1479.29601,293.810128 1479.29601,293.998776 1479.30505,294.187097 L1469.89836,294.611066 L1469.89836,290.606918 L1479.30505,293.621806 Z M1217.84607,305.82268 C1217.69268,306.2799 1217.59786,306.754771 1217.56387,307.235909 C1217.56387,307.235909 1217.56387,307.235909 1217.56387,307.518554 L1149.08316,319.672321 C1148.64347,318.180327 1147.62774,316.925626 1146.26115,316.186357 L1160.37119,283.729205 L1217.84607,305.82268 Z M1072.46566,275.296941 L936.633042,355.379898 C936.040383,354.562813 935.246335,353.913589 934.328402,353.495593 L977.740281,218.626472 C978.166301,218.773437 978.60848,218.868339 979.057218,218.909118 C980.892956,218.938893 982.635527,218.10114 983.760564,216.647952 L1072.46566,275.296941 Z M976.752579,218.767795 L933.434767,353.307163 C931.928633,352.79321 930.265172,353.076799 929.013622,354.060884 L876.900554,287.356492 L974.871241,217.260351 C975.447918,217.834311 976.136337,218.283291 976.893679,218.579365 L976.752579,218.767795 Z M833.112407,237.987705 C834.241299,237.957709 835.336743,237.597444 836.263648,236.951337 L874.925149,286.60277 L770.934179,361.174135 L831.278102,237.422413 C831.89448,237.658139 832.546831,237.785628 833.206474,237.799274 L833.112407,237.987705 Z M768.62954,362.728687 L753.1085,373.846086 C752.889484,373.638279 752.653494,373.449189 752.402998,373.280794 L825.39892,246.98526 L768.62954,362.728687 Z M747.417452,383.45604 C747.859084,383.604931 748.317059,383.699834 748.781422,383.738686 C749.094413,383.765349 749.4091,383.765349 749.722091,383.738686 L753.1085,394.76187 L727.710434,446.910007 L747.417452,383.45604 Z M751.227162,383.173395 C753.334433,382.217173 754.693492,380.120185 754.707637,377.803126 L761.668589,377.096511 L754.096202,392.594919 L751.227162,383.173395 Z M754.47247,376.672543 C754.368416,376.097595 754.17813,375.541718 753.908069,375.023776 L767.26557,365.602252 L762.044856,375.965929 L754.47247,376.672543 Z M622.167361,380.770906 C622.614107,380.024846 622.887389,379.187607 622.96693,378.32131 L733.542583,378.32131 C733.704172,380.722351 735.330721,382.773425 737.629195,383.474519 C739.92767,384.175612 742.419565,383.380769 743.889943,381.47752 C744.083802,381.632726 744.288096,381.774383 744.501378,381.901489 C745.110039,382.526164 745.848763,383.0087 746.664917,383.314718 L726.675698,447.522406 C726.234437,447.372147 725.776292,447.277209 725.311728,447.23976 C723.482576,447.191258 721.738345,448.012339 720.608382,449.453818 L622.167361,380.770906 Z M763.785094,375.73039 L769.570209,363.85927 L876.053951,287.686246 L928.16702,354.673284 C926.970484,355.77692 926.288491,357.330899 926.285681,358.960077 L763.785094,375.73039 Z M1473.70806,518.183838 L1485.46643,300.546626 C1486.49454,300.483005 1487.48613,300.141098 1488.33547,299.557366 L1635.31502,476.210947 L1478.27031,521.764018 C1477.49113,519.844691 1475.75514,518.482388 1473.70806,518.183838 Z M1740.34072,431.411599 L1781.73016,412.097474 L1895.97442,534.153322 C1895.51783,534.651088 1895.15172,535.225034 1894.89265,535.849197 L1712.30878,487.563884 L1740.34072,431.411599 Z M1900.25447,532.080587 C1898.97027,532.100611 1897.72923,532.548088 1896.72696,533.352493 L1783.0471,411.532183 L1826.41194,391.323013 L1917.56278,393.725502 L1900.7248,532.316125 L1900.25447,532.080587 Z M2061.76735,390.99326 L2069.81007,337.808755 L2062.61396,391.134583 C2062.33606,391.064489 2062.05292,391.017225 2061.76735,390.99326 Z M2086.22475,265.02748 C2086.44815,264.439375 2086.57521,263.818982 2086.60102,263.190282 C2086.57858,262.080109 2086.23552,261.000218 2085.61332,260.081179 L2114.30372,236.904229 L2172.86037,304.126806 L2086.22475,265.02748 Z M2069.01051,190.503222 L2066.14146,255.558848 L2024.32872,235.679431 L2066.65883,189.419747 C2067.32751,189.982918 2068.11576,190.385719 2068.96347,190.597437 L2069.01051,190.503222 Z M1901.47734,181.599882 L1899.97227,179.574254 C1900.32418,179.208428 1900.62481,178.79639 1900.8659,178.349456 L2021.97705,236.009185 L1901.47734,181.599882 Z M1890.28338,178.113918 L1891.03591,178.443671 C1891.36767,178.975577 1891.78026,179.452387 1892.25878,179.8569 L1865.49675,222.253759 L1851.38671,192.952818 L1890.28338,178.113918 Z M1893.34055,180.610621 C1894.13003,181.004478 1894.99841,181.213863 1895.88036,181.223021 L1896.30366,181.223021 L1922.64239,339.174876 L1922.12503,339.174876 L1866.15521,223.761203 L1893.34055,180.610621 Z M1921.04326,339.88149 C1920.14733,340.430574 1919.41609,341.211798 1918.92675,342.142656 L1815.45315,303.608622 L1865.26158,224.844678 L1921.04326,339.88149 Z M1918.45642,343.46167 C1918.30639,343.903627 1918.2116,344.362494 1918.17422,344.827791 C1918.14606,345.156941 1918.14606,345.4879 1918.17422,345.817051 L1766.25616,386.706466 C1765.88246,385.722825 1765.24833,384.859701 1764.42185,384.209762 L1814.60655,304.786312 L1918.45642,343.46167 Z M1763.52821,383.45604 L1763.24601,383.45604 L1788.73815,295.270573 L1813.52478,304.692097 L1763.52821,383.45604 Z M1761.92908,383.032072 C1761.61611,383.004948 1761.30138,383.004948 1760.98841,383.032072 C1760.12239,383.048271 1759.27085,383.25747 1758.49564,383.644471 L1687.66325,260.26961 C1688.45472,259.728528 1689.10088,259.000453 1689.54459,258.149767 L1787.37418,294.705281 L1761.92908,383.032072 Z M1668.37954,356.416266 L1666.26303,355.709651 L1678.16249,292.067254 L1668.37954,356.416266 Z M1668.37954,357.923709 L1651.91783,466.271239 L1651.63563,466.271239 C1650.66233,466.286598 1649.70835,466.545713 1648.86065,467.024961 L1646.36788,463.538997 L1666.216,357.31131 L1668.37954,357.923709 Z M1645.38018,461.984446 L1538.09686,313.501222 L1664.80499,356.746019 L1645.38018,461.984446 Z M1644.43951,463.397674 L1489.84054,298.520999 C1490.15365,298.162281 1490.42214,297.766826 1490.64011,297.343308 L1535.69816,312.7475 L1644.43951,463.397674 Z M1479.82241,292.067254 L1469.94539,288.958151 L1468.95769,223.43145 L1483.49102,288.958151 C1481.87886,289.418288 1480.54233,290.55098 1479.82241,292.067254 Z M1468.44032,290.088734 L1468.44032,294.799496 L1363.41461,299.840012 L1402.45238,269.549811 L1468.44032,290.088734 Z M1468.44032,296.024295 L1468.44032,299.463151 L1285.38611,361.315458 C1285.27019,361.120851 1285.14461,360.932184 1285.00984,360.750167 L1361.58031,301.488779 L1468.44032,296.024295 Z M1284.11621,359.666691 C1283.00607,358.519583 1281.47823,357.873476 1279.8832,357.876602 C1279.10725,357.885262 1278.34043,358.045268 1277.62559,358.347678 L1250.34619,306.529294 L1359.36974,301.488779 L1284.11621,359.666691 Z M1276.68492,358.91297 L1276.02645,359.384046 L1228.0053,311.145841 C1228.85112,310.188465 1229.3629,308.981399 1229.46333,307.706985 L1249.26442,306.764832 L1276.68492,358.91297 Z M1229.32223,306.199541 L1229.32223,305.82268 L1245.73691,299.840012 L1248.60595,305.257388 L1229.32223,306.199541 Z M1228.80486,304.503666 C1227.82694,302.504387 1225.80685,301.228446 1223.58415,301.206133 C1223.20886,301.167709 1222.83064,301.167709 1222.45535,301.206133 L1197.29245,208.828087 L1197.62168,208.828087 L1244.93734,298.332568 L1228.80486,304.503666 Z M1159.85382,283.352344 L1145.74378,315.762388 C1143.4292,314.826348 1140.77556,315.582956 1139.3002,317.599585 L1075.14657,275.579587 L1100.54463,260.599363 L1159.85382,283.352344 Z M1073.68853,274.637434 L984.324965,215.89423 L1098.56923,259.892749 L1073.68853,274.637434 Z M974.024638,215.89423 L876.006918,286.037479 L837.298384,236.197615 C838.512327,235.102311 839.211873,233.547212 839.226756,231.910821 C839.226756,231.910821 839.226756,231.910821 839.226756,231.675283 L973.695404,214.339679 C973.731518,214.870804 973.842357,215.394158 974.024638,215.89423 Z M829.867099,236.621584 L751.321229,372.527072 C750.230546,371.559293 748.712118,371.237236 747.323385,371.679135 L728.227802,303.702837 L828.785329,235.538108 C829.097264,235.944915 829.460932,236.309157 829.867099,236.621584 Z M745.865348,372.150211 C744.977322,372.55194 744.201899,373.166784 743.607742,373.940301 C742.004913,372.275401 739.572268,371.714451 737.403921,372.509745 C735.235575,373.30504 733.739907,375.306796 733.589616,377.614695 L622.96693,377.614695 C622.911445,376.843416 622.703615,376.090847 622.355495,375.400637 L726.910865,304.739205 L745.865348,372.150211 Z M616.805547,383.927117 L617.181815,383.927117 C619.010967,383.975619 620.755197,383.154538 621.88516,381.713058 L720.655416,450.395971 C720.4765,450.665716 720.319228,450.949251 720.185081,451.243908 L608.903927,423.968595 L616.805547,383.927117 Z M728.462969,448.511666 L753.719935,396.693282 L765.290165,434.379379 L730.297274,450.301756 C729.835141,449.502562 729.190393,448.824509 728.415936,448.323235 L728.462969,448.511666 Z M754.707637,394.667654 L763.220693,376.860973 L926.661949,360.231983 C926.648692,360.451618 926.648692,360.671855 926.661949,360.89149 L766.748202,433.719873 L754.707637,394.667654 Z M938.138112,359.242723 C938.138112,359.242723 938.138112,359.242723 938.138112,358.960077 L1138.3125,323.2525 C1138.75579,324.574495 1139.65668,325.694025 1140.8523,326.408711 L1051.48874,518.372269 C1050.88646,518.144318 1050.25089,518.017003 1049.6074,517.995408 C1048.59302,518.019019 1047.60303,518.311608 1046.73836,518.843345 L936.06864,363.482409 C937.336711,362.36285 938.057411,360.747311 938.044045,359.054292 L938.138112,359.242723 Z M1636.16162,477.294423 L1637.66669,479.13162 C1636.60774,480.23201 1636.01743,481.701662 1636.02052,483.229983 C1635.99914,483.512224 1635.99914,483.79568 1636.02052,484.07792 L1496.33116,517.854085 L1636.16162,477.294423 Z M1647.44965,485.06718 L1651.02419,485.820902 L1651.02419,596.570921 L1642.84037,488.930005 C1645.00587,488.556954 1646.77344,486.987367 1647.40261,484.87875 L1647.44965,485.06718 Z M1652.15299,602.836235 L1652.15299,485.86801 L1706.38257,497.409377 L1653.4229,602.977557 C1652.92349,602.909689 1652.41723,602.909689 1651.91783,602.977557 L1652.15299,602.836235 Z M1652.15299,484.454781 L1652.15299,477.906822 C1654.37617,477.728315 1656.30708,476.30522 1657.13854,474.232427 L1710.80371,488.364714 L1706.994,496.043256 L1652.15299,484.454781 Z M1712.16768,488.788682 L1873.49243,531.468188 L1708.40501,496.37301 L1712.16768,488.788682 Z M1953.30821,394.573439 L2054.90047,397.258574 C2054.99876,398.259253 2055.35536,399.217091 2055.93521,400.037923 L1989.61803,458.73402 L1953.30821,394.573439 Z M2056.78181,400.980076 C2057.56723,401.67722 2058.52592,402.149181 2059.55678,402.346197 L2043.47134,535.18969 L2041.96627,546.165766 C2041.15839,546.159287 2040.35784,546.319648 2039.6146,546.636842 L1989.9943,459.817495 L2056.78181,400.980076 Z M2060.54448,402.534627 L2061.20295,402.534627 L2052.9721,462.596845 L2060.54448,402.534627 Z M2064.30716,392.029628 L2080.90997,269.078735 C2082.505,269.08186 2084.03284,268.435754 2085.14298,267.288645 L2207.42996,363.341086 L2066.3296,394.76187 C2065.85175,393.665297 2065.04668,392.743774 2064.02496,392.123843 L2064.30716,392.029628 Z M2085.89552,266.20517 L2174.69468,306.199541 L2221.72813,360.043552 L2208.93503,362.917117 L2085.89552,266.20517 Z M2259.68413,401.215614 L2240.16525,378.839493 L2264.38748,357.546849 L2262.08284,400.414784 C2261.1125,400.476825 2260.17381,400.784811 2259.3549,401.309829 L2259.68413,401.215614 Z M2239.17755,377.661803 L2224.50311,360.844382 L2264.66968,351.893934 L2264.66968,355.379898 L2239.17755,377.661803 Z M2266.22178,351.564181 L2266.78618,351.564181 C2266.95918,352.049157 2267.19647,352.508644 2267.49169,352.930302 L2266.12772,354.1551 L2266.22178,351.564181 Z M2271.4425,343.885638 C2270.12475,343.988502 2268.88098,344.536627 2267.91499,345.44019 L2266.26882,344.121176 L2275.06407,156.444412 L2271.4425,343.885638 Z M2267.06838,346.570773 L2266.26882,346.193912 L2266.26882,345.62862 L2267.06838,346.570773 Z M2266.45695,347.842678 C2266.23355,348.430783 2266.10649,349.051176 2266.08068,349.679876 C2266.0667,349.899488 2266.0667,350.11977 2266.08068,350.339382 L2265.84552,350.339382 L2265.84552,347.60714 L2266.45695,347.842678 Z M2264.43451,350.716243 L2223.28024,359.90223 L2177.98702,308.083846 L2264.62265,347.183172 L2264.43451,350.716243 Z M2222.5277,361.315458 L2237.71951,378.792386 L2233.4865,382.513888 L2209.96977,364.094808 L2222.5277,361.315458 Z M2238.75424,380.158507 L2257.23839,401.356937 L2234.7564,383.691579 L2238.75424,380.158507 Z M2265.70441,356.604696 L2268.15015,354.437745 C2268.89373,355.070087 2269.78272,355.507186 2270.73699,355.709651 L2263.82308,397.352789 L2265.70441,356.604696 Z M2113.36305,235.962077 L2084.81375,259.091919 C2083.71099,258.002651 2082.22362,257.393223 2080.6748,257.396045 L2080.2515,257.396045 L2070.84481,190.503222 C2071.58347,190.359226 2072.28665,190.071111 2072.91428,189.655285 L2113.36305,235.962077 Z M1850.72824,191.822235 L1832.99663,155.172506 C1833.76676,154.685961 1834.41135,154.024215 1834.87797,153.241093 L1888.63721,177.454411 L1850.72824,191.822235 Z M1467.54668,223.572772 L1468.53438,288.58129 L1404.00448,268.513444 L1463.83104,222.065329 C1464.85284,222.991765 1466.1692,223.525817 1467.54668,223.572772 Z M1192.77724,208.828087 L1160.41822,282.174654 L1102.0497,259.704318 L1190.84887,207.273535 C1191.33027,207.910503 1191.93898,208.439951 1192.63614,208.828087 L1192.77724,208.828087 Z M560.741669,659.224058 C560.32687,659.258989 559.916947,659.337945 559.518799,659.459596 L466.01629,394.055255 C467.335915,393.403345 468.360745,392.275937 468.885331,390.899045 L607.210722,424.910747 L561.16497,659.506703 L560.741669,659.224058 Z M2275.20517,344.827791 C2274.47261,344.330513 2273.6359,344.008195 2272.75943,343.885638 L2277.46278,110.608696 C2278.60021,110.501036 2279.68035,110.058465 2280.56699,109.33679 L2384.04059,217.260351 L2275.20517,344.827791 Z M2264.71671,344.827791 L2264.71671,345.911266 L2176.15272,305.916895 L2115.47956,236.29183 L2123.56931,229.743871 L2264.71671,344.827791 Z M2114.53889,235.019925 L2075.92442,190.73876 L2122.44051,228.424857 L2114.53889,235.019925 Z M2063.97793,185.085846 C2064.03964,186.448255 2064.57161,187.746966 2065.483,188.76024 L2023.15289,235.255463 L1901.43031,177.407303 C1901.4668,177.031329 1901.4668,176.652695 1901.43031,176.27672 L2063.97793,185.085846 Z M1890.23634,176.653581 L1846.91853,157.151026 L1890.33041,173.732909 C1890.13126,174.293336 1890.0202,174.881332 1890.00118,175.475891 C1890.03961,175.875408 1890.1184,176.269991 1890.23634,176.653581 Z M1829.70429,156.161766 C1830.37948,156.150704 1831.04772,156.023219 1831.67969,155.784905 L1849.31724,192.293312 L1814.41841,205.483446 L1828.52845,155.973335 C1828.91244,156.07856 1829.30669,156.14174 1829.70429,156.161766 Z M1849.88164,193.423895 L1864.46201,223.525665 L1814.27731,303.231761 L1789.11441,293.810236 L1814.23028,206.99089 L1849.88164,193.423895 Z M1787.84451,293.386268 L1689.96789,256.877861 C1690.117,256.435654 1690.21176,255.976901 1690.25009,255.51174 C1690.21854,255.014906 1690.12371,254.524149 1689.96789,254.051404 L1812.67818,207.603289 L1787.84451,293.386268 Z M1682.63067,261.070439 L1665.04016,355.285683 L1536.54476,311.428487 L1519.94195,288.439968 L1678.7269,257.207614 C1679.29684,259.070775 1680.76367,260.52222 1682.63067,261.070439 Z M1533.95792,310.533442 L1491.06341,295.788756 C1491.28813,295.245869 1491.28813,294.63577 1491.06341,294.092882 L1518.38985,288.722613 L1533.95792,310.533442 Z M1490.68714,292.962299 C1489.9789,290.473886 1487.72053,288.748686 1485.13719,288.722613 C1484.83978,288.699153 1484.54098,288.699153 1484.24356,288.722613 L1469.71022,223.195911 C1470.1,223.093703 1470.47826,222.951633 1470.83902,222.771943 L1517.49621,287.497815 L1490.68714,292.962299 Z M1463.0785,220.84053 L1402.45238,267.948152 L1365.15485,256.218354 L1462.84334,220.463669 L1463.0785,220.84053 Z M1400.99434,269.031627 L1361.20404,299.934227 L1249.73475,305.304496 L1246.48944,299.557366 L1362.61504,257.160507 L1400.99434,269.031627 Z M1246.01911,298.332568 L1198.60939,208.545441 C1199.53385,207.975437 1200.2827,207.160194 1200.77293,206.19006 L1360.68667,256.406785 L1246.01911,298.332568 Z M827.891693,234.548848 L727.804501,302.289608 L672.681292,105.473965 C673.384369,105.175366 674.023197,104.743477 674.56263,104.202059 L828.362028,228.707503 C827.098007,230.414253 826.968586,232.710459 828.032794,234.548848 L827.891693,234.548848 Z M670.094452,105.945041 C670.37628,105.965583 670.659226,105.965583 670.941054,105.945041 L726.393497,303.325976 L621.60296,374.081624 C620.901675,373.269165 619.990329,372.666076 618.969086,372.338642 L669.859284,105.850826 L670.094452,105.945041 Z M459.760841,393.301533 L332.676445,617.109844 C331.947757,616.798935 331.163858,616.638703 330.371806,616.638768 C329.712263,616.653345 329.060069,616.780803 328.443434,617.015629 L272.003288,491.096956 C273.88933,490.097517 275.079882,488.146269 275.107496,486.009333 C275.090456,485.298721 274.947115,484.596837 274.684195,483.936597 L458.490937,391.98252 C458.866481,392.566255 459.34454,393.076989 459.901941,393.489964 L459.760841,393.301533 Z M334.040415,618.099104 L461.030744,394.290793 C462.148221,394.736546 463.393743,394.736546 464.51122,394.290793 L558.060762,659.648026 C556.6487,660.378567 555.595469,661.654646 555.144688,663.181098 L336.203954,622.904081 C336.203954,622.904081 336.203954,622.621436 336.203954,622.480113 C336.156749,620.77325 335.366242,619.172533 334.040415,618.099104 Z M562.623007,659.506703 L608.621726,425.193393 L719.714747,452.562921 C719.699656,452.798217 719.699656,453.03424 719.714747,453.269536 C719.717127,454.842831 720.343056,456.350819 721.454985,457.462114 L564.034011,660.024887 C563.588172,659.791445 563.113836,659.617248 562.623007,659.506703 Z M731.237943,453.17532 C731.213804,452.546417 731.086689,451.925756 730.861676,451.338123 L765.666432,435.509962 L835.134846,662.568699 L728.557036,458.074513 C730.215572,457.018277 731.225245,455.190903 731.237943,453.222428 L731.237943,453.17532 Z M838.144987,663.840605 C837.831995,663.813942 837.517309,663.813942 837.204318,663.840605 L767.030403,434.944671 L926.94415,362.06918 C927.962308,363.874576 929.859728,365.004066 931.929696,365.03696 C932.960108,365.02171 933.967403,364.728808 934.84577,364.189023 L1045.60956,519.644175 C1043.49733,521.3763 1042.94086,524.381959 1044.29262,526.757426 L842.283931,666.148878 C841.274625,664.863016 839.773281,664.059897 838.144987,663.93482 L838.144987,663.840605 Z M1478.55251,522.894601 L1636.34975,484.737427 C1637.13816,487.142165 1639.37266,488.773273 1641.8997,488.788682 L1650.55386,602.977557 C1648.85204,603.233409 1647.35229,604.234819 1646.46195,605.709799 L1478.31734,525.909488 C1478.55528,525.276519 1478.68257,524.607224 1478.69361,523.930968 C1478.67595,523.582135 1478.62874,523.235435 1478.55251,522.894601 Z M1654.64577,603.589957 L1707.4173,497.644915 L1894.75155,537.450856 C1894.7426,537.623467 1894.7426,537.796428 1894.75155,537.96904 C1894.7287,538.266949 1894.7287,538.566175 1894.75155,538.864084 L1656.76227,606.322199 C1656.30148,605.282797 1655.55004,604.399278 1654.59873,603.778387 L1654.64577,603.589957 Z M1905.38112,534.483076 L1989.05363,460.524109 L2038.25063,547.249241 C2037.04279,548.114153 2036.21671,549.414326 2035.94599,550.876528 L1906.50992,537.921932 C1906.46689,536.727604 1906.05618,535.575819 1905.33408,534.624398 L1905.38112,534.483076 Z M2066.28257,396.410636 C2066.28257,396.410636 2066.28257,396.410636 2066.28257,396.080883 L2208.4647,364.424561 L2232.54583,383.26761 L2210.06384,403.052811 L2066.28257,396.410636 Z M2233.72167,384.303978 L2257.66169,403.147026 C2257.24669,403.822462 2256.97455,404.576036 2256.86213,405.361084 L2212.22738,403.288349 L2233.72167,384.303978 Z M2263.87011,400.414784 L2271.34843,355.379898 L2271.95986,355.379898 C2275.23282,355.379898 2277.88608,352.722457 2277.88608,349.444338 C2277.89802,349.24038 2277.89802,349.035896 2277.88608,348.831938 L2306.10615,342.236871 L2265.32815,400.744538 C2264.85827,400.572437 2264.36823,400.461609 2263.87011,400.414784 Z M2277.46278,347.512925 C2277.23396,346.894671 2276.89977,346.32087 2276.47508,345.817051 L2366.45008,255.794386 L2307.32902,340.588105 L2277.46278,347.512925 Z M2399.74976,226.257907 L2479.70664,204.070217 L2549.69242,279.819273 C2549.29185,280.253622 2548.95888,280.745923 2548.70471,281.279609 L2399.84383,228.660396 C2400.15482,227.922495 2400.15482,227.090023 2399.84383,226.352122 L2399.74976,226.257907 Z M2666.42945,153.146878 L2697.37747,146.740242 L2562.90882,274.449004 L2666.42945,153.146878 Z M2667.46419,151.969188 L2673.57854,144.855937 L2722.7285,121.678987 L2723.19883,122.338493 L2698.78847,145.468336 L2667.46419,151.969188 Z M2723.90433,123.327754 C2725.44618,124.679228 2727.59051,125.104738 2729.53036,124.44415 C2731.47021,123.783561 2732.9112,122.13712 2733.31102,120.124435 L2778.27501,127.614547 C2778.26175,127.818464 2778.26175,128.023029 2778.27501,128.226946 C2778.25924,128.46222 2778.25924,128.698287 2778.27501,128.933561 L2700.99904,144.950152 L2723.90433,123.327754 Z M2372.65849,249.670395 L2389.16723,233.13562 L2310.57433,339.88149 L2309.53959,340.117028 L2372.65849,249.670395 Z M2778.74534,127.190579 L2733.78136,119.700467 C2733.79462,119.49655 2733.79462,119.291985 2733.78136,119.088068 C2733.83437,115.845662 2731.27939,113.160805 2728.04328,113.058292 L2727.52591,113.058292 L2724.46874,91.6243242 C2725.88277,91.3896567 2727.15792,90.6334419 2728.04328,89.5044812 L2779.78008,125.259166 C2779.31465,125.830522 2778.96335,126.486249 2778.74534,127.190579 Z M2718.63659,89.5044812 L2681.95049,123.940153 L2449.60522,154.136138 L2717.69592,88.1854678 C2717.94568,88.6674413 2718.26239,89.1115284 2718.63659,89.5044812 Z M2432.24988,160.589882 L2384.69906,216.69506 L2281.22545,108.630176 C2281.64979,108.187294 2281.99928,107.678147 2282.26019,107.122732 L2430.88591,155.455152 C2430.75664,155.868081 2430.67768,156.295147 2430.65074,156.727057 C2430.6896,158.168196 2431.25917,159.544039 2432.24988,160.589882 Z M2271.81876,107.923561 L2123.52228,227.718243 L2074.74859,187.95941 C2075.36836,187.039195 2075.71119,185.960038 2075.73629,184.850307 C2075.71103,184.337319 2075.61609,183.830171 2075.45409,183.342864 L2271.48953,107.499593 L2271.81876,107.923561 Z M1901.75954,175.193245 C1901.66928,172.453537 1899.70343,170.13858 1897.01799,169.609646 C1894.33254,169.080712 1891.63787,170.477722 1890.51854,172.979187 L1835.7716,152.063403 L1835.4894,152.063403 C1835.49325,151.984937 1835.49325,151.90633 1835.4894,151.827865 L2056.54664,183.672617 L1901.75954,175.193245 Z M1827.63481,155.69069 L1813.10148,206.048737 L1689.54459,252.826606 L1689.54459,252.54396 L1825.94161,154.136138 C1826.39177,154.779469 1826.96784,155.324396 1827.63481,155.737797 L1827.63481,155.69069 Z M1678.53876,255.982816 L1519.28348,287.356492 L1472.25003,222.065329 C1472.99961,221.326783 1473.53589,220.399009 1473.80213,219.380194 L1678.63283,255.040664 C1678.63283,255.040664 1678.63283,255.276202 1678.63283,255.417525 C1678.58963,255.619655 1678.55822,255.824135 1678.53876,256.029924 L1678.53876,255.982816 Z M1462.42004,219.097548 L1363.03835,255.464632 L1201.19623,204.682616 L1462.2319,218.202504 C1462.27416,218.520307 1462.337,218.835021 1462.42004,219.144656 L1462.42004,219.097548 Z M1189.626,203.269388 L984.9364,212.172728 C984.489521,209.423079 982.166162,207.372144 979.386452,207.273535 L966.028951,11.6355826 C967.108212,11.4584315 968.117479,10.9856105 968.945025,10.2694615 L1190.51963,200.490038 C1189.96742,201.334916 1189.64332,202.308744 1189.57896,203.316495 L1189.626,203.269388 Z M961.560773,10.5521073 L835.558147,226.446337 C834.81922,226.110318 834.017976,225.933766 833.206474,225.928154 C831.634617,225.925322 830.127083,226.553038 829.020496,227.671136 L675.127031,103.212799 C676.134948,102.066197 676.457467,100.469001 675.973634,99.0202208 L959.585368,8.43226428 C960.052107,9.29637461 960.732223,10.0262195 961.560773,10.5521073 Z M668.448281,105.56818 L617.558082,372.150211 L617.181815,372.150211 C615.362309,372.097817 613.622718,372.899291 612.478469,374.317162 L448.378745,262.954744 C449.402281,261.260555 449.402281,259.137342 448.378745,257.443152 L665.908474,103.966521 C666.599655,104.714895 667.475741,105.267375 668.448281,105.56818 Z M443.205064,266.110955 L443.628366,266.110955 L461.971413,383.26761 C459.266763,383.801765 457.304915,386.159695 457.268068,388.920525 C457.285108,389.631137 457.428449,390.333021 457.691369,390.99326 L274.166827,483.041553 C273.957314,482.65329 273.704884,482.289849 273.414292,481.958077 L440.241957,265.263018 C441.133985,265.81099 442.158643,266.104211 443.205064,266.110955 Z M143.225688,705.71928 L325.339226,625.636323 C326.349568,627.507119 328.295323,628.680022 330.418839,628.698319 L330.795107,628.698319 L357.180875,796.118806 C355.644505,796.50922 354.335362,797.513911 353.559299,798.898156 L143.225688,709.393675 C143.416882,708.863597 143.527854,708.307862 143.554922,707.744908 C143.564409,707.055602 143.452972,706.369982 143.225688,705.71928 Z M358.638912,795.741945 L358.262645,795.741945 L331.876876,628.27435 C333.861558,627.787524 335.438025,626.280342 336.01582,624.31731 L555.097654,664.735649 C555.097654,664.735649 555.097654,665.018295 555.097654,665.159618 C555.124578,666.102971 555.383033,667.025168 555.850189,667.844752 L363.060057,797.861788 C361.958176,796.526551 360.321424,795.750024 358.591879,795.741945 L358.638912,795.741945 Z M564.927646,660.919932 L722.34862,458.357159 C723.244449,458.946634 724.287217,459.273013 725.358761,459.299311 C726.084571,459.292226 726.802568,459.1484 727.475267,458.875343 L834.946712,665.159618 C833.581794,666.075378 832.674243,667.53318 832.453939,669.163766 L566.620851,664.453004 C566.475764,663.116227 565.878253,661.869449 564.927646,660.919932 Z M843.318667,667.091031 L1045.28032,527.605363 C1046.36989,528.898084 1047.96551,529.654192 1049.65443,529.678098 L1090.10321,781.892305 C1088.71907,782.280163 1087.52865,783.170189 1086.76383,784.389008 L843.3657,671.330716 C844.037053,669.796639 843.895754,668.027619 842.989433,666.619954 L843.318667,667.091031 Z M1092.03158,781.609659 L1051.58281,529.395452 C1052.04364,529.26287 1052.48607,529.072959 1052.89974,528.830161 L1196.39881,721.97141 C1194.50152,723.689774 1193.98201,726.464856 1195.12891,728.754907 L1097.15822,784.247686 C1096.0242,782.51004 1094.05461,781.505755 1091.98454,781.609659 L1092.03158,781.609659 Z M1203.689,721.688764 L1315.15829,538.581439 C1315.93295,538.969943 1316.78484,539.179226 1317.65106,539.193838 C1318.27867,539.167174 1318.89796,539.03994 1319.48537,538.816977 L1432.08346,777.888157 C1430.98025,778.565611 1430.13567,779.593971 1429.68475,780.808829 L1205.89957,727.011925 C1205.91577,726.776667 1205.91577,726.54057 1205.89957,726.305311 C1205.89246,724.514587 1205.05906,722.827771 1203.64197,721.735872 L1203.689,721.688764 Z M1439.32661,778.594771 C1438.59416,777.926747 1437.70389,777.456593 1436.73977,777.22865 L1472.67333,529.772313 C1474.73361,529.749153 1476.6288,528.638897 1477.65888,526.851641 L1645.80348,606.651952 C1645.56462,607.284664 1645.43731,607.95412 1645.42721,608.630472 C1645.45862,609.724513 1645.80129,610.786823 1646.41491,611.692467 L1439.32661,778.594771 Z M1657.18557,607.68832 L1895.17486,540.230205 C1895.99196,542.171105 1897.78908,543.521074 1899.8782,543.763277 L1895.55112,682.824976 C1893.37583,682.934601 1891.43928,684.239749 1890.51854,686.216725 L1657.09151,609.761055 C1657.12923,609.385141 1657.12923,609.006386 1657.09151,608.630472 C1657.15002,608.319739 1657.18149,608.004505 1657.18557,607.68832 Z M1899.78413,684.238205 C1898.8944,683.476421 1897.79638,683.000411 1896.63289,682.872084 L1900.95997,543.857492 C1903.63398,543.729817 1905.87127,541.781285 1906.36882,539.14673 L2035.80489,552.101326 C2035.83822,553.393153 2036.30177,554.636744 2037.12182,555.634398 L1899.78413,684.238205 Z M2210.95747,404.324717 L2256.76806,406.44456 C2256.81363,407.247528 2257.02165,408.032845 2257.37949,408.752833 L2050.19712,545.600474 L2210.95747,404.324717 Z M2308.31672,341.907118 L2309.25739,341.907118 L2294.44186,362.06918 L2308.31672,341.907118 Z M2391.28374,232.240575 C2392.15735,232.796933 2393.16497,233.106206 2394.19981,233.13562 C2396.51676,233.13334 2398.61631,231.768326 2399.56163,229.649656 L2548.42251,282.268869 C2548.26813,282.725821 2548.17328,283.200822 2548.14031,283.682098 C2548.1262,283.885986 2548.1262,284.090608 2548.14031,284.294497 L2312.31457,339.410414 L2391.28374,232.240575 Z M2699.8232,146.316273 L2778.83941,130.017036 C2778.93653,130.356902 2779.06241,130.687855 2779.21568,131.006296 L2560.55714,278.500259 L2699.8232,146.316273 Z" id="Shape" opacity="0.8"></path>
                </g>
            </g>
        </g>
    </g>
</svg>