<?xml version="1.0" encoding="UTF-8"?>
<svg width="1368px" height="465px" viewBox="0 0 1368 465" version="1.1" xmlns="http://www.w3.org/2000/svg" xmlns:xlink="http://www.w3.org/1999/xlink">
    <!-- Generator: Sketch 50.2 (55047) - http://www.bohemiancoding.com/sketch -->
    <title>bg-footer</title>
    <desc>Created with Sketch.</desc>
    <defs></defs>
    <g id="Page-1" stroke="none" stroke-width="1" fill="none" fill-rule="evenodd">
        <g id="main-v6-slide-1" transform="translate(-276.000000, -4427.000000)" fill-rule="nonzero">
            <g id="Footer" transform="translate(276.000000, 4427.000000)">
                <g id="bg-footer" transform="translate(-16.000000, -230.000000)">
                    <g id="Group" transform="translate(688.524590, 399.807229)" fill="#14A9FF">
                        <rect id="Rectangle-path" transform="translate(463.493093, 94.402783) rotate(-61.500000) translate(-463.493093, -94.402783) " x="362.820962" y="92.7642292" width="201.344262" height="1.14698795"></rect>
                        <polygon id="Shape" points="328.557377 233.493976 328.196721 232.904096 414.360656 182.076145 414.721311 182.666024"></polygon>
                        <polygon id="Shape" points="711.47541 183.714699 641.57377 167.984578 641.311475 169.098795 711.47541 184.861687"></polygon>
                        <rect id="Rectangle-path" transform="translate(596.146150, 221.512337) rotate(-48.530000) translate(-596.146150, -221.512337) " x="526.474019" y="219.873783" width="139.344262" height="1"></rect>
                        <rect id="Rectangle-path" transform="translate(618.608143, 255.835217) rotate(-74.710000) translate(-618.608143, -255.835217) " x="528.329455" y="254.196662" width="180.557377" height="1.0486747"></rect>
                        <rect id="Rectangle-path" transform="translate(644.985239, 244.983756) rotate(-1.760000) translate(-644.985239, -244.983756) " x="643.345895" y="168.496045" width="1" height="152.975422"></rect>
                        <polygon id="Shape" points="645.967213 321.779277 548.819672 273.081446 549.180328 272.426024 646.327869 321.091084"></polygon>
                        <rect id="Rectangle-path" transform="translate(661.697920, 230.271709) rotate(-81.030000) translate(-661.697920, -230.271709) " x="569.22251" y="228.633155" width="184.95082" height="1.08144578"></rect>
                        <rect id="Rectangle-path" transform="translate(659.279843, 154.824921) rotate(-41.210000) translate(-659.279843, -154.824921) " x="636.804433" y="153.186367" width="44.9508197" height="1"></rect>
                        <polygon id="Shape" points="711.47541 154.777831 675.409836 138.392289 674.983607 139.342651 711.47541 155.924819"></polygon>
                        <polygon id="Shape" points="711.47541 136.262169 675.180328 138.359518 675.245902 139.375422 711.47541 137.310843"></polygon>
                        <rect id="Rectangle-path" transform="translate(612.927171, 206.630789) rotate(-46.700000) translate(-612.927171, -206.630789) " x="520.910777" y="204.992234" width="184.032787" height="1.08144578"></rect>
                        <rect id="Rectangle-path" transform="translate(352.960394, 285.055456) rotate(-24.160000) translate(-352.960394, -285.055456) " x="351.321049" y="227.738829" width="1" height="114.633253"></rect>
                        <rect id="Rectangle-path" transform="translate(395.995678, 260.279316) rotate(-75.870000) translate(-395.995678, -260.279316) " x="315.81535" y="258.640761" width="160.360656" height="1"></rect>
                        <rect id="Rectangle-path" transform="translate(678.310914, 100.367334) rotate(-87.480000) translate(-678.310914, -100.367334) " x="639.687963" y="98.7287796" width="77.2459016" height="1"></rect>
                        <polygon id="Shape" points="641.803279 168.672771 641.081967 168.410602 678.42623 61.6096386 679.147541 61.8718072"></polygon>
                        <polygon id="Shape" points="711.47541 73.8987952 678.983607 61.2491566 678.590164 62.2650602 711.47541 75.0457831"></polygon>
                        <rect id="Rectangle-path" transform="translate(595.179672, 32.682134) rotate(-71.510000) translate(-595.179672, -32.682134) " x="593.540328" y="-55.8653361" width="1.04918033" height="177.09494"></rect>
                        <rect id="Rectangle-path" transform="translate(583.490811, 148.788564) rotate(-5.500000) translate(-583.490811, -148.788564) " x="491.228516" y="147.150009" width="184.52459" height="1.08144578"></rect>
                        <rect id="Rectangle-path" transform="translate(566.515188, 161.355683) rotate(-85.460000) translate(-566.515188, -161.355683) " x="564.875843" y="86.1952013" width="1" height="150.320964"></rect>
                        <rect id="Rectangle-path" transform="translate(410.452273, 195.981303) rotate(-25.160000) translate(-410.452273, -195.981303) " x="320.321125" y="194.342749" width="180.262295" height="1.0486747"></rect>
                        <polygon id="Shape" points="548.622951 272.950361 491.147541 156.809639 491.901639 156.449157 549.377049 272.557108"></polygon>
                        <polygon id="Shape" points="414.622951 182.666024 414.42623 182.076145 491.442623 156.318072 491.639344 156.907952"></polygon>
                        <polygon id="Shape" points="711.47541 60.1349398 678.754098 61.1836145 678.819672 62.2978313 711.47541 61.2491566"></polygon>
                        <polygon id="Shape" points="711.47541 24.7421687 678.491803 61.5113253 679.081967 62.0028916 711.47541 25.8563855"></polygon>
                        <polygon id="Shape" points="711.47541 62.6583133 674.754098 138.654458 675.672131 139.113253 711.47541 65.0506024"></polygon>
                        <rect id="Rectangle-path" transform="translate(168.481024, 319.415747) rotate(-15.350000) translate(-168.481024, -319.415747) " x="166.84168" y="223.429241" width="1.1147541" height="191.973012"></rect>
                        <rect id="Rectangle-path" transform="translate(235.222709, 229.122415) rotate(-88.160000) translate(-235.222709, -229.122415) " x="233.583364" y="135.937837" width="1.08196721" height="186.369157"></rect>
                        <rect id="Rectangle-path" transform="translate(364.652975, 242.294129) rotate(-7.030000) translate(-364.652975, -242.294129) " x="363.013631" y="146.225695" width="1.1147541" height="192.136867"></rect>
                        <rect id="Rectangle-path" transform="translate(341.358900, 190.492829) rotate(-74.700000) translate(-341.358900, -190.492829) " x="296.719556" y="188.854275" width="89.2786885" height="1"></rect>
                        <rect id="Rectangle-path" transform="translate(383.823186, 163.580829) rotate(-60.640000) translate(-383.823186, -163.580829) " x="382.183842" y="127.614564" width="1" height="71.9325301"></rect>
                        <rect id="Rectangle-path" transform="translate(201.097134, 200.976041) rotate(-25.100000) translate(-201.097134, -200.976041) " x="136.425003" y="199.337487" width="129.344262" height="1"></rect>
                        <rect id="Rectangle-path" transform="translate(318.116348, 254.618947) rotate(-35.070000) translate(-318.116348, -254.618947) " x="316.477004" y="153.63485" width="1.14754098" height="201.968193"></rect>
                        <rect id="Rectangle-path" transform="translate(294.623459, 201.863300) rotate(-48.720000) translate(-294.623459, -201.863300) " x="292.984115" y="155.852698" width="1" height="92.0212048"></rect>
                        <rect id="Rectangle-path" transform="translate(336.949284, 176.279295) rotate(-86.360000) translate(-336.949284, -176.279295) " x="335.30994" y="98.4971263" width="1" height="155.564337"></rect>
                        <rect id="Rectangle-path" transform="translate(237.537020, 252.469993) rotate(-74.080000) translate(-237.537020, -252.469993) " x="154.651774" y="250.831438" width="165.770492" height="1"></rect>
                        <rect id="Rectangle-path" transform="translate(178.880697, 278.778110) rotate(-34.420000) translate(-178.880697, -278.778110) " x="177.241352" y="215.382447" width="1" height="126.791325"></rect>
                        <polygon id="Shape" points="214 332.167711 213.409836 331.479518 328.065574 232.838554 328.655738 233.559518"></polygon>
                        <rect id="Rectangle-path" transform="translate(114.892570, 284.653052) rotate(-63.630000) translate(-114.892570, -284.653052) " x="51.3351932" y="283.014498" width="127.114754" height="1"></rect>
                        <polygon id="Shape" points="711.47541 218.878072 679.278689 61.6424096 678.295082 61.8390361 711.47541 223.859277"></polygon>
                        <polygon id="Shape" points="711.47541 222.646747 675.508197 138.752771 674.885246 139.01494 711.47541 224.416386"></polygon>
                        <polygon id="Shape" points="711.47541 226.05494 645.836066 321.189398 646.491803 321.648193 711.47541 227.431325"></polygon>
                        <polygon id="Shape" points="711.47541 224.383614 641.672131 168.279518 641.245902 168.803855 711.47541 225.268434"></polygon>
                        <polygon id="Shape" points="711.47541 225.235663 548.852459 272.262169 549.147541 273.245301 711.47541 226.284337"></polygon>
                        <polygon id="Shape" points="711.47541 225.628916 593.409836 342.261205 594.098361 342.949398 711.47541 227.038072"></polygon>
                        <polygon id="Shape" points="678.754098 62.1339759 573.114754 56.8250602 573.147541 56.1040964 678.819672 61.380241"></polygon>
                        <rect id="Rectangle-path" transform="translate(624.926706, 96.762893) rotate(-51.070000) translate(-624.926706, -96.762893) " x="623.287361" y="31.1879531" width="1" height="131.14988"></rect>
                        <polygon id="Shape" points="641.081967 168.738313 572.786885 56.6939759 573.508197 56.2351807 641.803279 168.312289"></polygon>
                        <rect id="Rectangle-path" transform="translate(494.498359, 120.303873) rotate(-38.490000) translate(-494.498359, -120.303873) " x="393.236064" y="118.665319" width="202.52459" height="1.14698795"></rect>
                        <rect id="Rectangle-path" transform="translate(524.972660, 142.729733) rotate(-60.230000) translate(-524.972660, -142.729733) " x="426.185775" y="141.091179" width="197.57377" height="1.11421687"></rect>
                        <rect id="Rectangle-path" transform="translate(417.883607, 183.088116) rotate(-56.784749) translate(-417.883607, -183.088116) " x="416.237636" y="109.219669" width="1" height="147.736893"></rect>
                        <rect id="Rectangle-path" transform="translate(486.346466, 308.894829) rotate(-7.240000) translate(-486.346466, -308.894829) " x="484.707121" y="227.049046" width="1" height="163.691566"></rect>
                        <rect id="Rectangle-path" transform="translate(484.503070, 192.491765) rotate(-76.710000) translate(-484.503070, -192.491765) " x="447.9293" y="190.853211" width="73.147541" height="1"></rect>
                        <rect id="Rectangle-path" transform="translate(426.017999, 283.626903) rotate(-47.890000) translate(-426.017999, -283.626903) " x="351.821278" y="281.988349" width="148.393443" height="1"></rect>
                        <polygon id="Shape" points="645.901639 321.910361 474.622951 228.316145 475.180328 227.333012 646.42623 320.927229"></polygon>
                        <rect id="Rectangle-path" transform="translate(558.526137, 199.152052) rotate(-19.450000) translate(-558.526137, -199.152052) " x="470.132694" y="197.513498" width="176.786885" height="1.0486747"></rect>
                        <polygon id="Shape" points="328.393443 233.657831 328.360656 232.740241 474.885246 227.365783 474.918033 228.283373"></polygon>
                        <polygon id="Shape" points="548.819672 273.048675 474.721311 228.086747 475.04918 227.529639 549.180328 272.491566"></polygon>
                        <polygon id="Shape" points="474.721311 228.053976 414.360656 182.600482 414.721311 182.108916 475.081967 227.56241"></polygon>
                        <rect id="Rectangle-path" transform="translate(535.150781, 284.394311) rotate(-45.980000) translate(-535.150781, -284.394311) " x="533.511437" y="201.794793" width="1" height="165.199036"></rect>
                        <rect id="Rectangle-path" transform="translate(387.527369, 260.876607) rotate(-19.940000) translate(-387.527369, -260.876607) " x="294.068352" y="259.238053" width="186.918033" height="1.08144578"></rect>
                        <rect id="Rectangle-path" transform="translate(280.450377, 231.800822) rotate(-18.570000) translate(-280.450377, -231.800822) " x="278.811033" y="168.765641" width="1" height="126.070361"></rect>
                        <rect id="Rectangle-path" transform="translate(326.627330, 219.884986) rotate(-70.070000) translate(-326.627330, -219.884986) " x="249.545362" y="218.246432" width="154.163934" height="1"></rect>
                        <rect id="Rectangle-path" transform="translate(221.114522, 258.592816) rotate(-67.610000) translate(-221.114522, -258.592816) " x="219.475178" y="173.535467" width="1.01639344" height="170.114699"></rect>
                        <rect id="Rectangle-path" transform="translate(315.097639, 263.226147) rotate(-63.700000) translate(-315.097639, -263.226147) " x="282.29436" y="261.587593" width="65.6065574" height="1"></rect>
                        <rect id="Rectangle-path" transform="translate(357.750310, 238.105892) rotate(-43.520000) translate(-357.750310, -238.105892) " x="278.225719" y="236.467338" width="159.04918" height="1"></rect>
                        <polygon id="Shape" points="711.47541 98.4443373 573.311475 55.940241 572.983607 56.9889157 711.47541 99.5913253"></polygon>
                        <polygon id="Shape" points="711.47541 82.8125301 678.983607 61.4785542 678.590164 62.0356627 711.47541 83.6318072"></polygon>
                        <polygon id="Shape" points="711.47541 127.020723 675.114754 138.556145 675.311475 139.178795 711.47541 127.708916"></polygon>
                        <polygon id="Shape" points="711.47541 134.328675 641.278689 168.148434 641.639344 168.902169 711.47541 135.246265"></polygon>
                        <ellipse id="Oval" cx="414.52459" cy="182.371084" rx="2.52459016" ry="2.52337349"></ellipse>
                        <ellipse id="Oval" cx="510.754098" cy="5.60385542" rx="2.52459016" ry="2.52337349"></ellipse>
                        <ellipse id="Oval" cx="414.52459" cy="182.371084" rx="2.52459016" ry="2.52337349"></ellipse>
                        <ellipse id="Oval" cx="328.360656" cy="233.199036" rx="2.52459016" ry="2.52337349"></ellipse>
                        <ellipse id="Oval" cx="641.442623" cy="168.541687" rx="2.52459016" ry="2.52337349"></ellipse>
                        <ellipse id="Oval" cx="548.983607" cy="272.753735" rx="2.52459016" ry="2.52337349"></ellipse>
                        <ellipse id="Oval" cx="641.442623" cy="168.541687" rx="2.52459016" ry="2.52337349"></ellipse>
                        <ellipse id="Oval" cx="641.442623" cy="168.541687" rx="2.52459016" ry="2.52337349"></ellipse>
                        <ellipse id="Oval" cx="641.442623" cy="168.541687" rx="2.52459016" ry="2.52337349"></ellipse>
                        <ellipse id="Oval" cx="548.983607" cy="272.753735" rx="2.52459016" ry="2.52337349"></ellipse>
                        <ellipse id="Oval" cx="675.213115" cy="138.883855" rx="2.52459016" ry="2.52337349"></ellipse>
                        <ellipse id="Oval" cx="641.442623" cy="168.541687" rx="2.52459016" ry="2.52337349"></ellipse>
                        <ellipse id="Oval" cx="675.213115" cy="138.883855" rx="2.52459016" ry="2.52337349"></ellipse>
                        <ellipse id="Oval" cx="675.213115" cy="138.883855" rx="2.52459016" ry="2.52337349"></ellipse>
                        <ellipse id="Oval" cx="675.213115" cy="138.883855" rx="2.52459016" ry="2.52337349"></ellipse>
                        <ellipse id="Oval" cx="548.983607" cy="272.753735" rx="2.52459016" ry="2.52337349"></ellipse>
                        <ellipse id="Oval" cx="675.213115" cy="138.883855" rx="2.52459016" ry="2.52337349"></ellipse>
                        <ellipse id="Oval" cx="328.360656" cy="233.199036" rx="2.52459016" ry="2.52337349"></ellipse>
                        <ellipse id="Oval" cx="414.52459" cy="182.371084" rx="2.52459016" ry="2.52337349"></ellipse>
                        <ellipse id="Oval" cx="675.213115" cy="138.883855" rx="2.52459016" ry="2.52337349"></ellipse>
                        <ellipse id="Oval" cx="678.786885" cy="61.7407229" rx="2.52459016" ry="2.52337349"></ellipse>
                        <ellipse id="Oval" cx="641.442623" cy="168.541687" rx="2.52459016" ry="2.52337349"></ellipse>
                        <ellipse id="Oval" cx="678.786885" cy="61.7407229" rx="2.52459016" ry="2.52337349"></ellipse>
                        <ellipse id="Oval" cx="678.786885" cy="61.7407229" rx="2.52459016" ry="2.52337349"></ellipse>
                        <ellipse id="Oval" cx="510.754098" cy="5.60385542" rx="2.52459016" ry="2.52337349"></ellipse>
                        <ellipse id="Oval" cx="678.786885" cy="61.7407229" rx="2.52459016" ry="2.52337349"></ellipse>
                        <ellipse id="Oval" cx="675.213115" cy="138.883855" rx="2.52459016" ry="2.52337349"></ellipse>
                        <ellipse id="Oval" cx="491.540984" cy="156.613012" rx="2.52459016" ry="2.52337349"></ellipse>
                        <ellipse id="Oval" cx="641.442623" cy="168.541687" rx="2.52459016" ry="2.52337349"></ellipse>
                        <ellipse id="Oval" cx="491.540984" cy="156.613012" rx="2.52459016" ry="2.52337349"></ellipse>
                        <ellipse id="Oval" cx="328.360656" cy="233.199036" rx="2.52459016" ry="2.52337349"></ellipse>
                        <ellipse id="Oval" cx="491.540984" cy="156.613012" rx="2.52459016" ry="2.52337349"></ellipse>
                        <ellipse id="Oval" cx="548.983607" cy="272.753735" rx="2.52459016" ry="2.52337349"></ellipse>
                        <ellipse id="Oval" cx="491.540984" cy="156.613012" rx="2.52459016" ry="2.52337349"></ellipse>
                        <ellipse id="Oval" cx="414.52459" cy="182.371084" rx="2.52459016" ry="2.52337349"></ellipse>
                        <ellipse id="Oval" cx="491.540984" cy="156.613012" rx="2.52459016" ry="2.52337349"></ellipse>
                        <ellipse id="Oval" cx="678.786885" cy="61.7407229" rx="2.52459016" ry="2.52337349"></ellipse>
                        <ellipse id="Oval" cx="678.786885" cy="61.7407229" rx="2.52459016" ry="2.52337349"></ellipse>
                        <ellipse id="Oval" cx="675.213115" cy="138.883855" rx="2.52459016" ry="2.52337349"></ellipse>
                        <ellipse id="Oval" cx="142" cy="227.201928" rx="2.52459016" ry="2.52337349"></ellipse>
                        <ellipse id="Oval" cx="328.360656" cy="233.199036" rx="2.52459016" ry="2.52337349"></ellipse>
                        <ellipse id="Oval" cx="142" cy="227.201928" rx="2.52459016" ry="2.52337349"></ellipse>
                        <ellipse id="Oval" cx="351.803279" cy="147.109398" rx="2.52459016" ry="2.52337349"></ellipse>
                        <ellipse id="Oval" cx="328.360656" cy="233.199036" rx="2.52459016" ry="2.52337349"></ellipse>
                        <ellipse id="Oval" cx="351.803279" cy="147.109398" rx="2.52459016" ry="2.52337349"></ellipse>
                        <ellipse id="Oval" cx="414.52459" cy="182.371084" rx="2.52459016" ry="2.52337349"></ellipse>
                        <ellipse id="Oval" cx="351.803279" cy="147.109398" rx="2.52459016" ry="2.52337349"></ellipse>
                        <ellipse id="Oval" cx="142" cy="227.201928" rx="2.52459016" ry="2.52337349"></ellipse>
                        <ellipse id="Oval" cx="259.180328" cy="172.506988" rx="2.52459016" ry="2.52337349"></ellipse>
                        <ellipse id="Oval" cx="259.180328" cy="172.506988" rx="2.52459016" ry="2.52337349"></ellipse>
                        <ellipse id="Oval" cx="328.360656" cy="233.199036" rx="2.52459016" ry="2.52337349"></ellipse>
                        <ellipse id="Oval" cx="259.180328" cy="172.506988" rx="2.52459016" ry="2.52337349"></ellipse>
                        <ellipse id="Oval" cx="414.52459" cy="182.371084" rx="2.52459016" ry="2.52337349"></ellipse>
                        <ellipse id="Oval" cx="259.180328" cy="172.506988" rx="2.52459016" ry="2.52337349"></ellipse>
                        <ellipse id="Oval" cx="259.180328" cy="172.506988" rx="2.52459016" ry="2.52337349"></ellipse>
                        <ellipse id="Oval" cx="142" cy="227.201928" rx="2.52459016" ry="2.52337349"></ellipse>
                        <ellipse id="Oval" cx="328.360656" cy="233.199036" rx="2.52459016" ry="2.52337349"></ellipse>
                        <ellipse id="Oval" cx="142" cy="227.201928" rx="2.52459016" ry="2.52337349"></ellipse>
                        <ellipse id="Oval" cx="678.786885" cy="61.7407229" rx="2.52459016" ry="2.52337349"></ellipse>
                        <ellipse id="Oval" cx="675.213115" cy="138.883855" rx="2.52459016" ry="2.52337349"></ellipse>
                        <ellipse id="Oval" cx="641.442623" cy="168.541687" rx="2.52459016" ry="2.52337349"></ellipse>
                        <ellipse id="Oval" cx="548.983607" cy="272.753735" rx="2.52459016" ry="2.52337349"></ellipse>
                        <ellipse id="Oval" cx="678.786885" cy="61.7407229" rx="2.52459016" ry="2.52337349"></ellipse>
                        <ellipse id="Oval" cx="573.147541" cy="56.4645783" rx="2.52459016" ry="2.52337349"></ellipse>
                        <ellipse id="Oval" cx="675.213115" cy="138.883855" rx="2.52459016" ry="2.52337349"></ellipse>
                        <ellipse id="Oval" cx="573.147541" cy="56.4645783" rx="2.52459016" ry="2.52337349"></ellipse>
                        <ellipse id="Oval" cx="641.442623" cy="168.541687" rx="2.52459016" ry="2.52337349"></ellipse>
                        <ellipse id="Oval" cx="573.147541" cy="56.4645783" rx="2.52459016" ry="2.52337349"></ellipse>
                        <ellipse id="Oval" cx="414.52459" cy="182.371084" rx="2.52459016" ry="2.52337349"></ellipse>
                        <ellipse id="Oval" cx="573.147541" cy="56.4645783" rx="2.52459016" ry="2.52337349"></ellipse>
                        <ellipse id="Oval" cx="573.147541" cy="56.4645783" rx="2.52459016" ry="2.52337349"></ellipse>
                        <ellipse id="Oval" cx="474.885246" cy="227.824578" rx="2.52459016" ry="2.52337349"></ellipse>
                        <ellipse id="Oval" cx="351.803279" cy="147.109398" rx="2.52459016" ry="2.52337349"></ellipse>
                        <ellipse id="Oval" cx="474.885246" cy="227.824578" rx="2.52459016" ry="2.52337349"></ellipse>
                        <ellipse id="Oval" cx="474.885246" cy="227.824578" rx="2.52459016" ry="2.52337349"></ellipse>
                        <ellipse id="Oval" cx="491.540984" cy="156.613012" rx="2.52459016" ry="2.52337349"></ellipse>
                        <ellipse id="Oval" cx="474.885246" cy="227.824578" rx="2.52459016" ry="2.52337349"></ellipse>
                        <ellipse id="Oval" cx="474.885246" cy="227.824578" rx="2.52459016" ry="2.52337349"></ellipse>
                        <ellipse id="Oval" cx="474.885246" cy="227.824578" rx="2.52459016" ry="2.52337349"></ellipse>
                        <ellipse id="Oval" cx="641.442623" cy="168.541687" rx="2.52459016" ry="2.52337349"></ellipse>
                        <ellipse id="Oval" cx="474.885246" cy="227.824578" rx="2.52459016" ry="2.52337349"></ellipse>
                        <ellipse id="Oval" cx="328.360656" cy="233.199036" rx="2.52459016" ry="2.52337349"></ellipse>
                        <ellipse id="Oval" cx="474.885246" cy="227.824578" rx="2.52459016" ry="2.52337349"></ellipse>
                        <ellipse id="Oval" cx="548.983607" cy="272.753735" rx="2.52459016" ry="2.52337349"></ellipse>
                        <ellipse id="Oval" cx="474.885246" cy="227.824578" rx="2.52459016" ry="2.52337349"></ellipse>
                        <ellipse id="Oval" cx="414.52459" cy="182.371084" rx="2.52459016" ry="2.52337349"></ellipse>
                        <ellipse id="Oval" cx="474.885246" cy="227.824578" rx="2.52459016" ry="2.52337349"></ellipse>
                        <ellipse id="Oval" cx="474.885246" cy="227.824578" rx="2.52459016" ry="2.52337349"></ellipse>
                        <ellipse id="Oval" cx="474.885246" cy="227.824578" rx="2.52459016" ry="2.52337349"></ellipse>
                        <ellipse id="Oval" cx="299.344262" cy="292.023133" rx="2.52459016" ry="2.52337349"></ellipse>
                        <ellipse id="Oval" cx="259.180328" cy="172.506988" rx="2.52459016" ry="2.52337349"></ellipse>
                        <ellipse id="Oval" cx="299.344262" cy="292.023133" rx="2.52459016" ry="2.52337349"></ellipse>
                        <ellipse id="Oval" cx="351.803279" cy="147.109398" rx="2.52459016" ry="2.52337349"></ellipse>
                        <ellipse id="Oval" cx="299.344262" cy="292.023133" rx="2.52459016" ry="2.52337349"></ellipse>
                        <ellipse id="Oval" cx="142" cy="227.201928" rx="2.52459016" ry="2.52337349"></ellipse>
                        <ellipse id="Oval" cx="299.344262" cy="292.023133" rx="2.52459016" ry="2.52337349"></ellipse>
                        <ellipse id="Oval" cx="328.360656" cy="233.199036" rx="2.52459016" ry="2.52337349"></ellipse>
                        <ellipse id="Oval" cx="299.344262" cy="292.023133" rx="2.52459016" ry="2.52337349"></ellipse>
                        <ellipse id="Oval" cx="414.52459" cy="182.371084" rx="2.52459016" ry="2.52337349"></ellipse>
                        <ellipse id="Oval" cx="299.344262" cy="292.023133" rx="2.52459016" ry="2.52337349"></ellipse>
                        <ellipse id="Oval" cx="573.147541" cy="56.4645783" rx="2.52459016" ry="2.52337349"></ellipse>
                        <ellipse id="Oval" cx="678.786885" cy="61.7407229" rx="2.52459016" ry="2.52337349"></ellipse>
                        <ellipse id="Oval" cx="675.213115" cy="138.883855" rx="2.52459016" ry="2.52337349"></ellipse>
                        <ellipse id="Oval" cx="641.442623" cy="168.541687" rx="2.52459016" ry="2.52337349"></ellipse>
                    </g>
                    <g id="Group" opacity="0.300000012" fill="#00A2FF">
                        <polygon id="Shape" points="300.491803 533.218313 300.754098 531.678072 572.95082 578.344096 572.688525 579.884337"></polygon>
                        <polygon id="Shape" points="300.557377 533.12 300.688525 531.743614 533.901639 552.815422 533.770492 554.191807"></polygon>
                        <rect id="Rectangle-path" transform="translate(182.713437, 569.053544) rotate(-16.830000) translate(-182.713437, -569.053544) " x="59.2052408" y="567.41499" width="247.016393" height="1.44192771"></rect>
                        <polygon id="Shape" points="572.360656 578.966747 614.688525 450.733494 615.639344 451.028434 573.278689 579.261687"></polygon>
                        <polygon id="Shape" points="534.196721 553.798554 533.47541 553.208675 614.786885 450.569639 615.540984 451.192289"></polygon>
                        <rect id="Rectangle-path" transform="translate(511.409921, 526.255773) rotate(-35.850000) translate(-511.409921, -526.255773) " x="383.131233" y="524.617218" width="256.557377" height="1.4746988"></rect>
                        <rect id="Rectangle-path" transform="translate(508.282862, 404.772069) rotate(-67.110000) translate(-508.282862, -404.772069) " x="506.643518" y="288.451105" width="1.37704918" height="232.641928"></rect>
                        <rect id="Rectangle-path" transform="translate(351.501369, 446.979517) rotate(-59.800000) translate(-351.501369, -446.979517) " x="252.009566" y="445.340963" width="198.983607" height="1.2453012"></rect>
                        <rect id="Rectangle-path" transform="translate(468.038610, 456.493379) rotate(-34.590000) translate(-468.038610, -456.493379) " x="466.399266" y="339.27121" width="1.37704918" height="234.444337"></rect>
                        <rect id="Rectangle-path" transform="translate(404.589724, 480.366086) rotate(-1.420000) translate(-404.589724, -480.366086) " x="402.95038" y="360.473074" width="1.40983607" height="239.786024"></rect>
                        <polygon id="Shape" points="400.655738 361.202892 400.688525 359.826506 631.147541 368.773012 631.114754 370.149398"></polygon>
                        <polygon id="Shape" points="0 544.098313 0 545.605783 170.557377 567.759036 170.754098 566.284337"></polygon>
                        <polygon id="Shape" points="0 572.871325 0 574.083855 63.9672131 604.42988 64.4262295 603.446747"></polygon>
                        <polygon id="Shape" points="334.360656 454.960964 333.672131 454.469398 400.327869 360.25253 401.04918 360.776867"></polygon>
                        <rect id="Rectangle-path" transform="translate(318.487793, 494.108153) rotate(-66.760000) translate(-318.487793, -494.108153) " x="276.176318" y="492.469599" width="84.6229508" height="1"></rect>
                        <rect id="Rectangle-path" transform="translate(453.842497, 516.191271) rotate(-62.470000) translate(-453.842497, -516.191271) " x="452.203152" y="381.616813" width="1.54098361" height="269.148916"></rect>
                        <polygon id="Shape" points="533.540984 554.126265 333.704918 455.321446 334.327869 454.108916 534.131148 552.913735"></polygon>
                        <rect id="Rectangle-path" transform="translate(252.902033, 511.723525) rotate(-34.500000) translate(-252.902033, -511.723525) " x="153.770886" y="510.08497" width="198.262295" height="1.2453012"></rect>
                        <rect id="Rectangle-path" transform="translate(371.285137, 527.052146) rotate(-26.500000) translate(-371.285137, -527.052146) " x="369.645792" y="445.747086" width="1.08196721" height="162.61012"></rect>
                        <rect id="Rectangle-path" transform="translate(356.263233, 559.326467) rotate(-11.460000) translate(-356.263233, -559.326467) " x="354.623889" y="452.328877" width="1.31147541" height="213.995181"></rect>
                        <rect id="Rectangle-path" transform="translate(228.357389, 368.470594) rotate(-51.120000) translate(-228.357389, -368.470594) " x="226.718045" y="232.110112" width="1.54098361" height="272.720964"></rect>
                        <polygon id="Shape" points="0 333.904578 121.836066 284.09253 121.377049 282.978313 0 332.626506"></polygon>
                        <polygon id="Shape" points="0 421.960482 122.131148 283.994217 121.04918 283.043855 0 419.79759"></polygon>
                        <polygon id="Shape" points="35.0819672 472.395181 121.016393 283.273253 122.196721 283.79759 36.2295082 472.919518"></polygon>
                        <polygon id="Shape" points="0 491.631807 35.9016393 473.083373 35.442623 472.231325 0 490.550361"></polygon>
                        <rect id="Rectangle-path" transform="translate(168.343493, 501.692618) rotate(-77.320000) translate(-168.343493, -501.692618) " x="166.704148" y="365.938402" width="1.54098361" height="271.508434"></rect>
                        <polygon id="Shape" points="0 424.844337 0 426.515663 35.2459016 472.952289 36.0655738 472.36241"></polygon>
                        <polygon id="Shape" points="170.360656 567.464096 35.3442623 473.116145 35.9672131 472.198554 170.983607 566.579277"></polygon>
                        <polygon id="Shape" points="63.7377049 604.036627 35.1803279 472.755663 36.1311475 472.559036 64.6885246 603.84"></polygon>
                        <polygon id="Shape" points="0 469.707952 0 470.428916 35.6393443 473.017831 35.704918 472.296867"></polygon>
                        <polygon id="Shape" points="406.52459 600.82506 406.721311 599.61253 599.213115 632.481928 599.016393 633.694458"></polygon>
                        <polygon id="Shape" points="376.655738 665.121928 376.459016 663.778313 599.016393 632.416386 599.213115 633.76"></polygon>
                        <rect id="Rectangle-path" transform="translate(616.016203, 501.390568) rotate(-83.080000) translate(-616.016203, -501.390568) " x="483.163744" y="499.752014" width="265.704918" height="1.50746988"></rect>
                        <polygon id="Shape" points="739.409836 576.377831 739.04918 575.198072 924.786885 516.472289 925.147541 517.652048"></polygon>
                        <rect id="Rectangle-path" transform="translate(669.581729, 605.447187) rotate(-22.260000) translate(-669.581729, -605.447187) " x="593.893205" y="603.808633" width="151.377049" height="1.01590361"></rect>
                        <rect id="Rectangle-path" transform="translate(677.960169, 512.632238) rotate(-44.790000) translate(-677.960169, -512.632238) " x="676.320825" y="424.625491" width="1.14754098" height="176.013494"></rect>
                        <rect id="Rectangle-path" transform="translate(656.025249, 578.584028) rotate(-1.160000) translate(-656.025249, -578.584028) " x="572.795741" y="576.945474" width="166.459016" height="1.11421687"></rect>
                        <rect id="Rectangle-path" transform="translate(636.635913, 563.644968) rotate(-84.050000) translate(-636.635913, -563.644968) " x="634.996569" y="460.383281" width="1.27868852" height="206.523373"></rect>
                        <polygon id="Shape" points="738.622951 576.115663 630.52459 369.756145 631.737705 369.133494 739.836066 575.460241"></polygon>
                        <rect id="Rectangle-path" transform="translate(773.494369, 507.910313) rotate(-63.920000) translate(-773.494369, -507.910313) " x="697.461582" y="506.271759" width="152.065574" height="1.40915663"></rect>
                        <rect id="Rectangle-path" transform="translate(790.107621, 689.073385) rotate(-23.760000) translate(-790.107621, -689.073385) " x="788.468277" y="564.903746" width="1.44262295" height="248.339277"></rect>
                        <polygon id="Shape" points="577.47541 655.159518 576.95082 654.110843 738.983607 575.263614 739.47541 576.312289"></polygon>
                        <rect id="Rectangle-path" transform="translate(597.226577, 552.979150) rotate(-79.450000) translate(-597.226577, -552.979150) " x="493.554446" y="551.340596" width="207.344262" height="1.27807229"></rect>
                        <rect id="Rectangle-path" transform="translate(556.610859, 603.575552) rotate(-23.210000) translate(-556.610859, -603.575552) " x="554.971514" y="548.569287" width="1" height="110.01253"></rect>
                        <rect id="Rectangle-path" transform="translate(492.192917, 626.332469) rotate(-72.330000) translate(-492.192917, -626.332469) " x="490.553573" y="536.851023" width="1.14754098" height="178.962892"></rect>
                        <rect id="Rectangle-path" transform="translate(476.997216, 660.518731) rotate(-2.800000) translate(-476.997216, -660.518731) " x="376.5382" y="658.880176" width="200.918033" height="1.2453012"></rect>
                        <rect id="Rectangle-path" transform="translate(632.061771, 717.506456) rotate(-40.310000) translate(-632.061771, -717.506456) " x="630.422426" y="634.054889" width="1.08196721" height="166.903133"></rect>
                        <polygon id="Shape" points="684.590164 781.754217 738.590164 575.624096 739.868852 575.951807 685.868852 782.081928"></polygon>
                        <rect id="Rectangle-path" transform="translate(629.876953, 680.000099) rotate(-28.990000) translate(-629.876953, -680.000099) " x="628.237609" y="564.072388" width="1.37704918" height="231.855422"></rect>
                        <polygon id="Shape" points="684.590164 782.344096 533.180328 553.929639 534.491803 553.07759 685.868852 781.492048"></polygon>
                        <rect id="Rectangle-path" transform="translate(108.816091, 370.669452) rotate(-54.780000) translate(-108.816091, -370.669452) " x="-16.7412859" y="369.030897" width="251.114754" height="1.4746988"></rect>
                        <polygon id="Shape" points="121.672131 283.830361 121.508197 283.207711 180.42623 267.280964 180.590164 267.936386"></polygon>
                        <rect id="Rectangle-path" transform="translate(257.972507, 360.609043) rotate(-39.350000) translate(-257.972507, -360.609043) " x="256.333162" y="239.618199" width="1.40983607" height="241.981687"></rect>
                        <rect id="Rectangle-path" transform="translate(290.962827, 313.191542) rotate(-67.110000) translate(-290.962827, -313.191542) " x="289.323482" y="193.757325" width="1.40983607" height="238.868434"></rect>
                        <polygon id="Shape" points="0 335.903614 180.754098 268.296867 180.262295 266.920482 0 334.363373"></polygon>
                        <rect id="Rectangle-path" transform="translate(1045.598383, 594.670786) rotate(-56.890000) translate(-1045.598383, -594.670786) " x="1043.95904" y="451.330063" width="1.50819672" height="286.681446"></rect>
                        <polygon id="Shape" points="937.311475 708.641928 738.852459 576.377831 739.639344 575.198072 938.098361 707.462169"></polygon>
                        <rect id="Rectangle-path" transform="translate(932.314306, 612.584154) rotate(-3.810000) translate(-932.314306, -612.584154) " x="930.674962" y="516.876203" width="1.21311475" height="191.415904"></rect>
                        <rect id="Rectangle-path" transform="translate(206.892330, 222.309137) rotate(-61.200000) translate(-206.892330, -222.309137) " x="154.449707" y="220.670583" width="104.885246" height="1"></rect>
                        <polygon id="Shape" points="121.967213 283.895904 121.245902 283.17494 230.754098 175.390843 231.47541 176.144578"></polygon>
                        <polygon id="Shape" points="400.131148 361.006265 230.590164 176.275663 231.639344 175.29253 401.213115 360.023133"></polygon>
                        <polygon id="Shape" points="0 198.789398 0 200.329639 180.262295 268.296867 180.754098 266.920482"></polygon>
                        <polygon id="Shape" points="0 210.554217 0 211.996145 121.278689 284.059759 121.934426 282.978313"></polygon>
                        <rect id="Rectangle-path" transform="translate(354.502387, 230.601269) rotate(-65.510000) translate(-354.502387, -230.601269) " x="352.863043" y="95.6499433" width="1.54098361" height="269.902651"></rect>
                        <rect id="Rectangle-path" transform="translate(406.326500, 371.529729) rotate(-49.500000) translate(-406.326500, -371.529729) " x="296.064205" y="369.891175" width="220.52459" height="1.34361446"></rect>
                        <polygon id="Shape" points="400.983607 360.809639 400.393443 360.219759 476.852459 286.746988 477.442623 287.336867"></polygon>
                        <rect id="Rectangle-path" transform="translate(506.330618, 420.140081) rotate(-12.000000) translate(-506.330618, -420.140081) " x="504.691274" y="283.927069" width="1.54098361" height="272.426024"></rect>
                        <polygon id="Shape" points="180.95082 268.165783 180.065574 267.051566 368.655738 119.68 369.508197 120.794217"></polygon>
                        <rect id="Rectangle-path" transform="translate(385.795731, 240.241493) rotate(-7.490000) translate(-385.795731, -240.241493) " x="384.156387" y="119.070409" width="1.40983607" height="242.342169"></rect>
                        <polygon id="Shape" points="937.803279 708.805783 937.606557 707.265542 1248.88525 668.595663 1249.08197 670.103133"></polygon>
                        <polygon id="Shape" points="0 470.986024 0 472.329639 35.6393443 473.345542 35.704918 472.001928"></polygon>
                        <rect id="Rectangle-path" transform="translate(1137.574877, 660.404253) rotate(-85.930000) translate(-1137.574877, -660.404253) " x="1135.93553" y="548.753169" width="1.27868852" height="223.302169"></rect>
                        <polygon id="Shape" points="1025.54098 653.652048 997.147541 503.626024 998.327869 503.396627 1026.7541 653.422651"></polygon>
                        <rect id="Rectangle-path" transform="translate(1092.500376, 684.499037) rotate(-64.250000) translate(-1092.500376, -684.499037) " x="1090.86103" y="611.206507" width="1.1147541" height="146.58506"></rect>
                        <polygon id="Shape" points="937.934426 708.41253 937.47541 707.691566 1025.93443 653.193253 1026.36066 653.881446"></polygon>
                        <rect id="Rectangle-path" transform="translate(1095.786601, 662.547566) rotate(-81.780000) translate(-1095.786601, -662.547566) " x="1094.14726" y="592.319132" width="1.18032787" height="140.456867"></rect>
                        <polygon id="Shape" points="839.770492 803.61253 838.885246 802.531084 1025.70492 652.996627 1026.59016 654.110843"></polygon>
                        <rect id="Rectangle-path" transform="translate(976.433676, 584.610818) rotate(-36.540000) translate(-976.433676, -584.610818) " x="974.794332" y="499.684553" width="1.1147541" height="169.85253"></rect>
                        <polygon id="Shape" points="715.606557 573.952771 715.868852 572.969639 860.229508 612.91759 859.934426 613.900723"></polygon>
                        <polygon id="Shape" points="859.934426 613.966265 860.196721 612.884819 1026.2623 652.996627 1026 654.078072"></polygon>
                        <polygon id="Shape" points="860.557377 614.031807 859.606557 612.819277 997.278689 502.90506 998.229508 504.11759"></polygon>
                        <polygon id="Shape" points="937.344262 708.346988 859.704918 613.704096 860.42623 613.114217 938.065574 707.757108"></polygon>
                        <polygon id="Shape" points="685.737705 782.409639 684.721311 781.393735 859.57377 612.91759 860.557377 613.933494"></polygon>
                        <rect id="Rectangle-path" transform="translate(850.762698, 708.383867) rotate(-83.760000) translate(-850.762698, -708.383867) " x="755.320075" y="706.745312" width="190.885246" height="1.21253012"></rect>
                        <polygon id="Shape" points="739.081967 576.213976 739.377049 575.329157 860.196721 612.983133 859.934426 613.867952"></polygon>
                        <polygon id="Shape" points="860.459016 613.671325 859.704918 613.179759 924.590164 516.832771 925.344262 517.324337"></polygon>
                        <rect id="Rectangle-path" transform="translate(729.698458, 624.081061) rotate(-4.260000) translate(-729.698458, -624.081061) " x="598.845999" y="622.442507" width="261.704918" height="1.50746988"></rect>
                        <polygon id="Shape" points="859.409836 613.638554 805.409836 439.460241 806.754098 439.066988 860.754098 613.21253"></polygon>
                        <rect id="Rectangle-path" transform="translate(203.587869, 284.690602) rotate(-75.547572) translate(-203.587869, -284.690602) " x="89.8540294" y="283.049265" width="227.467679" height="1.34589666"></rect>
                        <rect id="Rectangle-path" transform="translate(178.328571, 331.544613) rotate(-87.000000) translate(-178.328571, -331.544613) " x="114.312178" y="329.906058" width="128.032787" height="1"></rect>
                        <polygon id="Shape" points="35.9344262 473.116145 35.4098361 472.198554 173.540984 394.957108 174.065574 395.874699"></polygon>
                        <polygon id="Shape" points="173.377049 395.61253 121.180328 283.732048 122 283.338795 174.229508 395.219277"></polygon>
                        <rect id="Rectangle-path" transform="translate(254.268502, 424.076990) rotate(-69.660000) translate(-254.268502, -424.076990) " x="252.629158" y="338.691929" width="1.1147541" height="170.77012"></rect>
                        <rect id="Rectangle-path" transform="translate(287.362765, 378.914452) rotate(-8.780000) translate(-287.362765, -378.914452) " x="172.592273" y="377.275898" width="229.540984" height="1.37638554"></rect>
                        <polygon id="Shape" points="300.196721 532.857831 173.377049 395.809157 174.229508 394.98988 301.081967 532.038554"></polygon>
                        <polygon id="Shape" points="0 363.922892 0 365.332048 173.672131 396.071325 173.934426 394.727711"></polygon>
                        <rect id="Rectangle-path" transform="translate(173.305129, 481.267545) rotate(-88.950000) translate(-173.305129, -481.267545) " x="87.4362768" y="479.628991" width="171.737705" height="1.11421687"></rect>
                        <rect id="Rectangle-path" transform="translate(119.851077, 500.065218) rotate(-62.380000) translate(-119.851077, -500.065218) " x="2.01501133" y="498.426664" width="235.672131" height="1.40915663"></rect>
                        <polygon id="Shape" points="0 454.141687 174.032787 396.038554 173.57377 394.760482 0 452.699759"></polygon>
                        <rect id="Rectangle-path" transform="translate(143.985318, 186.405717) rotate(-24.880000) translate(-143.985318, -186.405717) " x="142.345974" y="97.3666812" width="1.14754098" height="178.078072"></rect>
                        <polygon id="Shape" points="121.016393 283.568193 104.983607 106.112771 106.131148 106.014458 122.163934 283.46988"></polygon>
                        <polygon id="Shape" points="0 420.68241 0 423.336867 35.0491803 473.083373 36.295082 472.231325"></polygon>
                        <polygon id="Shape" points="0 268.788434 0 270.19759 121.508197 284.223614 121.672131 282.814458"></polygon>
                        <polygon id="Shape" points="859.672131 613.80241 745.57377 487.895904 746.393443 487.142169 860.491803 613.048675"></polygon>
                        <rect id="Rectangle-path" transform="translate(728.933443, 532.367576) rotate(-70.655671) translate(-728.933443, -532.367576) " x="683.530895" y="530.735178" width="90.8050944" height="1"></rect>
                        <polygon id="Shape" points="738.852459 575.755181 745.606557 487.502651 746.360656 487.568193 739.606557 575.820723"></polygon>
                        <polygon id="Shape" points="599.57377 633.530602 598.655738 632.645783 745.540984 487.076627 746.42623 487.994217"></polygon>
                        <rect id="Rectangle-path" transform="translate(659.880631, 534.173030) rotate(-27.700000) translate(-659.880631, -534.173030) " x="561.929812" y="532.534476" width="195.901639" height="1.21253012"></rect>
                        <polygon id="Shape" points="534.032787 554.159036 533.639344 552.880964 745.803279 486.88 746.196721 488.158072"></polygon>
                        <rect id="Rectangle-path" transform="translate(201.101813, 194.819646) rotate(-46.710000) translate(-201.101813, -194.819646) " x="199.462468" y="64.4235018" width="1.50819672" height="260.792289"></rect>
                        <polygon id="Shape" points="174.163934 395.809157 173.442623 394.98988 295.081967 284.485783 295.836066 285.30506"></polygon>
                        <polygon id="Shape" points="294.918033 284.68241 368.557377 120.007711 369.606557 120.466506 296 285.141205"></polygon>
                        <polygon id="Shape" points="295.442623 285.468916 295.47541 284.321928 477.147541 286.452048 477.147541 287.631807"></polygon>
                        <polygon id="Shape" points="295.04918 285.141205 230.721311 176.013494 231.508197 175.554699 295.868852 284.68241"></polygon>
                        <polygon id="Shape" points="180.459016 268.06747 180.590164 267.182651 295.508197 284.453012 295.377049 285.337831"></polygon>
                        <rect id="Rectangle-path" transform="translate(208.866557, 283.591952) rotate(-89.427061) translate(-208.866557, -283.591952) " x="207.227131" y="196.695077" width="1.11480983" height="173.793749"></rect>
                        <rect id="Rectangle-path" transform="translate(315.774661, 369.564830) rotate(-12.790000) translate(-315.774661, -369.564830) " x="314.135316" y="282.492059" width="1.1147541" height="174.145542"></rect>
                        <polygon id="Shape" points="400.393443 360.907952 295.180328 285.272289 295.737705 284.518554 400.95082 360.121446"></polygon>
                        <polygon id="Shape" points="299.901639 532.464578 294.721311 284.911807 296.163934 284.879036 301.344262 532.431807"></polygon>
                        <ellipse id="Oval" transform="translate(572.823814, 579.111128) rotate(-63.830000) translate(-572.823814, -579.111128) " cx="572.823814" cy="579.111128" rx="3.40983607" ry="3.40819277"></ellipse>
                        <ellipse id="Oval" transform="translate(300.616842, 532.450248) rotate(-63.820000) translate(-300.616842, -532.450248) " cx="300.616842" cy="532.450248" rx="3.40983607" ry="3.40819277"></ellipse>
                        <ellipse id="Oval" transform="translate(533.838588, 553.519702) rotate(-63.780000) translate(-533.838588, -553.519702) " cx="533.838588" cy="553.519702" rx="3.40983607" ry="3.40819277"></ellipse>
                        <ellipse id="Oval" transform="translate(300.616842, 532.450248) rotate(-63.820000) translate(-300.616842, -532.450248) " cx="300.616842" cy="532.450248" rx="3.40983607" ry="3.40819277"></ellipse>
                        <ellipse id="Oval" transform="translate(64.200149, 603.957024) rotate(-63.780000) translate(-64.200149, -603.957024) " cx="64.2001491" cy="603.957024" rx="3.40983607" ry="3.40819277"></ellipse>
                        <ellipse id="Oval" transform="translate(300.616842, 532.450248) rotate(-63.820000) translate(-300.616842, -532.450248) " cx="300.616842" cy="532.450248" rx="3.40983607" ry="3.40819277"></ellipse>
                        <ellipse id="Oval" transform="translate(572.823814, 579.111128) rotate(-63.830000) translate(-572.823814, -579.111128) " cx="572.823814" cy="579.111128" rx="3.40983607" ry="3.40819277"></ellipse>
                        <ellipse id="Oval" transform="translate(615.139010, 450.910117) rotate(-63.840000) translate(-615.139010, -450.910117) " cx="615.13901" cy="450.910117" rx="3.40983607" ry="3.40819277"></ellipse>
                        <ellipse id="Oval" transform="translate(533.838588, 553.519702) rotate(-63.780000) translate(-533.838588, -553.519702) " cx="533.838588" cy="553.519702" rx="3.40983607" ry="3.40819277"></ellipse>
                        <ellipse id="Oval" transform="translate(615.139010, 450.910117) rotate(-63.840000) translate(-615.139010, -450.910117) " cx="615.13901" cy="450.910117" rx="3.40983607" ry="3.40819277"></ellipse>
                        <ellipse id="Oval" transform="translate(406.635921, 600.243302) rotate(-63.830000) translate(-406.635921, -600.243302) " cx="406.635921" cy="600.243302" rx="3.40983607" ry="3.40819277"></ellipse>
                        <ellipse id="Oval" transform="translate(615.139010, 450.910117) rotate(-63.840000) translate(-615.139010, -450.910117) " cx="615.13901" cy="450.910117" rx="3.40983607" ry="3.40819277"></ellipse>
                        <ellipse id="Oval" transform="translate(615.139010, 450.910117) rotate(-63.840000) translate(-615.139010, -450.910117) " cx="615.13901" cy="450.910117" rx="3.40983607" ry="3.40819277"></ellipse>
                        <ellipse id="Oval" transform="translate(400.679676, 360.518293) rotate(-63.790000) translate(-400.679676, -360.518293) " cx="400.679676" cy="360.518293" rx="3.40983607" ry="3.40819277"></ellipse>
                        <ellipse id="Oval" transform="translate(300.616842, 532.450248) rotate(-63.820000) translate(-300.616842, -532.450248) " cx="300.616842" cy="532.450248" rx="3.40983607" ry="3.40819277"></ellipse>
                        <ellipse id="Oval" transform="translate(400.679676, 360.518293) rotate(-63.790000) translate(-400.679676, -360.518293) " cx="400.679676" cy="360.518293" rx="3.40983607" ry="3.40819277"></ellipse>
                        <ellipse id="Oval" transform="translate(533.838588, 553.519702) rotate(-63.780000) translate(-533.838588, -553.519702) " cx="533.838588" cy="553.519702" rx="3.40983607" ry="3.40819277"></ellipse>
                        <ellipse id="Oval" transform="translate(400.679676, 360.518293) rotate(-63.790000) translate(-400.679676, -360.518293) " cx="400.679676" cy="360.518293" rx="3.40983607" ry="3.40819277"></ellipse>
                        <ellipse id="Oval" transform="translate(406.635921, 600.243302) rotate(-63.830000) translate(-406.635921, -600.243302) " cx="406.635921" cy="600.243302" rx="3.40983607" ry="3.40819277"></ellipse>
                        <ellipse id="Oval" transform="translate(400.679676, 360.518293) rotate(-63.790000) translate(-400.679676, -360.518293) " cx="400.679676" cy="360.518293" rx="3.40983607" ry="3.40819277"></ellipse>
                        <ellipse id="Oval" transform="translate(631.149132, 369.473078) rotate(-63.830000) translate(-631.149132, -369.473078) " cx="631.149132" cy="369.473078" rx="3.40983607" ry="3.40819277"></ellipse>
                        <ellipse id="Oval" transform="translate(400.679676, 360.518293) rotate(-63.790000) translate(-400.679676, -360.518293) " cx="400.679676" cy="360.518293" rx="3.40983607" ry="3.40819277"></ellipse>
                        <ellipse id="Oval" transform="translate(170.675201, 567.031682) rotate(-63.820000) translate(-170.675201, -567.031682) " cx="170.675201" cy="567.031682" rx="3.40983607" ry="3.40819277"></ellipse>
                        <ellipse id="Oval" transform="translate(64.200149, 603.957024) rotate(-63.780000) translate(-64.200149, -603.957024) " cx="64.2001491" cy="603.957024" rx="3.40983607" ry="3.40819277"></ellipse>
                        <ellipse id="Oval" transform="translate(400.679676, 360.518293) rotate(-63.790000) translate(-400.679676, -360.518293) " cx="400.679676" cy="360.518293" rx="3.40983607" ry="3.40819277"></ellipse>
                        <ellipse id="Oval" transform="translate(334.020462, 454.699836) rotate(-63.820000) translate(-334.020462, -454.699836) " cx="334.020462" cy="454.699836" rx="3.40983607" ry="3.40819277"></ellipse>
                        <ellipse id="Oval" transform="translate(300.616842, 532.450248) rotate(-63.820000) translate(-300.616842, -532.450248) " cx="300.616842" cy="532.450248" rx="3.40983607" ry="3.40819277"></ellipse>
                        <ellipse id="Oval" transform="translate(334.020462, 454.699836) rotate(-63.820000) translate(-334.020462, -454.699836) " cx="334.020462" cy="454.699836" rx="3.40983607" ry="3.40819277"></ellipse>
                        <ellipse id="Oval" transform="translate(572.823814, 579.111128) rotate(-63.830000) translate(-572.823814, -579.111128) " cx="572.823814" cy="579.111128" rx="3.40983607" ry="3.40819277"></ellipse>
                        <ellipse id="Oval" transform="translate(334.020462, 454.699836) rotate(-63.820000) translate(-334.020462, -454.699836) " cx="334.020462" cy="454.699836" rx="3.40983607" ry="3.40819277"></ellipse>
                        <ellipse id="Oval" transform="translate(533.838588, 553.519702) rotate(-63.780000) translate(-533.838588, -553.519702) " cx="533.838588" cy="553.519702" rx="3.40983607" ry="3.40819277"></ellipse>
                        <ellipse id="Oval" transform="translate(334.020462, 454.699836) rotate(-63.820000) translate(-334.020462, -454.699836) " cx="334.020462" cy="454.699836" rx="3.40983607" ry="3.40819277"></ellipse>
                        <ellipse id="Oval" transform="translate(170.675201, 567.031682) rotate(-63.820000) translate(-170.675201, -567.031682) " cx="170.675201" cy="567.031682" rx="3.40983607" ry="3.40819277"></ellipse>
                        <ellipse id="Oval" transform="translate(334.020462, 454.699836) rotate(-63.820000) translate(-334.020462, -454.699836) " cx="334.020462" cy="454.699836" rx="3.40983607" ry="3.40819277"></ellipse>
                        <ellipse id="Oval" transform="translate(406.635921, 600.243302) rotate(-63.830000) translate(-406.635921, -600.243302) " cx="406.635921" cy="600.243302" rx="3.40983607" ry="3.40819277"></ellipse>
                        <ellipse id="Oval" transform="translate(334.020462, 454.699836) rotate(-63.820000) translate(-334.020462, -454.699836) " cx="334.020462" cy="454.699836" rx="3.40983607" ry="3.40819277"></ellipse>
                        <ellipse id="Oval" transform="translate(376.545510, 664.378804) rotate(-63.810000) translate(-376.545510, -664.378804) " cx="376.54551" cy="664.378804" rx="3.40983607" ry="3.40819277"></ellipse>
                        <ellipse id="Oval" transform="translate(334.020462, 454.699836) rotate(-63.820000) translate(-334.020462, -454.699836) " cx="334.020462" cy="454.699836" rx="3.40983607" ry="3.40819277"></ellipse>
                        <ellipse id="Oval" transform="translate(334.020462, 454.699836) rotate(-63.820000) translate(-334.020462, -454.699836) " cx="334.020462" cy="454.699836" rx="3.40983607" ry="3.40819277"></ellipse>
                        <ellipse id="Oval" transform="translate(121.600672, 283.550228) rotate(-63.790000) translate(-121.600672, -283.550228) " cx="121.600672" cy="283.550228" rx="3.40983607" ry="3.40819277"></ellipse>
                        <ellipse id="Oval" transform="translate(121.600672, 283.550228) rotate(-63.790000) translate(-121.600672, -283.550228) " cx="121.600672" cy="283.550228" rx="3.40983607" ry="3.40819277"></ellipse>
                        <ellipse id="Oval" transform="translate(121.600672, 283.550228) rotate(-63.790000) translate(-121.600672, -283.550228) " cx="121.600672" cy="283.550228" rx="3.40983607" ry="3.40819277"></ellipse>
                        <ellipse id="Oval" transform="translate(121.600672, 283.550228) rotate(-63.790000) translate(-121.600672, -283.550228) " cx="121.600672" cy="283.550228" rx="3.40983607" ry="3.40819277"></ellipse>
                        <ellipse id="Oval" transform="translate(35.695839, 472.629307) rotate(-63.810000) translate(-35.695839, -472.629307) " cx="35.6958395" cy="472.629307" rx="3.40983607" ry="3.40819277"></ellipse>
                        <ellipse id="Oval" transform="translate(35.695839, 472.629307) rotate(-63.810000) translate(-35.695839, -472.629307) " cx="35.6958395" cy="472.629307" rx="3.40983607" ry="3.40819277"></ellipse>
                        <ellipse id="Oval" transform="translate(300.616842, 532.450248) rotate(-63.820000) translate(-300.616842, -532.450248) " cx="300.616842" cy="532.450248" rx="3.40983607" ry="3.40819277"></ellipse>
                        <ellipse id="Oval" transform="translate(35.695839, 472.629307) rotate(-63.810000) translate(-35.695839, -472.629307) " cx="35.6958395" cy="472.629307" rx="3.40983607" ry="3.40819277"></ellipse>
                        <ellipse id="Oval" transform="translate(35.695839, 472.629307) rotate(-63.810000) translate(-35.695839, -472.629307) " cx="35.6958395" cy="472.629307" rx="3.40983607" ry="3.40819277"></ellipse>
                        <ellipse id="Oval" transform="translate(170.675201, 567.031682) rotate(-63.820000) translate(-170.675201, -567.031682) " cx="170.675201" cy="567.031682" rx="3.40983607" ry="3.40819277"></ellipse>
                        <ellipse id="Oval" transform="translate(35.695839, 472.629307) rotate(-63.810000) translate(-35.695839, -472.629307) " cx="35.6958395" cy="472.629307" rx="3.40983607" ry="3.40819277"></ellipse>
                        <ellipse id="Oval" transform="translate(64.200149, 603.957024) rotate(-63.780000) translate(-64.200149, -603.957024) " cx="64.2001491" cy="603.957024" rx="3.40983607" ry="3.40819277"></ellipse>
                        <ellipse id="Oval" transform="translate(35.695839, 472.629307) rotate(-63.810000) translate(-35.695839, -472.629307) " cx="35.6958395" cy="472.629307" rx="3.40983607" ry="3.40819277"></ellipse>
                        <ellipse id="Oval" transform="translate(35.695839, 472.629307) rotate(-63.810000) translate(-35.695839, -472.629307) " cx="35.6958395" cy="472.629307" rx="3.40983607" ry="3.40819277"></ellipse>
                        <ellipse id="Oval" transform="translate(406.635921, 600.243302) rotate(-63.830000) translate(-406.635921, -600.243302) " cx="406.635921" cy="600.243302" rx="3.40983607" ry="3.40819277"></ellipse>
                        <ellipse id="Oval" transform="translate(599.114829, 633.104758) rotate(-63.830000) translate(-599.114829, -633.104758) " cx="599.114829" cy="633.104758" rx="3.40983607" ry="3.40819277"></ellipse>
                        <ellipse id="Oval" transform="translate(376.545510, 664.378804) rotate(-63.810000) translate(-376.545510, -664.378804) " cx="376.54551" cy="664.378804" rx="3.40983607" ry="3.40819277"></ellipse>
                        <ellipse id="Oval" transform="translate(599.114829, 633.104758) rotate(-63.830000) translate(-599.114829, -633.104758) " cx="599.114829" cy="633.104758" rx="3.40983607" ry="3.40819277"></ellipse>
                        <ellipse id="Oval" transform="translate(631.149132, 369.473078) rotate(-63.830000) translate(-631.149132, -369.473078) " cx="631.149132" cy="369.473078" rx="3.40983607" ry="3.40819277"></ellipse>
                        <ellipse id="Oval" transform="translate(599.114829, 633.104758) rotate(-63.830000) translate(-599.114829, -633.104758) " cx="599.114829" cy="633.104758" rx="3.40983607" ry="3.40819277"></ellipse>
                        <ellipse id="Oval" transform="translate(924.996658, 517.119027) rotate(-63.780000) translate(-924.996658, -517.119027) " cx="924.996658" cy="517.119027" rx="3.40983607" ry="3.40819277"></ellipse>
                        <ellipse id="Oval" transform="translate(739.231183, 575.727317) rotate(-63.810000) translate(-739.231183, -575.727317) " cx="739.231183" cy="575.727317" rx="3.40983607" ry="3.40819277"></ellipse>
                        <ellipse id="Oval" transform="translate(599.114829, 633.104758) rotate(-63.830000) translate(-599.114829, -633.104758) " cx="599.114829" cy="633.104758" rx="3.40983607" ry="3.40819277"></ellipse>
                        <ellipse id="Oval" transform="translate(739.231183, 575.727317) rotate(-63.810000) translate(-739.231183, -575.727317) " cx="739.231183" cy="575.727317" rx="3.40983607" ry="3.40819277"></ellipse>
                        <ellipse id="Oval" transform="translate(615.139010, 450.910117) rotate(-63.840000) translate(-615.139010, -450.910117) " cx="615.13901" cy="450.910117" rx="3.40983607" ry="3.40819277"></ellipse>
                        <ellipse id="Oval" transform="translate(739.231183, 575.727317) rotate(-63.810000) translate(-739.231183, -575.727317) " cx="739.231183" cy="575.727317" rx="3.40983607" ry="3.40819277"></ellipse>
                        <ellipse id="Oval" transform="translate(572.823814, 579.111128) rotate(-63.830000) translate(-572.823814, -579.111128) " cx="572.823814" cy="579.111128" rx="3.40983607" ry="3.40819277"></ellipse>
                        <ellipse id="Oval" transform="translate(739.231183, 575.727317) rotate(-63.810000) translate(-739.231183, -575.727317) " cx="739.231183" cy="575.727317" rx="3.40983607" ry="3.40819277"></ellipse>
                        <ellipse id="Oval" transform="translate(533.838588, 553.519702) rotate(-63.780000) translate(-533.838588, -553.519702) " cx="533.838588" cy="553.519702" rx="3.40983607" ry="3.40819277"></ellipse>
                        <ellipse id="Oval" transform="translate(739.231183, 575.727317) rotate(-63.810000) translate(-739.231183, -575.727317) " cx="739.231183" cy="575.727317" rx="3.40983607" ry="3.40819277"></ellipse>
                        <ellipse id="Oval" transform="translate(631.149132, 369.473078) rotate(-63.830000) translate(-631.149132, -369.473078) " cx="631.149132" cy="369.473078" rx="3.40983607" ry="3.40819277"></ellipse>
                        <ellipse id="Oval" transform="translate(739.231183, 575.727317) rotate(-63.810000) translate(-739.231183, -575.727317) " cx="739.231183" cy="575.727317" rx="3.40983607" ry="3.40819277"></ellipse>
                        <ellipse id="Oval" transform="translate(806.076617, 439.258524) rotate(-63.820000) translate(-806.076617, -439.258524) " cx="806.076617" cy="439.258524" rx="3.40983607" ry="3.40819277"></ellipse>
                        <ellipse id="Oval" transform="translate(739.231183, 575.727317) rotate(-63.810000) translate(-739.231183, -575.727317) " cx="739.231183" cy="575.727317" rx="3.40983607" ry="3.40819277"></ellipse>
                        <ellipse id="Oval" transform="translate(739.231183, 575.727317) rotate(-63.810000) translate(-739.231183, -575.727317) " cx="739.231183" cy="575.727317" rx="3.40983607" ry="3.40819277"></ellipse>
                        <ellipse id="Oval" transform="translate(739.231183, 575.727317) rotate(-63.810000) translate(-739.231183, -575.727317) " cx="739.231183" cy="575.727317" rx="3.40983607" ry="3.40819277"></ellipse>
                        <ellipse id="Oval" transform="translate(577.218544, 654.641694) rotate(-63.820000) translate(-577.218544, -654.641694) " cx="577.218544" cy="654.641694" rx="3.40983607" ry="3.40819277"></ellipse>
                        <ellipse id="Oval" transform="translate(615.139010, 450.910117) rotate(-63.840000) translate(-615.139010, -450.910117) " cx="615.13901" cy="450.910117" rx="3.40983607" ry="3.40819277"></ellipse>
                        <ellipse id="Oval" transform="translate(577.218544, 654.641694) rotate(-63.820000) translate(-577.218544, -654.641694) " cx="577.218544" cy="654.641694" rx="3.40983607" ry="3.40819277"></ellipse>
                        <ellipse id="Oval" transform="translate(533.838588, 553.519702) rotate(-63.780000) translate(-533.838588, -553.519702) " cx="533.838588" cy="553.519702" rx="3.40983607" ry="3.40819277"></ellipse>
                        <ellipse id="Oval" transform="translate(577.218544, 654.641694) rotate(-63.820000) translate(-577.218544, -654.641694) " cx="577.218544" cy="654.641694" rx="3.40983607" ry="3.40819277"></ellipse>
                        <ellipse id="Oval" transform="translate(406.635921, 600.243302) rotate(-63.830000) translate(-406.635921, -600.243302) " cx="406.635921" cy="600.243302" rx="3.40983607" ry="3.40819277"></ellipse>
                        <ellipse id="Oval" transform="translate(577.218544, 654.641694) rotate(-63.820000) translate(-577.218544, -654.641694) " cx="577.218544" cy="654.641694" rx="3.40983607" ry="3.40819277"></ellipse>
                        <ellipse id="Oval" transform="translate(376.545510, 664.378804) rotate(-63.810000) translate(-376.545510, -664.378804) " cx="376.54551" cy="664.378804" rx="3.40983607" ry="3.40819277"></ellipse>
                        <ellipse id="Oval" transform="translate(577.218544, 654.641694) rotate(-63.820000) translate(-577.218544, -654.641694) " cx="577.218544" cy="654.641694" rx="3.40983607" ry="3.40819277"></ellipse>
                        <ellipse id="Oval" transform="translate(577.218544, 654.641694) rotate(-63.820000) translate(-577.218544, -654.641694) " cx="577.218544" cy="654.641694" rx="3.40983607" ry="3.40819277"></ellipse>
                        <ellipse id="Oval" transform="translate(739.231183, 575.727317) rotate(-63.810000) translate(-739.231183, -575.727317) " cx="739.231183" cy="575.727317" rx="3.40983607" ry="3.40819277"></ellipse>
                        <ellipse id="Oval" transform="translate(572.823814, 579.111128) rotate(-63.830000) translate(-572.823814, -579.111128) " cx="572.823814" cy="579.111128" rx="3.40983607" ry="3.40819277"></ellipse>
                        <ellipse id="Oval" transform="translate(533.838588, 553.519702) rotate(-63.780000) translate(-533.838588, -553.519702) " cx="533.838588" cy="553.519702" rx="3.40983607" ry="3.40819277"></ellipse>
                        <ellipse id="Oval" transform="translate(35.695839, 472.629307) rotate(-63.810000) translate(-35.695839, -472.629307) " cx="35.6958395" cy="472.629307" rx="3.40983607" ry="3.40819277"></ellipse>
                        <ellipse id="Oval" transform="translate(180.515910, 267.592514) rotate(-63.820000) translate(-180.515910, -267.592514) " cx="180.51591" cy="267.592514" rx="3.40983607" ry="3.40819277"></ellipse>
                        <ellipse id="Oval" transform="translate(121.600672, 283.550228) rotate(-63.790000) translate(-121.600672, -283.550228) " cx="121.600672" cy="283.550228" rx="3.40983607" ry="3.40819277"></ellipse>
                        <ellipse id="Oval" transform="translate(180.515910, 267.592514) rotate(-63.820000) translate(-180.515910, -267.592514) " cx="180.51591" cy="267.592514" rx="3.40983607" ry="3.40819277"></ellipse>
                        <ellipse id="Oval" transform="translate(334.020462, 454.699836) rotate(-63.820000) translate(-334.020462, -454.699836) " cx="334.020462" cy="454.699836" rx="3.40983607" ry="3.40819277"></ellipse>
                        <ellipse id="Oval" transform="translate(180.515910, 267.592514) rotate(-63.820000) translate(-180.515910, -267.592514) " cx="180.51591" cy="267.592514" rx="3.40983607" ry="3.40819277"></ellipse>
                        <ellipse id="Oval" transform="translate(400.679676, 360.518293) rotate(-63.790000) translate(-400.679676, -360.518293) " cx="400.679676" cy="360.518293" rx="3.40983607" ry="3.40819277"></ellipse>
                        <ellipse id="Oval" transform="translate(180.515910, 267.592514) rotate(-63.820000) translate(-180.515910, -267.592514) " cx="180.51591" cy="267.592514" rx="3.40983607" ry="3.40819277"></ellipse>
                        <ellipse id="Oval" transform="translate(180.515910, 267.592514) rotate(-63.820000) translate(-180.515910, -267.592514) " cx="180.51591" cy="267.592514" rx="3.40983607" ry="3.40819277"></ellipse>
                        <ellipse id="Oval" transform="translate(924.996658, 517.119027) rotate(-63.780000) translate(-924.996658, -517.119027) " cx="924.996658" cy="517.119027" rx="3.40983607" ry="3.40819277"></ellipse>
                        <ellipse id="Oval" transform="translate(1165.180764, 673.606229) rotate(-63.820000) translate(-1165.180764, -673.606229) " cx="1165.18076" cy="673.606229" rx="3.40983607" ry="3.40819277"></ellipse>
                        <ellipse id="Oval" transform="translate(739.231183, 575.727317) rotate(-63.810000) translate(-739.231183, -575.727317) " cx="739.231183" cy="575.727317" rx="3.40983607" ry="3.40819277"></ellipse>
                        <ellipse id="Oval" transform="translate(924.996658, 517.119027) rotate(-63.780000) translate(-924.996658, -517.119027) " cx="924.996658" cy="517.119027" rx="3.40983607" ry="3.40819277"></ellipse>
                        <ellipse id="Oval" transform="translate(180.515910, 267.592514) rotate(-63.820000) translate(-180.515910, -267.592514) " cx="180.51591" cy="267.592514" rx="3.40983607" ry="3.40819277"></ellipse>
                        <ellipse id="Oval" transform="translate(121.600672, 283.550228) rotate(-63.790000) translate(-121.600672, -283.550228) " cx="121.600672" cy="283.550228" rx="3.40983607" ry="3.40819277"></ellipse>
                        <ellipse id="Oval" transform="translate(400.679676, 360.518293) rotate(-63.790000) translate(-400.679676, -360.518293) " cx="400.679676" cy="360.518293" rx="3.40983607" ry="3.40819277"></ellipse>
                        <ellipse id="Oval" transform="translate(180.515910, 267.592514) rotate(-63.820000) translate(-180.515910, -267.592514) " cx="180.51591" cy="267.592514" rx="3.40983607" ry="3.40819277"></ellipse>
                        <ellipse id="Oval" transform="translate(121.600672, 283.550228) rotate(-63.790000) translate(-121.600672, -283.550228) " cx="121.600672" cy="283.550228" rx="3.40983607" ry="3.40819277"></ellipse>
                        <ellipse id="Oval" transform="translate(477.154310, 287.064071) rotate(-63.790000) translate(-477.154310, -287.064071) " cx="477.15431" cy="287.064071" rx="3.40983607" ry="3.40819277"></ellipse>
                        <ellipse id="Oval" transform="translate(334.020462, 454.699836) rotate(-63.820000) translate(-334.020462, -454.699836) " cx="334.020462" cy="454.699836" rx="3.40983607" ry="3.40819277"></ellipse>
                        <ellipse id="Oval" transform="translate(477.154310, 287.064071) rotate(-63.790000) translate(-477.154310, -287.064071) " cx="477.15431" cy="287.064071" rx="3.40983607" ry="3.40819277"></ellipse>
                        <ellipse id="Oval" transform="translate(400.679676, 360.518293) rotate(-63.790000) translate(-400.679676, -360.518293) " cx="400.679676" cy="360.518293" rx="3.40983607" ry="3.40819277"></ellipse>
                        <ellipse id="Oval" transform="translate(477.154310, 287.064071) rotate(-63.790000) translate(-477.154310, -287.064071) " cx="477.15431" cy="287.064071" rx="3.40983607" ry="3.40819277"></ellipse>
                        <ellipse id="Oval" transform="translate(533.838588, 553.519702) rotate(-63.780000) translate(-533.838588, -553.519702) " cx="533.838588" cy="553.519702" rx="3.40983607" ry="3.40819277"></ellipse>
                        <ellipse id="Oval" transform="translate(477.154310, 287.064071) rotate(-63.790000) translate(-477.154310, -287.064071) " cx="477.15431" cy="287.064071" rx="3.40983607" ry="3.40819277"></ellipse>
                        <ellipse id="Oval" transform="translate(180.515910, 267.592514) rotate(-63.820000) translate(-180.515910, -267.592514) " cx="180.51591" cy="267.592514" rx="3.40983607" ry="3.40819277"></ellipse>
                        <ellipse id="Oval" transform="translate(400.679676, 360.518293) rotate(-63.790000) translate(-400.679676, -360.518293) " cx="400.679676" cy="360.518293" rx="3.40983607" ry="3.40819277"></ellipse>
                        <ellipse id="Oval" transform="translate(1248.940965, 669.290770) rotate(-63.820000) translate(-1248.940965, -669.290770) " cx="1248.94097" cy="669.29077" rx="3.40983607" ry="3.40819277"></ellipse>
                        <ellipse id="Oval" transform="translate(35.695839, 472.629307) rotate(-63.810000) translate(-35.695839, -472.629307) " cx="35.6958395" cy="472.629307" rx="3.40983607" ry="3.40819277"></ellipse>
                        <ellipse id="Oval" transform="translate(1248.940965, 669.290770) rotate(-63.820000) translate(-1248.940965, -669.290770) " cx="1248.94097" cy="669.29077" rx="3.40983607" ry="3.40819277"></ellipse>
                        <ellipse id="Oval" transform="translate(1026.183948, 653.594166) rotate(-63.840000) translate(-1026.183948, -653.594166) " cx="1026.18395" cy="653.594166" rx="3.40983607" ry="3.40819277"></ellipse>
                        <ellipse id="Oval" transform="translate(997.752284, 503.543206) rotate(-63.830000) translate(-997.752284, -503.543206) " cx="997.752284" cy="503.543206" rx="3.40983607" ry="3.40819277"></ellipse>
                        <ellipse id="Oval" transform="translate(1026.183948, 653.594166) rotate(-63.840000) translate(-1026.183948, -653.594166) " cx="1026.18395" cy="653.594166" rx="3.40983607" ry="3.40819277"></ellipse>
                        <ellipse id="Oval" transform="translate(1026.183948, 653.594166) rotate(-63.840000) translate(-1026.183948, -653.594166) " cx="1026.18395" cy="653.594166" rx="3.40983607" ry="3.40819277"></ellipse>
                        <ellipse id="Oval" transform="translate(1026.183948, 653.594166) rotate(-63.840000) translate(-1026.183948, -653.594166) " cx="1026.18395" cy="653.594166" rx="3.40983607" ry="3.40819277"></ellipse>
                        <ellipse id="Oval" transform="translate(1165.180764, 673.606229) rotate(-63.820000) translate(-1165.180764, -673.606229) " cx="1165.18076" cy="673.606229" rx="3.40983607" ry="3.40819277"></ellipse>
                        <ellipse id="Oval" transform="translate(1026.183948, 653.594166) rotate(-63.840000) translate(-1026.183948, -653.594166) " cx="1026.18395" cy="653.594166" rx="3.40983607" ry="3.40819277"></ellipse>
                        <ellipse id="Oval" transform="translate(1026.183948, 653.594166) rotate(-63.840000) translate(-1026.183948, -653.594166) " cx="1026.18395" cy="653.594166" rx="3.40983607" ry="3.40819277"></ellipse>
                        <ellipse id="Oval" transform="translate(924.996658, 517.119027) rotate(-63.780000) translate(-924.996658, -517.119027) " cx="924.996658" cy="517.119027" rx="3.40983607" ry="3.40819277"></ellipse>
                        <ellipse id="Oval" transform="translate(1026.183948, 653.594166) rotate(-63.840000) translate(-1026.183948, -653.594166) " cx="1026.18395" cy="653.594166" rx="3.40983607" ry="3.40819277"></ellipse>
                        <ellipse id="Oval" transform="translate(715.758209, 573.507890) rotate(-63.780000) translate(-715.758209, -573.507890) " cx="715.758209" cy="573.50789" rx="3.40983607" ry="3.40819277"></ellipse>
                        <ellipse id="Oval" transform="translate(860.101074, 613.473037) rotate(-63.780000) translate(-860.101074, -613.473037) " cx="860.101074" cy="613.473037" rx="3.40983607" ry="3.40819277"></ellipse>
                        <ellipse id="Oval" transform="translate(1026.183948, 653.594166) rotate(-63.840000) translate(-1026.183948, -653.594166) " cx="1026.18395" cy="653.594166" rx="3.40983607" ry="3.40819277"></ellipse>
                        <ellipse id="Oval" transform="translate(860.101074, 613.473037) rotate(-63.780000) translate(-860.101074, -613.473037) " cx="860.101074" cy="613.473037" rx="3.40983607" ry="3.40819277"></ellipse>
                        <ellipse id="Oval" transform="translate(997.752284, 503.543206) rotate(-63.830000) translate(-997.752284, -503.543206) " cx="997.752284" cy="503.543206" rx="3.40983607" ry="3.40819277"></ellipse>
                        <ellipse id="Oval" transform="translate(860.101074, 613.473037) rotate(-63.780000) translate(-860.101074, -613.473037) " cx="860.101074" cy="613.473037" rx="3.40983607" ry="3.40819277"></ellipse>
                        <ellipse id="Oval" transform="translate(860.101074, 613.473037) rotate(-63.780000) translate(-860.101074, -613.473037) " cx="860.101074" cy="613.473037" rx="3.40983607" ry="3.40819277"></ellipse>
                        <ellipse id="Oval" transform="translate(860.101074, 613.473037) rotate(-63.780000) translate(-860.101074, -613.473037) " cx="860.101074" cy="613.473037" rx="3.40983607" ry="3.40819277"></ellipse>
                        <ellipse id="Oval" transform="translate(860.101074, 613.473037) rotate(-63.780000) translate(-860.101074, -613.473037) " cx="860.101074" cy="613.473037" rx="3.40983607" ry="3.40819277"></ellipse>
                        <ellipse id="Oval" transform="translate(739.231183, 575.727317) rotate(-63.810000) translate(-739.231183, -575.727317) " cx="739.231183" cy="575.727317" rx="3.40983607" ry="3.40819277"></ellipse>
                        <ellipse id="Oval" transform="translate(860.101074, 613.473037) rotate(-63.780000) translate(-860.101074, -613.473037) " cx="860.101074" cy="613.473037" rx="3.40983607" ry="3.40819277"></ellipse>
                        <ellipse id="Oval" transform="translate(924.996658, 517.119027) rotate(-63.780000) translate(-924.996658, -517.119027) " cx="924.996658" cy="517.119027" rx="3.40983607" ry="3.40819277"></ellipse>
                        <ellipse id="Oval" transform="translate(860.101074, 613.473037) rotate(-63.780000) translate(-860.101074, -613.473037) " cx="860.101074" cy="613.473037" rx="3.40983607" ry="3.40819277"></ellipse>
                        <ellipse id="Oval" transform="translate(599.114829, 633.104758) rotate(-63.830000) translate(-599.114829, -633.104758) " cx="599.114829" cy="633.104758" rx="3.40983607" ry="3.40819277"></ellipse>
                        <ellipse id="Oval" transform="translate(860.101074, 613.473037) rotate(-63.780000) translate(-860.101074, -613.473037) " cx="860.101074" cy="613.473037" rx="3.40983607" ry="3.40819277"></ellipse>
                        <ellipse id="Oval" transform="translate(806.076617, 439.258524) rotate(-63.820000) translate(-806.076617, -439.258524) " cx="806.076617" cy="439.258524" rx="3.40983607" ry="3.40819277"></ellipse>
                        <ellipse id="Oval" transform="translate(860.101074, 613.473037) rotate(-63.780000) translate(-860.101074, -613.473037) " cx="860.101074" cy="613.473037" rx="3.40983607" ry="3.40819277"></ellipse>
                        <ellipse id="Oval" transform="translate(173.812792, 395.410832) rotate(-63.830000) translate(-173.812792, -395.410832) " cx="173.812792" cy="395.410832" rx="3.40983607" ry="3.40819277"></ellipse>
                        <ellipse id="Oval" transform="translate(180.515910, 267.592514) rotate(-63.820000) translate(-180.515910, -267.592514) " cx="180.51591" cy="267.592514" rx="3.40983607" ry="3.40819277"></ellipse>
                        <ellipse id="Oval" transform="translate(173.812792, 395.410832) rotate(-63.830000) translate(-173.812792, -395.410832) " cx="173.812792" cy="395.410832" rx="3.40983607" ry="3.40819277"></ellipse>
                        <ellipse id="Oval" transform="translate(35.695839, 472.629307) rotate(-63.810000) translate(-35.695839, -472.629307) " cx="35.6958395" cy="472.629307" rx="3.40983607" ry="3.40819277"></ellipse>
                        <ellipse id="Oval" transform="translate(173.812792, 395.410832) rotate(-63.830000) translate(-173.812792, -395.410832) " cx="173.812792" cy="395.410832" rx="3.40983607" ry="3.40819277"></ellipse>
                        <ellipse id="Oval" transform="translate(121.600672, 283.550228) rotate(-63.790000) translate(-121.600672, -283.550228) " cx="121.600672" cy="283.550228" rx="3.40983607" ry="3.40819277"></ellipse>
                        <ellipse id="Oval" transform="translate(173.812792, 395.410832) rotate(-63.830000) translate(-173.812792, -395.410832) " cx="173.812792" cy="395.410832" rx="3.40983607" ry="3.40819277"></ellipse>
                        <ellipse id="Oval" transform="translate(334.020462, 454.699836) rotate(-63.820000) translate(-334.020462, -454.699836) " cx="334.020462" cy="454.699836" rx="3.40983607" ry="3.40819277"></ellipse>
                        <ellipse id="Oval" transform="translate(173.812792, 395.410832) rotate(-63.830000) translate(-173.812792, -395.410832) " cx="173.812792" cy="395.410832" rx="3.40983607" ry="3.40819277"></ellipse>
                        <ellipse id="Oval" transform="translate(400.679676, 360.518293) rotate(-63.790000) translate(-400.679676, -360.518293) " cx="400.679676" cy="360.518293" rx="3.40983607" ry="3.40819277"></ellipse>
                        <ellipse id="Oval" transform="translate(173.812792, 395.410832) rotate(-63.830000) translate(-173.812792, -395.410832) " cx="173.812792" cy="395.410832" rx="3.40983607" ry="3.40819277"></ellipse>
                        <ellipse id="Oval" transform="translate(300.616842, 532.450248) rotate(-63.820000) translate(-300.616842, -532.450248) " cx="300.616842" cy="532.450248" rx="3.40983607" ry="3.40819277"></ellipse>
                        <ellipse id="Oval" transform="translate(173.812792, 395.410832) rotate(-63.830000) translate(-173.812792, -395.410832) " cx="173.812792" cy="395.410832" rx="3.40983607" ry="3.40819277"></ellipse>
                        <ellipse id="Oval" transform="translate(173.812792, 395.410832) rotate(-63.830000) translate(-173.812792, -395.410832) " cx="173.812792" cy="395.410832" rx="3.40983607" ry="3.40819277"></ellipse>
                        <ellipse id="Oval" transform="translate(170.675201, 567.031682) rotate(-63.820000) translate(-170.675201, -567.031682) " cx="170.675201" cy="567.031682" rx="3.40983607" ry="3.40819277"></ellipse>
                        <ellipse id="Oval" transform="translate(173.812792, 395.410832) rotate(-63.830000) translate(-173.812792, -395.410832) " cx="173.812792" cy="395.410832" rx="3.40983607" ry="3.40819277"></ellipse>
                        <ellipse id="Oval" transform="translate(64.200149, 603.957024) rotate(-63.780000) translate(-64.200149, -603.957024) " cx="64.2001491" cy="603.957024" rx="3.40983607" ry="3.40819277"></ellipse>
                        <ellipse id="Oval" transform="translate(173.812792, 395.410832) rotate(-63.830000) translate(-173.812792, -395.410832) " cx="173.812792" cy="395.410832" rx="3.40983607" ry="3.40819277"></ellipse>
                        <ellipse id="Oval" transform="translate(173.812792, 395.410832) rotate(-63.830000) translate(-173.812792, -395.410832) " cx="173.812792" cy="395.410832" rx="3.40983607" ry="3.40819277"></ellipse>
                        <ellipse id="Oval" transform="translate(180.515910, 267.592514) rotate(-63.820000) translate(-180.515910, -267.592514) " cx="180.51591" cy="267.592514" rx="3.40983607" ry="3.40819277"></ellipse>
                        <ellipse id="Oval" transform="translate(121.600672, 283.550228) rotate(-63.790000) translate(-121.600672, -283.550228) " cx="121.600672" cy="283.550228" rx="3.40983607" ry="3.40819277"></ellipse>
                        <ellipse id="Oval" transform="translate(35.695839, 472.629307) rotate(-63.810000) translate(-35.695839, -472.629307) " cx="35.6958395" cy="472.629307" rx="3.40983607" ry="3.40819277"></ellipse>
                        <ellipse id="Oval" transform="translate(121.600672, 283.550228) rotate(-63.790000) translate(-121.600672, -283.550228) " cx="121.600672" cy="283.550228" rx="3.40983607" ry="3.40819277"></ellipse>
                        <ellipse id="Oval" transform="translate(860.101074, 613.473037) rotate(-63.780000) translate(-860.101074, -613.473037) " cx="860.101074" cy="613.473037" rx="3.40983607" ry="3.40819277"></ellipse>
                        <ellipse id="Oval" transform="translate(746.003049, 487.489938) rotate(-63.830000) translate(-746.003049, -487.489938) " cx="746.003049" cy="487.489938" rx="3.40983607" ry="3.40819277"></ellipse>
                        <ellipse id="Oval" transform="translate(715.758209, 573.507890) rotate(-63.780000) translate(-715.758209, -573.507890) " cx="715.758209" cy="573.50789" rx="3.40983607" ry="3.40819277"></ellipse>
                        <ellipse id="Oval" transform="translate(746.003049, 487.489938) rotate(-63.830000) translate(-746.003049, -487.489938) " cx="746.003049" cy="487.489938" rx="3.40983607" ry="3.40819277"></ellipse>
                        <ellipse id="Oval" transform="translate(739.231183, 575.727317) rotate(-63.810000) translate(-739.231183, -575.727317) " cx="739.231183" cy="575.727317" rx="3.40983607" ry="3.40819277"></ellipse>
                        <ellipse id="Oval" transform="translate(746.003049, 487.489938) rotate(-63.830000) translate(-746.003049, -487.489938) " cx="746.003049" cy="487.489938" rx="3.40983607" ry="3.40819277"></ellipse>
                        <ellipse id="Oval" transform="translate(599.114829, 633.104758) rotate(-63.830000) translate(-599.114829, -633.104758) " cx="599.114829" cy="633.104758" rx="3.40983607" ry="3.40819277"></ellipse>
                        <ellipse id="Oval" transform="translate(746.003049, 487.489938) rotate(-63.830000) translate(-746.003049, -487.489938) " cx="746.003049" cy="487.489938" rx="3.40983607" ry="3.40819277"></ellipse>
                        <ellipse id="Oval" transform="translate(572.823814, 579.111128) rotate(-63.830000) translate(-572.823814, -579.111128) " cx="572.823814" cy="579.111128" rx="3.40983607" ry="3.40819277"></ellipse>
                        <ellipse id="Oval" transform="translate(746.003049, 487.489938) rotate(-63.830000) translate(-746.003049, -487.489938) " cx="746.003049" cy="487.489938" rx="3.40983607" ry="3.40819277"></ellipse>
                        <ellipse id="Oval" transform="translate(533.838588, 553.519702) rotate(-63.780000) translate(-533.838588, -553.519702) " cx="533.838588" cy="553.519702" rx="3.40983607" ry="3.40819277"></ellipse>
                        <ellipse id="Oval" transform="translate(746.003049, 487.489938) rotate(-63.830000) translate(-746.003049, -487.489938) " cx="746.003049" cy="487.489938" rx="3.40983607" ry="3.40819277"></ellipse>
                        <ellipse id="Oval" transform="translate(295.457351, 284.942822) rotate(-63.840000) translate(-295.457351, -284.942822) " cx="295.457351" cy="284.942822" rx="3.40983607" ry="3.40819277"></ellipse>
                        <ellipse id="Oval" transform="translate(173.812792, 395.410832) rotate(-63.830000) translate(-173.812792, -395.410832) " cx="173.812792" cy="395.410832" rx="3.40983607" ry="3.40819277"></ellipse>
                        <ellipse id="Oval" transform="translate(295.457351, 284.942822) rotate(-63.840000) translate(-295.457351, -284.942822) " cx="295.457351" cy="284.942822" rx="3.40983607" ry="3.40819277"></ellipse>
                        <ellipse id="Oval" transform="translate(295.457351, 284.942822) rotate(-63.840000) translate(-295.457351, -284.942822) " cx="295.457351" cy="284.942822" rx="3.40983607" ry="3.40819277"></ellipse>
                        <ellipse id="Oval" transform="translate(477.154310, 287.064071) rotate(-63.790000) translate(-477.154310, -287.064071) " cx="477.15431" cy="287.064071" rx="3.40983607" ry="3.40819277"></ellipse>
                        <ellipse id="Oval" transform="translate(295.457351, 284.942822) rotate(-63.840000) translate(-295.457351, -284.942822) " cx="295.457351" cy="284.942822" rx="3.40983607" ry="3.40819277"></ellipse>
                        <ellipse id="Oval" transform="translate(295.457351, 284.942822) rotate(-63.840000) translate(-295.457351, -284.942822) " cx="295.457351" cy="284.942822" rx="3.40983607" ry="3.40819277"></ellipse>
                        <ellipse id="Oval" transform="translate(180.515910, 267.592514) rotate(-63.820000) translate(-180.515910, -267.592514) " cx="180.51591" cy="267.592514" rx="3.40983607" ry="3.40819277"></ellipse>
                        <ellipse id="Oval" transform="translate(295.457351, 284.942822) rotate(-63.840000) translate(-295.457351, -284.942822) " cx="295.457351" cy="284.942822" rx="3.40983607" ry="3.40819277"></ellipse>
                        <ellipse id="Oval" transform="translate(121.600672, 283.550228) rotate(-63.790000) translate(-121.600672, -283.550228) " cx="121.600672" cy="283.550228" rx="3.40983607" ry="3.40819277"></ellipse>
                        <ellipse id="Oval" transform="translate(295.457351, 284.942822) rotate(-63.840000) translate(-295.457351, -284.942822) " cx="295.457351" cy="284.942822" rx="3.40983607" ry="3.40819277"></ellipse>
                        <ellipse id="Oval" transform="translate(334.020462, 454.699836) rotate(-63.820000) translate(-334.020462, -454.699836) " cx="334.020462" cy="454.699836" rx="3.40983607" ry="3.40819277"></ellipse>
                        <ellipse id="Oval" transform="translate(295.457351, 284.942822) rotate(-63.840000) translate(-295.457351, -284.942822) " cx="295.457351" cy="284.942822" rx="3.40983607" ry="3.40819277"></ellipse>
                        <ellipse id="Oval" transform="translate(400.679676, 360.518293) rotate(-63.790000) translate(-400.679676, -360.518293) " cx="400.679676" cy="360.518293" rx="3.40983607" ry="3.40819277"></ellipse>
                        <ellipse id="Oval" transform="translate(295.457351, 284.942822) rotate(-63.840000) translate(-295.457351, -284.942822) " cx="295.457351" cy="284.942822" rx="3.40983607" ry="3.40819277"></ellipse>
                        <ellipse id="Oval" transform="translate(300.616842, 532.450248) rotate(-63.820000) translate(-300.616842, -532.450248) " cx="300.616842" cy="532.450248" rx="3.40983607" ry="3.40819277"></ellipse>
                        <ellipse id="Oval" transform="translate(295.457351, 284.942822) rotate(-63.840000) translate(-295.457351, -284.942822) " cx="295.457351" cy="284.942822" rx="3.40983607" ry="3.40819277"></ellipse>
                    </g>
                </g>
            </g>
        </g>
    </g>
</svg>