<?xml version="1.0" encoding="UTF-8"?>
<svg width="123px" height="101px" viewBox="0 0 123 101" version="1.1" xmlns="http://www.w3.org/2000/svg" xmlns:xlink="http://www.w3.org/1999/xlink">
    <!-- Generator: Sketch 50.2 (55047) - http://www.bohemiancoding.com/sketch -->
    <title>Logo</title>
    <desc>Created with Sketch.</desc>
    <defs>
        <linearGradient x1="0%" y1="25.534%" x2="0%" y2="25.534%" id="linearGradient-1">
            <stop stop-color="#6CD2FF" offset="0%"></stop>
            <stop stop-color="#0AA9E9" offset="99%"></stop>
        </linearGradient>
        <linearGradient x1="0%" y1="49.9969269%" x2="99.9886782%" y2="49.9969269%" id="linearGradient-2">
            <stop stop-color="#248EC8" offset="0%"></stop>
            <stop stop-color="#283F91" offset="100%"></stop>
        </linearGradient>
        <linearGradient x1="0%" y1="50.0014053%" x2="100.002905%" y2="50.0014053%" id="linearGradient-3">
            <stop stop-color="#6CD2FF" offset="0%"></stop>
            <stop stop-color="#0AA9E9" offset="99%"></stop>
        </linearGradient>
    </defs>
    <g id="Page-1" stroke="none" stroke-width="1" fill="none" fill-rule="evenodd">
        <g id="main-v6-slide-1" transform="translate(-276.000000, -40.000000)">
            <g id="Header" transform="translate(-180.000000, 40.000000)">
                <g id="Logo" transform="translate(445.000000, 0.000000)">
                    <g id="Group" transform="translate(0.029280, 0.000000)"></g>
                    <path d="M131.022031,46.8921233 C129.078055,44.4765982 126.069083,42.5165525 121.995116,41.0119863 C125.106855,40.0234018 127.668586,38.4143836 129.680308,36.1849315 C131.651808,34.0387906 132.726573,31.2263927 132.685835,28.3202055 C132.685835,24.0119863 131.503719,20.69121 129.139486,18.3578767 C126.775253,16.0245434 123.582562,14.4417808 119.561414,13.609589 C117.385665,13.1720837 115.185817,12.8627548 112.973368,12.6832192 L112.973368,3.80136986 C112.980257,1.70205479 111.016761,0 108.591671,0 L107.129383,0 C104.706015,0 102.740797,1.70205479 102.740797,3.80136986 L102.740797,12.3630137 L97.2447301,12.3630137 L97.2447301,3.80136986 C97.2447301,1.70205479 95.2760668,0 92.8647558,0 L91.4024679,0 C88.9704884,0 87.0087147,1.70205479 87.0087147,3.80136986 L87.0087147,12.3630137 L73.100617,12.3630137 L89.78,29.5136986 L78.989383,29.5136986 L78.8498715,72.9297945 L87.0087147,72.9297945 L87.0087147,79.7791096 C87.0087147,81.8784247 88.9739332,83.5804795 91.3973008,83.5804795 L92.8647558,83.5804795 C95.2881234,83.5804795 97.2533419,81.8784247 97.2533419,79.7791096 L97.2533419,72.9297945 L102.749409,72.9297945 L102.749409,79.7791096 C102.749409,81.8784247 104.714627,83.5804795 107.137995,83.5804795 L108.600283,83.5804795 C111.02365,83.5804795 112.988869,81.8784247 112.988869,79.7791096 L112.988869,72.6866438 C118.778312,72.1809361 123.445921,70.8590183 126.991697,68.7208904 C131.631748,65.9218037 133.951774,61.951484 133.951774,56.8099315 C133.947181,52.6124429 132.9706,49.3065068 131.022031,46.8921233 Z M98.8138046,25.8304795 L105.014319,25.8304795 C106.812468,25.8304795 108.260977,26.3116438 109.373625,27.265411 C110.486272,28.2191781 111.033985,29.4914384 111.033985,31.0410959 C111.033985,33.2671233 110.239974,34.7945205 108.655398,35.5958904 C107.070823,36.3972603 104.594062,36.7945205 101.249229,36.7945205 L98.8120823,36.7945205 L98.8138046,25.8304795 Z M108.610617,58.255137 C106.688458,59.1055936 103.961954,59.5319635 100.431105,59.5342466 L98.8138046,59.5342466 L98.8138046,46.7688356 C100.076872,46.7151826 101.365201,46.6889269 102.678792,46.6900685 C108.548612,46.6900685 111.483522,48.7665525 111.483522,52.9195205 C111.482374,55.6170091 110.524165,57.3961187 108.608895,58.2568493 L108.610617,58.255137 Z" id="Shape" fill="url(#linearGradient-2)" fill-rule="nonzero"></path>
                    <path d="M63.7326735,73.3407534 L49.16491,73.3407534 L49.16491,34.5462329 C49.16491,32.6409817 49.0391774,31.3778539 48.7877121,30.7568493 C48.5362468,30.1358447 48.0281491,29.8253425 47.263419,29.8253425 C45.8281148,29.8253425 45.1104627,31.2979452 45.1104627,34.2431507 L45.1104627,73.3407534 L30.5426992,73.3407534 L30.5426992,34.5462329 C30.5426992,32.6695205 30.4112254,31.4138128 30.1482776,30.7791096 C29.8853299,30.1444064 29.3686204,29.8270548 28.5981491,29.8270548 C27.1628449,29.8270548 26.4451928,31.4006849 26.4451928,34.5479452 L26.4451928,73.3407534 L11.8843188,73.3407534 L11.8843188,30.3886986 C11.8843188,25.1055936 13.2116881,20.7899543 15.8664267,17.4417808 C18.5211654,14.0936073 21.9658955,12.4195205 26.200617,12.4195205 C31.2241817,12.4195205 35.0874464,15.2054795 37.7904113,20.7773973 C39.4415853,17.7705479 41.2116024,15.6267123 43.1004627,14.3458904 C44.9893231,13.0650685 47.3219794,12.4223744 50.0984319,12.4178082 L61.2231877,12.4178082 L71.1698458,12.510274 L71.0957841,12.5924658 L55.6048329,29.494863 L65.8752956,29.494863 L65.8752956,73.3407534 L63.7326735,73.3407534 Z" id="Shape" fill="url(#linearGradient-3)" fill-rule="nonzero"></path>
                    <polygon id="Shape" stroke="#1D71B8" fill="#1D71B8" fill-rule="nonzero" points="33.9013111 99.875 31.3022622 99.875 31.3022622 93.6643836 24.6349871 98.5890411 22.4200257 98.5890411 15.6442416 93.6643836 15.6442416 99.8732877 13.0469152 99.8732877 13.0469152 91.7020548 15.6442416 91.7020548 23.5757326 97.4982877 31.3022622 91.7020548 33.9013111 91.7020548"></polygon>
                    <polygon id="Shape" stroke="#1D71B8" fill="#1D71B8" fill-rule="nonzero" points="54.722982 91.7020548 47.5441645 96.4965753 47.5441645 99.8715753 44.9433933 99.8715753 44.9433933 96.5 37.6956812 91.7054795 40.5048586 91.7054795 46.248946 95.619863 51.9327506 91.7054795"></polygon>
                    <polygon id="Shape" stroke="#1D71B8" fill="#1D71B8" fill-rule="nonzero" points="79.3717481 99.875 76.7744216 99.875 76.7744216 93.6643836 70.1071465 98.5890411 67.8904627 98.5890411 61.1146787 93.6643836 61.1146787 99.8732877 58.5173522 99.8732877 58.5173522 91.7020548 61.116401 91.7020548 69.047892 97.4982877 76.7744216 91.7020548 79.3734704 91.7020548"></polygon>
                    <polygon id="Shape" stroke="#1D71B8" fill="#1D71B8" fill-rule="nonzero" points="100.193419 91.7020548 93.0146015 96.4965753 93.0146015 99.8715753 90.4138303 99.8715753 90.4138303 96.5 83.1661183 91.7054795 85.9752956 91.7054795 91.719383 95.619863 97.4031877 91.7054795"></polygon>
                    <path d="M120.705064,97.6130137 C120.705064,98.3401826 120.049991,98.8989726 118.739846,99.2893836 C117.4297,99.6797945 115.668869,99.875 113.457352,99.875 L103.984344,99.875 L103.984344,91.7020548 L113.147326,91.7020548 C115.2888,91.7020548 117.020925,91.8972603 118.343702,92.2876712 C119.666478,92.6780822 120.327292,93.2100457 120.326144,93.8835616 C120.326144,94.3047945 119.989709,94.6757991 119.316838,94.9965753 C118.497865,95.3602818 117.62568,95.5915091 116.73329,95.6815068 C117.945835,95.8207763 118.910934,96.0616438 119.628586,96.4041096 C120.346238,96.7465753 120.705064,97.1495434 120.705064,97.6130137 Z M116.399152,94.9554795 C117.287892,94.7146119 117.732262,94.3607306 117.732262,93.8938356 C117.732262,93.4269406 117.293633,93.0747717 116.416375,92.8373288 C115.539117,92.5998858 114.382262,92.4811644 112.94581,92.4811644 L106.585116,92.4811644 L106.585116,95.3167889 L112.944087,95.3167808 C114.357575,95.3179224 115.508689,95.1980594 116.397429,94.9571918 L116.399152,94.9554795 Z M116.791851,98.6866438 C117.669109,98.4149543 118.107738,98.0496575 118.107738,97.5907534 C118.107738,97.1318493 117.669109,96.7682648 116.791851,96.5 C115.914593,96.2317352 114.723865,96.0976027 113.219666,96.0976027 L106.585116,96.0976027 L106.585116,99.0924729 L113.217943,99.0924658 C114.722142,99.0936073 115.913445,98.9583333 116.791851,98.6866438 Z" id="Shape" stroke="#1D71B8" fill="#1D71B8" fill-rule="nonzero"></path>
                    <polygon id="Shape" stroke="#1D71B8" fill="#1D71B8" fill-rule="nonzero" points="129.423676 99.875 126.824627 99.875 126.824627 91.7020548 129.423676 91.7020548"></polygon>
                </g>
            </g>
        </g>
    </g>
</svg>