<?xml version="1.0" encoding="UTF-8"?>
<svg width="506px" height="361px" viewBox="0 0 506 361" version="1.1" xmlns="http://www.w3.org/2000/svg" xmlns:xlink="http://www.w3.org/1999/xlink">
    <!-- Generator: Sketch 50.2 (55047) - http://www.bohemiancoding.com/sketch -->
    <title>Group 13</title>
    <desc>Created with Sketch.</desc>
    <defs>
        <linearGradient x1="100%" y1="0%" x2="1.11022302e-14%" y2="100%" id="linearGradient-1">
            <stop stop-color="#0097FF" offset="0%"></stop>
            <stop stop-color="#29BFFD" offset="100%"></stop>
        </linearGradient>
    </defs>
    <g id="Page-1" stroke="none" stroke-width="1" fill="none" fill-rule="evenodd">
        <g id="main-v6-slide-1" transform="translate(-1092.000000, -3715.000000)" stroke="url(#linearGradient-1)">
            <g id="6-section---contact-us" transform="translate(-482.000000, 3586.000000)">
                <g id="Group-13" transform="translate(1574.000000, 129.000000)">
                    <path d="M50.7081049,21 L32.2002802,21 C15.079453,21 1.20028022,34.8791728 1.20028022,52 L1.20028022,277 C1.20028022,294.120827 15.079453,308 32.2002952,308 L34.2492236,308.000031 L33.9534931,309.233211 C28.9952641,329.908763 24.7176721,346.344177 21.1193719,358.543087 C35.6972323,348.11229 57.37251,331.336522 86.1380747,308.220502 L86.4124675,308 L86.7644796,308 L365.491456,308 C372.897532,308 380.058899,305.348537 385.679287,300.525549 L386.197866,300.080544 C392.012831,295.090585 395.358865,287.81015 395.358865,280.147675 L395.358865,258.124129 C395.358865,255.647976 395.637559,253.179689 396.189686,250.765876 L396.477704,249.506705 L105.723637,236.300662 C91.82739,235.669495 80.3366906,225.260007 78.3398145,211.493507 L50.7081049,21 Z" id="Combined-Shape" stroke-width="2" fill-opacity="0.400107563" fill="#FFFFFF"></path>
                    <path d="M480.699258,323.256711 C476.985657,306.57574 473.691198,289.89453 470.815896,273.213104 L470.475695,271.239384 L472.449893,270.901969 C490.565825,267.805729 504,252.031793 504,233.446787 L504,40 C504,19.0131795 486.98682,2 466,2 L82,2 C61.0131795,2 44,19.0131795 44,40 L44,233.446787 C44,254.433608 61.0131795,271.446787 82,271.446787 L414.03135,271.446787 L414.835363,271.446787 L415.415658,272.003288 C426.985499,283.098699 448.759775,300.196594 480.699258,323.256711 Z" id="Combined-Shape" stroke-width="4" fill="url(#linearGradient-1)"></path>
                </g>
            </g>
        </g>
    </g>
</svg>