<?xml version="1.0" encoding="UTF-8"?>
<svg width="16px" height="24px" viewBox="0 0 16 24" version="1.1" xmlns="http://www.w3.org/2000/svg" xmlns:xlink="http://www.w3.org/1999/xlink">
    <!-- Generator: Sketch 50.2 (55047) - http://www.bohemiancoding.com/sketch -->
    <title>mouse</title>
    <desc>Created with Sketch.</desc>
    <defs></defs>
    <g id="Page-1" stroke="none" stroke-width="1" fill="none" fill-rule="evenodd">
        <g id="main-v6-slide-1" transform="translate(-1174.000000, -3899.000000)" fill="#FFFFFF" fill-rule="nonzero">
            <g id="6-section---contact-us" transform="translate(-482.000000, 3586.000000)">
                <g id="mouse" transform="translate(1656.000000, 313.000000)">
                    <path d="M8,0 C3.58869657,0 0,3.58721378 0,7.99612193 L0,16.0043343 C0,20.4131284 3.58869657,24 8,24 C12.4113034,24 16,20.4132425 16,16.0043343 L16,7.99612193 C16,3.58721378 12.4111894,0 8,0 Z M15.1111238,16.0043343 C15.1111238,19.923123 11.9210699,23.1111238 8,23.1111238 C4.07893011,23.1111238 0.888876215,19.923123 0.888876215,16.0043343 L0.888876215,7.99612193 C0.888876215,4.07733326 4.07893011,0.888876215 8,0.888876215 C11.9210699,0.888876215 15.1111238,4.0772192 15.1111238,7.99612193 L15.1111238,16.0043343 Z" id="Shape"></path>
                    <path d="M8,2.7 C7.74993827,2.7 7.54716981,2.89420613 7.54716981,3.13420613 L7.54716981,7.06579387 C7.54716981,7.30579387 7.74993827,7.5 8,7.5 C8.25006173,7.5 8.45283019,7.30579387 8.45283019,7.06579387 L8.45283019,3.13420613 C8.45271399,2.89420613 8.25006173,2.7 8,2.7 Z" id="Shape"></path>
                </g>
            </g>
        </g>
    </g>
</svg>